<svg width="113" height="21" viewBox="0 0 113 21" fill="none" xmlns="http://www.w3.org/2000/svg">
<path fill-rule="evenodd" clip-rule="evenodd" d="M98.1569 18.9011C98.177 13.4479 99.8842 9.54133 102.857 6.59883C104.624 4.85141 106.794 7.15118 104.765 8.4969C103.108 9.57146 98.6791 12.052 98.1569 18.9011ZM97.6548 18.9212C97.2229 14.2212 96.761 10.2744 98.5586 6.95033C99.6231 4.98197 101.531 6.48837 100.467 7.77383C99.0909 9.43086 97.243 13.0462 97.6548 18.9212ZM98.88 18.9111C99.6633 14.6631 101.531 11.8612 104.253 9.98321C105.87 8.86847 107.225 10.8167 105.468 11.7206C104.092 12.4437 100.246 13.6488 98.88 18.9111ZM102.626 4.89158C102.626 5.46402 102.164 5.91593 101.591 5.91593C101.029 5.91593 100.567 5.45397 100.567 4.89158C100.567 4.3292 101.029 3.86723 101.591 3.87728C102.174 3.86723 102.626 4.3292 102.626 4.89158ZM107.868 5.42384C107.868 5.99628 107.416 6.44819 106.854 6.44819C106.291 6.44819 105.829 5.98623 105.829 5.42384C105.829 4.86146 106.291 4.39949 106.854 4.39949C107.406 4.39949 107.868 4.86146 107.868 5.42384ZM108.933 9.60159C108.933 10.174 108.471 10.6259 107.908 10.6259C107.346 10.6259 106.884 10.164 106.884 9.60159C106.884 9.0392 107.346 8.57724 107.908 8.57724C108.471 8.57724 108.933 9.0392 108.933 9.60159ZM95.43 4.49992C98.2018 0.0309401 103.971 -1.33486 108.43 1.42687C112.899 4.19864 114.362 10.0535 111.6 14.5124C109.461 17.9671 105.436 19.5639 101.67 18.8308C104.944 19.2325 108.342 17.7663 110.2 14.7736C112.731 10.6862 111.477 5.30333 107.38 2.77258C103.293 0.241835 97.9008 1.49717 95.37 5.58453C94.3959 7.15118 94.0396 8.90865 94.13 10.636C93.889 8.58728 94.245 6.41807 95.43 4.49992ZM40.502 17.5955L41.1347 17.2139C41.5866 18.0274 42.0988 18.4492 42.6813 18.4492C42.9323 18.4492 43.1633 18.3889 43.3943 18.2784C43.6152 18.1579 43.7759 18.0073 43.8964 17.8064C44.0069 17.6156 44.0772 17.4047 44.0772 17.1838C44.0772 16.9327 43.9868 16.6917 43.8161 16.4507C43.5751 16.1193 43.1633 15.7176 42.5407 15.2556C41.918 14.7836 41.5364 14.4522 41.3858 14.2313C41.1146 13.8798 40.9941 13.4981 40.9941 13.0964C40.9941 12.7751 41.0745 12.4838 41.2251 12.2127C41.3757 11.9415 41.5967 11.7306 41.8779 11.58C42.1591 11.4294 42.4704 11.349 42.8018 11.349C43.1533 11.349 43.4746 11.4394 43.786 11.6101C44.0872 11.7808 44.4187 12.1022 44.7501 12.5642L44.1475 13.0261C43.8663 12.6546 43.6253 12.4135 43.4345 12.293C43.2336 12.1725 43.0227 12.1123 42.7817 12.1123C42.4905 12.1123 42.2394 12.2026 42.0586 12.3834C41.8578 12.5642 41.7674 12.7851 41.7674 13.0563L41.8678 13.5283L42.2394 14.0304C42.3398 14.1208 42.6612 14.3718 43.2035 14.7736C43.8462 15.2456 44.2881 15.6674 44.5291 16.0389C44.7802 16.4105 44.8907 16.7821 44.8907 17.1537C44.8907 17.696 44.6898 18.1579 44.2781 18.5596C43.8663 18.9613 43.3642 19.1522 42.7817 19.1522C42.3298 19.1522 41.918 19.0316 41.5465 18.7906C41.1447 18.5697 40.8133 18.1579 40.502 17.5955ZM46.2263 13.4781H46.9293V16.049C46.9293 16.6817 46.9594 17.1135 47.0297 17.3445C47.1302 17.6759 47.331 17.947 47.6122 18.1479C47.8934 18.3387 48.2449 18.4391 48.6366 18.4391C49.0383 18.4391 49.3697 18.3387 49.6408 18.1579C49.922 17.9671 50.1128 17.7161 50.2133 17.4047C50.2836 17.1938 50.3137 16.7419 50.3137 16.049V13.4781H51.0368V16.1795C51.0368 16.9428 50.9564 17.5152 50.7757 17.8968C50.5949 18.2784 50.3338 18.5797 49.9823 18.8007C49.6207 19.0216 49.1688 19.122 48.6366 19.122C48.1043 19.122 47.6524 19.0116 47.2909 18.8007C46.9293 18.5797 46.6582 18.2784 46.4874 17.8868C46.3067 17.4951 46.2263 16.9026 46.2263 16.1293V13.4781ZM53.3466 13.4781V14.4924C53.6278 14.1107 53.9491 13.8195 54.3107 13.6287C54.6722 13.4379 55.0739 13.3475 55.5258 13.3475C56.3092 13.3475 56.972 13.6287 57.5344 14.1911C58.0967 14.7535 58.3679 15.4263 58.3679 16.2197C58.3679 17.0332 58.0967 17.7161 57.5344 18.2784C56.982 18.8408 56.3192 19.122 55.5359 19.122C55.094 19.122 54.7023 19.0316 54.3308 18.8509C53.9692 18.6701 53.6378 18.399 53.3365 18.0374V21H52.6335V13.4781H53.3466ZM55.4756 14.0204C54.863 14.0204 54.3408 14.2313 53.929 14.6631C53.5073 15.0949 53.3064 15.6272 53.3064 16.2599C53.3064 16.6817 53.4068 17.0532 53.5876 17.3846C53.7684 17.7161 54.0395 17.9872 54.391 18.178C54.7325 18.3789 55.104 18.4793 55.4857 18.4793C55.8673 18.4793 56.2188 18.3789 56.5602 18.178C56.8916 17.9772 57.1628 17.706 57.3636 17.3545C57.5645 17.003 57.6649 16.6314 57.6649 16.2498C57.6649 15.8582 57.5645 15.4866 57.3636 15.1351C57.1628 14.7836 56.9017 14.5124 56.5703 14.3216C56.2288 14.1107 55.8673 14.0204 55.4756 14.0204ZM64.3332 17.1537L64.9358 17.465C64.7349 17.8466 64.504 18.168 64.2529 18.399C64.0018 18.64 63.7106 18.8207 63.3892 18.9413C63.0679 19.0718 62.7063 19.1321 62.2946 19.1321C61.4008 19.1321 60.6978 18.8408 60.1856 18.2483C59.6835 17.6658 59.4224 16.993 59.4224 16.2599C59.4224 15.5569 59.6333 14.9342 60.0651 14.3919C60.6074 13.699 61.3405 13.3475 62.2544 13.3475C63.1884 13.3475 63.9416 13.699 64.504 14.412C64.9057 14.9142 65.1065 15.5368 65.1166 16.29H60.1555C60.1756 16.9227 60.3764 17.4549 60.7781 17.8667C61.1698 18.2784 61.6619 18.4793 62.2343 18.4793C62.5155 18.4793 62.7867 18.4291 63.0578 18.3287C63.329 18.2282 63.5499 18.0977 63.7407 17.937C63.9215 17.7663 64.1223 17.5052 64.3332 17.1537ZM64.3332 15.6674C64.2429 15.2857 64.1023 14.9845 63.9215 14.7635C63.7307 14.5325 63.4997 14.3518 63.1984 14.2212C62.8971 14.0806 62.5858 14.0103 62.2645 14.0103C61.7221 14.0103 61.2501 14.181 60.8685 14.5325C60.5773 14.7836 60.3664 15.1652 60.2157 15.6674H64.3332ZM66.171 13.4781H66.8941V14.2815C67.105 13.9601 67.336 13.7291 67.577 13.5684C67.818 13.4178 68.0591 13.3375 68.3202 13.3375C68.511 13.3375 68.7319 13.3977 68.9529 13.5283L68.5813 14.1208L68.2097 14.0304C67.9787 14.0304 67.7477 14.1208 67.5268 14.3216C67.3059 14.5124 67.1452 14.8238 67.0247 15.2255C66.9443 15.5468 66.9042 16.1795 66.9042 17.1336V18.9915H66.1811V13.4781H66.171ZM72.3272 14.0806L71.8652 14.5526C71.4836 14.1911 71.112 14.0003 70.7505 14.0003C70.5195 14.0003 70.3187 14.0706 70.158 14.2212C70.158 14.2212 69.9069 14.412 69.9069 14.7535C69.9069 15.0949 70.1078 15.2656 70.1078 15.2656C70.2484 15.4364 70.5296 15.6272 70.9614 15.8481C71.4936 16.1193 71.8451 16.3804 72.036 16.6415C72.2268 16.8926 72.3171 17.1838 72.3171 17.5052C72.3171 17.9571 72.1565 18.3387 71.8351 18.6601C71.5238 18.9714 71.1221 19.1321 70.6501 19.1321C70.3287 19.1321 70.0274 19.0618 69.7362 18.9312C69.4449 18.7906 69.214 18.5998 69.0232 18.3588L69.465 17.8466C69.8266 18.2584 70.2182 18.4592 70.6199 18.4592C70.9011 18.4592 71.1522 18.3688 71.343 18.1881C71.5439 18.0073 71.6443 17.7964 71.6443 17.5453C71.6443 17.5453 71.6443 17.7394 71.6443 17.4659C71.6443 17.1925 71.4434 17.003 71.4434 17.003C71.3129 16.8423 71.0116 16.6515 70.5496 16.4105C70.0575 16.1494 69.7161 15.8983 69.5353 15.6473C69.3546 15.3962 69.2642 15.115 69.2642 14.7936C69.2642 14.3819 69.4048 14.0304 69.686 13.7492C69.9772 13.468 70.3387 13.3375 70.7706 13.3375C71.2928 13.3375 71.815 13.5885 72.3272 14.0806ZM79.0759 18.9814H78.3829V18.0274C78.0816 18.3889 77.7502 18.6601 77.3887 18.8408C77.0171 19.0216 76.6154 19.112 76.1735 19.112C75.3902 19.112 74.7274 18.8308 74.175 18.2684C73.6227 17.706 73.3515 17.0131 73.3515 16.2097C73.3515 15.4163 73.6327 14.7434 74.1851 14.181C74.7374 13.6186 75.4103 13.3375 76.1936 13.3375C76.6455 13.3375 77.0573 13.4278 77.4188 13.6186C77.7904 13.8095 78.1118 14.1007 78.3829 14.4823V13.468H79.0759V18.9814ZM76.2438 14.0204C75.8522 14.0204 75.4906 14.1208 75.1592 14.3116C74.8278 14.5024 74.5567 14.7736 74.3659 15.125C74.165 15.4765 74.0646 15.8381 74.0646 16.2398C74.0646 16.6214 74.165 16.993 74.3659 17.3445C74.5667 17.696 74.8278 17.9671 75.1693 18.168C75.5007 18.3588 75.8622 18.4692 76.2438 18.4692C76.6254 18.4692 76.997 18.3688 77.3485 18.168C77.69 17.9772 77.9611 17.7161 78.1419 17.3746C78.3327 17.0432 78.4231 16.6716 78.4231 16.2498C78.4231 15.6171 78.2122 15.0849 77.7904 14.653C77.3686 14.2313 76.8564 14.0204 76.2438 14.0204ZM80.5622 11.349H81.2752V18.9915H80.5622V11.349ZM83.3641 13.4781V16.049C83.3641 16.6817 83.3942 17.1135 83.4645 17.3445C83.5649 17.6759 83.7658 17.947 84.047 18.1479C84.3382 18.3387 84.6696 18.4391 85.0713 18.4391C85.463 18.4391 85.8044 18.3387 86.0756 18.1579C86.3467 17.9671 86.5375 17.7161 86.648 17.4047C86.7183 17.1938 86.7484 16.7419 86.7484 16.049V13.4781H87.4715V16.1795C87.4715 16.9428 87.3912 17.5152 87.2104 17.8968C87.0296 18.2784 86.7685 18.5797 86.407 18.8007C86.0455 19.0216 85.6036 19.122 85.0613 19.122C84.519 19.122 84.0771 19.0116 83.7156 18.8007C83.3641 18.5797 83.0929 18.2784 82.9121 17.8868C82.7314 17.4951 82.641 16.9026 82.641 16.1293V13.4781H83.3641ZM94.5415 11.349V18.9915H93.8386V18.0374C93.5473 18.399 93.2059 18.6701 92.8443 18.8509C92.4828 19.0316 92.071 19.122 91.6292 19.122C90.8559 19.122 90.1931 18.8408 89.6307 18.2784C89.0783 17.7161 88.7971 17.0231 88.7971 16.2197C88.7971 15.4263 89.0783 14.7535 89.6307 14.1911C90.1931 13.6287 90.8559 13.3475 91.6392 13.3475C92.0911 13.3475 92.5029 13.4379 92.8644 13.6287C93.226 13.8295 93.5574 14.1107 93.8285 14.4924V11.349H94.5415ZM91.7196 14.0204C91.3279 14.0204 90.9563 14.1208 90.6249 14.3116C90.2935 14.5024 90.0223 14.7736 89.8315 15.125C89.6407 15.4765 89.5403 15.8381 89.5403 16.2398C89.5403 16.6214 89.6407 16.993 89.8416 17.3445C90.0424 17.696 90.3035 17.9671 90.645 18.168C90.9764 18.3588 91.3379 18.4692 91.7196 18.4692C92.1012 18.4692 92.4727 18.3688 92.8242 18.168C93.1657 17.9772 93.4368 17.7161 93.6277 17.3746C93.8084 17.0432 93.9089 16.6716 93.9089 16.2498C93.9089 15.6171 93.708 15.0849 93.2762 14.653C92.8443 14.2313 92.3322 14.0204 91.7196 14.0204ZM0 13.3073H1.14486L2.62113 17.475L4.12753 13.3073H5.27239L3.15339 19.1823H2.07883L0 13.3073ZM7.20058 13.3073V19.1823H6.08585V13.3073H7.20058ZM13.8789 14.2614L13.0856 15.0447C12.5834 14.5124 12.001 14.2513 11.3482 14.2513C10.7657 14.2513 10.2837 14.4421 9.89201 14.8238C9.50035 15.2054 9.2995 15.6774 9.2995 16.2197C9.2995 16.7921 9.50035 17.2641 9.9121 17.6658C10.3238 18.0575 10.8159 18.2584 11.4085 18.2584C11.8001 18.2584 12.1215 18.178 12.3926 18.0173C12.6537 17.8566 12.8747 17.5955 13.0253 17.2541H11.3281V16.1996H14.2807C14.2907 16.9629 14.1501 17.4449 13.889 17.9069C13.6279 18.3588 13.2764 18.7203 12.8546 18.9613C12.4328 19.2024 11.9307 19.3229 11.3683 19.3229C10.7657 19.3229 10.2134 19.1923 9.74137 18.9312C9.26937 18.6701 8.88775 18.2885 8.60655 17.8064C8.32536 17.3143 8.19481 16.7821 8.19481 16.2197C8.19481 15.4364 8.45591 14.7635 8.96809 14.1911C9.58069 13.5082 10.3741 13.1667 11.3482 13.1667C11.8604 13.1667 12.3324 13.2571 12.7843 13.4479C13.1458 13.5986 13.5174 13.8798 13.8789 14.2614ZM16.3595 13.3073V19.1823H15.2447V13.3073H16.3595ZM18.7295 13.3073V18.1178H20.3565V19.1823H17.6048V13.3073H18.7295ZM22.9977 13.3073H24.1325L26.3921 19.1823H25.2271L24.7652 17.9671H22.365L21.8829 19.1823H20.728L22.9977 13.3073ZM23.5701 14.8539L22.7868 16.8725H24.3534L23.5701 14.8539ZM28.5713 13.3073C29.425 13.3073 30.0677 13.4078 30.4795 13.6186C30.8912 13.8295 31.2327 14.181 31.4938 14.653C31.7649 15.125 31.8955 15.6874 31.8955 16.3201C31.8955 16.772 31.8252 17.1838 31.6745 17.5654C31.5339 17.947 31.323 18.2584 31.0519 18.5094C30.7908 18.7605 30.4995 18.9312 30.1983 19.0316C29.897 19.1321 29.3547 19.1823 28.5914 19.1823H27.2457V13.3073H28.5713ZM28.3705 14.3819V18.0876H28.8927C29.3948 18.0876 29.7765 18.0274 29.9974 17.9169C30.2284 17.7964 30.4192 17.5955 30.5698 17.3244C30.7205 17.0432 30.7908 16.7017 30.7908 16.3C30.7908 15.6774 30.62 15.1953 30.2686 14.8539C29.9572 14.5426 29.4551 14.3919 28.7622 14.3919H28.3705V14.3819ZM35.7518 13.1567C36.5854 13.1567 37.2884 13.458 37.8909 14.0605C38.4834 14.6631 38.7847 15.3962 38.7847 16.2599C38.7847 17.1135 38.4935 17.8366 37.911 18.4291C37.3285 19.0316 36.6055 19.3229 35.7619 19.3229C34.8781 19.3229 34.145 19.0216 33.5625 18.409C32.9801 17.7964 32.6888 17.0733 32.6888 16.2398C32.6888 15.6774 32.8194 15.1552 33.0905 14.6832C33.3617 14.2112 33.7333 13.8396 34.2053 13.5684C34.6974 13.2872 35.2095 13.1567 35.7518 13.1567ZM35.7418 14.2513C35.1995 14.2513 34.7375 14.4421 34.376 14.8238C34.0044 15.2054 33.8237 15.6774 33.8237 16.2599C33.8237 16.9126 34.0546 17.4248 34.5166 17.7964C34.8781 18.0876 35.2999 18.2383 35.7619 18.2383C36.2941 18.2383 36.7461 18.0475 37.1176 17.6658C37.4892 17.2842 37.68 16.8122 37.68 16.2498C37.68 15.6874 37.4892 15.2154 37.1176 14.8338C36.736 14.4421 36.2741 14.2513 35.7418 14.2513Z" fill="black"/>
</svg>
