<svg width="768" height="233" viewBox="0 0 768 233" fill="none" xmlns="http://www.w3.org/2000/svg">
<path d="M100.407 213L52.9199 163L0.406837 213H100.407Z" fill="#F6D047"/>
<path d="M768 138L718 184.971L767.951 233L768 138Z" fill="#F6D047"/>
<path d="M768 213H0V233H768V213Z" fill="#ACAFB1"/>
<path d="M148.379 144.303C144.982 136.786 146.455 126.463 147.888 116.471C148.379 113.044 148.89 109.797 149.091 106.77C149.091 106.69 151.155 98.4615 152.849 86.5251C154.412 75.5007 155.986 58.9742 154.623 42.8085H154.863C156.226 59.0043 154.653 75.5509 153.09 86.5853C151.386 98.2911 149.381 106.469 149.381 106.8C149.131 109.807 148.67 113.074 148.179 116.501C146.756 126.463 145.272 136.746 148.65 144.213L148.379 144.303Z" fill="#264553"/>
<path d="M154.874 42.578C154.411 43.9397 154.032 45.3288 153.741 46.7372C155.094 46.1158 155.655 46.9176 157.058 46.3263C156.759 44.8719 155.991 43.5556 154.874 42.578Z" fill="#296EB6"/>
<path d="M170.027 19.547C170.709 30.8721 161.598 42.7082 155.104 43.069C148.96 43.4198 138.147 32.8364 137.465 21.5114C136.784 10.1863 143.478 0.56506 152.498 0.0238641C161.518 -0.517332 169.335 8.21196 170.027 19.547Z" fill="#296EB6"/>
<g style="mix-blend-mode:screen">
<path d="M149.291 3.46154C144.811 2.89028 140.973 10.7777 144.28 12.3412C147.587 13.9046 155.064 4.19316 149.291 3.46154Z" fill="#161616"/>
</g>
<path d="M170.027 19.5471C169.79 14.4585 167.909 9.58421 164.665 5.65637C171.039 18.134 163.964 34.7206 157.058 37.7974C155.161 38.7693 153.046 39.2407 150.915 39.167C148.784 39.0934 146.708 38.4771 144.881 37.3765C148.299 40.9845 152.218 43.2294 155.104 43.0691C161.598 42.7083 170.709 30.8721 170.027 19.5471Z" fill="#2B5CA2"/>
<path d="M155.605 43.4198L154.553 43.48C154.525 43.4813 154.498 43.4772 154.471 43.4679C154.445 43.4585 154.421 43.4441 154.401 43.4255C154.381 43.4069 154.364 43.3844 154.352 43.3593C154.34 43.3343 154.334 43.3072 154.332 43.2795C154.331 43.2519 154.335 43.2242 154.344 43.1982C154.354 43.1721 154.368 43.1482 154.387 43.1277C154.405 43.1072 154.428 43.0906 154.453 43.0788C154.478 43.067 154.505 43.0603 154.533 43.059L155.585 42.9989C155.613 42.9976 155.64 43.0017 155.666 43.011C155.693 43.0204 155.716 43.0348 155.737 43.0534C155.757 43.072 155.774 43.0945 155.786 43.1195C155.798 43.1446 155.804 43.1717 155.806 43.1993C155.807 43.227 155.803 43.2546 155.793 43.2807C155.784 43.3067 155.77 43.3307 155.751 43.3512C155.732 43.3717 155.71 43.3883 155.685 43.4C155.66 43.4118 155.633 43.4186 155.605 43.4198Z" fill="#264553"/>
<path d="M235.442 38.1584C234.78 37.699 233.981 37.4811 233.178 37.5413C232.375 37.6015 231.617 37.9362 231.032 38.4891C228.737 40.4234 229.639 40.4935 228.516 41.4256C227.394 42.3576 225.51 41.5358 224.918 43.43C224.327 45.3242 225.119 45.8654 225.119 45.8654C224.744 46.2599 224.471 46.7402 224.325 47.2642C224.178 47.7882 224.161 48.3402 224.277 48.872C224.539 49.8532 225.054 50.7487 225.77 51.4695C226.485 52.1903 227.377 52.7114 228.356 52.9811C229.773 54.3804 231.619 55.2628 233.598 55.4867C236.604 55.637 235.602 55.3363 236.745 55.6871C237.887 56.0379 241.395 55.4466 241.595 53.0413C241.595 53.0413 244.141 51.4177 242.898 49.0324C241.655 46.6471 241.896 44.7329 241.605 42.0169C241.315 39.3009 236.875 37.9379 235.442 38.1584Z" fill="#264553"/>
<path d="M214.525 46.0356C212.347 44.3493 210.3 42.4999 208.402 40.5034C208.241 39.7386 207.853 39.0401 207.289 38.4989C206.618 37.7773 206.067 36.0936 205.656 36.5947C205.245 37.0958 206.357 38.4087 205.876 38.4288C205.395 38.4488 202.87 35.8731 202.539 36.3241C202.208 36.7751 204.684 39.0602 204.253 39.0902C203.822 39.1203 201.767 36.7751 201.246 37.4165C200.725 38.058 203.922 39.9421 203.641 40.2829C203.361 40.6236 201.376 39.3809 200.965 39.892C200.555 40.4031 203.752 41.4655 203.501 41.4755C203.25 41.4855 201.416 41.4755 201.416 41.8664C201.416 42.2572 206.067 42.7082 206.658 43.3697C207.941 45.2539 210.226 48.6915 212.471 50.1447C215.207 51.9387 221.491 55.717 221.491 55.717L224.407 51.638C224.407 51.638 216.219 47.0879 214.525 46.0356Z" fill="#F4A392"/>
<path d="M205.866 39.2908C205.765 39.5286 205.71 39.7839 205.706 40.0424C205.698 40.322 205.753 40.5997 205.868 40.8549C205.982 41.11 206.153 41.3359 206.367 41.5157C205.924 40.8644 205.745 40.0691 205.866 39.2908Z" fill="#F18B80"/>
<path d="M214.525 84.3603C214.986 86.0641 215.808 88.76 215.808 88.76C215.808 89.5117 215.638 92.6186 215.467 96.427L221 94.0417C221 94.0417 220.729 88.0284 221 87.6275C221.931 86.9331 222.703 86.0482 223.265 85.0318C223.585 84.41 223.766 83.7261 223.796 83.0274C223.796 83.0274 223.856 81.4639 223.505 81.3236C223.338 81.2748 223.16 81.2861 223 81.3558C222.841 81.4254 222.711 81.5488 222.633 81.7044C222.513 81.975 222.563 82.6064 222.443 82.877C222.118 83.2326 221.67 83.4512 221.19 83.4884C220.849 83.4884 221.11 78.8782 221.11 78.8782C221.11 78.8782 221.26 77.5753 221.35 77.1443C221.441 76.7134 221.721 75.7112 221.721 75.7112C221.721 75.7112 222.072 74.1577 221.591 74.0475C221.3 73.9874 220.589 75.2602 220.158 76.6032C219.918 77.6238 219.614 78.6281 219.246 79.6098C218.895 79.6098 219.015 77.0441 219.015 77.0441C219.174 76.4882 219.275 75.9172 219.316 75.3404C219.637 74.6689 219.827 73.4261 219.236 73.3359C218.908 73.8352 218.623 74.3616 218.384 74.9094C218.384 74.9094 218.103 76.0219 217.943 76.543C217.652 77.4651 217.642 78.9083 217.492 79.5497C217.342 80.1911 217.241 79.8604 217.181 79.8904C217.175 79.3181 217.202 78.7459 217.261 78.1766C217.245 77.6208 217.271 77.0646 217.342 76.513C217.45 75.9308 217.514 75.341 217.532 74.749C217.602 73.4462 216.78 73.6065 216.53 74.749C216.43 75.2 216.329 75.7513 216.229 76.2023C215.848 78.2067 215.908 80.0508 215.698 80.0708C215.487 80.0909 215.518 76.6733 215.518 76.6733C215.518 76.6733 215.047 74.7891 214.676 76.553C214.414 77.798 214.303 79.0699 214.345 80.3414C214.225 81.6831 214.285 83.0348 214.525 84.3603Z" fill="#E5A196"/>
<path d="M215.036 91.8468C215.036 91.8468 221.3 90.1731 221.371 90.6842C222.984 101.709 223.686 105.717 223.916 105.828C224.688 106.199 234.57 96.6875 236.354 96.006C237.228 95.7486 238.141 95.6502 239.05 95.7153H241.705V97.7198C239.34 99.9547 237.025 143.2 236.554 143.19C236.083 143.18 226.221 143.13 226.682 142.308C226.682 142.308 229.057 128.989 230.922 120.209C231.553 117.263 233.297 111.109 233.297 111.109C230.902 112.392 221.521 117.313 220.007 116.732C215.307 114.958 215.036 91.8468 215.036 91.8468Z" fill="#1D4369"/>
<path d="M228.556 211.301L228.867 216.923C229.109 217.952 229.3 218.993 229.438 220.04C229.438 222.476 218.805 217.976 221.19 216.903C221.401 216.803 222.533 216.062 222.603 215.24C222.713 213.957 222.994 211.381 222.994 211.381L228.556 211.301Z" fill="#F4A392"/>
<path d="M221.18 216.873C222.419 217.251 223.677 217.562 224.948 217.805C226.231 217.996 227.955 216.432 228.817 216.853C229.679 217.274 230.17 221.554 229.709 221.864C229.248 222.175 214.836 222.265 212.671 221.864C211.088 221.634 216.069 218.607 221.18 216.873Z" fill="#264553"/>
<path d="M251.928 211.842C251.928 211.842 252.249 217.455 252.249 217.465C252.359 218.176 252.81 219.93 252.81 220.581C252.81 223.017 242.187 218.517 244.562 217.435C244.782 217.344 246.245 216.051 246.316 215.23C246.426 213.947 246.316 211.922 246.316 211.922L251.928 211.842Z" fill="#F4A392"/>
<path d="M244.592 217.414C245.835 217.788 247.096 218.099 248.37 218.347C249.643 218.537 251.377 216.964 252.229 217.344C253.081 217.725 253.231 222.005 253.231 222.005C253.231 222.005 239.09 222.596 235.612 222.005C234.449 221.804 239.491 219.148 244.592 217.414Z" fill="#264553"/>
<path d="M235.091 130.853L230.591 132.858L221.14 178.819L221.531 213.285L229.108 213.466C229.108 213.466 232.625 183.319 232.625 180.984C232.625 178.649 248.951 140.104 248.951 140.104L235.091 130.853Z" fill="#C0C0C0"/>
<path d="M238.579 133.369C238.579 133.369 241.886 168.787 241.886 174.76C241.886 180.733 244.592 214.147 244.592 214.147H252.189L253.552 188.982C253.682 186.636 253.381 181.896 253.552 179.471C254.734 161.992 257.069 145.546 255.957 139.021C255.777 138.019 255.436 135.233 254.774 134.541C249.763 129.26 238.579 133.369 238.579 133.369Z" fill="#E7E6E6"/>
<path d="M233.567 118.145C234.789 112.737 236.339 107.409 238.208 102.19C239.057 99.9 240.206 97.7329 241.625 95.7456L248.951 95.9561L249.172 96.0162C249.773 96.1064 249.793 117.454 249.463 125.431C249.09 131.584 248.39 137.713 247.368 143.792L245.283 143.601C245.283 144.674 245.223 145.385 245.223 145.385C234.62 147.249 228.697 142.028 228.697 142.028C228.697 142.028 232.184 125.01 233.567 118.145Z" fill="#296EB6"/>
<path d="M248.601 89.5018L248.982 95.9561C248.982 95.9561 244.462 104.244 241.966 103.172C239.901 102.27 241.545 96.0163 241.545 96.0163C241.545 96.0163 241.866 94.5831 242.307 92.9294C242.643 91.8587 242.818 90.7442 242.828 89.6221C242.728 87.4172 248.601 89.5018 248.601 89.5018Z" fill="#E5A195"/>
<path d="M242.838 89.6221C242.728 87.4172 248.581 89.5018 248.581 89.5018V90.1332C248.411 90.4154 248.198 90.669 247.949 90.8849C246.376 92.1615 244.378 92.7953 242.357 92.6588C242.653 91.6728 242.815 90.6514 242.838 89.6221Z" fill="#EE7459"/>
<path d="M242.587 74.9095C242.587 74.9095 240.262 78.6177 240.162 81.6845C240.081 83.4203 240.287 85.1576 240.773 86.8259L248.28 77.355L242.587 74.9095Z" fill="#264553"/>
<path d="M239.3 81.0731C239.22 82.1555 239.661 83.0775 240.302 83.0775C240.944 83.0775 241.505 82.2958 241.585 81.2134C241.665 80.131 241.224 79.209 240.583 79.209C239.942 79.209 239.38 80.0007 239.3 81.0731Z" fill="#DF8B83"/>
<path d="M250.776 78.7781C250.946 78.7781 251.166 87.6477 248.641 89.8024C246.115 91.9572 241.625 92.2779 240.242 90.1933C238.729 87.8982 239.861 78.4674 243.66 76.3728C247.458 74.2781 250.776 78.7781 250.776 78.7781Z" fill="#E5A195"/>
<path d="M251.287 73.2358C253.257 74.8015 254.782 76.858 255.706 79.1989C257.45 82.9372 254.293 86.936 251.607 88.5697C248.921 90.2033 248.731 92.0874 248.731 92.0874L248.591 90.9249C248.524 90.5738 248.524 90.2135 248.591 89.8625C248.671 89.5152 248.792 89.1788 248.951 88.8603C249.172 88.3492 249.874 86.6354 250.154 86.1744C250.896 84.9717 251.036 84.7111 250.625 83.5886C250.314 82.7368 250.625 80.8125 250.114 79.3994L246.416 78.6978C245.106 78.4126 243.894 77.7908 242.898 76.8938C239.471 73.1756 245.955 68.7158 251.287 73.2358Z" fill="#264553"/>
<path d="M249.783 84.631C249.362 85.6332 249.483 86.6354 250.054 86.876C250.625 87.1165 251.447 86.5252 251.868 85.533C252.289 84.5408 252.179 83.5286 251.607 83.288C251.036 83.0475 250.214 83.6388 249.783 84.631Z" fill="#E5A195"/>
<path d="M259.795 57.9219C260.467 59.5555 261.449 62.1914 261.449 62.1914C262.351 63.5644 264.576 66.6813 265.909 68.7458L260.327 69.5777C260.327 69.5777 256.949 64.4864 256.528 64.3261C256.107 64.1657 256.117 64.7169 253.291 63.7448C252.663 63.4497 252.105 63.0224 251.657 62.492C251.657 62.492 251.547 62.3216 251.748 62.0009C251.948 61.6802 251.517 60.5978 251.748 60.7381C251.978 60.8785 252.349 61.4096 252.61 61.5499C252.87 61.6902 252.529 59.786 252.8 59.5455C253.071 59.305 252.018 57.3908 254.734 55.2661C254.955 55.0957 255.837 53.6224 257.591 55.0957C258.562 55.8262 259.323 56.8014 259.795 57.9219Z" fill="#E5A196"/>
<path d="M248.961 95.956C248.961 95.956 256.208 95.4248 258.062 94.5329C259.184 93.9917 266.37 87.8681 266.37 87.8681L258.202 68.0042L264.857 65.8795C264.857 65.8795 278.206 87.5975 277.094 90.063C275.981 92.5284 262.562 103.312 259.956 107.872C258.452 110.498 259.876 146.177 259.385 146.508C255.907 148.432 241.254 150.146 241.485 149.023C247.779 118.025 248.961 95.956 248.961 95.956Z" fill="#1D4369"/>
<path d="M226.742 51.8685L220.168 48.7917L218.063 55.1458L224.457 58.6736L226.742 51.8685Z" fill="#E7B464"/>
<path d="M250.866 61.6202C250.988 60.8654 251.337 60.166 251.868 59.6157C252.479 58.8741 253.231 57.8618 253.622 58.3128C254.013 58.7638 252.74 59.4654 253.191 59.4654C253.642 59.4654 256.348 57.4609 256.699 57.8518C257.049 58.2427 254.634 59.8562 254.855 59.9364C255.075 60.0166 256.999 57.932 257.38 58.403C257.761 58.8741 255.115 60.8184 255.175 60.9487C255.235 61.079 257.18 59.6759 257.631 60.1469C258.082 60.6179 255.175 61.9308 255.416 61.9308C255.656 61.9308 257.19 61.7103 257.21 62.0511C257.23 62.3919 253.862 63.2638 253.321 63.9453C252.78 64.6268 245.444 71.0109 243.77 70.6802C242.096 70.3494 235.051 64.3762 234.84 62.6123C234.63 60.8484 235.642 58.7839 236.785 58.7739C237.927 58.7638 244.472 65.0578 244.802 65.0477C245.133 65.0377 250.866 61.6202 250.866 61.6202Z" fill="#DF8B83"/>
<path d="M215.287 92.4884C215.978 93.2716 216.782 93.9472 217.672 94.4928C216.167 97.0949 214.493 99.5958 212.661 101.979C212.474 101.805 212.329 101.592 212.235 101.354C212.142 101.117 212.102 100.861 212.12 100.606C212.28 99.8847 212.972 96.5975 212.18 95.2645C211.97 94.9238 209.685 91.1253 207.951 87.6978C209.164 86.9662 212.04 87.6276 213.132 86.6956C213.997 88.5688 214.717 90.5053 215.287 92.4884Z" fill="#F4A392"/>
<path d="M216.109 93.3503C216.109 93.3503 213.243 97.71 212.671 98.2011C212.1 98.6921 211.358 103.423 212.08 103.493C212.802 103.563 218.855 96.4772 218.935 95.5853C219.015 94.6933 216.109 93.3503 216.109 93.3503Z" fill="#264553"/>
<path d="M208.131 99.2933C208.369 100.305 208.757 101.274 209.284 102.17C206.613 103.566 203.855 104.788 201.026 105.828C200.943 105.593 200.918 105.343 200.953 105.097C200.988 104.851 201.081 104.617 201.226 104.415C201.727 103.893 204.493 100.556 204.433 99.0728C204.381 97.3916 204.203 95.7166 203.902 94.0618C205.365 94.0257 206.824 93.8985 208.272 93.6809C208.322 95.6954 208.121 98.9626 208.131 99.2933Z" fill="#F4A392"/>
<path d="M217.302 71.8125C217.302 71.8125 205.435 77.936 203.972 79.3792C202.88 80.4516 202.92 95.0338 202.92 95.0338C202.92 95.0338 206.929 95.9559 209.093 94.8835C209.093 94.8835 209.905 84.9716 210.466 84.691C211.028 84.4103 223.275 81.6342 223.275 81.6342L223.696 75.7512L217.302 71.8125Z" fill="#265383"/>
<path d="M228.947 69.0865C228.947 69.0865 223.846 72.7346 221.651 73.2157C219.967 73.5765 206.337 75.7713 205.816 79.5998C205.515 81.7746 208.672 91.025 208.672 91.025L214.586 88.8302C214.586 88.8302 212.922 84.4706 213.222 83.9895C213.523 83.5084 224.548 85.3024 227.845 83.7089C231.142 82.1153 231.753 74.6889 231.753 74.6889L228.947 69.0865Z" fill="#3166AA"/>
<path d="M230.621 53.883C229.281 53.3109 227.984 52.641 226.742 51.8785C225.74 51.1469 218.364 69.2069 214.586 72.7848C219.887 76.974 230.671 81.7446 230.671 81.7446C231.964 79.1766 232.828 76.4139 233.227 73.5665C233.469 70.6019 233.939 67.6601 234.63 64.767L238.639 68.3149L242.648 62.0911C242.648 62.0911 237.516 56.9898 235.452 55.8473C234.85 55.5166 230.621 53.883 230.621 53.883Z" fill="#FDCD7C"/>
<path d="M208.412 100.296C208.412 100.296 203.401 102.661 202.539 102.781C201.867 102.881 199.202 106.71 199.863 107.171C200.524 107.632 209.474 104.655 210.045 103.873C210.617 103.092 208.412 100.296 208.412 100.296Z" fill="#264553"/>
<path d="M229.829 50.4955C229.829 50.4955 228.897 53.8529 228.486 54.0634C228.186 54.1728 227.938 54.3913 227.791 54.6754C227.644 54.9595 227.61 55.2884 227.694 55.5968C227.905 56.5288 230.05 56.599 231.122 56.4787C231.791 56.3594 232.424 56.0924 232.976 55.697L234.149 50.295L229.829 50.4955Z" fill="#F4A392"/>
<path d="M230.731 52.2895C231.932 52.2866 233.091 51.8446 233.988 51.0467L234.149 50.295L229.829 50.4955C229.829 50.4955 229.609 51.3173 229.328 52.1692C229.787 52.281 230.26 52.3216 230.731 52.2895Z" fill="#EE7459"/>
<path d="M236.013 46.7572C236.013 46.7572 236.714 44.8329 237.797 45.5846C238.879 46.3363 237.035 48.9921 236.073 48.5912C235.111 48.1904 236.013 46.7572 236.013 46.7572Z" fill="#F4A392"/>
<path d="M234.229 39.1605C233.679 38.9906 233.097 38.9502 232.528 39.0423C231.96 39.1344 231.42 39.3567 230.952 39.6917C229.539 40.8542 227.193 44.7027 227.885 48.0702C228.576 51.4376 230.811 51.3575 231.733 51.3274C232.637 51.3193 233.523 51.0757 234.303 50.6204C235.083 50.1652 235.732 49.5141 236.183 48.7317C237.857 46.3464 239.14 40.1627 234.229 39.1605Z" fill="#F4A392"/>
<path d="M231.874 48.1804L229.509 47.2985C229.437 47.5747 229.475 47.868 229.615 48.1166C229.756 48.3652 229.987 48.5497 230.26 48.6314C231.563 49.1826 231.874 48.1804 231.874 48.1804Z" fill="white"/>
<path d="M256.739 64.0655C255.316 64.6167 252.99 63.7448 251.958 63.1836C251.858 62.7827 253.261 62.472 254.193 62.6524C255.125 62.8328 256.368 61.7304 257.961 62.5522C258.903 63.5143 256.739 64.0655 256.739 64.0655Z" fill="#E5A196"/>
<path d="M255.406 57.3908C257.661 59.0445 256.047 59.0344 254.003 58.5333C255.145 59.0645 255.095 59.4153 254.804 59.6558C253.773 59.8614 252.703 59.6794 251.798 59.1447C251.467 58.6937 252.65 57.1403 253.121 56.7995C253.391 56.559 253.712 56.2884 254.013 55.9677C254.419 55.4844 254.883 55.0535 255.396 54.6848C256.017 54.2539 256.548 54.6347 257.4 55.1358C258.402 55.9376 258.062 56.6291 256.518 56.138C256.669 56.2483 257.851 56.9097 257.611 57.5411C257.38 57.9621 256.729 57.7817 255.406 57.3908Z" fill="#E5A195"/>
<path d="M224.548 81.2535C223.756 81.5241 223.084 83.2579 222.994 83.1377C221.015 83.9993 219.196 85.1885 217.612 86.6554C217.532 86.8358 217.412 87.3369 217.291 87.5474L220.298 88.2489C221.641 87.2371 222.812 86.0155 223.766 84.631C223.896 84.3403 224.267 83.6287 224.467 83.1777C224.698 82.6665 224.963 82.171 225.259 81.6945C225.46 81.4539 225.219 81.023 224.548 81.2535Z" fill="#F4A392"/>
<path d="M112.149 79.5197C112.4 84.1399 119.024 85.533 123.554 84.3103C126.501 83.5085 127.754 82.8069 127.293 79.5898C126.561 74.3883 123.584 71.973 120.277 71.5721C116.108 71.091 111.939 75.7012 112.149 79.5197Z" fill="#264553"/>
<path d="M120.036 148.041L123.614 179.902C123.614 179.902 121.871 186.636 122.081 188.551C122.291 190.465 125.97 215.61 125.97 215.61L125.809 217.014V221.173H139.459C137.061 220.04 134.738 218.755 132.504 217.324C132.182 217.09 131.912 216.791 131.713 216.445C131.515 216.1 131.391 215.716 131.352 215.32C130.269 207.583 132.414 181.766 132.414 181.766L134.098 148.161L120.036 148.041Z" fill="#E5A195"/>
<path d="M109.062 154.736C108.291 154.936 107.058 182.327 106.466 183.55C102.458 191.247 101.455 214.618 101.455 214.618L100.253 218.026C101.636 219.198 103.199 219.188 104.953 217.916L104.733 214.227L114.945 185.073L120.538 155.327L109.062 154.736Z" fill="#E5A195"/>
<path d="M129.337 101.669C127.693 99.4237 120.888 92.9293 120.137 92.9393C117.932 92.9393 110.706 92.9393 109.293 93.691L109.363 106.068C109.593 107.071 114.584 123.286 114.294 126.824C115.278 127.777 116.447 128.519 117.729 129.002C119.011 129.486 120.378 129.701 121.747 129.635C123.115 129.57 124.456 129.224 125.685 128.62C126.915 128.016 128.008 127.166 128.896 126.123C128.904 122.987 129.095 119.855 129.467 116.742C130.46 109.767 133.466 107.241 129.337 101.669Z" fill="#FDCD7C"/>
<path d="M135.35 168.767L135.841 149.865C135.924 144.524 134.829 139.231 132.634 134.361L128.946 126.163C127.494 126.659 125.997 127.012 124.476 127.215C121.085 127.471 117.676 127.34 114.314 126.824C114.304 126.939 114.288 127.053 114.264 127.165C113.652 129.941 110.255 136.185 108.772 144.634C107.138 154.265 106.707 167.614 106.907 168.747C116.255 170.993 126 171 135.35 168.767Z" fill="#3166AA"/>
<path d="M117.962 85.9739C118.071 88.0743 117.998 90.1803 117.741 92.2678C117.331 94.0017 116.739 94.132 120.317 94.6632C121.7 94.8636 123.043 95.1743 123.043 95.1743C123.043 95.1743 122.672 92.6287 122.622 91.5563C122.532 89.7924 123.033 84.3403 123.033 84.3403L117.962 85.9739Z" fill="#E5A195"/>
<path d="M120.648 88.269C121.271 88.6186 121.949 88.8592 122.652 88.9806C122.773 86.8258 123.003 84.3503 123.003 84.3503L118.162 85.9138C118.759 86.9125 119.619 87.7274 120.648 88.269Z" fill="#DB7762"/>
<path d="M104.943 217.926C103.444 218.503 101.789 218.528 100.273 217.996L100.002 218.707L99 222.125C99 222.125 103.099 223.127 105.214 221.974L104.943 217.926Z" fill="#3166AA"/>
<path d="M125.669 222.175H139.86C140.381 222.175 140.512 221.704 140.331 221.444C139.961 220.902 138.327 220.441 136.443 219.609C133.176 219.95 126.32 217.735 125.809 216.984C125.509 218.487 125.378 222.115 125.669 222.175Z" fill="#3166AA"/>
<path d="M128.475 107.572C128.475 107.572 130.88 112.342 131.261 112.833C131.261 112.833 141.775 110.508 146.214 109.115L146.365 109.045C146.455 109.045 146.575 108.985 146.595 108.865C146.695 108.333 147.187 106.529 147.427 105.768C147.494 105.557 147.603 105.363 147.748 105.196C148.078 104.836 149.552 102.43 149.552 102.43C149.727 102.527 149.87 102.674 149.961 102.853C150.052 103.032 150.088 103.233 150.063 103.433C150.063 104.214 148.95 105.718 149.251 105.728C149.563 105.721 149.872 105.66 150.163 105.547C150.578 105.437 151.01 105.406 151.436 105.457C151.63 105.479 151.809 105.572 151.938 105.719C152.068 105.865 152.139 106.053 152.137 106.249C152.12 106.521 152.143 106.795 152.208 107.061C152.378 107.471 152.629 111.23 151.987 111.601C151.097 111.887 150.174 112.058 149.241 112.112C148.758 112.12 148.283 112.233 147.848 112.442L147.567 112.543C144.37 113.805 133.837 118.335 133.837 118.335C133.837 118.335 128.656 120.18 127.904 119.518C127.152 118.857 122.612 109.967 122.612 109.967L128.475 107.572Z" fill="#F4A392"/>
<path d="M117.08 98.9827C116.078 103.172 121.51 112.523 121.51 112.523C121.51 112.523 129.277 108.875 130.64 107.301C130.64 107.301 125.368 98.231 125.017 97.6698C124.523 96.7983 123.768 96.104 122.858 95.685C121.948 95.266 120.93 95.1434 119.946 95.3346C118.834 95.4649 117.08 98.9827 117.08 98.9827Z" fill="#E6A264"/>
<path d="M118.934 101.168C122.141 97.4594 122.522 90.2334 119.525 86.3849C120.888 83.9997 122.001 84.2302 121.249 81.6044C119.766 76.4229 125.609 72.1836 119.896 71.5822C114.163 71.2615 111.097 75.3405 109.032 79.0888C108.11 80.7972 106.832 82.2874 105.284 83.4585C102.177 85.7736 101.034 90.474 103.48 94.7835C100.994 96.6777 99.2606 101.368 101.566 104.725C102.117 105.537 103.129 106.429 103.189 106.67C103.099 106.369 101.786 114.788 111.357 116.221C121.149 117.694 121.8 108.454 118.934 101.168Z" fill="#264553"/>
<path d="M118.052 75.0097C116.916 75.902 116.128 77.1646 115.827 78.5776C115.376 80.8827 117.832 87.0964 122.843 87.8681C127.854 88.6398 128.425 83.2679 127.052 79.8504C125.679 76.4328 123.003 72.2335 118.052 75.0097Z" fill="#E5A195"/>
<path d="M115.697 82.807C114.544 79.4997 114.434 76.8839 116.699 75.2904C118.964 73.6969 120.848 72.1735 123.334 74.0978L123.865 74.3082C123.865 74.3082 119.926 76.022 120.006 78.2169C120.087 80.4117 118.283 83.3081 118.764 84.3204C119.245 85.3326 119.946 87.4072 119.946 87.4072L118.944 86.8059C118.944 86.8059 116.859 86.1143 115.697 82.807Z" fill="#264553"/>
<path d="M119.425 81.3737C120.026 82.1855 120.057 83.1676 119.485 83.5786C118.914 83.9895 117.972 83.6587 117.371 82.857C116.769 82.0552 116.739 81.053 117.31 80.6521C117.882 80.2512 118.824 80.5619 119.425 81.3737Z" fill="#E5A195"/>
<path d="M166.97 163.576C165.587 164.177 161.117 162.092 158.953 160.97C156.467 159.697 154.944 158.885 151.887 157.292C150.093 156.35 147.347 155.588 146.806 156.57C146.515 158.735 149.632 160.739 151.566 160.348C152.699 160.699 156.878 163.816 157.86 164.538C159.865 166.031 162.079 167.244 164.876 169.418C167.672 171.593 170.508 172.806 171.891 172.014C173.274 171.222 172.202 166.953 171.3 165.61C170.398 164.267 166.97 163.576 166.97 163.576Z" fill="#E7B464"/>
<path d="M182.114 193.502C182.495 198.172 178.355 201.94 178.195 206.53C178.045 210.9 184.97 213.305 181.683 218.497C180.781 219.7 177.674 220.261 175.088 220.261C174.767 220.232 174.444 220.27 174.138 220.372C173.833 220.474 173.552 220.639 173.314 220.856C173.075 221.073 172.884 221.337 172.753 221.631C172.622 221.925 172.554 222.244 172.553 222.566H181.633C187.646 220.912 188.648 218.206 189.32 216.994C190.322 214.989 204.403 200.537 186.163 211.652C181.703 214.368 192.406 205.859 192.707 202.852C191.825 199.154 181.613 187.248 182.114 193.502Z" fill="#E7B464"/>
<path d="M184.218 142.77C182.755 142.018 180.681 142.088 178.806 140.885C176.932 139.683 175.87 137.949 174.888 137.949C173.906 137.949 170.879 139.693 172.793 143.682C172.793 143.682 175.7 149.274 174.888 152.551C174.457 154.305 172.252 157.442 168.794 160.749C165.337 164.057 163.072 173.016 165.407 178.288C167.742 183.56 174.657 186.636 178.275 189.803C181.893 192.97 183.016 198.533 183.016 198.533C181.512 203.794 179.708 209.667 184.669 213.877C189.63 218.086 189.42 219.369 189.42 219.369C187.216 219.975 184.925 220.205 182.645 220.05C182.314 220.033 181.983 220.085 181.674 220.204C181.364 220.323 181.083 220.506 180.849 220.74C180.615 220.974 180.432 221.255 180.313 221.565C180.195 221.874 180.142 222.205 180.159 222.536H185.862C187.195 222.534 188.52 222.328 189.791 221.924C194.682 220.381 195.303 220.431 195.433 219.219C195.563 218.006 190.542 215.31 194.231 211.622C197.919 207.934 200.484 205.829 200.785 202.822C208.532 206.581 219.597 207.563 227.274 202.441C228.276 201.69 224.117 202.892 218.474 203.444C212.832 203.995 205.896 202.231 202.89 197.641C200.615 194.173 201.386 191.096 196.646 184.321C191.905 177.546 188.468 175.462 187.836 170.451C187.205 165.44 186.634 164.578 187.235 157.282C187.836 149.985 188.347 149.575 187.385 146.668C186.782 145.059 185.67 143.69 184.218 142.77Z" fill="#FDCD7C"/>
<path d="M180.951 144.173C181.031 144.493 181.011 144.774 180.691 144.864C180.536 144.907 180.372 144.886 180.233 144.807C180.093 144.728 179.991 144.597 179.949 144.443C179.906 144.289 179.927 144.124 180.006 143.985C180.085 143.846 180.216 143.744 180.37 143.702C180.691 143.621 180.831 143.732 180.951 144.173Z" fill="#8A5038"/>
<path d="M164.465 173.718C164.484 174.56 164.581 175.399 164.755 176.223C167.632 178.358 171.48 178.889 171.951 178.138C169.135 174.58 165.697 173.718 164.465 173.718Z" fill="#E7B464"/>
<path d="M184.519 155.107C184.97 155.899 188.177 154.916 188.528 154.656C188.879 154.395 187.967 149.996 187.325 148.452C186.684 146.909 185.822 147.36 185.822 147.36C186.523 149.234 184.068 154.315 184.519 155.107Z" fill="#E7B464"/>
<path d="M175.7 138.27C175.469 138.851 175.148 138.981 174.828 138.701C174.625 138.526 174.399 138.381 174.156 138.27C174.056 138.099 174.507 137.839 174.888 137.839C175.269 137.839 175.75 138.139 175.7 138.27Z" fill="#C57552"/>
<path d="M167.652 168.977C166.138 169.629 161.258 167.354 158.862 166.121C156.136 164.728 154.463 163.846 151.125 162.112C149.181 161.11 146.174 160.248 145.573 161.331C145.262 163.696 148.67 165.891 150.784 165.45C152.027 165.841 156.597 169.238 157.67 170.03C159.875 171.673 162.27 172.986 165.307 175.362C168.343 177.737 171.46 179.07 172.984 178.198C174.507 177.326 173.314 172.676 172.332 171.182C171.35 169.689 167.652 168.977 167.652 168.977Z" fill="#FDCD7C"/>
<path d="M379.891 199.755C379.891 199.755 399.635 185.083 402.341 178.769C405.047 172.455 399.464 173.157 399.464 173.157C399.464 173.157 407.482 161.852 405.327 158.123C403.172 154.395 398.803 159.126 398.803 159.126C398.803 159.126 402.501 143.832 399.284 142.98C393.271 141.396 388.37 157.853 388.37 157.853C388.37 157.853 388.811 151.018 385.062 151.94C379.4 153.333 382.397 168.045 382.397 168.045C382.397 168.045 380.593 165.43 377.486 167.915C371.873 172.395 379.891 199.755 379.891 199.755Z" fill="#558D7D"/>
<path d="M376.644 168.326C377.421 167.617 378.423 167.203 379.475 167.157C380.526 167.111 381.56 167.436 382.396 168.075C382.396 168.075 379.39 153.363 385.062 151.97C388.811 151.048 388.37 157.883 388.37 157.883C388.37 157.883 393.291 141.427 399.284 143.01L379.721 199.705C378.889 196.168 371.442 172.455 376.644 168.326Z" fill="#A6D7C9"/>
<path d="M379.891 199.244C379.891 199.244 400.136 199.244 404.325 195.717C408.514 192.189 403.373 191.928 403.373 191.928C403.373 191.928 413.054 186.797 412.914 183.369C412.93 182.943 412.846 182.519 412.668 182.131C412.49 181.743 412.224 181.403 411.89 181.136C411.557 180.87 411.166 180.686 410.748 180.599C410.331 180.511 409.899 180.523 409.486 180.633C409.486 180.633 416.181 174.62 414.808 171.734C412.693 167.274 403.122 175.742 403.122 175.742C403.122 175.742 403.854 172.345 400.887 171.633C396.417 170.561 391.867 183.289 391.867 183.289C391.867 183.289 394.002 177.556 390.935 178.198C385.433 179.33 379.891 199.244 379.891 199.244Z" fill="#72BCA6"/>
<path d="M379.059 200.377C379.059 200.377 361.079 185.033 358.844 178.859C356.609 172.686 361.921 173.698 361.921 173.698C361.921 173.698 355.016 162.453 357.261 159.035C359.506 155.618 363.405 160.409 363.405 160.409C363.405 160.409 360.809 145.636 363.926 145.024C369.718 143.882 373.407 159.837 373.407 159.837C373.407 159.837 373.407 153.313 376.914 154.415C382.216 156.079 378.478 169.889 378.478 169.889C378.478 169.889 380.432 164.728 383.228 167.274C388.3 171.854 379.059 200.377 379.059 200.377Z" fill="#558D7D"/>
<path d="M384.992 164.287C381.715 162.383 379.731 165.831 379.731 165.831C379.731 165.831 382.256 156.079 376.954 154.415C373.437 153.313 373.447 159.837 373.447 159.837C373.447 159.837 369.759 143.882 363.966 145.024L378.588 203.464C379.63 200.146 390.915 167.725 384.992 164.287Z" fill="#72BCA6"/>
<path d="M377.245 198.172C377.245 198.172 357.501 198.172 354.755 197.861C352.009 197.551 355.036 195.085 355.036 195.085C355.036 195.085 348.892 195.316 347.96 193.822C347.028 192.329 349.534 191.738 349.534 191.738C349.534 191.738 343.41 189.964 343.701 188.661C344.252 186.236 351.007 187.819 351.007 187.819C351.007 187.819 348.492 186.596 349.514 185.464C351.057 183.76 357.622 188.4 357.622 188.4C357.622 188.4 355.367 184.101 356.619 183.149C361.851 179.12 377.245 198.172 377.245 198.172Z" fill="#A6D7C9"/>
<path d="M362.994 220.391H395.856C397.961 218.532 399.643 216.243 400.789 213.68C401.935 211.116 402.519 208.336 402.501 205.528C402.491 202.767 401.839 200.046 400.597 197.581L358.223 198.052C357.027 200.631 356.427 203.447 356.469 206.29C356.535 208.962 357.148 211.591 358.27 214.017C359.392 216.442 361 218.612 362.994 220.391Z" fill="#EE7459"/>
<path d="M664.64 46.0055H650.609C648.202 46.0055 646.25 47.9574 646.25 50.3651V71.2212C646.25 73.629 648.202 75.5809 650.609 75.5809H664.64C667.048 75.5809 669 73.629 669 71.2212V50.3651C669 47.9574 667.048 46.0055 664.64 46.0055Z" fill="#B3B3B2"/>
<path d="M657.615 46.4266C656.387 46.4659 655.224 46.9877 654.377 47.8788C653.531 48.7699 653.07 49.9586 653.095 51.1872H662.115C662.139 49.962 661.681 48.7762 660.839 47.8857C659.998 46.9951 658.839 46.4711 657.615 46.4266ZM657.615 47.8197C657.542 47.8184 657.469 47.8026 657.402 47.773C657.335 47.7435 657.275 47.7009 657.224 47.6477C657.174 47.5945 657.135 47.5318 657.109 47.4632C657.083 47.3947 657.071 47.3217 657.074 47.2485C657.078 47.14 657.114 47.035 657.177 46.9469C657.24 46.8587 657.328 46.7912 657.43 46.7529C657.531 46.7145 657.642 46.7071 657.748 46.7314C657.854 46.7557 657.95 46.8107 658.025 46.8895C658.099 46.9683 658.149 47.0674 658.168 47.1744C658.186 47.2814 658.173 47.3915 658.129 47.4908C658.085 47.5902 658.013 47.6744 657.922 47.7329C657.83 47.7914 657.723 47.8216 657.615 47.8197Z" fill="#F0F0F0"/>
<path d="M665.041 53.8931H650.198V54.9955H665.041V53.8931Z" fill="#334356"/>
<path d="M665.041 56.4287H650.198V57.5312H665.041V56.4287Z" fill="#334356"/>
<path d="M665.041 58.9642H650.198V60.0667H665.041V58.9642Z" fill="#334356"/>
<path d="M665.041 61.5099H650.198V62.6123H665.041V61.5099Z" fill="#334356"/>
<path d="M662.055 65.0676H659.75V71.6121H662.055V65.0676Z" fill="#CD3735"/>
<path d="M664.179 67.1925H657.625V69.4976H664.179V67.1925Z" fill="#CD3735"/>
<path d="M664.31 49.2428H650.88C650.409 49.2545 649.945 49.359 649.515 49.5503C649.085 49.7416 648.696 50.016 648.372 50.3578C648.048 50.6995 647.795 51.1018 647.627 51.5416C647.459 51.9815 647.379 52.4502 647.392 52.9209V67.1223H653.776C654.187 67.1724 654.348 67.3027 654.498 67.864V74.649H664.3C665.257 74.6253 666.165 74.2244 666.828 73.5335C667.491 72.8427 667.854 71.918 667.837 70.9608V52.9209C667.854 51.9664 667.492 51.0442 666.831 50.3553C666.17 49.6663 665.264 49.2665 664.31 49.2428ZM666.665 70.9708C666.673 71.6073 666.431 72.2215 665.99 72.6808C665.549 73.1402 664.946 73.4079 664.31 73.4263H655.691V67.7136C655.46 66.7114 655.079 66.0399 653.867 65.8896H648.585V52.9209C648.576 52.609 648.628 52.2982 648.739 52.0065C648.849 51.7147 649.017 51.4476 649.231 51.2205C649.445 50.9934 649.702 50.8107 649.986 50.6829C650.271 50.5551 650.578 50.4846 650.89 50.4755H664.32C664.956 50.4887 665.561 50.7534 666.002 51.2118C666.444 51.6701 666.686 52.2847 666.675 52.9209L666.665 70.9708Z" fill="#F0F0F0"/>
<path d="M653.496 71.4619C653.496 71.4619 654.408 67.3227 650.489 68.0143C650.489 68.0143 649.567 68.1646 647.372 67.1223C647.202 67.0421 651.602 72.7347 654.528 74.669C653.788 73.7704 653.419 72.6234 653.496 71.4619Z" fill="#F0F0F0"/>
<path d="M658.166 75.5909C658.166 75.5909 659.96 96.3869 640.968 96.3869" stroke="#F6D047" stroke-width="0.75" stroke-miterlimit="10"/>
<path d="M573.188 137.197C573.188 137.197 574.862 143.07 574.471 144.543C574.08 146.017 572.306 148.753 571.525 148.653C570.743 148.552 571.525 139.252 571.525 139.252L573.188 137.197Z" fill="#E9B085"/>
<path d="M544.775 91.6567C544.164 90.4841 558.075 86.2447 558.295 97.8503C558.295 97.8503 584.353 97.2089 571.915 82.6868C567.606 77.6757 568.047 73.5065 568.177 69.658C568.307 65.8095 565.491 54.5346 555.85 55.627C554.911 55.3365 553.923 55.241 552.946 55.3461C551.968 55.4512 551.023 55.7548 550.167 56.2383C543.002 59.9766 526.936 95.9361 544.775 91.6567Z" fill="#213557"/>
<path d="M574.461 138.961C574.461 138.961 574.311 139.663 572.848 140.024C571.859 140.226 570.845 140.28 569.841 140.184L568.919 140.094C568.297 140.034 567.616 139.923 566.844 139.783L567.385 107.882L565.14 82.9974C565.14 82.9974 569.931 85.2624 572.286 92.6087C574.09 98.2512 574.391 122.565 574.441 133.539C574.471 136.857 574.461 138.961 574.461 138.961Z" fill="#ADC0E1"/>
<g opacity="0.3">
<path opacity="0.3" d="M574.461 138.961C574.461 138.961 574.311 139.663 572.847 140.023C571.859 140.226 570.845 140.28 569.841 140.184L570.272 116.421C570.272 116.421 570.633 129.39 574.441 133.539C574.471 136.856 574.461 138.961 574.461 138.961Z" fill="#8998C9"/>
</g>
<path d="M527.136 206.42C527.136 206.42 524.22 209.086 524.791 210.97C525.363 212.854 527.998 214.127 528.349 216.442C528.7 218.757 530.133 220.02 531.416 220.02H537.529C537.529 220.02 538.472 218.387 536.186 217.896C533.901 217.404 533.05 214.688 533.18 212.163C533.243 210.199 533.173 208.234 532.969 206.28L528.129 205.157L527.136 206.42Z" fill="#234175"/>
<path d="M551.861 207.533C551.861 207.533 550.809 218.818 552.092 219.449H568.498C568.498 219.449 568.498 217.555 565.862 217.144C563.226 216.733 558.596 215.139 557.844 211.742C557.093 208.344 551.861 207.533 551.861 207.533Z" fill="#234175"/>
<path d="M565.301 114.918C565.301 114.918 570.031 129.64 570.312 134.651C570.592 139.663 561.292 205.809 560.891 208.154C560.49 210.499 557.834 211.722 557.834 211.722C556.898 212.179 555.823 212.261 554.828 211.952C553.638 211.715 552.523 211.192 551.58 210.429C551.58 210.429 547.902 163.225 550.177 146.367C551.568 135.939 552.338 125.437 552.482 114.918H565.301Z" fill="#22365D"/>
<path d="M545.256 114.477C545.256 114.477 538.041 124.158 537.369 130.703C536.698 137.247 536.237 160.228 534.833 166.612C533.43 172.996 528.139 185.263 528.139 205.157C528.646 205.991 529.441 206.612 530.374 206.901C531.03 207.122 531.699 207.303 532.378 207.442C533.055 207.597 533.765 207.52 534.394 207.224C535.022 206.928 535.534 206.43 535.846 205.809C539.404 198.643 550.739 175.532 551.32 170.731C551.731 167.334 554.146 146.959 561.963 133.77C563.838 130.613 563.717 116.812 563.717 116.812L545.256 114.477Z" fill="#224685"/>
<path d="M539.243 95.525C539.099 98.0518 539.099 100.585 539.243 103.112C539.404 105.848 542.18 109.526 542.571 110.428C543.573 112.703 544.675 113.074 544.675 113.074L553.294 115.188L554.016 119.799C554.016 119.799 561.242 122.885 566.253 118.105C570.623 113.946 570.262 100.937 568.478 94.1019C567.465 90.0829 565.981 86.1976 564.058 82.5263C564.058 82.5263 557.584 79.9706 546.118 81.8748L539.243 95.525Z" fill="#224685"/>
<path d="M549.205 81.1733C547.239 81.4995 545.295 81.9447 543.382 82.5063L541.759 102.36H556.722L551.099 87.6076L549.205 81.1733Z" fill="#ADC0E1"/>
<path d="M556.722 102.36L555.078 163.495C555.078 163.495 546.88 167.384 531.215 163.495L535.224 98.3513L556.722 102.36Z" fill="#ADC0E1"/>
<path d="M545.37 97.6324L531.248 113.855C530.551 114.656 530.635 115.872 531.436 116.569L542.503 126.203C543.305 126.901 544.52 126.817 545.218 126.015L559.339 109.793C560.037 108.991 559.953 107.776 559.151 107.078L548.085 97.4445C547.283 96.7467 546.068 96.8309 545.37 97.6324Z" fill="#CF5D4C"/>
<path d="M547.822 115.329C547.972 115.329 553.695 116.04 553.705 117.223C553.602 118.039 553.22 118.794 552.625 119.362C552.03 119.93 551.258 120.275 550.438 120.34C549.797 120.34 546.85 117.584 546.85 117.584L547.822 115.329Z" fill="#E9B085"/>
<path d="M550.759 81.2535C551.523 79.0141 551.862 76.652 551.761 74.2881L552.192 74.3783L559.468 75.8115C559.468 75.8115 559.287 78.1065 559.287 80.2513V80.3014C559.287 82.1755 560.56 84.0497 557.554 84.7913C556.642 85.0318 549.386 84.5708 550.759 81.2535Z" fill="#E9B085"/>
<path d="M559.488 75.8115C559.488 75.8115 559.287 78.1065 559.287 80.2513C555.208 80.131 553.064 76.4228 552.182 74.3683L559.488 75.8115Z" fill="#E29465"/>
<path d="M560.841 77.8561C560.841 77.8561 551.21 78.0164 551.21 72.0131C551.21 66.0099 549.957 61.991 556.1 61.6502C562.244 61.3095 563.447 63.5845 563.938 65.5789C564.429 67.5733 563.346 77.6556 560.841 77.8561Z" fill="#E9B085"/>
<path d="M560.49 61.4998C560.49 61.4998 557.854 68.5154 553.805 69.5777C549.756 70.6401 548.003 69.5777 548.003 69.5777C550.001 67.8234 551.326 65.4279 551.751 62.8027C551.751 62.8027 558.496 58.2025 560.49 61.4998Z" fill="#213557"/>
<path d="M559.829 62.071C560.943 62.4958 561.906 63.2424 562.595 64.2158C563.562 65.8849 564.015 67.8024 563.898 69.728C563.898 69.728 565.902 64.9474 563.647 62.2414C561.292 59.3751 559.829 62.071 559.829 62.071Z" fill="#213557"/>
<path d="M547.822 115.329C548.559 115.089 549.333 114.984 550.107 115.018C551.019 115.138 551.701 115.018 551.701 115.249C551.701 115.479 550.518 115.63 550.268 115.75C549.44 115.694 548.621 115.553 547.822 115.329Z" fill="#E9B085"/>
<path d="M546.108 81.8749C546.108 81.8749 539.273 82.3559 536.647 88.72C534.022 95.0841 529.061 105.758 529.061 107.582C529.061 109.406 531.837 114.918 546.75 118.105C546.75 118.105 548.293 116.481 548.203 115.209C548.203 115.209 538.892 107.191 538.912 106.279C538.963 104.505 540.446 102.18 548.614 94.0017C550.839 91.7768 546.108 81.8749 546.108 81.8749Z" fill="#ADC0E1"/>
<path d="M553.344 91.877C553.344 91.877 550.779 84.8615 551.28 79.5698C550.091 79.9035 549.038 80.6052 548.273 81.5743C548.273 81.5743 547.802 89.6521 549.275 93.4004C550.171 93.4649 551.07 93.411 551.951 93.24C551.951 93.24 550.949 94.8636 551.14 95.044C551.33 95.2244 556.762 102.37 556.762 102.37L553.344 91.877Z" fill="#8998C9"/>
<path d="M564.659 99.2233L566.303 162.132C566.303 162.132 570.121 162.283 572.316 159.927L570.312 91.7768C570.312 91.7768 568.207 83.5687 564.068 82.5364L559.929 81.5342L564.659 99.2233Z" fill="#ADC0E1"/>
<path d="M559.288 80.2512C559.313 81.161 559.397 82.0682 559.538 82.9672C560.22 87.7077 565.261 97.2087 564.689 101.448C564.689 101.448 565.221 94.0718 565.221 92.4983L563.747 91.4961L565.662 90.7043C565.662 90.7043 562.124 81.7946 559.288 80.2512Z" fill="#8998C9"/>
<path d="M551.728 139.291L537.474 138.256L537.369 139.706L551.623 140.74L551.728 139.291Z" fill="#8998C9"/>
<g opacity="0.3">
<path opacity="0.3" d="M537.379 139.703C537.379 139.703 536.377 148.532 537.379 149.344C538.381 150.156 549.265 151.178 550.268 150.406C551.27 149.635 551.62 140.765 551.62 140.765L537.379 139.703Z" fill="#8998C9"/>
</g>
<path d="M605.88 63.1233C605.88 63.1233 603.275 57.5911 603.796 54.6746C604.317 51.7582 604.207 47.8896 608.095 46.3863C611.984 44.883 612.335 46.3362 616.564 45.8852C620.793 45.4342 622.126 50.6357 622.517 52.8406C623.329 57.5009 621.926 60.4173 620.693 61.9908C619.631 63.3538 619.14 63.9952 619.14 63.9952L605.88 63.1233Z" fill="#22365D"/>
<path d="M595.067 219.469C595.045 218.245 595.177 217.023 595.457 215.831C595.838 214.919 597.271 211.231 597.271 211.231H602.844C603.314 212.694 603.682 214.187 603.946 215.701C604.016 216.803 603.946 219.469 603.946 219.469H595.067Z" fill="#22365D"/>
<path d="M630.445 219.469C630.466 218.245 630.335 217.023 630.054 215.831C629.673 214.919 628.24 211.231 628.24 211.231H622.668C622.198 212.694 621.829 214.187 621.565 215.701C621.495 216.803 621.565 219.469 621.565 219.469H630.445Z" fill="#22365D"/>
<path d="M595.768 124.96C595.768 124.96 596.77 154.736 595.277 171.733C593.784 188.731 595.277 212.373 595.277 212.373C596.791 213.118 598.456 213.505 600.143 213.505C601.83 213.505 603.495 213.118 605.009 212.373C605.009 212.373 610.551 179.541 610.511 171.733C610.511 163.415 616.524 126.253 616.524 126.253L595.768 124.96Z" fill="#5DB3BC"/>
<path d="M630.264 212.373C628.752 213.116 627.089 213.503 625.404 213.503C623.718 213.503 622.056 213.116 620.543 212.373C620.543 212.373 615.001 179.541 615.031 171.733C615.031 168.216 614.028 159.557 612.726 150.687C611.022 138.61 608.997 126.223 608.997 126.223L630.595 124.87C630.595 124.87 628.821 154.706 630.274 171.693C631.728 188.681 630.264 212.373 630.264 212.373Z" fill="#5DB3BC"/>
<path d="M599.957 76.5331C599.957 76.5331 591.94 77.5353 590.156 84.7011C588.372 91.867 581.457 110.318 588.352 114.417C588.352 114.417 595.708 104.565 598.504 96.6275C601.3 88.69 599.957 76.5331 599.957 76.5331Z" fill="#ADC0E1"/>
<path d="M627.278 80.3816C627.278 80.3816 635.366 79.3794 637.13 86.5853C638.893 93.7912 644.536 109.927 637.601 114.066C637.601 114.066 629.753 104.565 626.957 96.6275C624.161 88.6899 627.278 80.3816 627.278 80.3816Z" fill="#ADC0E1"/>
<path d="M608.125 66.3006C608.125 66.3006 607.935 72.374 607.123 75.1L600.97 79.3895L624.141 82.8572L618.649 75.2403C618.649 75.2403 616.975 67.0923 617.857 64.0857C618.739 61.079 608.125 66.3006 608.125 66.3006Z" fill="#E9B085"/>
<path d="M608.095 67.1323C608.095 67.1323 609.929 71.5521 613.377 71.4519C616.825 71.3516 617.616 67.443 617.616 67.443L608.095 67.1323Z" fill="#E3986A"/>
<path d="M612.986 69.748C610.481 69.6979 605.88 66.3706 605.88 62.2514V55.8172C605.833 55.145 606.051 54.481 606.488 53.9676C606.924 53.4543 607.545 53.1324 608.216 53.0712H617.757C618.428 53.1324 619.048 53.4543 619.485 53.9676C619.921 54.481 620.139 55.145 620.092 55.8172V61.8305C620.092 66.2202 615.853 69.7981 612.986 69.748Z" fill="#E9B085"/>
<path d="M630.926 138.219C613.026 141.306 593.844 138.811 593.844 138.811L595.628 102.651C595.628 102.13 595.548 101.588 595.528 101.037C595.528 100.316 595.528 99.4637 595.528 98.5116C595.888 90.9248 598.183 77.2646 599.927 76.533C602.264 75.7826 604.678 75.2985 607.123 75.0898C607.123 75.1901 609.789 79.0987 612.956 79.5196C615.267 78.7511 617.258 77.2393 618.619 75.2201C619.881 75.3705 621.204 75.5509 622.628 75.8215C622.733 75.8318 622.837 75.8519 622.938 75.8816C624.612 76.2061 626.265 76.6277 627.889 77.1444C627.889 77.1444 630.154 78.0263 629.653 93.8714L630.926 138.219Z" fill="#A4CFD1"/>
<path d="M610.992 65.5989C611.253 65.9143 611.581 66.1678 611.952 66.3411C612.322 66.5144 612.727 66.6032 613.137 66.6012C613.525 66.5981 613.908 66.5062 614.255 66.3325C614.602 66.1588 614.905 65.9079 615.141 65.5989C613.766 65.3894 612.367 65.3894 610.992 65.5989Z" fill="white"/>
<path d="M593.834 110.498L592.832 164.347C597.767 165.589 602.794 166.433 607.865 166.873L609.659 101.047L607.183 78.768L604.938 75.0898C604.938 75.0898 597.522 75.6711 593.082 79.2891C590.076 81.7646 588.652 90.1832 588.652 90.1832L595.668 97.5194L593.834 110.498Z" fill="#ADC0E1"/>
<path d="M632.028 110.498L633.031 164.347C628.095 165.588 623.068 166.432 617.997 166.873L616.544 103.012L618.669 78.768L620.924 75.0898C620.924 75.0898 628.32 75.7012 632.78 79.2891C637.571 83.1476 638.533 92.6286 638.533 92.6286L630.224 97.5194L632.028 110.498Z" fill="#ADC0E1"/>
<path d="M588.352 114.417C596.48 116.602 601.05 110.949 620.052 103.142L619.471 100.135C619.471 100.135 597.622 100.386 593.794 102.46C588.853 105.126 587.73 114.236 588.352 114.417Z" fill="#E9B085"/>
<path d="M604.247 98.0306C604.247 98.0306 596.039 97.5696 595.949 101.749L603.535 101.408L604.247 98.0306Z" fill="#E9B085"/>
<path d="M625.965 100.165C625.965 100.165 632.108 98.6119 633.131 102.721C634.153 106.83 624.301 102.721 624.301 102.721L625.965 100.165Z" fill="#E3986A"/>
<path d="M610.571 107.361C608.214 104.868 605.514 102.721 602.553 100.987L612.144 102.801L615.071 105.197L613.738 105.878L610.571 107.361Z" fill="#E3986A"/>
<path d="M620.272 100.476L628.45 99.8746L627.879 102.22L620.272 100.476Z" fill="#E3986A"/>
<path d="M595.949 101.749C595.949 101.749 601.561 100.797 601.461 100.746C600.672 100.428 599.825 100.278 598.975 100.306L595.949 101.749Z" fill="#E3986A"/>
<path d="M607.715 71.953C607.715 71.953 604.317 73.8272 603.706 75.5911C603.706 75.5911 602.062 82.7569 604.237 87.6176L607.705 86.7758L605.921 88.9706C605.921 88.9706 606.843 98.9226 609.629 101.087C609.639 101.047 607.464 74.6189 607.715 71.953Z" fill="#8998C9"/>
<path d="M618.077 71.953C618.077 71.953 621.475 73.8272 622.086 75.5911C622.086 75.5911 624.251 82.2458 622.086 87.0764L618.077 86.7357L620.934 89.0909C620.934 89.0909 619.35 100.847 616.564 103.012C616.564 103.012 618.328 74.6189 618.077 71.953Z" fill="#8998C9"/>
<path d="M637.601 114.066C637.601 114.066 620.743 112.242 601 99.7844L604.247 98.0305C604.247 98.0305 630.134 100.847 633.381 103.282C638.463 107.111 641.469 113.174 637.601 114.066Z" fill="#E9B085"/>
<path d="M604.237 89.7723H598.705V92.2077H604.237V89.7723Z" fill="#E9F1F8"/>
<path d="M609.789 53.0712C610.582 53.7507 611.504 54.2647 612.498 54.5831C613.493 54.9016 614.542 55.0179 615.582 54.9253C618.839 54.4743 618.769 53.1113 619.22 53.6826C619.671 54.2539 619.721 58.9342 620.362 59.2449L620.693 53.0712L614.239 49.363L604.979 50.4354L605.88 59.4554C605.88 59.4554 605.71 56.148 607.113 55.1959C608.048 54.544 608.942 53.8344 609.789 53.0712Z" fill="#22365D"/>
</svg>
