<svg width="320" height="152" viewBox="0 0 320 152" fill="none" xmlns="http://www.w3.org/2000/svg">
<path d="M320 101L285 137.003H319.966L320 101Z" fill="#F6D047"/>
<path d="M320 137H0V152H320V137Z" fill="#ACAFB1"/>
<path d="M31.8402 137L-0.159782 102V137H31.8402Z" fill="#F6D047"/>
<path d="M71.5373 92.2421C69.3606 87.4325 70.3035 80.8319 71.2164 74.4426C71.5273 72.2491 71.8282 70.1764 71.9887 68.2344C71.9887 68.1841 73.3028 62.9218 74.3761 55.2848C75.7633 46.0364 76.1433 36.664 75.5096 27.333H75.6601C76.2916 36.6771 75.915 46.0622 74.5366 55.3251C73.4733 62.8514 72.1894 68.0634 72.1392 68.2747C71.9787 70.2166 71.6878 72.2995 71.3668 74.4829C70.464 80.852 69.5211 87.4325 71.6677 92.2018L71.5373 92.2421Z" fill="#264553"/>
<path d="M75.6701 27.1821C75.3768 28.0558 75.1356 28.9461 74.9479 29.8486C75.8105 29.4461 76.1716 29.9593 77.0644 29.587C76.872 28.6549 76.3826 27.8108 75.6701 27.1821Z" fill="#296EB6"/>
<path d="M85.3298 12.4515C85.7712 19.696 79.9633 27.2726 75.8205 27.5443C71.8984 27.7656 65.0071 21.004 64.5758 13.7595C64.1445 6.51497 68.4277 0.35712 74.1554 0.0150167C79.883 -0.327086 84.8985 5.21701 85.3298 12.4515Z" fill="#296EB6"/>
<g style="mix-blend-mode:screen">
<path d="M72.109 2.16824C69.2602 1.80602 66.8127 6.84698 68.8891 7.85316C70.9655 8.85934 75.8004 2.64115 72.109 2.16824Z" fill="#161616"/>
</g>
<path d="M85.3298 12.4515C85.1762 9.20189 83.98 6.08908 81.9193 3.5769C85.9317 11.556 81.4679 22.1511 77.0644 24.1333C75.8532 24.751 74.5054 25.0502 73.1474 25.0026C71.7895 24.9551 70.4658 24.5625 69.3004 23.8616C71.4771 26.1658 73.9748 27.6046 75.8205 27.504C79.9533 27.2726 85.7712 19.696 85.3298 12.4515Z" fill="#2B5CA2"/>
<path d="M76.1414 27.7253H75.4693C75.4514 27.7267 75.4333 27.7244 75.4163 27.7184C75.3994 27.7125 75.3838 27.703 75.3706 27.6908C75.3574 27.6785 75.3469 27.6636 75.3397 27.647C75.3325 27.6304 75.3289 27.6126 75.3289 27.5945C75.3275 27.5773 75.3296 27.56 75.3349 27.5436C75.3402 27.5272 75.3487 27.512 75.3599 27.499C75.3711 27.4859 75.3847 27.4751 75.4001 27.4674C75.4154 27.4596 75.4321 27.4549 75.4493 27.4536H76.1214C76.1393 27.4522 76.1573 27.4546 76.1743 27.4606C76.1913 27.4665 76.2069 27.4759 76.2201 27.4882C76.2333 27.5005 76.2438 27.5154 76.251 27.532C76.2582 27.5485 76.2618 27.5664 76.2618 27.5844C76.2632 27.6016 76.2611 27.6189 76.2558 27.6353C76.2505 27.6517 76.242 27.6669 76.2308 27.68C76.2196 27.6931 76.206 27.7038 76.1906 27.7116C76.1753 27.7194 76.1586 27.7241 76.1414 27.7253Z" fill="#264553"/>
<path d="M127.038 24.3447C126.618 24.0503 126.11 23.9097 125.599 23.9464C125.087 23.983 124.604 24.1947 124.23 24.5459C122.765 25.7835 123.337 25.8036 122.615 26.4275C121.893 27.0513 120.699 26.508 120.328 27.7053C119.957 28.9027 120.458 29.2649 120.458 29.2649C120.22 29.5155 120.046 29.8206 119.952 30.1537C119.857 30.4867 119.845 30.8378 119.916 31.1767C120.086 31.8027 120.414 32.3738 120.869 32.8342C121.325 33.2946 121.892 33.6284 122.514 33.8028C123.42 34.6994 124.6 35.2631 125.865 35.4026C127.761 35.5033 127.149 35.3121 127.871 35.5334C128.593 35.7548 130.83 35.3825 130.96 33.843C130.96 33.843 132.585 32.8369 131.793 31.2873C131.001 29.7378 131.151 28.5505 130.971 26.7897C130.79 25.0289 127.951 24.2139 127.038 24.3447Z" fill="#264553"/>
<path d="M113.677 29.3956C112.289 28.3154 110.982 27.135 109.765 25.8639C109.65 25.3923 109.399 24.9653 109.043 24.6364C108.612 24.1735 108.261 23.0969 108.04 23.4189C107.819 23.7409 108.491 24.576 108.18 24.5961C107.869 24.6162 106.295 22.956 106.054 23.2378C105.813 23.5195 107.428 24.9986 107.147 25.0087C106.866 25.0187 105.562 23.5296 105.231 23.9421C104.9 24.3546 106.936 25.552 106.766 25.7734C106.595 25.9947 105.322 25.1999 105.061 25.5319C104.8 25.8639 106.836 26.5381 106.676 26.5381C106.515 26.5381 105.352 26.5381 105.352 26.7896C105.352 27.0412 108.311 27.3229 108.692 27.7958C109.673 29.4403 110.925 30.9065 112.393 32.1325C114.139 33.2795 118.161 35.6943 118.161 35.6943L120.017 33.0883C120.017 33.0883 114.781 30.0698 113.677 29.3956Z" fill="#F4A392"/>
<path d="M108.18 25.0892C108.112 25.2375 108.078 25.399 108.08 25.5622C108.076 25.7412 108.112 25.9188 108.185 26.0822C108.258 26.2457 108.366 26.3911 108.501 26.508C108.221 26.0918 108.107 25.5858 108.18 25.0892Z" fill="#F18B80"/>
<path d="M113.667 53.9063C113.968 55.003 114.49 56.7236 114.49 56.7236C114.49 57.1965 114.379 59.1888 114.269 61.6238L117.8 60.1044C117.724 58.7371 117.724 57.3665 117.8 55.9992C118.39 55.5516 118.882 54.9863 119.244 54.339C119.448 53.9423 119.564 53.5066 119.585 53.0611C119.585 53.0611 119.585 52.0549 119.395 51.9845C119.289 51.9496 119.175 51.955 119.073 51.9995C118.971 52.0441 118.889 52.1247 118.843 52.226C118.763 52.397 118.843 52.7995 118.723 52.9706C118.51 53.192 118.225 53.3309 117.92 53.363C117.7 53.363 117.87 50.4148 117.87 50.4148C117.87 50.4148 117.97 49.5797 118.021 49.308C118.071 49.0364 118.261 48.3824 118.261 48.3824C118.261 48.3824 118.482 47.3762 118.171 47.3258C117.86 47.2755 117.559 48.1006 117.258 48.9559C117.1 49.5991 116.909 50.2338 116.686 50.8576C116.456 50.8576 116.536 49.2175 116.536 49.2175C116.635 48.8625 116.699 48.4985 116.727 48.1308C116.927 47.6982 117.048 46.9033 116.727 46.8429C116.517 47.1618 116.336 47.4985 116.185 47.8491C116.185 47.8491 116.004 48.5635 115.904 48.8553C115.771 49.4899 115.674 50.1315 115.613 50.7771C115.533 51.1091 115.453 50.9783 115.413 50.9884C115.411 50.6222 115.427 50.2561 115.463 49.8916C115.454 49.5384 115.474 49.185 115.523 48.8351C115.585 48.4622 115.625 48.0859 115.643 47.7082C115.643 46.8731 115.162 46.9737 115.001 47.7082C114.941 48 114.871 48.322 114.811 48.6439C114.56 49.8916 114.6 51.099 114.47 51.1091C114.344 50.392 114.304 49.6624 114.349 48.9357C114.349 48.9357 114.048 47.7384 113.818 48.8653C113.653 49.6625 113.582 50.4764 113.607 51.2902C113.51 52.161 113.53 53.041 113.667 53.9063Z" fill="#E5A196"/>
<path d="M114.058 58.6958C114.058 58.6958 118.071 57.6292 118.071 57.9512C119.074 64.9945 119.545 67.5703 119.686 67.6408C120.177 67.8722 126.477 61.7848 127.62 61.3521C128.176 61.1862 128.757 61.1248 129.335 61.171H131.031V62.4589C129.526 63.8978 128.021 91.5477 127.751 91.5377C127.48 91.5276 121.16 91.5377 121.461 90.9742C121.461 90.9742 122.976 82.4619 124.16 76.8876C124.561 75.006 125.674 71.0618 125.674 71.0618C124.149 71.8869 118.171 75.0362 117.198 74.6639C114.199 73.4767 114.058 58.6958 114.058 58.6958Z" fill="#1D4369"/>
<path d="M122.625 135.085L122.825 138.678C122.896 139.14 123.187 140.267 123.187 140.69C123.187 142.239 116.406 139.372 117.92 138.678C118.061 138.617 118.783 138.144 118.823 137.611C118.893 136.796 119.074 135.146 119.074 135.146L122.625 135.085Z" fill="#F4A392"/>
<path d="M117.94 138.657C117.94 138.657 119.535 139.13 120.348 139.251C121.16 139.372 122.234 138.365 122.815 138.637C123.397 138.909 123.678 141.656 123.387 141.867C119.76 142.105 116.121 142.105 112.494 141.867C111.51 141.696 114.69 139.764 117.94 138.657Z" fill="#264553"/>
<path d="M137.551 135.427L137.751 139.03C137.822 139.482 138.113 140.609 138.113 141.042C138.113 142.602 131.332 139.724 132.856 139.03C132.997 138.969 133.93 138.144 133.97 137.611C134.04 136.796 133.97 135.498 133.97 135.498L137.551 135.427Z" fill="#F4A392"/>
<path d="M132.866 138.999C132.866 138.999 134.461 139.472 135.274 139.593C136.086 139.714 137.17 138.708 137.741 138.979C138.313 139.251 138.404 141.998 138.404 141.998C138.404 141.998 129.376 142.37 127.169 141.998C126.407 141.807 129.616 140.106 132.866 138.999Z" fill="#264553"/>
<path d="M126.818 83.6392L123.949 84.8969L117.93 114.298L118.171 136.333L123.006 136.454C123.006 136.454 125.253 117.175 125.253 115.676C125.253 114.177 135.665 89.5153 135.665 89.5153L126.818 83.6392Z" fill="#C0C0C0"/>
<path d="M129.024 85.2591C129.024 85.2591 131.131 107.908 131.131 111.722C131.131 115.535 132.846 136.876 132.846 136.876H137.691C137.691 136.876 138.042 130.366 138.554 120.777C138.634 119.278 138.453 116.25 138.554 114.69C139.306 103.521 140.801 92.9966 140.089 88.831C140.014 87.8372 139.759 86.8654 139.336 85.9634C136.126 82.6229 129.024 85.2591 129.024 85.2591Z" fill="#E7E6E6"/>
<path d="M125.855 75.5091C126.628 72.0507 127.613 68.6433 128.804 65.3064C129.346 63.8417 130.078 62.4548 130.981 61.181L135.655 61.3219H135.795C136.177 61.3823 136.187 75.0261 135.986 80.1275C135.745 84.0655 135.3 87.9883 134.652 91.8797L133.318 91.749C133.318 92.4332 133.318 92.896 133.318 92.896C126.557 94.0833 122.785 90.7428 122.785 90.7428C122.785 90.7428 124.962 79.9061 125.855 75.5091Z" fill="#296EB6"/>
<path d="M135.414 57.1965L135.655 61.3219C135.655 61.3219 132.776 66.6245 131.201 65.9403C129.887 65.3567 130.94 61.3622 130.94 61.3622C130.94 61.3622 131.141 60.4465 131.422 59.3498C131.632 58.6649 131.744 57.9534 131.753 57.2368C131.683 55.8281 135.414 57.1965 135.414 57.1965Z" fill="#E5A195"/>
<path d="M131.753 57.2771C131.683 55.8584 135.414 57.1966 135.414 57.1966V57.5991C135.302 57.7768 135.167 57.9391 135.013 58.0821C134.012 58.906 132.733 59.3098 131.442 59.209C131.633 58.5824 131.738 57.9323 131.753 57.2771Z" fill="#EE7459"/>
<path d="M131.562 47.8593C130.742 49.1761 130.215 50.6555 130.018 52.1959C129.967 53.3028 130.096 54.4104 130.399 55.4761L135.193 49.439L131.562 47.8593Z" fill="#264553"/>
<path d="M129.496 51.8034C129.496 52.4976 129.727 53.0712 130.128 53.1014C130.529 53.1315 130.89 52.5982 130.94 51.914C130.991 51.2298 130.71 50.6463 130.308 50.6161C129.907 50.5859 129.546 51.1192 129.496 51.8034Z" fill="#DF8B83"/>
<path d="M136.808 50.3344C136.929 50.3344 137.059 56.0093 135.454 57.3777C133.849 58.7461 130.97 58.9574 130.098 57.6192C129.225 56.2809 129.857 50.1231 132.274 48.7848C134.692 47.4466 136.808 50.3344 136.808 50.3344Z" fill="#E5A195"/>
<path d="M137.13 46.7726C138.386 47.7696 139.359 49.0816 139.948 50.576C141.062 52.9707 139.045 55.5264 137.33 56.6131C136.878 56.8257 136.478 57.1378 136.162 57.5262C135.846 57.9146 135.621 58.3694 135.505 58.8569L135.414 58.1223C135.374 57.8961 135.374 57.6644 135.414 57.4382C135.473 57.2271 135.55 57.0217 135.645 56.8244C135.785 56.5024 136.237 55.4057 136.417 55.1139C136.879 54.3391 136.979 54.1781 136.718 53.4637C136.518 52.9103 136.718 51.6828 136.387 50.7772L134.03 50.3345C133.198 50.1483 132.427 49.7498 131.793 49.1774C129.606 46.7726 133.739 43.905 137.13 46.7726Z" fill="#264553"/>
<path d="M136.187 54.0775C135.916 54.7114 135.986 55.3553 136.357 55.5163C136.728 55.6773 137.24 55.2849 137.511 54.651C137.782 54.0171 137.711 53.3832 137.34 53.2222C136.969 53.0612 136.457 53.4436 136.187 54.0775Z" fill="#E5A195"/>
<path d="M142.566 36.9925C142.988 37.9987 143.62 39.7293 143.62 39.7293C144.201 40.6047 145.626 42.5969 146.468 43.9251L142.907 44.4483C142.164 43.2851 141.353 42.1663 140.48 41.0977C139.769 41.1566 139.056 41.0247 138.414 40.7154C138.027 40.524 137.685 40.2531 137.41 39.9205C137.41 39.9205 137.35 39.8098 137.471 39.6086C137.591 39.4073 137.32 38.713 137.471 38.8036C137.621 38.8942 137.852 39.2262 138.022 39.3168C138.193 39.4073 137.972 38.1898 138.143 38.049C138.079 37.5232 138.161 36.9902 138.379 36.5077C138.596 36.0252 138.941 35.6117 139.377 35.3121C139.471 35.16 139.601 35.0329 139.755 34.9413C139.909 34.8496 140.082 34.7962 140.261 34.7854C140.439 34.7746 140.618 34.8067 140.782 34.879C140.945 34.9514 141.09 35.062 141.202 35.2015C141.801 35.673 142.27 36.2892 142.566 36.9925Z" fill="#E5A196"/>
<path d="M135.655 61.3219C135.655 61.3219 140.279 60.9899 141.463 60.4164C142.175 60.0642 146.759 56.1502 146.759 56.1502L141.543 43.4521L145.786 42.0938C145.786 42.0938 154.303 55.9791 153.59 57.5487C152.878 59.1184 144.332 66.0208 142.667 68.9388C141.664 70.6191 142.617 93.4394 142.306 93.6507C140.079 94.8883 130.75 95.975 130.89 95.2606C133.226 84.066 134.817 72.7281 135.655 61.3219Z" fill="#1D4369"/>
<path d="M121.491 33.1287L117.298 31.1566L115.964 35.2216L120.037 37.4755L121.491 33.1287Z" fill="#E7B464"/>
<path d="M136.869 39.367C136.943 38.8828 137.163 38.4331 137.501 38.0791C137.882 37.6062 138.363 36.9522 138.614 37.244C138.865 37.5358 138.052 37.9785 138.343 37.9785C138.634 37.9785 140.35 36.6805 140.58 36.9723C140.811 37.2641 139.256 38.2401 139.407 38.3105C139.557 38.3809 140.771 37.0025 141.012 37.3043C141.252 37.6062 139.567 38.8538 139.607 38.9343C139.647 39.0148 140.911 38.1194 141.172 38.4212C141.433 38.7231 139.607 39.5682 139.758 39.5682C139.908 39.5682 140.891 39.4274 140.901 39.6487C140.911 39.8701 138.765 40.4235 138.424 40.8561C138.083 41.2888 133.408 45.3739 132.335 45.1626C131.262 44.9513 126.778 41.1379 126.637 40.0009C126.497 38.8639 127.149 37.5559 127.881 37.5458C128.613 37.5357 132.776 41.5705 133.007 41.5705C133.238 41.5705 136.869 39.367 136.869 39.367Z" fill="#DF8B83"/>
<path d="M114.189 59.1084C114.632 59.6068 115.146 60.0373 115.713 60.3863C114.756 62.0513 113.691 63.6512 112.524 65.1757C112.403 65.0657 112.309 64.9298 112.248 64.7782C112.188 64.6267 112.162 64.4633 112.173 64.3003C112.273 63.8375 112.714 61.7144 112.173 60.8793C112.042 60.6579 110.578 58.233 109.474 56.0395C110.247 55.5666 112.082 56.0395 112.774 55.4358C113.34 56.6213 113.813 57.8492 114.189 59.1084Z" fill="#F4A392"/>
<path d="M114.71 59.6617C114.71 59.6617 112.885 62.4489 112.514 62.7608C112.142 63.0727 111.681 66.1013 112.142 66.1416C112.604 66.1818 116.466 61.6741 116.516 61.1107C116.566 60.5472 114.71 59.6617 114.71 59.6617Z" fill="#264553"/>
<path d="M109.625 63.435C109.778 64.0782 110.025 64.6952 110.357 65.2663C108.658 66.1616 106.902 66.9447 105.101 67.6107C105.048 67.4609 105.032 67.3008 105.053 67.1434C105.074 66.986 105.131 66.8358 105.221 66.7051C105.542 66.3731 107.308 64.24 107.227 63.2941C107.196 62.2237 107.082 61.1573 106.886 60.1045C107.82 60.0803 108.751 59.9997 109.675 59.863C109.745 61.161 109.625 63.2438 109.625 63.435Z" fill="#F4A392"/>
<path d="M115.473 45.8871C115.473 45.8871 107.909 49.8012 106.977 50.7168C106.274 51.4111 106.305 60.7283 106.305 60.7283C106.305 60.7283 108.872 61.322 110.237 60.6378C110.237 60.6378 110.758 54.2988 111.119 54.1177C111.48 53.9366 119.274 52.1657 119.274 52.1657L119.545 48.4026L115.473 45.8871Z" fill="#265383"/>
<path d="M122.896 44.1364C122.896 44.1364 119.646 46.4707 118.241 46.7826C117.168 47.014 108.481 48.4126 108.15 50.8677C107.96 52.2563 109.966 58.1626 109.966 58.1626L113.737 56.764C113.737 56.764 112.684 53.9768 112.875 53.6649C113.065 53.353 120.087 54.5101 122.194 53.4939C124.3 52.4776 124.691 47.7787 124.691 47.7787L122.896 44.1364Z" fill="#3166AA"/>
<path d="M123.959 34.4165C123.107 34.0467 122.282 33.6163 121.491 33.1286C120.879 32.6557 116.145 44.1967 113.737 46.5009C117.118 49.1773 123.999 52.2261 123.999 52.2261C124.82 50.5821 125.369 48.8149 125.624 46.9939C125.778 45.0989 126.076 43.2185 126.517 41.3693L129.055 43.6433L131.612 39.6185C130.193 38.1577 128.66 36.8119 127.028 35.5938C126.657 35.463 123.959 34.4165 123.959 34.4165Z" fill="#FDCD7C"/>
<path d="M109.805 64.089C109.805 64.089 106.585 65.5983 106.054 65.6788C105.522 65.7593 103.937 68.1942 104.358 68.486C104.78 68.7778 110.477 66.8761 110.849 66.373C111.22 65.87 109.805 64.089 109.805 64.089Z" fill="#264553"/>
<path d="M123.457 32.2532C123.266 33.0462 122.98 33.8132 122.605 34.5372C122.405 34.604 122.239 34.747 122.144 34.9352C122.048 35.1235 122.03 35.3419 122.093 35.5434C122.234 36.1371 123.598 36.2176 124.28 36.1069C124.707 36.0305 125.112 35.8585 125.464 35.6038L126.216 32.1526L123.457 32.2532Z" fill="#F4A392"/>
<path d="M124.029 33.4003C124.795 33.4 125.534 33.1171 126.105 32.6054L126.216 32.1224L123.457 32.2532C123.457 32.2532 123.317 32.7765 123.136 33.3198C123.429 33.3858 123.729 33.4129 124.029 33.4003Z" fill="#EE7459"/>
<path d="M127.399 29.8584C127.399 29.8584 127.851 28.6309 128.533 29.1038C129.215 29.5767 128.052 31.2872 127.44 31.0356C126.828 30.7841 127.399 29.8584 127.399 29.8584Z" fill="#F4A392"/>
<path d="M126.266 25.0287C125.916 24.9189 125.545 24.8926 125.182 24.952C124.82 25.0114 124.477 25.1548 124.18 25.3708C123.459 26.0492 122.903 26.8847 122.555 27.8129C122.207 28.741 122.076 29.7369 122.173 30.7237C122.615 32.8769 124.049 32.8266 124.631 32.8065C125.207 32.8026 125.773 32.6473 126.271 32.356C126.769 32.0647 127.182 31.6476 127.47 31.1463C128.573 29.5968 129.396 25.6425 126.266 25.0287Z" fill="#F4A392"/>
<path d="M124.761 30.7743L123.257 30.2108C123.21 30.3882 123.234 30.5768 123.324 30.7365C123.414 30.8962 123.563 31.0144 123.738 31.066C124.531 31.388 124.761 30.7743 124.761 30.7743Z" fill="white"/>
<path d="M140.61 40.9265C139.572 41.1058 138.505 40.9059 137.601 40.3631C137.541 40.1015 138.423 39.9103 139.025 40.021C139.627 40.1317 140.41 39.4374 141.423 39.9606C141.994 40.5744 140.61 40.9265 140.61 40.9265Z" fill="#E5A196"/>
<path d="M139.758 36.7107C141.202 37.7672 140.169 37.7672 138.875 37.4352C139.597 37.7773 139.567 38.0087 139.386 38.1597C138.72 38.2956 138.028 38.181 137.44 37.8377C137.23 37.5459 137.992 36.5699 138.283 36.3284C138.486 36.1646 138.677 35.9864 138.855 35.7951C139.115 35.4884 139.411 35.2147 139.738 34.9801C140.139 34.6984 140.48 34.9801 141.001 35.2719C141.653 35.7851 141.423 36.2177 140.44 35.9058C140.53 35.9762 141.282 36.3988 141.132 36.8013C140.981 37.2038 140.61 36.912 139.758 36.7107Z" fill="#E5A195"/>
<path d="M120.077 51.9243C119.575 52.0953 119.144 53.1921 119.074 53.1317C117.815 53.6855 116.656 54.4436 115.643 55.3755C115.587 55.5735 115.52 55.7683 115.443 55.9591L117.338 56.4018C118.196 55.757 118.941 54.9752 119.545 54.0876C119.636 53.9065 119.876 53.4135 119.997 53.1518C120.14 52.8259 120.312 52.5129 120.508 52.2161C120.669 52.045 120.518 51.8035 120.077 51.9243Z" fill="#F4A392"/>
<path d="M48.426 50.7972C48.5965 53.7554 52.8195 54.661 55.6984 53.8661C57.5842 53.3529 58.3767 52.8599 58.0858 50.8475C57.6143 47.517 55.7185 45.9776 53.6421 45.726C50.9538 45.4242 48.2956 48.3723 48.426 50.7972Z" fill="#264553"/>
<path d="M53.4615 94.6267L55.7386 115.002C55.7386 115.002 54.6251 119.319 54.7355 120.536C54.8458 121.754 57.2131 137.822 57.2131 137.822L57.1128 138.728V141.354H65.8197C64.2886 140.632 62.8074 139.809 61.386 138.889C61.1794 138.743 61.0063 138.554 60.8783 138.335C60.7503 138.117 60.6703 137.873 60.6437 137.621C59.9516 132.671 61.3158 116.159 61.3158 116.159L62.3991 94.667L53.4615 94.6267Z" fill="#E5A195"/>
<path d="M46.47 98.9131C45.9785 99.0439 45.2162 116.562 44.8149 117.336C42.2269 122.257 41.6151 137.229 41.6151 137.229L40.8326 139.402C41.25 139.774 41.7926 139.974 42.3511 139.961C42.9096 139.948 43.4424 139.723 43.8419 139.331L43.7015 136.977L50.2216 118.332L53.7826 99.3156L46.47 98.9131Z" fill="#E5A195"/>
<path d="M59.4199 64.9745C58.4168 63.5457 54.0333 59.3801 53.5518 59.3902C52.1475 59.3902 47.5333 59.3901 46.6405 59.8731V67.7918C46.791 68.4559 49.9708 78.7994 49.7902 81.0633C50.4173 81.673 51.1623 82.1473 51.9793 82.4569C52.7962 82.7665 53.6678 82.9048 54.5401 82.8634C55.4125 82.8219 56.2671 82.6015 57.0511 82.2157C57.8352 81.83 58.5322 81.2871 59.0989 80.6206C59.1043 78.603 59.2249 76.5873 59.46 74.5835C60.112 70.1563 62.0279 68.5364 59.4199 64.9745Z" fill="#FDCD7C"/>
<path d="M63.2417 107.888L63.5527 95.8139C63.6136 92.403 62.9289 89.02 61.5465 85.903L59.1992 80.6608C58.2744 80.98 57.32 81.2058 56.3505 81.3349C54.1879 81.4979 52.014 81.4135 49.8705 81.0834C49.8705 81.1639 49.8705 81.2343 49.8705 81.2947C49.4692 83.0756 47.2825 87.0501 46.3697 92.4734C45.5641 97.5717 45.165 102.726 45.176 107.888C51.1144 109.311 57.3033 109.311 63.2417 107.888Z" fill="#3166AA"/>
<path d="M52.1375 54.9427C52.2067 56.2859 52.1597 57.6325 51.997 58.9675C51.7362 60.0743 51.3851 60.1548 53.6421 60.4969C54.5248 60.6277 55.3775 60.8189 55.3775 60.8189C55.3775 60.8189 55.1468 59.1989 55.1066 58.5147C55.1066 57.3777 55.3674 53.8862 55.3674 53.8862L52.1375 54.9427Z" fill="#E5A195"/>
<path d="M53.8728 56.3916C54.2744 56.6194 54.7122 56.776 55.1668 56.8545C55.2471 55.476 55.3875 53.8862 55.3875 53.8862L52.308 54.8924C52.6861 55.5239 53.2266 56.0418 53.8728 56.3916Z" fill="#DB7762"/>
<path d="M43.8418 139.341C42.8718 139.707 41.8026 139.707 40.8326 139.341L40.662 139.804L40 141.988C40 141.988 42.608 142.632 44.0124 141.887L43.8418 139.341Z" fill="#3166AA"/>
<path d="M57.0527 142.048H66.0805C66.4115 142.048 66.4918 141.736 66.3814 141.575C65.6072 141.075 64.7708 140.679 63.8937 140.398C61.8173 140.619 57.4539 139.201 57.1229 138.718C56.9136 139.816 56.8899 140.942 57.0527 142.048Z" fill="#3166AA"/>
<path d="M58.8883 68.7476C58.8883 68.7476 60.413 71.7662 60.6638 72.1184C60.6638 72.1184 67.3645 70.6292 70.1932 69.7437L70.2935 69.6934C70.2935 69.6934 70.4239 69.6935 70.4339 69.5828C70.4941 69.2407 70.8051 68.0836 70.9656 67.5704C71.0035 67.4335 71.0761 67.3087 71.1762 67.2082C71.3869 66.9667 72.3198 65.4272 72.3198 65.4272C72.3198 65.4272 72.6408 65.548 72.6408 66.0611C72.6408 66.5743 71.9386 67.5201 72.1292 67.5302C72.3281 67.5284 72.5252 67.4909 72.711 67.4195C72.9748 67.3438 73.2514 67.3233 73.5235 67.3591C73.6476 67.3716 73.7627 67.4301 73.8461 67.5231C73.9296 67.6162 73.9755 67.737 73.9749 67.8622C73.9493 68.0323 73.9493 68.2053 73.9749 68.3754C74.0852 68.637 74.2457 71.0417 73.8344 71.2832C73.2695 71.4696 72.6828 71.5813 72.0891 71.6153C71.7805 71.6175 71.4761 71.6862 71.1963 71.8165L71.0157 71.8869C69.0096 72.712 62.2587 75.5796 62.2587 75.5796C62.2587 75.5796 58.9586 76.7669 58.4771 76.3443C57.9956 75.9217 55.1067 70.2368 55.1067 70.2368L58.8883 68.7476Z" fill="#F4A392"/>
<path d="M51.5756 63.2538C50.9236 65.9403 54.4043 71.917 54.4043 71.917C54.4043 71.917 59.3496 69.5827 60.2223 68.5765C60.2223 68.5765 56.8619 62.7708 56.6412 62.4186C56.3297 61.8566 55.8475 61.409 55.2647 61.1412C54.6819 60.8733 54.029 60.7991 53.4013 60.9295C52.6891 61.01 51.5756 63.2538 51.5756 63.2538Z" fill="#E6A264"/>
<path d="M52.7593 64.6525C54.7655 62.2779 55.0464 57.6595 53.1405 55.2044C54.0031 53.675 54.7153 53.826 54.2339 52.1859C53.2909 48.8755 57.0124 46.1488 53.3712 45.7664C49.7199 45.5551 47.7639 48.1712 46.4498 50.5659C45.8614 51.6608 45.0477 52.6177 44.0625 53.3732C43.0183 54.2269 42.3243 55.4367 42.1134 56.7713C41.9024 58.106 42.1892 59.4718 42.919 60.6076C41.3341 61.8251 40.2307 64.8236 41.6952 66.9667C42.0463 67.49 42.6983 68.0534 42.6983 68.2144C42.6281 68.0232 41.7955 73.4063 47.9043 74.3219C54.0132 75.2376 54.5849 69.3111 52.7593 64.6525Z" fill="#264553"/>
<path d="M52.1977 47.9297C51.4703 48.4997 50.9661 49.3083 50.7733 50.2137C50.4924 51.6828 52.0472 55.6572 55.2471 56.1502C58.4469 56.6433 58.8081 53.2122 57.9354 51.0187C57.0627 48.8252 55.3574 46.1286 52.1977 47.9297Z" fill="#E5A195"/>
<path d="M50.693 52.9103C49.9608 50.7974 49.8906 49.1271 51.325 48.1108C52.7594 47.0946 53.9732 46.0985 55.558 47.3461L55.8991 47.4769C55.8991 47.4769 53.3914 48.5737 53.4415 49.9823C53.4917 51.391 52.3381 53.2323 52.6491 53.8863C52.96 54.5404 53.4014 55.8987 53.4014 55.8987L52.7594 55.5063C52.2446 55.2544 51.7921 54.8907 51.4347 54.4418C51.0773 53.9928 50.824 53.4697 50.693 52.9103Z" fill="#264553"/>
<path d="M53.0703 51.9946C53.4515 52.5178 53.4716 53.1517 53.0703 53.4033C52.6691 53.6548 52.0673 53.4636 51.7262 52.9404C51.3852 52.4172 51.325 51.7934 51.7262 51.5318C52.1274 51.2702 52.6892 51.4815 53.0703 51.9946Z" fill="#E5A195"/>
<path d="M83.3838 104.568C82.501 104.95 79.6523 103.612 78.258 102.897C76.6731 102.082 75.69 101.569 73.744 100.543C72.6106 99.9494 70.8551 99.4563 70.5041 100.09C70.3235 101.469 72.3096 102.757 73.5133 102.495C74.9175 103.286 76.259 104.184 77.5257 105.182C78.8097 106.137 80.214 106.912 81.9794 108.301C83.7449 109.689 85.5805 110.474 86.4633 109.961C87.346 109.448 86.6539 106.731 86.0821 105.866C85.5103 105 83.3838 104.568 83.3838 104.568Z" fill="#E7B464"/>
<path d="M93.0436 123.695C93.2744 126.714 90.6463 129.089 90.5459 132.017C90.4456 134.945 94.8593 136.353 92.7628 139.674C92.191 140.438 90.1949 140.79 88.5598 140.79C88.3547 140.771 88.1478 140.794 87.9523 140.86C87.7569 140.925 87.5773 141.031 87.4251 141.171C87.273 141.31 87.1516 141.48 87.0689 141.669C86.9862 141.858 86.9439 142.063 86.9448 142.27H92.7327C96.5444 141.213 97.2265 139.482 97.6278 138.708C98.2898 137.44 107.247 128.183 95.6216 135.287C92.7828 137.027 99.634 131.584 99.7945 129.662C99.2327 127.318 92.7227 119.701 93.0436 123.695Z" fill="#E7B464"/>
<path d="M94.3777 91.256C93.4448 90.7731 92.1307 90.8234 90.927 90.0587C89.7233 89.294 89.0512 88.1771 88.4293 88.1771C87.8074 88.1771 85.9015 89.294 87.0952 91.8397C87.0952 91.8397 88.9509 95.4116 88.4293 97.5145C88.1585 98.6314 86.7542 100.644 84.5474 102.757C82.3405 104.87 80.8961 110.605 82.3807 113.976C83.8652 117.346 88.2889 119.319 90.596 121.331C92.1033 122.871 93.1464 124.807 93.6053 126.915C92.6022 130.286 91.4888 134.039 94.6084 136.736C97.728 139.432 97.6177 140.247 97.6177 140.247C96.2111 140.635 94.7494 140.781 93.2943 140.68C93.0835 140.67 92.873 140.704 92.6762 140.78C92.4793 140.857 92.3006 140.973 92.1514 141.123C92.0021 141.273 91.8858 141.452 91.8097 141.65C91.7336 141.847 91.6994 142.058 91.7094 142.27H95.3406C96.1951 142.27 97.0444 142.138 97.8584 141.877C100.968 140.871 101.369 140.931 101.449 140.157C101.53 139.382 98.3298 137.651 100.687 135.287C103.044 132.922 104.699 131.584 104.86 129.662C109.805 132.067 116.897 132.681 121.752 129.421C122.374 128.938 119.746 129.712 116.135 130.045C112.524 130.377 108.11 129.28 106.204 126.342C104.75 124.118 105.201 122.156 102.192 117.819C99.1825 113.483 97.0058 112.195 96.5744 108.965C96.0031 106.196 95.8745 103.353 96.1933 100.543C96.5744 95.8744 96.9055 95.6229 96.2835 93.7615C95.9321 92.7431 95.2641 91.8649 94.3777 91.256Z" fill="#FDCD7C"/>
<path d="M92.2912 92.1515C92.3514 92.3628 92.2912 92.5439 92.1307 92.6043C92.0324 92.6266 91.9294 92.6111 91.8421 92.5608C91.7547 92.5105 91.6895 92.429 91.6592 92.3326C91.6456 92.2838 91.6418 92.2326 91.6481 92.1823C91.6544 92.1319 91.6706 92.0833 91.6958 92.0393C91.721 91.9952 91.7547 91.9567 91.7949 91.9259C91.8351 91.895 91.8811 91.8726 91.9301 91.8598C92.1307 91.7994 92.221 91.8799 92.2912 92.1515Z" fill="#8A5038"/>
<path d="M81.7788 111.048C81.7953 111.589 81.8591 112.128 81.9694 112.658C83.8051 114.016 86.2626 114.358 86.5636 113.875C86.0047 113.097 85.2909 112.444 84.4672 111.957C83.6436 111.471 82.7281 111.161 81.7788 111.048Z" fill="#E7B464"/>
<path d="M94.5784 99.1545C94.8592 99.6576 96.9055 99.0337 97.1162 98.8627C97.3268 98.6916 96.7551 95.8441 96.3538 94.8883C95.9526 93.9324 95.3508 94.194 95.3508 94.194C95.8523 95.4014 94.2875 98.6413 94.5784 99.1545Z" fill="#E7B464"/>
<path d="M88.981 88.3883C88.8306 88.7505 88.6299 88.8411 88.4293 88.66C88.2993 88.5491 88.154 88.4576 87.998 88.3883C87.9378 88.2776 88.2187 88.1066 88.4594 88.1066C88.7002 88.1066 88.981 88.2977 88.981 88.3883Z" fill="#C57552"/>
<path d="M83.8151 108.019C82.812 108.431 79.7426 107.013 78.2078 106.198L73.2826 103.622C72.0388 102.968 70.1229 102.435 69.7417 103.119C69.5511 104.638 71.7479 106.037 73.062 105.755C74.6 106.619 76.0689 107.601 77.4555 108.693C78.8598 109.699 80.3845 110.585 82.3205 112.094C84.2565 113.603 86.2526 114.469 87.2156 113.915C88.1786 113.362 87.4263 110.373 86.8043 109.438C86.1824 108.502 83.8151 108.019 83.8151 108.019Z" fill="#FDCD7C"/>
<path d="M277.221 31.1704H268.274C266.739 31.1704 265.495 32.4182 265.495 33.9575V47.2996C265.495 48.8389 266.739 50.0867 268.274 50.0867H277.221C278.756 50.0867 280 48.8389 280 47.2996V33.9575C280 32.4182 278.756 31.1704 277.221 31.1704Z" fill="#B3B3B2"/>
<path d="M272.748 31.4321C271.972 31.4659 271.24 31.7987 270.704 32.3612C270.167 32.9237 269.868 33.6723 269.869 34.4507H275.637C275.637 33.6706 275.337 32.9206 274.798 32.3578C274.26 31.7951 273.525 31.4633 272.748 31.4321ZM272.748 32.3276C272.702 32.3263 272.656 32.3159 272.614 32.297C272.572 32.2781 272.534 32.2511 272.502 32.2174C272.471 32.1838 272.446 32.1442 272.429 32.1009C272.413 32.0577 272.405 32.0117 272.407 31.9654C272.404 31.871 272.438 31.7792 272.502 31.7097C272.565 31.6401 272.654 31.5983 272.748 31.5931C272.843 31.5983 272.932 31.6397 272.997 31.709C273.063 31.7783 273.099 31.8701 273.099 31.9654C273.099 32.0598 273.062 32.1504 272.997 32.218C272.931 32.2857 272.842 32.325 272.748 32.3276Z" fill="#F0F0F0"/>
<path d="M277.482 36.2115H268.023V36.9159H277.482V36.2115Z" fill="#334356"/>
<path d="M277.482 37.8314H268.023V38.5358H277.482V37.8314Z" fill="#334356"/>
<path d="M277.482 39.4614H268.023V40.1657H277.482V39.4614Z" fill="#334356"/>
<path d="M277.482 41.0814H268.023V41.7857H277.482V41.0814Z" fill="#334356"/>
<path d="M275.576 29.312H274.112V33.4977H275.576V29.312Z" fill="#CD3735"/>
<path d="M276.931 44.7137H272.758V46.1828H276.931V44.7137Z" fill="#CD3735"/>
<path d="M277.021 33.233H268.454C268.154 33.2395 267.857 33.3058 267.582 33.4279C267.307 33.55 267.059 33.7256 266.852 33.9445C266.645 34.1635 266.483 34.4214 266.376 34.7034C266.269 34.9854 266.218 35.2859 266.228 35.5875V44.6432H270.3C270.561 44.6432 270.661 44.7639 270.762 45.1161V49.4628H277.011C277.621 49.447 278.2 49.1893 278.621 48.7461C279.042 48.3029 279.271 47.7104 279.258 47.0983V35.5875C279.269 34.9788 279.04 34.3904 278.621 33.9497C278.202 33.5089 277.627 33.2515 277.021 33.233ZM278.566 47.1285C278.571 47.5343 278.418 47.9262 278.138 48.2197C277.859 48.5132 277.475 48.685 277.071 48.6981H271.544V45.0457C271.393 44.442 271.153 43.9791 270.38 43.8886H267.01V35.5976C267.003 35.3977 267.036 35.1985 267.107 35.0115C267.178 34.8245 267.285 34.6535 267.422 34.5084C267.559 34.3633 267.724 34.247 267.906 34.1662C268.089 34.0855 268.285 34.0419 268.484 34.038H277.051C277.454 34.0485 277.838 34.2181 278.117 34.51C278.397 34.802 278.551 35.1927 278.546 35.5976L278.566 47.1285Z" fill="#F0F0F0"/>
<path d="M270.15 47.4405C270.15 47.4405 270.721 44.7942 268.224 45.247C267.516 45.2366 266.824 45.0387 266.218 44.6735C267.521 46.4776 269.055 48.1014 270.782 49.5031C270.318 48.9208 270.092 48.1835 270.15 47.4405Z" fill="#F0F0F0"/>
<path d="M273.099 50.0868C273.099 50.0868 274.242 63.3885 262.135 63.3885" stroke="#F6D047" stroke-width="0.75" stroke-miterlimit="10"/>
<path d="M218.922 89.4789C218.922 89.4789 219.985 93.242 219.734 94.1778C219.483 95.1135 218.36 96.8743 217.858 96.814C217.357 96.7536 217.858 90.7768 217.858 90.7768L218.922 89.4789Z" fill="#E9B085"/>
<path d="M200.806 60.3599C200.415 59.6053 209.282 56.8986 209.422 64.3243C209.422 64.3243 226.044 63.9117 218.109 54.6246C215.361 51.4048 215.642 48.7485 215.722 46.2733C215.802 43.7981 214.017 36.6139 207.868 37.3384C207.27 37.1494 206.64 37.0858 206.017 37.1516C205.394 37.2174 204.792 37.4111 204.247 37.7207C199.672 40.0953 189.431 63.0967 200.806 60.3599Z" fill="#213557"/>
<path d="M219.734 90.6057C219.734 90.6057 219.644 91.0585 218.731 91.2899C218.104 91.4175 217.462 91.4514 216.825 91.3905L216.233 91.3402C215.842 91.3402 215.401 91.2295 214.909 91.139L215.25 70.7436L213.806 54.8157C213.806 54.8157 216.815 56.2646 218.36 60.9735C219.514 64.5757 219.704 80.091 219.734 87.1343C219.744 89.2675 219.734 90.6057 219.734 90.6057Z" fill="#ADC0E1"/>
<g opacity="0.3">
<path opacity="0.3" d="M219.734 90.6059C219.734 90.6059 219.644 91.0586 218.731 91.2901C218.104 91.4176 217.462 91.4516 216.825 91.3907L217.096 76.1973C217.096 76.1973 217.327 84.4983 219.754 87.1446C219.744 89.2676 219.734 90.6059 219.734 90.6059Z" fill="#8998C9"/>
</g>
<path d="M189.561 133.751C189.561 133.751 187.706 135.452 188.067 136.669C188.428 137.887 190.073 138.681 190.334 140.161C190.594 141.64 191.467 142.455 192.34 142.455H196.232C196.232 142.455 196.834 141.448 195.389 141.096C193.945 140.744 193.383 139.084 193.473 137.424C193.511 136.168 193.468 134.911 193.343 133.661L190.253 132.946L189.561 133.751Z" fill="#234175"/>
<path d="M205.34 134.476C205.34 134.476 204.668 141.69 205.49 142.092H215.952C215.952 142.092 215.952 140.885 214.267 140.613C212.582 140.342 209.643 139.356 209.141 137.162C208.64 134.969 205.34 134.476 205.34 134.476Z" fill="#234175"/>
<path d="M213.866 75.2413C213.866 75.2413 216.875 84.6492 217.076 87.8589C217.277 91.0686 211.308 133.389 211.057 134.868C210.807 136.347 209.111 137.142 209.111 137.142C208.513 137.439 207.823 137.493 207.185 137.293C206.424 137.134 205.714 136.788 205.119 136.287C205.119 136.287 202.772 106.101 204.226 95.3147C205.112 88.642 205.601 81.9222 205.691 75.191L213.866 75.2413Z" fill="#22365D"/>
<path d="M201.087 74.9396C201.087 74.9396 196.482 81.1276 196.071 85.3133C195.66 89.4991 195.399 104.189 194.476 108.274C193.553 112.36 190.213 120.198 190.213 132.926C190.533 133.463 191.041 133.861 191.638 134.043C192.049 134.18 192.467 134.294 192.891 134.385C193.318 134.482 193.765 134.436 194.163 134.254C194.562 134.072 194.89 133.765 195.098 133.379C197.365 128.801 204.597 114.02 204.969 110.951C205.229 108.778 206.764 95.7475 211.75 87.3156C212.943 85.3033 212.873 76.469 212.873 76.469L201.087 74.9396Z" fill="#224685"/>
<path d="M197.315 62.8654C197.225 64.4807 197.225 66.0998 197.315 67.7152C197.415 69.4659 199.191 71.8204 199.442 72.3939C200.064 73.8529 200.776 74.0944 200.776 74.0944L206.273 75.4427L206.734 78.3908C206.734 78.3908 211.338 80.4032 214.538 77.3041C217.317 74.6478 217.066 66.3266 215.953 61.9598C215.31 59.3875 214.364 56.9014 213.134 54.5542C213.134 54.5542 209.011 52.9142 201.699 54.1417L197.315 62.8654Z" fill="#224685"/>
<path d="M203.635 53.6587C202.382 53.8659 201.142 54.1481 199.923 54.5039L198.92 67.2019H208.459L204.878 57.774L203.635 53.6587Z" fill="#ADC0E1"/>
<path d="M208.419 67.202L207.416 106.323C207.416 106.323 202.19 108.808 192.199 106.323L194.777 64.6765L208.419 67.202Z" fill="#ADC0E1"/>
<path d="M201.204 64.1709L192.194 74.5529C191.75 75.0642 191.804 75.8396 192.314 76.2848L199.373 82.4486C199.882 82.8937 200.655 82.84 201.099 82.3287L210.109 71.9467C210.553 71.4354 210.499 70.66 209.989 70.2148L202.931 64.051C202.421 63.6059 201.648 63.6595 201.204 64.1709Z" fill="#CF5D4C"/>
<path d="M202.752 75.5131C202.852 75.5131 206.493 75.9759 206.493 76.7305C206.434 77.2558 206.195 77.744 205.816 78.1112C205.437 78.4785 204.942 78.7018 204.417 78.7429C203.585 78.2406 202.817 77.6392 202.13 76.9519L202.752 75.5131Z" fill="#E9B085"/>
<path d="M204.618 53.7091C205.112 52.2775 205.333 50.7654 205.27 49.2517L205.55 49.3121L210.185 50.2277C210.185 50.2277 210.074 51.6967 210.074 53.0752C210.074 54.2726 210.877 55.4699 208.971 55.9529C208.349 56.124 203.745 55.8221 204.618 53.7091Z" fill="#E9B085"/>
<path d="M210.185 50.2276C210.185 50.2276 210.074 51.6966 210.074 53.0751C207.476 52.9946 206.112 50.62 205.55 49.312L210.185 50.2276Z" fill="#E29465"/>
<path d="M211.047 51.5356C211.047 51.5356 204.908 51.6363 204.908 47.8027C204.908 43.9692 204.106 41.3933 208.028 41.172C211.95 40.9506 212.713 42.4096 213.044 43.6874C213.375 44.9653 212.642 51.4048 211.047 51.5356Z" fill="#E9B085"/>
<path d="M210.827 41.0815C210.827 41.0815 209.141 45.5792 206.563 46.2432C203.986 46.9073 202.862 46.2432 202.862 46.2432C204.136 45.1244 204.981 43.5939 205.249 41.9166C205.249 41.9166 209.553 38.9383 210.827 41.0815Z" fill="#213557"/>
<path d="M210.405 41.4436C211.118 41.7161 211.733 42.1962 212.171 42.822C212.789 43.8873 213.076 45.1138 212.993 46.3437C212.993 46.3437 214.257 43.3251 212.843 41.5543C211.429 39.7834 210.405 41.4436 210.405 41.4436Z" fill="#213557"/>
<path d="M202.752 75.513C203.221 75.3601 203.714 75.2953 204.206 75.3218C204.788 75.4023 205.209 75.3218 205.209 75.4727C205.209 75.6237 204.457 75.7142 204.297 75.7846C203.774 75.7466 203.256 75.6555 202.752 75.513Z" fill="#E9B085"/>
<path d="M201.659 54.1115C200.36 54.2449 199.12 54.7199 198.063 55.4884C197.006 56.257 196.17 57.2919 195.64 58.4884C193.965 62.5131 190.795 69.3954 190.795 70.5626C190.795 71.7298 192.571 75.2615 202.08 77.294C202.08 77.294 203.083 76.2878 203.003 75.4426C203.003 75.4426 197.064 70.3312 197.084 69.7275C197.084 68.6006 198.088 67.1114 203.263 61.8792C204.668 60.4404 201.659 54.1115 201.659 54.1115Z" fill="#ADC0E1"/>
<path d="M206.273 60.5007C206.273 60.5007 204.628 56.0131 204.949 52.6323C204.185 52.842 203.507 53.2895 203.013 53.9102C203.013 53.9102 202.712 59.0719 203.655 61.4666C204.222 61.511 204.792 61.4772 205.35 61.366C205.35 61.366 204.748 62.3722 204.838 62.5231L208.419 67.2019L206.273 60.5007Z" fill="#8998C9"/>
<path d="M213.485 65.1996L214.488 105.447C215.901 105.488 217.276 104.983 218.33 104.038L217.046 60.4504C217.046 60.4504 215.702 55.2082 213.034 54.5441L210.395 53.88L213.485 65.1996Z" fill="#ADC0E1"/>
<path d="M210.074 53.0751C210.091 53.6582 210.144 54.2396 210.235 54.8158C210.666 57.8344 213.886 63.8715 213.525 66.6285C213.525 66.6285 213.856 61.9094 213.856 60.9032L212.923 60.2492L214.137 59.7461C214.137 59.7461 211.87 54.0511 210.074 53.0751Z" fill="#8998C9"/>
<path d="M205.228 90.8231L196.144 90.162L196.077 91.0952L205.161 91.7564L205.228 90.8231Z" fill="#8998C9"/>
<g opacity="0.3">
<path opacity="0.3" d="M196.091 91.0887C196.091 91.0887 195.429 96.7335 196.091 97.2567C196.753 97.7799 203.675 98.4239 204.317 97.9107C204.959 97.3975 205.179 91.7428 205.179 91.7428L196.091 91.0887Z" fill="#8998C9"/>
</g>
<path d="M239.766 42.1177C239.766 42.1177 238.101 38.576 238.442 36.7145C238.783 34.8531 238.693 32.3678 241.18 31.4119C243.668 30.456 243.879 31.4119 246.577 31.09C249.275 30.768 250.118 34.1085 250.369 35.5373C250.609 36.5396 250.63 37.5825 250.429 38.5937C250.228 39.6048 249.811 40.5601 249.205 41.3933C248.533 42.2586 248.202 42.6913 248.202 42.6913L239.766 42.1177Z" fill="#22365D"/>
<path d="M232.865 142.092C232.851 141.31 232.936 140.529 233.115 139.768C233.366 139.194 234.279 136.83 234.279 136.83H237.83C238.128 137.765 238.363 138.72 238.532 139.688C238.532 140.392 238.532 142.092 238.532 142.092H232.865Z" fill="#22365D"/>
<path d="M255.434 142.092C255.447 141.311 255.366 140.53 255.193 139.768C254.943 139.194 254.03 136.83 254.03 136.83H250.479C250.18 137.765 249.946 138.72 249.777 139.688C249.777 140.392 249.777 142.092 249.777 142.092H255.434Z" fill="#22365D"/>
<path d="M233.316 81.6609C233.316 81.6609 233.938 100.708 233.005 111.575C232.072 122.442 233.005 137.564 233.005 137.564C233.969 138.04 235.03 138.288 236.105 138.288C237.179 138.288 238.24 138.04 239.204 137.564C239.204 137.564 242.735 116.565 242.715 111.575C242.715 106.252 246.567 82.486 246.567 82.486L233.316 81.6609Z" fill="#5DB3BC"/>
<path d="M255.314 137.564C254.35 138.04 253.289 138.288 252.214 138.288C251.14 138.288 250.079 138.04 249.115 137.564C249.115 137.564 245.574 116.565 245.604 111.575C245.604 109.321 244.922 103.787 244.129 98.1421C243.046 90.4146 241.752 82.4859 241.752 82.4859L255.525 81.6306C255.525 81.6306 254.391 100.748 255.314 111.575C256.237 122.401 255.314 137.564 255.314 137.564Z" fill="#5DB3BC"/>
<path d="M235.994 50.6904C235.994 50.6904 230.868 51.3042 229.745 55.9125C228.621 60.5209 224.188 72.2631 228.622 74.9093C228.622 74.9093 233.306 68.6207 235.081 63.5394C236.857 58.4582 235.994 50.6904 235.994 50.6904Z" fill="#ADC0E1"/>
<path d="M253.408 53.1556C253.408 53.1556 258.564 52.5016 259.687 57.12C260.811 61.7384 264.412 72.0417 259.988 74.6981C259.988 74.6981 254.973 68.661 253.207 63.5395C251.442 58.418 253.408 53.1556 253.408 53.1556Z" fill="#ADC0E1"/>
<path d="M241.2 44.1402C241.15 46.0325 240.942 47.9173 240.578 49.7748L236.646 52.5116L251.482 54.7353L247.951 49.8553C247.951 49.8553 246.888 44.6432 247.45 42.7114C248.011 40.7795 241.2 44.1402 241.2 44.1402Z" fill="#E9B085"/>
<path d="M241.18 44.6836C241.18 44.6836 242.344 47.5009 244.551 47.4405C246.757 47.3802 247.249 44.8848 247.249 44.8848L241.18 44.6836Z" fill="#E3986A"/>
<path d="M244.29 46.3437C242.695 46.3437 239.766 44.1905 239.766 41.5543V37.439C239.738 37.0119 239.878 36.5907 240.155 36.2655C240.432 35.9403 240.826 35.7367 241.251 35.6982H247.339C247.766 35.7367 248.161 35.9417 248.438 36.2691C248.716 36.5966 248.855 37.0202 248.824 37.449V41.3329C248.824 44.0899 246.126 46.384 244.29 46.3437Z" fill="#E9B085"/>
<path d="M255.725 90.143C244.32 92.1554 232.082 90.5153 232.082 90.5153L233.226 67.373C233.226 67.041 233.166 66.6888 233.156 66.3668C233.146 66.0449 233.156 65.3607 233.156 64.7569C233.386 59.8971 234.841 51.1734 235.964 50.6703C237.453 50.1904 238.991 49.8798 240.548 49.7446C240.548 49.805 242.244 52.3003 244.26 52.5821C245.733 52.092 247.003 51.126 247.871 49.8352C248.683 49.9257 249.526 50.0364 250.419 50.2075H250.619C251.688 50.4156 252.743 50.6877 253.779 51.0225C253.779 51.0225 255.224 51.5859 254.903 61.7182L255.725 90.143Z" fill="#A4CFD1"/>
<path d="M243.026 43.7476C243.19 43.9523 243.398 44.1173 243.634 44.2305C243.87 44.3437 244.128 44.4022 244.39 44.4016C244.638 44.3959 244.881 44.3341 245.102 44.2209C245.322 44.1076 245.515 43.9458 245.664 43.7476C244.79 43.6118 243.9 43.6118 243.026 43.7476Z" fill="white"/>
<path d="M232.082 72.4139L231.42 106.846C234.559 107.635 237.756 108.173 240.98 108.455L242.133 66.3667L240.558 52.1191L239.154 49.7848C239.154 49.7848 234.42 50.1571 231.591 52.4713C229.655 54.051 228.762 59.4341 228.762 59.4341L233.216 64.1229L232.082 72.4139Z" fill="#ADC0E1"/>
<path d="M256.437 72.414L257.069 106.846C253.927 107.636 250.727 108.174 247.5 108.455L246.577 67.6245L247.931 52.1192L249.366 49.7648C249.366 49.7648 254.08 50.1572 256.929 52.4513C259.938 54.9164 260.59 60.9837 260.59 60.9837L255.304 64.1029L256.437 72.414Z" fill="#ADC0E1"/>
<path d="M228.622 74.9395C233.797 76.3381 236.706 72.7259 248.824 67.7353L248.453 65.7933C248.453 65.7933 234.53 65.9543 232.082 67.2825C228.912 68.9729 228.19 74.7987 228.622 74.9395Z" fill="#E9B085"/>
<path d="M238.723 64.4349C238.723 64.4349 233.487 64.1431 233.437 66.8195L238.271 66.5982L238.723 64.4349Z" fill="#E9B085"/>
<path d="M252.565 65.8034C252.565 65.8034 256.487 64.7972 257.139 67.4434C257.791 70.0897 251.512 67.4434 251.512 67.4434L252.565 65.8034Z" fill="#E3986A"/>
<path d="M242.755 70.4016C241.255 68.8113 239.539 67.4396 237.659 66.3265L243.778 67.4837L245.644 69.0231L244.791 69.4558L242.755 70.4016Z" fill="#E3986A"/>
<path d="M248.934 66.0046L254.15 65.6222L253.789 67.1114L248.934 66.0046Z" fill="#E3986A"/>
<path d="M233.426 66.8195C233.426 66.8195 236.997 66.2058 236.937 66.1555C236.433 65.9551 235.894 65.8593 235.352 65.8737L233.426 66.8195Z" fill="#E3986A"/>
<path d="M240.93 47.7726C240.93 47.7726 238.763 48.9699 238.392 50.0969C238.392 50.0969 237.338 54.675 238.723 57.764L240.93 57.2207L239.796 58.6293C239.796 58.6293 240.388 64.9884 242.163 66.3769C242.163 66.3669 240.769 49.463 240.93 47.7726Z" fill="#8998C9"/>
<path d="M247.54 47.7726C247.54 47.7726 249.707 48.9699 250.088 50.0969C250.088 50.0969 251.472 54.353 250.088 57.442L247.54 57.2207L249.366 58.73C249.366 58.73 248.363 66.2462 246.577 67.6347C246.577 67.6247 247.701 49.463 247.54 47.7726Z" fill="#8998C9"/>
<path d="M259.988 74.698C259.988 74.698 249.235 73.5208 236.646 65.5619L238.723 64.4349C238.723 64.4349 255.234 66.236 257.3 67.7956C260.51 70.2406 262.416 74.1245 259.988 74.698Z" fill="#E9B085"/>
<path d="M238.723 59.1525H235.192V60.702H238.723V59.1525Z" fill="#E9F1F8"/>
<path d="M242.254 35.6983C242.761 36.1332 243.349 36.4623 243.985 36.6662C244.621 36.87 245.29 36.9446 245.955 36.8856C248.031 36.5938 247.961 35.7184 248.272 36.0907C248.583 36.463 248.593 39.4413 248.994 39.6426L249.205 35.6983L245.092 33.3237L239.194 34.0079L239.766 39.7834C239.766 39.7834 239.656 37.6704 240.548 37.0567C241.144 36.6389 241.713 36.1853 242.254 35.6983Z" fill="#22365D"/>
</svg>
