<svg width="984" height="195" viewBox="0 0 984 195" fill="none" xmlns="http://www.w3.org/2000/svg">
<path d="M119.009 120.185C114.95 164.132 112.921 172.625 100.968 181.453C96.2897 184.914 87.6037 192.189 64.3058 194.066C55.9083 194.678 47.4774 194.678 39.0799 194.066C35.3553 193.83 31.6503 193.349 27.989 192.625C25.3665 192.103 22.783 191.402 20.2568 190.525C-4.37044 181.879 -4.25882 160.083 8.43532 142.965C11.7637 138.528 15.4384 134.361 19.4247 130.504C25.4116 124.629 31.7231 119.505 37.4462 114.715C42.7329 110.291 47.5223 106.151 51.1043 101.95C52.5567 100.294 53.8478 98.5035 54.9602 96.6025C55.2038 96.1661 55.4473 95.7501 55.701 95.3239C56.5026 93.9642 57.3347 92.6552 58.1566 91.4071C59.7091 89.0631 61.2616 86.9322 62.7533 85.0346C63.9405 83.5126 65.077 82.1528 66.1323 80.9758C68.0815 78.7079 70.169 76.5628 72.383 74.5526L73.2658 74.2583L74.4022 73.9234L74.9705 73.7713L75.5895 73.6089L76.2186 73.4567L76.9999 73.274L77.487 73.1624L77.7914 73.1015H77.903C82.1275 72.2147 86.4483 71.8737 90.7595 72.0868C105.29 72.7768 122.591 81.5745 119.009 120.185Z" fill="#5073C8"/>
<path d="M54.2702 180.946C54.3056 182.396 54.4549 183.842 54.7166 185.269C55.0718 186.608 57.3955 189.855 56.0358 192.636C54.5543 195.68 49.6329 192.159 47.6035 191.002C45.574 189.845 46.2133 188.171 46.1829 186.03C46.1524 183.889 45.1681 183.736 45.6451 182.285C46.122 180.834 48.6892 178.227 48.6892 178.227L54.2702 180.946Z" fill="#283A6C"/>
<path d="M49.8867 176.745C49.8867 176.745 48.3849 178.48 48.4153 178.541C48.4458 178.602 53.7933 182.6 54.2905 181.474C54.5755 180.786 54.793 180.072 54.94 179.343L49.8867 176.745Z" fill="#E1AA8A"/>
<path d="M30.1605 180.824C28.8119 181.854 27.5892 183.04 26.5177 184.356C24.7622 186.547 20.6323 186.284 20.1554 189.429C19.6785 192.575 25.4522 193.214 28.5877 192.473C31.7232 191.733 32.4538 188.658 34.3614 188.049C36.2691 187.44 37.2737 186.903 37.2737 185.38C37.1638 184.002 36.8983 182.64 36.4822 181.322C35.8737 181.455 35.2566 181.547 34.6354 181.596C33.1135 181.565 31.6048 181.305 30.1605 180.824Z" fill="#283A6C"/>
<path d="M58.877 96.6937C58.877 96.6937 57.0708 103.492 55.7111 107.967C55.3719 109.227 54.9447 110.461 54.4325 111.661C52.68 113.527 50.7944 115.263 48.7907 116.856C43.7171 121.25 36.9185 126.75 36.9185 126.75L34.889 121.93C34.889 121.93 40.9774 115.994 45.0971 112.046C47.0149 110.21 48.4964 108.809 48.7603 108.607C49.6025 107.988 51.1448 101.199 52.9409 95.6587C53.8655 92.5506 55.4431 89.6759 57.568 87.2264L58.877 96.6937Z" fill="#F4CA6A"/>
<path d="M48.7907 116.856C43.7171 121.25 36.9185 126.75 36.9185 126.75L34.889 121.93C34.889 121.93 40.9774 115.994 45.0971 112.047C46.0019 112.562 46.7946 113.253 47.4289 114.079C48.0631 114.905 48.5261 115.849 48.7907 116.856Z" fill="#E1AA8A"/>
<path d="M30.6171 178.734L30.1605 180.824C32.1663 181.638 34.3754 181.808 36.4822 181.311L36.7257 179.434L30.6171 178.734Z" fill="#E1AA8A"/>
<path d="M78.1872 129.611C78.309 130.251 46.3453 126.679 46.3453 126.679C46.3453 126.679 55.8025 121.047 56.4925 119.383C57.1825 117.719 55.3458 107.115 55.285 103.726C55.285 101.006 55.6097 88.9008 57.5579 87.2265C59.5062 85.5523 66.4469 84.0808 66.4469 84.0808L76.1476 85.3392C77.0711 85.6243 77.9648 85.998 78.8163 86.4553C79.9122 87.0946 86.2643 90.0373 87.0254 93.4163C87.7864 96.7953 79.2019 106.608 79.2019 106.608C79.2019 106.608 79.141 107.085 79.0497 107.856C78.9279 108.87 78.7351 110.464 78.5423 112.168C78.2785 114.37 78.0147 116.806 77.8523 118.581C77.6478 122.261 77.7599 125.951 78.1872 129.611Z" fill="#F4CA6A"/>
<path d="M78.1872 129.611C78.1872 129.611 81.9518 136.41 81.6169 140.773C81.2821 145.137 72.1293 159.038 70.7594 161.068C66.6397 167.024 55.6705 179.698 55.6705 179.698C55.6705 179.698 53.9963 179.505 48.9632 176.989C48.9632 176.989 57.081 159.667 58.0957 157.881C62.2967 150.312 64.7523 144.893 63.7173 143.432C62.6822 141.971 59.6077 140.327 58.7654 139.434C57.9232 138.541 41.5152 140.905 39.7597 141.189C35.3051 141.92 36.5837 149.683 37.2432 153.173C38.329 159.018 37.8419 179.698 37.8419 179.698C37.8419 179.698 34.6151 180.713 29.5212 179.13C29.5212 179.13 22.7226 141.088 22.7327 137.364C22.7429 133.64 23.1488 127.551 48.7501 125.248L78.1872 129.611Z" fill="#E7E7E7"/>
<path d="M71.1044 63.1878C71.1044 63.1878 62.8344 60.4988 63.7883 71.3055C64.7421 82.1123 66.6904 83.1372 71.9872 81.4527C77.284 79.7683 77.4565 72.8682 78.0248 69.5501C78.593 66.232 73.7934 63.5429 71.1044 63.1878Z" fill="#E1AA8A"/>
<path d="M66.67 86.851C66.67 86.851 70.0491 91.1534 76.2896 88.0991C76.2896 88.0991 75.7619 79.3827 76.8375 75.2629C77.9131 71.1431 68.527 81.0367 68.527 81.0367C68.527 81.0367 68.669 81.5135 68.6386 82.0513C68.5973 82.6212 68.5159 83.1875 68.3951 83.7459C68.0906 85.1564 67.5224 86.5771 66.67 86.851Z" fill="#E1AA8A"/>
<path d="M77.1115 74.9279C77.1115 74.9279 77.2029 71.5591 75.9852 71.3359C74.7675 71.1126 74.453 72.452 74.453 72.452L73.2049 72.5738C73.2049 72.5738 73.8644 69.6717 72.6874 69.0426C71.5103 68.4135 64.5696 69.9355 63.7274 68.9817C62.8852 68.0279 63.8288 62.1121 65.6858 61.4627C67.5427 60.8132 72.596 59.4332 75.9649 62.2034C75.9649 62.2034 78.7858 62.1425 79.0091 64.4358C79.2323 66.729 78.0248 73.3145 77.1115 74.9279Z" fill="#3B3F46"/>
<path d="M68.3849 83.7764C74.6559 82.4573 75.488 78.8246 75.488 78.7637C73.1541 82.0311 68.6488 82.0818 68.6488 82.0818C68.6008 82.6521 68.5126 83.2184 68.3849 83.7764Z" fill="#9E7A64"/>
<path d="M78.9483 86.5161C78.9483 86.5161 73.6616 94.989 66.5078 93.751C59.354 92.5131 66.1526 84.1315 66.5078 84.0807C66.8629 84.03 74.0573 82.9138 78.9483 86.5161Z" fill="#E1AA8A"/>
<path d="M42.7328 125.887C42.7328 125.887 64.5899 130.657 78.1871 129.611L52.8901 124.061C52.8901 124.061 52.677 124.731 42.7328 125.887Z" fill="#F4CA6A"/>
<path d="M59.6076 123.716L57.8826 124.396C57.8826 124.396 58.0246 127.044 58.8466 127.917L60.7441 127.622C60.7441 127.622 60.6223 124.66 59.6076 123.716Z" fill="#E1AA8A"/>
<path d="M85.6859 120.672C85.3206 121.027 80.8152 122.376 75.7315 123.807C68.7807 125.776 60.9876 127.521 60.9876 127.521L59.6076 123.675C59.6076 123.675 67.9283 120.093 73.56 117.587C76.2287 116.4 78.2886 115.436 78.6336 115.202C79.5773 114.462 79.9223 113.173 79.4961 110.819C79.0699 108.465 78.593 97.7897 78.5423 96.5416C78.4915 95.2935 79.3642 92.0769 82.4591 92.1885C84.0538 92.1662 85.6271 92.5577 87.0253 93.325C87.0253 93.325 87.7762 93.7206 87.6545 101.23C87.5327 108.738 86.5484 119.829 85.6859 120.672Z" fill="#F4CA6A"/>
<path d="M79.0903 107.886C78.9685 108.901 78.7757 110.494 78.5829 112.199C77.1564 107.831 77.1564 103.122 78.5829 98.7537C78.0654 100.722 79.0801 107.785 79.0903 107.886Z" fill="#C1A053"/>
<path d="M55.7111 107.967C55.3719 109.227 54.9447 110.461 54.4325 111.661C54.1948 107.86 54.5127 104.045 55.3762 100.337C55.3364 102.885 55.4483 105.433 55.7111 107.967Z" fill="#C1A053"/>
<path d="M75.7315 123.797C68.7807 125.765 60.7441 127.572 60.7441 127.572L59.6076 123.665C59.6076 123.665 67.9283 120.083 73.56 117.577C73.56 117.556 75.4271 118.693 75.7315 123.797Z" fill="#E1AA8A"/>
<path d="M58.7654 127.612L27.3801 124.243L42.5095 133.761L58.7654 127.612Z" fill="#464D8E"/>
<path d="M42.5095 133.762L58.6233 129.175L58.7653 127.612L41.4136 132.118L42.5095 133.762Z" fill="#323666"/>
<path d="M58.2378 124.436C58.2378 124.436 56.2997 123.949 54.9704 123.503C53.9557 123.168 51.3072 123.259 50.5767 123.868C49.8461 124.477 47.2991 128.941 46.8729 129.236C46.4467 129.53 46.9947 130.251 47.7253 129.936C47.7253 129.936 48.1819 132.047 49.8461 131.428C51.5102 130.809 52.7481 129.226 53.6005 129.002C54.4529 128.779 59.4554 127.744 59.4554 127.744C59.4554 127.744 59.5366 124.051 58.2378 124.436Z" fill="#E1AA8A"/>
<path d="M51.1348 123.604C50.5635 123.812 50.0075 124.06 49.4706 124.345C49.1155 124.589 47.6847 125.461 47.3397 125.664C46.9947 125.867 47.7456 126.618 50.2215 125.796C52.6974 124.974 51.1348 123.604 51.1348 123.604Z" fill="#E1AA8A"/>
<path d="M42.5096 133.762L35.5182 107.379L5.33026 105.096L12.0781 129.439L42.5096 133.762Z" fill="#323666"/>
<path d="M24.8332 117.78C25.5841 119.708 25.1173 121.686 23.8184 122.194C22.5196 122.701 20.7743 121.575 20.0741 119.647C19.374 117.719 19.7799 115.75 21.0889 115.233C22.3978 114.715 24.0823 115.862 24.8332 117.78Z" fill="#6189F1"/>
<path d="M74.6154 71.0314C74.7031 70.7981 74.8686 70.602 75.0838 70.4762C75.2991 70.3504 75.5511 70.3025 75.7975 70.3406C76.0439 70.3787 76.2697 70.5005 76.4369 70.6854C76.6041 70.8703 76.7026 71.1072 76.7158 71.3562C76.7158 72.7768 75.5185 75.1512 74.8386 74.8468C74.1587 74.5424 74.3414 72.3201 74.6154 71.0314Z" fill="#E1AA8A"/>
<path d="M307.392 124.396C304.459 117.912 305.738 109.013 306.966 100.398C307.392 97.4448 307.788 94.6543 307.98 92.0364C307.98 91.9653 309.756 84.9333 311.207 74.5933C312.557 65.0955 313.917 50.8387 312.74 36.9066H312.942C314.12 50.8692 312.76 65.1361 311.42 74.644C309.98 84.7912 308.254 91.8232 308.183 92.0972C307.97 94.7151 307.564 97.5158 307.169 100.469C305.941 109.053 304.673 117.922 307.585 124.355L307.392 124.396Z" fill="#264553"/>
<path d="M312.993 36.7036C312.588 37.8777 312.25 39.0736 311.979 40.2856C313.146 39.7478 313.622 40.4479 314.84 39.9304C314.589 38.6835 313.941 37.5514 312.993 36.7036Z" fill="#296EB6"/>
<path d="M326.042 16.8455C326.631 26.6071 318.777 36.8152 313.186 37.1399C307.889 37.4342 298.574 28.322 297.965 18.5502C297.356 8.77847 303.171 0.498353 310.923 0.0214352C318.676 -0.455483 325.454 7.0839 326.042 16.8455Z" fill="#296EB6"/>
<g style="mix-blend-mode:screen">
<path d="M308.173 2.96414C304.317 2.46693 301.009 9.27567 303.82 10.6151C306.631 11.9545 313.156 3.61356 308.173 2.96414Z" fill="#161616"/>
</g>
<path d="M326.043 16.8455C325.837 12.4634 324.217 8.26599 321.426 4.88196C326.915 15.6278 320.827 29.9252 314.87 32.5838C313.235 33.4197 311.413 33.8248 309.577 33.7608C307.741 33.6969 305.952 33.1661 304.378 32.2185C307.321 35.3236 310.7 37.2921 313.186 37.1297C318.777 36.8152 326.631 26.6071 326.043 16.8455Z" fill="#265BA8"/>
<path d="M313.622 37.4647H312.709C312.662 37.4676 312.616 37.4523 312.58 37.4221C312.544 37.3919 312.522 37.349 312.516 37.3024C312.515 37.2784 312.518 37.2543 312.526 37.2316C312.534 37.209 312.547 37.188 312.563 37.1701C312.579 37.1522 312.598 37.1377 312.62 37.1273C312.641 37.1169 312.665 37.1109 312.689 37.1096H313.602C313.625 37.1082 313.648 37.1113 313.669 37.1187C313.69 37.1262 313.71 37.1377 313.727 37.1528C313.744 37.1679 313.758 37.1862 313.768 37.2066C313.778 37.2271 313.784 37.2492 313.785 37.2719C313.788 37.2954 313.786 37.3192 313.779 37.3418C313.772 37.3645 313.761 37.3855 313.745 37.4036C313.73 37.4216 313.711 37.4364 313.69 37.4469C313.669 37.4574 313.646 37.4635 313.622 37.4647Z" fill="#264553"/>
<path d="M382.42 32.8679C381.849 32.4744 381.16 32.2881 380.468 32.3398C379.776 32.3914 379.122 32.678 378.615 33.152C376.586 34.8162 377.418 34.8466 376.444 35.6888C375.47 36.531 373.856 35.7801 373.4 37.3935C372.943 39.0069 373.572 39.5042 373.572 39.5042C373.253 39.8419 373.021 40.252 372.896 40.6991C372.77 41.1462 372.755 41.6171 372.852 42.0714C373.075 42.9176 373.517 43.6903 374.133 44.3118C374.749 44.9334 375.518 45.3821 376.362 45.6128C377.583 46.8256 379.178 47.5907 380.888 47.7843C383.445 47.906 382.623 47.6524 383.587 47.9568C384.551 48.2612 387.595 47.7437 387.778 45.6737C387.778 45.6737 389.96 44.2734 388.894 42.2338C387.829 40.1942 388.032 38.5402 387.778 36.1454C387.524 33.7507 383.658 32.7055 382.42 32.8679Z" fill="#264553"/>
<path d="M364.358 39.6869C362.484 38.2298 360.72 36.6356 359.082 34.9177C358.925 34.2566 358.571 33.6587 358.067 33.2028C357.489 32.5737 357.052 31.1734 356.667 31.5488C356.281 31.9243 357.266 33.1115 356.85 33.142C356.433 33.1724 354.303 30.9299 353.978 31.3155C353.653 31.7011 355.825 33.6797 355.459 33.7C355.094 33.7203 353.318 31.6706 352.872 32.2592C352.425 32.8477 355.175 34.4408 354.901 34.7351C354.627 35.0293 352.963 33.9537 352.598 34.4002C352.233 34.8467 355.003 35.7498 354.779 35.7599C354.556 35.7701 352.994 35.76 352.994 36.0948C352.994 36.4297 357.002 36.8254 357.509 37.3936C358.615 39.0172 360.553 41.9802 362.512 43.2384C364.876 44.7808 370.315 48.038 370.315 48.038L372.831 44.5271C372.831 44.5271 365.85 40.59 364.358 39.6869Z" fill="#F4A392"/>
<path d="M356.931 33.8726C356.841 34.0773 356.796 34.2986 356.799 34.5219C356.792 34.7624 356.84 35.0013 356.938 35.2209C357.037 35.4405 357.183 35.6351 357.367 35.7903C356.988 35.2275 356.833 34.5438 356.931 33.8726Z" fill="#F18B80"/>
<path d="M364.348 72.7261C364.754 74.1975 365.464 76.511 365.464 76.511C365.464 77.1604 365.302 79.8393 365.17 83.127L369.939 81.0976C369.832 79.2557 369.832 77.4092 369.939 75.5673C370.741 74.9669 371.405 74.2024 371.888 73.3248C372.161 72.7927 372.317 72.2078 372.344 71.61C372.344 71.61 372.395 70.2705 372.091 70.1589C371.949 70.1129 371.795 70.1206 371.659 70.1805C371.522 70.2403 371.412 70.3482 371.35 70.4836C371.248 70.717 371.289 71.2548 371.188 71.4983C370.9 71.803 370.509 71.9908 370.092 72.026C369.807 72.026 370.031 68.0584 370.031 68.0584C370.031 68.0584 370.163 66.9321 370.234 66.5566C370.305 66.1812 370.558 65.3187 370.558 65.3187C370.558 65.3187 370.863 63.9792 370.447 63.8879C370.203 63.8879 369.605 64.9027 369.209 66.0899C368.996 66.9561 368.735 67.8097 368.427 68.6469C368.123 68.6469 368.225 66.4349 368.225 66.4349C368.366 65.9589 368.454 65.4689 368.488 64.9737C368.762 64.3851 368.925 63.3197 368.417 63.2385C368.13 63.6684 367.882 64.1234 367.677 64.5982C367.677 64.5982 367.443 65.5622 367.301 66.0087C367.125 66.8634 366.996 67.7272 366.916 68.5962C366.804 69.0528 366.692 68.8702 366.652 68.8905C366.638 68.3958 366.658 67.9008 366.713 67.409C366.697 66.931 366.721 66.4524 366.784 65.9782C366.879 65.4761 366.933 64.9671 366.946 64.4561C367.007 63.3399 366.297 63.4414 366.083 64.4561C366.002 64.8519 365.911 65.2781 365.83 65.7144C365.495 67.409 365.546 69.0325 365.363 69.0427C365.18 69.0528 365.211 66.1203 365.211 66.1203C365.211 66.1203 364.805 64.4968 364.48 66.0188C364.252 67.0922 364.16 68.1899 364.206 69.2862C364.099 70.434 364.147 71.591 364.348 72.7261Z" fill="#FFA996"/>
<path d="M364.835 79.1797C364.835 79.1797 370.234 77.7388 370.295 78.165C371.685 87.6932 372.324 91.1331 372.486 91.2244C373.146 91.5492 381.67 83.3401 383.202 82.7617C383.959 82.5402 384.749 82.4543 385.536 82.508H387.819V84.2432C385.789 86.1711 383.76 123.452 383.384 123.442C383.009 123.432 374.475 123.442 374.881 122.681C374.881 122.681 376.91 111.204 378.534 103.634C379.072 101.098 380.563 95.7805 380.563 95.7805C378.534 96.8866 370.416 101.128 369.097 100.631C365.069 99.0987 364.835 79.1797 364.835 79.1797Z" fill="#15426B"/>
<path d="M376.454 182.143L376.718 186.994C376.819 187.613 377.205 189.125 377.205 189.683C377.205 191.783 368.072 187.907 370.102 186.973C370.284 186.892 371.259 186.253 371.319 185.543C371.421 184.437 371.654 182.214 371.654 182.214L376.454 182.143Z" fill="#F4A392"/>
<path d="M370.122 186.953C371.193 187.275 372.281 187.543 373.379 187.755C374.475 187.917 375.926 186.568 376.707 186.933C377.489 187.298 377.874 190.992 377.479 191.286C377.083 191.58 364.663 191.641 362.765 191.286C361.436 191.053 365.698 188.445 370.122 186.953Z" fill="#264553"/>
<path d="M396.637 182.569L396.9 187.42C397.002 188.029 397.387 189.551 397.387 190.109C397.387 192.199 388.255 188.323 390.284 187.4C390.467 187.308 391.735 186.202 391.796 185.492C391.888 184.386 391.796 182.64 391.796 182.64L396.637 182.569Z" fill="#F4A392"/>
<path d="M390.305 187.42C391.376 187.742 392.463 188.01 393.562 188.221C394.658 188.384 396.109 187.034 396.89 187.389C397.672 187.745 397.783 191.448 397.783 191.448C397.783 191.448 385.607 191.956 382.562 191.448C381.558 191.205 385.911 188.912 390.305 187.42Z" fill="#264553"/>
<path d="M382.116 112.797L378.24 114.502L370.122 154.076L370.447 183.777L376.981 183.939C376.981 183.939 380.026 157.952 380.026 155.933C380.026 153.914 394.11 120.743 394.11 120.743L382.116 112.797Z" fill="#C1C1C1"/>
<path d="M385.109 114.979C385.109 114.979 387.961 145.512 387.961 150.657C387.961 155.801 390.274 184.599 390.274 184.599H396.819C396.819 184.599 397.286 175.812 397.996 162.904C398.098 160.875 397.854 156.816 397.996 154.705C399.011 139.637 401.041 125.461 400.026 119.84C399.864 118.937 399.579 116.572 399.011 115.974C394.759 111.428 385.109 114.979 385.109 114.979Z" fill="#E7E7E7"/>
<path d="M380.817 101.849C381.861 97.1829 383.196 92.5874 384.815 88.0891C385.545 86.1131 386.534 84.2431 387.758 82.5284L394.069 82.7212H394.262C394.78 82.8024 394.79 101.209 394.516 108.089C394.196 113.397 393.593 118.685 392.71 123.929L390.904 123.757C390.904 124.68 390.853 125.299 390.853 125.299C381.72 126.902 376.647 122.397 376.647 122.397L380.817 101.849Z" fill="#296EB6"/>
<path d="M393.745 77.1502L394.069 82.721C394.069 82.721 390.173 89.8241 388.052 88.9413C386.266 88.1599 387.687 82.7616 387.687 82.7616C387.687 82.7616 387.961 81.5339 388.346 80.1132C388.632 79.1894 388.783 78.2289 388.793 77.2618C388.701 75.3541 393.745 77.1502 393.745 77.1502Z" fill="#FFA995"/>
<path d="M388.793 77.2618C388.701 75.3541 393.745 77.1502 393.745 77.1502V77.6982C393.598 77.94 393.417 78.1587 393.207 78.3476C391.85 79.4524 390.122 79.9969 388.377 79.8697C388.64 79.0248 388.78 78.1466 388.793 77.2618Z" fill="#EE7459"/>
<path d="M388.529 64.5779C388.529 64.5779 386.5 67.7641 386.5 70.4125C386.434 71.9088 386.608 73.406 387.017 74.8469L393.491 66.7291L388.529 64.5779Z" fill="#264553"/>
<path d="M385.739 69.9356C385.678 70.8691 386.053 71.6504 386.591 71.691C387.129 71.7316 387.606 71.0112 387.697 70.0878C387.788 69.1644 387.382 68.3729 386.845 68.3323C386.307 68.2917 385.81 68.9209 385.739 69.9356Z" fill="#FC9384"/>
<path d="M395.632 67.9062C395.784 67.9062 395.967 75.5572 393.795 77.4243C391.624 79.2913 387.707 79.5552 386.56 77.7591C385.251 75.7297 386.236 67.6119 389.503 65.8362C392.771 64.0604 395.632 67.9062 395.632 67.9062Z" fill="#FFA995"/>
<path d="M396.068 63.1268C397.772 64.4707 399.088 66.2425 399.884 68.2612C401.385 71.4779 398.666 74.9381 396.352 76.379C394.039 77.8199 393.877 79.4232 393.877 79.4232L393.755 78.4084C393.698 78.1066 393.698 77.797 393.755 77.4952C393.835 77.2124 393.94 76.9374 394.069 76.6733C394.262 76.237 394.871 74.7555 395.084 74.3597C395.723 73.345 395.845 73.0913 395.5 72.1375C395.226 71.3967 395.5 69.7326 395.054 68.5149L391.867 67.9163C390.735 67.6711 389.686 67.1361 388.823 66.3637C385.901 63.076 391.482 59.2302 396.068 63.1268Z" fill="#264553"/>
<path d="M395.794 72.9799C395.429 73.8424 395.531 74.7049 396.028 74.918C396.525 75.1311 397.225 74.6136 397.59 73.7612C397.956 72.9089 397.864 72.0362 397.367 71.8231C396.87 71.61 396.139 72.0971 395.794 72.9799Z" fill="#FFA995"/>
<path d="M404.419 49.9255C404.998 51.336 405.85 53.6089 405.85 53.6089C406.632 54.7961 408.539 57.475 409.696 59.2609L404.886 59.9712C403.881 58.4014 402.787 56.8904 401.609 55.4455C400.651 55.5416 399.684 55.3695 398.818 54.9483C398.274 54.6952 397.792 54.3244 397.408 53.8626C397.408 53.8626 397.317 53.7205 397.489 53.4466C397.662 53.1726 397.286 52.2289 397.489 52.3608C397.692 52.4927 398.006 52.9392 398.23 53.061C398.453 53.1827 398.169 51.5389 398.392 51.3461C398.615 51.1533 397.733 49.4892 400.066 47.6627C400.194 47.4566 400.368 47.2842 400.576 47.1598C400.784 47.0353 401.018 46.9626 401.26 46.9477C401.501 46.9328 401.743 46.9761 401.965 47.074C402.186 47.172 402.381 47.3217 402.532 47.5105C403.361 48.1374 404.011 48.9699 404.419 49.9255Z" fill="#FFA996"/>
<path d="M394.11 82.721C394.11 82.721 400.361 82.2644 401.954 81.4932C402.918 81.0265 409.118 75.7499 409.118 75.7499L402.076 58.6214L407.809 56.7949C407.809 56.7949 419.316 75.5064 418.362 77.6373C417.408 79.7682 405.84 89.0528 403.588 92.99C402.289 95.2528 403.517 126.009 403.1 126.293C400.056 127.957 387.474 129.429 387.667 128.465C390.826 113.377 392.979 98.0949 394.11 82.721Z" fill="#15426B"/>
<path d="M374.922 44.7097L369.259 42.0613L367.443 47.5407L372.953 50.5747L374.922 44.7097Z" fill="#E8B565"/>
<path d="M395.713 53.1218C395.812 52.4716 396.106 51.8667 396.555 51.3866C397.083 50.7473 397.732 49.8747 398.077 50.2603C398.422 50.6459 397.306 51.275 397.702 51.275C398.098 51.275 400.421 49.5297 400.746 49.8848C401.071 50.24 398.94 51.5693 399.184 51.6708C399.427 51.7722 401.04 49.9051 401.355 50.3415C401.67 50.7778 399.407 52.4216 399.458 52.5434C399.508 52.6652 401.223 51.4374 401.578 51.8432C401.933 52.2491 399.457 53.3856 399.671 53.3856C399.884 53.3856 401.203 53.203 401.213 53.4972C401.223 53.7915 398.321 54.512 397.864 55.1208C397.408 55.7297 391.076 61.2091 389.635 60.9352C388.194 60.6612 382.116 55.4963 381.933 53.9742C381.751 52.4521 382.623 50.6763 383.608 50.6662C384.592 50.656 390.234 56.0848 390.538 56.0747C390.843 56.0645 395.713 53.1218 395.713 53.1218Z" fill="#FC9384"/>
<path d="M365.048 79.7277C365.634 80.4021 366.318 80.9836 367.078 81.4527C365.782 83.6956 364.342 85.8514 362.765 87.9063C362.603 87.7566 362.476 87.572 362.395 87.3664C362.315 87.1607 362.281 86.9395 362.298 86.7191C362.43 86.1002 363.029 83.2386 362.349 82.1224C362.167 81.8282 360.198 78.5506 358.706 75.5978C359.721 74.9585 362.227 75.5369 363.171 74.7759C363.917 76.3786 364.544 78.0336 365.048 79.7277Z" fill="#F4A392"/>
<path d="M365.759 80.4684C365.759 80.4684 363.283 84.233 362.796 84.649C362.309 85.0651 361.659 89.1544 362.288 89.2153C362.917 89.2761 368.123 83.1879 368.194 82.3964C368.265 81.6049 365.759 80.4684 365.759 80.4684Z" fill="#264553"/>
<path d="M358.889 85.5623C359.1 86.4341 359.442 87.2688 359.904 88.0382C357.607 89.2429 355.234 90.297 352.801 91.194C352.731 90.9919 352.71 90.7761 352.74 90.5644C352.77 90.3526 352.85 90.1511 352.973 89.9764C353.409 89.5299 355.794 86.648 355.733 85.3695C355.696 83.9288 355.543 82.4935 355.277 81.0772C356.537 81.043 357.794 80.9312 359.041 80.7424C359.041 82.4979 358.879 85.3087 358.889 85.5623Z" fill="#F4A392"/>
<path d="M366.794 61.9092C366.794 61.9092 356.565 67.1857 355.307 68.4237C354.363 69.3471 354.394 81.9195 354.394 81.9195C354.394 81.9195 357.864 82.721 359.711 81.7976C359.711 81.7976 360.411 73.2537 360.898 73.0102C361.385 72.7667 371.928 70.3719 371.928 70.3719L372.294 65.2983L366.794 61.9092Z" fill="#265384"/>
<path d="M376.86 59.5551C376.86 59.5551 372.466 62.7007 370.579 63.1167C369.128 63.4313 357.387 65.3187 356.931 68.6165C356.667 70.4937 359.386 78.4593 359.386 78.4593L364.46 76.5719C364.46 76.5719 363.039 72.8073 363.293 72.4014C363.547 71.9955 373.055 73.5379 375.896 72.1579C378.737 70.7778 379.265 64.3851 379.265 64.3851L376.86 59.5551Z" fill="#2F66AC"/>
<path d="M378.26 46.4448C377.107 45.948 375.991 45.3681 374.922 44.7097C374.09 44.0806 367.697 59.6464 364.44 62.7311C369.016 66.3435 378.311 70.4633 378.311 70.4633C379.428 68.2317 380.171 65.8322 380.513 63.3603C380.72 60.8064 381.124 58.2722 381.72 55.7803L385.14 58.8244L388.6 53.4667C388.6 53.4667 384.186 49.0629 382.4 48.0786C381.933 47.8553 378.26 46.4448 378.26 46.4448Z" fill="#FDCD7C"/>
<path d="M359.122 86.4553C359.122 86.4553 354.769 88.4847 354.049 88.5964C353.328 88.708 351.177 91.9754 351.756 92.3711C352.334 92.7668 360.025 90.2098 360.523 89.53C361.02 88.8501 359.122 86.4553 359.122 86.4553Z" fill="#264553"/>
<path d="M377.59 43.553C377.59 43.553 376.778 46.4449 376.423 46.5971C376.165 46.6917 375.952 46.8798 375.826 47.1241C375.7 47.3684 375.671 47.6512 375.743 47.9162C375.926 48.7179 377.773 48.8193 378.696 48.6773C379.275 48.5725 379.822 48.3403 380.3 47.9974L381.314 43.3398L377.59 43.553Z" fill="#F4A392"/>
<path d="M378.362 45.0751C379.391 45.0909 380.391 44.73 381.172 44.0603L381.314 43.4008L377.59 43.5835C377.59 43.5835 377.387 44.2836 377.144 45.0243C377.545 45.0998 377.955 45.1169 378.362 45.0751Z" fill="#EE7459"/>
<path d="M382.948 40.3057C382.948 40.3057 383.557 38.6416 384.49 39.291C385.424 39.9404 383.841 42.2337 383.009 41.8887C382.177 41.5437 382.948 40.3057 382.948 40.3057Z" fill="#F4A392"/>
<path d="M381.375 33.7915C380.902 33.6443 380.4 33.6089 379.911 33.6882C379.422 33.7674 378.957 33.9591 378.554 34.2481C377.337 35.2628 375.317 38.5607 375.906 41.4729C376.494 44.3852 378.432 44.3039 379.224 44.2836C380.003 44.2752 380.766 44.064 381.439 43.6708C382.112 43.2775 382.67 42.7159 383.06 42.0412C384.5 39.9508 385.607 34.583 381.375 33.7915Z" fill="#F4A392"/>
<path d="M379.346 41.5236L377.316 40.7727C377.256 41.0107 377.29 41.2627 377.411 41.4762C377.532 41.6898 377.731 41.8485 377.966 41.9193C379.031 42.3658 379.346 41.5236 379.346 41.5236Z" fill="white"/>
<path d="M401.781 55.2324C400.564 55.6992 398.554 54.9483 397.722 54.4612C397.641 54.1162 398.839 53.8524 399.64 54.0046C400.442 54.1568 401.517 53.2131 402.897 53.9234C403.659 54.7149 401.781 55.2324 401.781 55.2324Z" fill="#FFA996"/>
<path d="M400.634 49.4687C402.583 50.8893 401.193 50.8893 399.427 50.4834C400.442 50.94 400.371 51.2445 400.127 51.4981C399.227 51.6827 398.291 51.5273 397.499 51.0618C397.215 50.6661 398.24 49.3571 398.636 49.0324C398.909 48.8066 399.17 48.566 399.417 48.3119C399.764 47.8971 400.163 47.5287 400.604 47.216C401.142 46.8304 401.619 47.216 402.309 47.6016C403.181 48.2916 402.877 48.8802 401.548 48.454C401.68 48.5555 402.694 49.1237 402.481 49.6615C402.339 49.9659 401.781 49.8137 400.634 49.4687Z" fill="#FFA995"/>
<path d="M373.014 70.0473C372.334 70.2807 371.746 71.7621 371.675 71.681C369.97 72.4296 368.402 73.4586 367.037 74.7251C366.966 74.8875 366.865 75.3137 366.763 75.4963L369.32 76.1052C370.483 75.2343 371.494 74.1785 372.314 72.9798C372.425 72.7363 372.75 72.0767 372.923 71.7317C373.119 71.2899 373.346 70.8626 373.603 70.4532C373.816 70.2097 373.613 69.8443 373.014 70.0473Z" fill="#F4A392"/>
<path d="M276.159 68.5454C276.382 72.5333 282.085 73.751 285.992 72.6855C288.528 71.9854 289.614 71.3765 289.218 68.6266C288.579 64.1416 286.022 62.0614 283.211 61.7265C279.579 61.28 275.987 65.2578 276.159 68.5454Z" fill="#264553"/>
<path d="M282.968 127.612L286.012 155.081C286.012 155.081 284.5 160.885 284.683 162.539C284.865 164.193 288.031 185.878 288.031 185.878L287.899 187.085V190.687H299.741C297.676 189.711 295.677 188.602 293.754 187.369C293.47 187.172 293.232 186.916 293.057 186.618C292.882 186.32 292.773 185.988 292.739 185.644C291.806 178.977 293.642 156.725 293.642 156.725L295.104 127.754L282.968 127.612Z" fill="#FFA995"/>
<path d="M273.51 133.386C272.841 133.559 271.816 157.171 271.268 158.216C267.777 164.853 266.955 185.035 266.955 185.035L265.941 187.968C267.138 188.983 268.488 188.983 270 187.877L269.817 184.7L278.615 159.566L283.434 133.924L273.51 133.386Z" fill="#FFA995"/>
<path d="M291.014 87.6424C289.594 85.7043 283.739 80.1031 283.09 80.1133C281.192 80.1133 274.972 80.1132 273.744 80.7627L273.805 91.4375C273.998 92.3304 278.3 106.273 278.046 109.327C278.894 110.149 279.901 110.788 281.005 111.205C282.11 111.622 283.288 111.809 284.467 111.752C285.646 111.696 286.802 111.399 287.861 110.879C288.921 110.359 289.863 109.627 290.629 108.728C290.639 106.015 290.805 103.305 291.126 100.611C291.948 94.6237 294.546 92.4421 291.014 87.6424Z" fill="#FDCD7C"/>
<path d="M296.179 145.481L296.595 129.185C296.67 124.583 295.732 120.02 293.846 115.821L290.659 108.718C289.41 109.145 288.122 109.448 286.814 109.621C283.888 109.84 280.947 109.727 278.046 109.286C278.053 109.384 278.053 109.483 278.046 109.581C277.519 111.975 274.566 117.323 273.318 124.639C272.234 131.513 271.698 138.462 271.714 145.421C279.751 147.362 288.133 147.383 296.179 145.481Z" fill="#2F66AC"/>
<path d="M281.172 74.1163C281.27 75.9244 281.209 77.7376 280.989 79.535C280.634 81.0266 280.157 81.1483 283.201 81.5643C284.399 81.747 285.555 82.0109 285.555 82.0109C285.555 82.0109 285.241 79.8191 285.19 78.8957C285.119 77.3736 285.545 72.6653 285.545 72.6653L281.172 74.1163Z" fill="#FFA995"/>
<path d="M283.506 76.0747C284.053 76.3756 284.646 76.5847 285.261 76.6937C285.362 74.8266 285.555 72.6957 285.555 72.6957L281.385 74.0453C281.899 74.8983 282.631 75.5988 283.506 76.0747Z" fill="#FD7E60"/>
<path d="M269.959 187.856C268.656 188.356 267.218 188.378 265.9 187.917L265.667 188.536L264.784 191.479C264.784 191.479 268.305 192.351 270.132 191.347L269.959 187.856Z" fill="#2F66AC"/>
<path d="M287.818 191.529H300.045C300.502 191.529 300.614 191.113 300.451 190.89C300.127 190.423 298.706 190.058 297.103 189.307C294.282 189.602 288.386 187.694 287.97 187.044C287.686 188.343 287.564 191.469 287.818 191.529Z" fill="#2F66AC"/>
<path d="M290.243 92.7262C290.243 92.7262 292.273 96.846 292.638 97.2621C292.638 97.2621 301.699 95.2326 305.525 94.0657L305.657 94.0047C305.728 94.0047 305.829 94.0048 305.85 93.8425C305.931 93.3859 306.357 91.813 306.57 91.1738C306.624 90.9909 306.722 90.8238 306.854 90.6866C307.138 90.372 308.407 88.2919 308.407 88.2919C308.557 88.3728 308.68 88.4978 308.758 88.6501C308.836 88.8024 308.865 88.9747 308.843 89.1443C308.843 89.8242 307.828 91.1129 308.143 91.1738C308.41 91.1674 308.674 91.1159 308.924 91.0215C309.28 90.9184 309.653 90.8907 310.02 90.9403C310.188 90.9579 310.343 91.0372 310.456 91.1629C310.568 91.2885 310.63 91.4515 310.629 91.6202C310.612 91.8553 310.633 92.0916 310.69 92.3204C310.832 92.6756 311.055 95.9125 310.497 96.2372C309.73 96.4805 308.936 96.627 308.133 96.6735C307.715 96.681 307.303 96.7779 306.925 96.9576C306.849 97.0002 306.767 97.0309 306.682 97.0489C303.952 98.155 294.84 102.031 294.84 102.031C294.84 102.031 290.375 103.624 289.766 103.046C289.157 102.468 285.21 94.8166 285.21 94.8166L290.243 92.7262Z" fill="#F4A392"/>
<path d="M280.461 85.3188C279.579 88.9413 284.277 96.9982 284.277 96.9982C284.277 96.9982 290.974 93.8525 292.141 92.4928C292.141 92.4928 287.595 84.6694 287.301 84.2026C286.884 83.4413 286.235 82.8334 285.448 82.4681C284.661 82.1029 283.777 81.9995 282.927 82.1732C281.923 82.2949 280.461 85.3188 280.461 85.3188Z" fill="#F3A662"/>
<path d="M282.014 87.1858C284.774 83.9894 285.058 77.759 282.531 74.4409C283.698 72.4115 284.662 72.584 284.013 70.3211C282.734 65.8564 287.767 62.2033 282.846 61.6655C277.904 61.3916 275.266 64.9127 273.48 68.1395C272.709 69.6252 271.63 70.9294 270.314 71.965C267.645 73.9944 266.651 77.9823 268.762 81.7266C266.621 83.3501 265.129 87.3988 267.118 90.3009C267.585 90.9909 268.457 91.7621 268.508 91.9752C268.427 91.7114 267.3 98.9666 275.56 100.205C283.922 101.453 284.52 93.4872 282.014 87.1858Z" fill="#264553"/>
<path d="M281.253 64.6591C280.278 65.419 279.6 66.4959 279.335 67.7033C278.939 69.7327 281.05 75.0499 285.423 75.7196C289.797 76.3893 290.233 71.752 289.046 68.7992C287.859 65.8464 285.535 62.2441 281.253 64.6591Z" fill="#FFA995"/>
<path d="M279.223 71.3867C278.209 68.5353 278.138 66.3131 280.076 64.9026C282.014 63.4921 283.648 62.2136 285.799 63.8879L286.255 64.0604C286.255 64.0604 282.866 65.5419 282.927 67.4394C282.988 69.3369 281.446 71.823 281.862 72.6956C282.278 73.5683 282.876 75.3644 282.876 75.3644L282.014 74.8368C282.014 74.8368 280.228 74.2279 279.223 71.3867Z" fill="#264553"/>
<path d="M282.491 70.1487C283.008 70.8489 283.029 71.7012 282.542 72.0462C282.054 72.3913 281.243 72.1173 280.715 71.4171C280.465 71.1674 280.321 70.8314 280.312 70.4785C280.302 70.1255 280.428 69.7823 280.664 69.5196C281.101 69.1645 281.923 69.4486 282.491 70.1487Z" fill="#FFA995"/>
<path d="M323.404 140.966C322.217 141.484 318.331 139.688 316.474 138.713C314.333 137.618 313.014 136.928 310.385 135.548C308.843 134.736 306.479 134.076 306.002 134.929C305.758 136.796 308.437 138.521 310.112 138.186C311.126 138.49 314.688 141.169 315.54 141.798C317.275 143.087 319.173 144.132 321.558 145.999C323.942 147.866 326.418 148.922 327.646 148.242C328.874 147.562 327.91 143.878 327.128 142.722C326.347 141.565 323.404 140.966 323.404 140.966Z" fill="#E8B565"/>
<path d="M336.464 166.791C336.788 170.849 333.227 174.066 333.085 178.013C332.963 181.778 338.929 183.848 336.129 188.323C335.348 189.338 332.648 189.845 330.436 189.845C330.157 189.824 329.877 189.861 329.613 189.954C329.349 190.046 329.107 190.192 328.902 190.383C328.697 190.573 328.534 190.804 328.422 191.061C328.311 191.318 328.254 191.595 328.255 191.875H336.078C341.233 190.444 342.166 188.11 342.694 187.065C343.587 185.36 355.703 172.859 339.975 182.468C336.139 184.802 345.363 177.466 345.627 174.878C344.835 171.682 336.027 161.413 336.464 166.791Z" fill="#E8B565"/>
<path d="M338.3 123.066C337.032 122.417 335.256 122.488 333.633 121.443C332.009 120.398 331.096 118.916 330.254 118.916C329.411 118.916 326.834 120.418 328.447 123.858C328.447 123.858 330.954 128.678 330.254 131.499C329.878 133.011 327.981 135.72 324.997 138.602C322.014 141.484 320.066 149.175 322.085 153.721C324.104 158.267 330.061 160.915 333.176 163.645C336.291 166.375 337.235 171.164 337.235 171.164C335.936 175.71 334.373 180.763 338.655 184.355C342.938 187.948 342.714 189.094 342.714 189.094C340.816 189.613 338.844 189.812 336.88 189.683C336.594 189.667 336.309 189.711 336.042 189.813C335.774 189.914 335.532 190.072 335.33 190.274C335.128 190.476 334.97 190.719 334.869 190.986C334.767 191.253 334.722 191.538 334.739 191.824H339.65C340.8 191.821 341.943 191.643 343.039 191.296C347.25 189.967 347.788 190.007 347.9 188.962C348.011 187.917 343.688 185.593 346.885 182.417C350.081 179.241 352.273 177.415 352.527 174.827C359.214 178.064 368.762 178.886 375.368 174.503C376.21 173.853 372.638 174.888 367.778 175.345C362.917 175.801 356.941 174.33 354.343 170.352C352.385 167.308 353.044 164.7 348.965 158.866C344.886 153.031 341.953 151.276 341.375 146.933C340.796 142.59 340.36 141.859 340.857 135.578C341.355 129.297 341.821 128.931 340.979 126.445C340.475 125.059 339.535 123.873 338.3 123.066Z" fill="#FDCD7C"/>
<path d="M335.459 124.274C335.53 124.558 335.51 124.802 335.236 124.883C335.103 124.917 334.962 124.898 334.842 124.83C334.723 124.762 334.635 124.65 334.597 124.517C334.562 124.384 334.581 124.243 334.649 124.124C334.718 124.004 334.83 123.916 334.962 123.878C335.256 123.797 335.348 123.898 335.459 124.274Z" fill="#8A4F38"/>
<path d="M321.253 149.753C321.271 150.476 321.352 151.196 321.497 151.905C323.983 153.741 327.301 154.208 327.707 153.559C326.956 152.509 325.994 151.628 324.883 150.973C323.771 150.318 322.535 149.902 321.253 149.753Z" fill="#E8B565"/>
<path d="M338.534 133.711C338.93 134.391 341.679 133.548 341.974 133.315C342.268 133.082 341.487 129.256 340.959 127.967C340.431 126.679 339.66 127.024 339.66 127.024C340.259 128.647 338.148 133.021 338.534 133.711Z" fill="#E8B565"/>
<path d="M330.934 119.19C330.741 119.697 330.467 119.809 330.183 119.566C330.009 119.414 329.814 119.287 329.604 119.19C329.523 119.048 329.909 118.815 330.233 118.815C330.558 118.815 330.984 119.079 330.934 119.19Z" fill="#C67553"/>
<path d="M323.993 145.664C322.694 146.222 318.493 144.264 316.423 143.198C314.079 142.001 312.628 141.24 309.756 139.738C308.072 138.855 305.484 138.125 304.977 139.058C304.703 141.088 307.635 142.985 309.462 142.61C310.527 142.945 314.465 145.877 315.388 146.567C317.296 147.978 319.366 149.114 321.973 151.164C324.581 153.214 327.28 154.36 328.589 153.609C329.898 152.859 328.884 148.84 328.031 147.521C327.179 146.202 323.993 145.664 323.993 145.664Z" fill="#FDCD7C"/>
<path d="M700.657 47.0234H687.526C685.273 47.0234 683.447 48.8498 683.447 51.1026V70.6258C683.447 72.8787 685.273 74.705 687.526 74.705H700.657C702.91 74.705 704.736 72.8787 704.736 70.6258V51.1026C704.736 48.8498 702.91 47.0234 700.657 47.0234Z" fill="#B3B3B3"/>
<path d="M694.082 47.4189C692.935 47.4535 691.848 47.9381 691.056 48.768C690.264 49.5979 689.831 50.7063 689.85 51.8533H698.323C698.34 50.7054 697.904 49.597 697.111 48.7674C696.317 47.9378 695.229 47.4535 694.082 47.4189ZM694.082 48.7178C694.014 48.7165 693.947 48.7018 693.884 48.6745C693.822 48.6473 693.766 48.6081 693.719 48.5591C693.671 48.5101 693.634 48.4523 693.61 48.3889C693.585 48.3256 693.573 48.2581 693.574 48.1901C693.572 48.1213 693.583 48.0527 693.607 47.9882C693.631 47.9237 693.668 47.8647 693.715 47.8146C693.762 47.7646 693.819 47.7244 693.882 47.6965C693.945 47.6687 694.013 47.6536 694.082 47.6523C694.151 47.6536 694.219 47.6686 694.283 47.6963C694.346 47.7241 694.404 47.7641 694.452 47.814C694.5 47.864 694.538 47.9229 694.563 47.9874C694.588 48.052 694.6 48.1208 694.599 48.1901C694.6 48.259 694.588 48.3273 694.563 48.3913C694.537 48.4553 694.499 48.5135 694.451 48.5627C694.403 48.6118 694.345 48.6508 694.282 48.6774C694.219 48.7041 694.15 48.7178 694.082 48.7178Z" fill="#F1F1F1"/>
<path d="M701.022 54.4003H687.141V55.4353H701.022V54.4003Z" fill="#334356"/>
<path d="M701.022 56.7748H687.141V57.8098H701.022V56.7748Z" fill="#334356"/>
<path d="M701.022 59.1593H687.141V60.1943H701.022V59.1593Z" fill="#334356"/>
<path d="M701.022 61.5338H687.141V62.5688H701.022V61.5338Z" fill="#334356"/>
<path d="M698.232 64.8722H696.081V71.0011H698.232V64.8722Z" fill="#CE3634"/>
<path d="M700.22 66.861H694.092V69.0122H700.22V66.861Z" fill="#CE3634"/>
<path d="M700.342 50.0472H687.78C687.338 50.0577 686.903 50.1554 686.5 50.3348C686.096 50.5142 685.732 50.7716 685.428 51.0922C685.125 51.4129 684.887 51.7905 684.73 52.2033C684.573 52.616 684.499 53.0558 684.513 53.4973V66.7901H690.489C690.875 66.851 691.027 66.9626 691.169 67.4903V73.8424H700.302C701.199 73.8211 702.051 73.4448 702.671 72.7962C703.291 72.1475 703.629 71.2794 703.61 70.3822V53.4973C703.629 52.6079 703.296 51.7468 702.685 51.1009C702.073 50.455 701.231 50.0764 700.342 50.0472ZM702.554 70.3416C702.562 70.9393 702.335 71.5161 701.921 71.9473C701.507 72.3784 700.94 72.6291 700.342 72.645H692.275V67.2975C692.062 66.4147 691.707 65.7348 690.57 65.5927H685.629V53.4161C685.619 53.1234 685.668 52.8317 685.771 52.5578C685.875 52.2839 686.032 52.0332 686.233 51.8201C686.433 51.607 686.674 51.4357 686.942 51.316C687.209 51.1963 687.497 51.1307 687.79 51.1228H700.352C700.657 51.1266 700.957 51.1916 701.235 51.314C701.514 51.4365 701.765 51.6139 701.973 51.8355C702.182 52.0572 702.343 52.3186 702.448 52.6041C702.553 52.8896 702.6 53.1934 702.585 53.4973L702.554 70.3416Z" fill="#F1F1F1"/>
<path d="M690.266 70.8489C690.266 70.8489 691.108 66.9726 687.435 67.622C686.404 67.6081 685.396 67.321 684.513 66.79C684.35 66.7088 688.48 72.0361 691.21 73.893C690.52 73.035 690.182 71.9466 690.266 70.8489Z" fill="#F1F1F1"/>
<path d="M115.529 65.0143L96.0969 65.1056L96.168 79.1899L96.1781 82.1529L99.1309 79.1797L115.59 79.0986L115.529 65.0143Z" fill="#F4CA6A"/>
<path d="M107.33 72.6651C107.33 72.9577 107.243 73.2437 107.081 73.4871C106.919 73.7305 106.688 73.9205 106.418 74.0329C106.148 74.1453 105.85 74.1752 105.563 74.1188C105.276 74.0625 105.012 73.9224 104.804 73.7162C104.597 73.51 104.455 73.247 104.397 72.9603C104.338 72.6736 104.366 72.3761 104.477 72.1052C104.587 71.8343 104.776 71.6022 105.018 71.4382C105.26 71.2742 105.546 71.1856 105.838 71.1836C106.034 71.1823 106.227 71.2196 106.408 71.2935C106.589 71.3674 106.754 71.4762 106.892 71.6139C107.031 71.7516 107.141 71.9154 107.216 72.0958C107.291 72.2763 107.33 72.4697 107.33 72.6651Z" fill="white"/>
<path d="M112.201 72.645C112.201 72.938 112.114 73.2245 111.951 73.4681C111.788 73.7118 111.557 73.9016 111.286 74.0138C111.015 74.1259 110.717 74.1552 110.43 74.098C110.143 74.0409 109.879 73.8998 109.671 73.6926C109.464 73.4854 109.323 73.2215 109.266 72.9341C109.209 72.6467 109.238 72.3488 109.35 72.0781C109.462 71.8074 109.652 71.576 109.896 71.4132C110.14 71.2504 110.426 71.1636 110.719 71.1636C111.112 71.1636 111.489 71.3196 111.767 71.5975C112.044 71.8753 112.201 72.2521 112.201 72.645Z" fill="white"/>
<path d="M102.571 72.6753C102.573 72.9707 102.487 73.2601 102.324 73.5067C102.162 73.7534 101.929 73.9461 101.657 74.0605C101.385 74.175 101.084 74.206 100.794 74.1496C100.504 74.0932 100.238 73.952 100.028 73.7438C99.8185 73.5356 99.6754 73.2698 99.617 72.9802C99.5586 72.6905 99.5876 72.3901 99.7001 72.1169C99.8127 71.8438 100.004 71.6102 100.249 71.4459C100.495 71.2815 100.784 71.1938 101.079 71.1938C101.275 71.1924 101.468 71.2298 101.649 71.3036C101.83 71.3775 101.995 71.4864 102.133 71.6241C102.272 71.7618 102.382 71.9256 102.457 72.106C102.532 72.2864 102.571 72.4799 102.571 72.6753Z" fill="white"/>
<path d="M536.079 191.418C536.079 191.418 517.459 141.625 494.405 147.389C475.724 152.057 489.007 177.1 487.87 175.964C486.734 174.827 476.708 157.82 460.473 157.82C444.237 157.82 465.455 180.773 465.455 180.773C465.455 180.773 430.904 169.977 428.204 181.311C425.952 190.707 438.514 191.458 438.514 191.458L536.079 191.418Z" fill="#558D7D"/>
<path d="M951.911 101.666C952.747 101.406 953.647 101.438 954.462 101.757C955.277 102.076 955.959 102.663 956.396 103.421C958.162 106.151 957.208 105.887 958.071 107.257C958.933 108.627 959.339 112.503 959.633 114.604C962.678 136.014 926.493 137.749 940.618 110.463C941.937 107.896 943.063 106.405 944.25 103.634C945.438 100.864 950.481 101.006 951.911 101.666Z" fill="#481C0C"/>
<path d="M944.169 121.686L940.526 120.428C940.526 120.428 939.075 122.255 938.639 126.831C938.365 129.245 938.365 131.682 938.639 134.096H942.769L944.169 121.686Z" fill="#1A538D"/>
<path d="M951.475 119.211C950.237 119.332 941.034 118.47 940.526 120.408C937.766 130.809 941.541 145.167 942.556 146.121C943.571 147.075 959.309 144.01 959.309 144.01C959.309 144.01 961.795 118.155 951.475 119.211Z" fill="#296EB6"/>
<path d="M964.048 108.546C963.2 108.028 962.522 107.273 962.099 106.374C961.511 105.288 959.745 103.898 960.476 103.675C961.206 103.452 962.343 105.278 962.505 104.761C962.668 104.243 960.618 100.255 961.287 100.053C961.957 99.8496 963.692 103.716 963.875 103.239C964.058 102.762 962.099 99.3929 963.043 99.1088C963.987 98.8247 964.991 103.269 965.499 103.107C966.006 102.944 965.275 99.5654 966.026 99.332C966.777 99.0986 966.676 103.523 966.95 103.391C967.224 103.259 967.772 101.179 968.177 101.361C968.583 101.544 967.386 105.948 967.944 106.922C968.502 107.896 972.957 119.951 971.435 121.453C969.913 122.955 959.258 126.861 956.995 126.212C954.732 125.562 953.515 123.411 954.053 122.082C954.59 120.753 965.032 117.769 965.214 117.353C965.397 116.937 964.048 108.546 964.048 108.546Z" fill="#F4A392"/>
<path d="M964.89 104.73C965.209 104.726 965.527 104.784 965.823 104.903C966.155 105.022 966.458 105.209 966.713 105.452C966.968 105.695 967.169 105.988 967.305 106.313C966.705 105.525 965.852 104.966 964.89 104.73Z" fill="#F18B80"/>
<path d="M899.999 183.665C899.999 183.665 900.313 186.304 900.313 186.71V187.156L900.09 187.613L899.999 187.795L901.602 190.007L908.147 190.109C908.289 190.109 907.294 188.577 907.294 188.577C907.294 188.577 905.174 186.994 904.788 185.888C904.402 184.782 905.113 182.478 905.113 182.478L899.999 183.665Z" fill="#F4A392"/>
<path d="M869.11 167.887C869.11 167.887 866.827 169.287 866.472 169.561L866.117 169.845L865.894 170.291L865.802 170.474L863.063 170.616L858.913 165.603C858.821 165.492 860.079 165.766 860.079 165.766C861.296 165.966 862.536 165.966 863.753 165.766C864.989 165.062 866.123 164.191 867.122 163.178L869.11 167.887Z" fill="#F4A392"/>
<path d="M889.851 143.138L865.265 163.838L869.05 169.135C869.05 169.135 894.316 153.63 895.645 153.447C896.178 153.315 896.74 153.382 897.226 153.636C897.713 153.89 898.089 154.314 898.284 154.827C898.537 155.781 899.176 184.406 899.176 184.406H905.742L909.161 148.374L889.851 143.138Z" fill="#0066AD"/>
<path d="M925.275 113.569C927.092 112.392 931.364 107.856 932.815 106.313C932.984 105.344 933.444 104.449 934.134 103.746C934.956 102.813 935.575 100.702 936.163 101.27C936.752 101.839 935.372 103.584 935.98 103.594C936.589 103.604 939.633 100.225 940.121 100.783C940.608 101.341 937.523 104.335 938.091 104.345C938.659 104.355 941.135 101.301 941.835 102.092C942.536 102.884 938.548 105.4 938.923 105.816C939.299 106.232 941.754 104.578 942.312 105.207C942.87 105.837 938.842 107.318 939.157 107.318C939.471 107.318 941.805 107.267 941.825 107.704C941.846 108.14 935.94 108.982 935.219 109.855C933.677 112.28 930.927 116.714 928.116 118.663C924.717 121.047 916.853 126.09 916.853 126.09L912.946 121.108C912.946 121.108 923.114 115.01 925.275 113.569Z" fill="#F4A392"/>
<path d="M935.97 104.71C936.11 105.003 936.193 105.32 936.214 105.644C936.236 105.996 936.178 106.349 936.044 106.676C935.911 107.002 935.705 107.295 935.443 107.531C935.963 106.689 936.152 105.683 935.97 104.71Z" fill="#F18B80"/>
<path d="M889.232 108.15C887.791 106.547 884.859 101.047 883.875 99.2001C883.965 98.2241 883.757 97.2435 883.276 96.3893C882.738 95.2629 882.697 93.0306 882.018 93.477C881.338 93.9235 882.18 95.9225 881.581 95.7703C880.983 95.6181 878.953 91.5795 878.334 91.9854C877.715 92.3913 879.897 96.0444 879.349 95.953C878.801 95.8617 877.198 92.2392 876.305 92.8176C875.412 93.396 878.608 96.8764 878.131 97.1605C877.654 97.4446 875.726 95.2326 875.026 95.6993C874.326 96.1661 877.817 98.6318 877.512 98.5506C877.208 98.4695 874.965 97.81 874.833 98.2361C874.701 98.6623 880.171 100.986 880.648 102.011C881.49 104.761 882.971 109.743 885.133 112.341C887.791 115.517 894.042 122.427 894.042 122.427L899.116 118.622C899.116 118.622 890.947 110.058 889.232 108.15Z" fill="#F4A392"/>
<path d="M881.297 96.8054C881.084 97.0521 880.922 97.3383 880.82 97.6477C880.705 97.9824 880.667 98.3388 880.709 98.6903C880.751 99.0418 880.873 99.3792 881.064 99.6772C880.788 98.7236 880.871 97.7019 881.297 96.8054Z" fill="#F18B80"/>
<path d="M900.1 119.515C900.465 118.975 900.966 118.541 901.552 118.256C902.138 117.971 902.788 117.845 903.438 117.891C907.345 118.155 915.26 118.774 916.011 119.515C917.025 120.529 920.07 126.953 917.157 135.994C914.245 145.035 912.723 144.112 910.389 144.112C908.055 144.112 897.046 138.977 897.046 138.977L900.1 119.515Z" fill="#1A538D"/>
<path d="M893.352 111.833L888.766 117.749L894.468 126.131C894.468 126.131 893.93 132.361 893.109 134.249C892.287 136.136 887.528 144.183 887.528 144.183C887.528 144.183 899.075 151.174 910.369 150.149C910.369 150.149 913.545 133.975 914.428 132.412C915.311 130.849 923.936 123.158 923.936 123.158L919.755 116.481L912.54 120.438C912.54 120.438 899.349 118.328 898.71 117.698C898.071 117.069 893.352 111.833 893.352 111.833Z" fill="#FFD139"/>
<path d="M908.248 99.7279C908.248 99.7279 903.794 97.394 902.261 101.26C902.261 101.26 898.263 100.854 898.953 104.954C898.953 104.954 894.895 106.983 897.482 112.118C897.482 112.118 896.356 116.968 902.099 117.272C902.099 117.272 902.962 118.997 905.58 118.591C908.198 118.186 908.867 117.506 908.867 117.506C908.867 117.506 913.515 118.855 914.956 114.705C914.956 114.705 918.152 113.954 915.97 109.906C915.97 109.906 918.761 104.649 913.86 103.077C913.849 103.077 913.271 97.6984 908.248 99.7279Z" fill="#703712"/>
<path d="M910.044 111.103C909.679 112.118 909.943 113.132 910.623 113.356C911.302 113.579 912.155 112.98 912.52 111.986C912.885 110.991 912.621 109.956 911.942 109.733C911.262 109.51 910.409 110.108 910.044 111.103Z" fill="#FAA694"/>
<path d="M898.03 108.657C898.03 109.672 898.527 110.606 899.248 110.636C899.968 110.667 900.597 109.834 900.648 108.779C900.698 107.724 900.161 106.831 899.43 106.75C898.7 106.669 898.081 107.592 898.03 108.657Z" fill="#FAA694"/>
<path d="M903.124 115.669C903.124 115.74 902.546 118.206 902.241 119.505C902.181 119.74 902.207 119.99 902.315 120.208C902.423 120.426 902.605 120.597 902.83 120.692C904.057 121.24 906.462 122.011 908.127 120.519C908.202 120.454 908.261 120.373 908.299 120.282C908.338 120.19 908.355 120.091 908.35 119.992L908.147 114.117L903.124 115.669Z" fill="#FAA694"/>
<path d="M902.809 117.049C903.569 117.398 904.407 117.545 905.241 117.476C906.074 117.407 906.876 117.123 907.568 116.653C907.802 116.511 908.015 116.369 908.228 116.217L908.147 114.117L903.124 115.669C903.124 115.669 902.992 116.298 902.809 117.049Z" fill="#F18B80"/>
<path d="M906.685 102.122C908.129 102.574 909.366 103.523 910.176 104.801C911.465 106.912 912.205 113.021 907.568 115.679C902.931 118.338 899.613 114.218 899.704 110.311C899.795 106.405 901.551 101.392 906.685 102.122Z" fill="#FAA694"/>
<path d="M899.176 117.962C897.056 119.545 894.834 127.663 894.001 129.784L893.322 133.67L901.947 118.612C901.947 118.612 899.633 117.627 899.176 117.962Z" fill="#296EB6"/>
<path d="M909.649 120.012C909.649 120.012 909.385 130.017 910.156 133.457C910.439 135.3 911.424 136.962 912.906 138.094L913.92 134.096C913.92 134.096 912.906 125.258 912.581 120.489C912.49 119.768 909.649 120.012 909.649 120.012Z" fill="#296EB6"/>
<path d="M898.831 191.702C897.817 191.58 899.542 188.221 900.09 187.643L907.294 188.658C908.796 189.316 910.23 190.118 911.576 191.053C911.779 191.245 911.8 191.59 910.957 191.712C906.922 192.044 902.866 192.041 898.831 191.702Z" fill="#163659"/>
<path d="M863.428 173.812C864.27 174.32 865.813 171.052 865.894 170.291L860.079 165.766C860.079 165.766 855.594 164.497 854.691 165.39C853.788 166.283 861.51 172.676 863.428 173.812Z" fill="#163659"/>
<path d="M973.038 177.577C973.038 177.577 975.067 185.817 976.61 187.105C978.152 188.394 983.104 190.88 981.805 191.164C980.506 191.448 970.877 191.651 971.14 190.068C971.279 189.194 971.462 188.327 971.688 187.471L969.141 181.585L973.038 177.577Z" fill="#F39A8E"/>
<path d="M950.613 184.487C950.613 184.487 950.4 186.517 950.4 187.531C950.4 188.546 951.262 191.032 950.856 191.438C950.45 191.844 939.004 191.783 939.004 191.438C939.004 191.093 941.034 189.936 943.784 189.155C944.346 188.995 944.87 188.724 945.325 188.357C945.78 187.991 946.157 187.537 946.433 187.022C946.71 186.507 946.88 185.942 946.934 185.36C946.988 184.779 946.924 184.192 946.747 183.635L950.613 184.487Z" fill="#F39A8E"/>
<path d="M963.043 149.652L965.073 151.448C965.073 151.448 967.386 157.648 967.518 158.054C967.711 158.622 975.199 182.488 975.199 182.488L969.984 184.345C969.984 184.345 964.809 174.381 963.895 170.921C962.982 167.46 954.458 152.97 954.458 152.97L963.043 149.652Z" fill="#FFD139"/>
<path d="M953.971 153.325L951.465 184.964H945.681C945.681 184.964 943.652 161.291 944.321 152.97L953.971 153.325Z" fill="#FFD139"/>
<path d="M943.824 121.463C946.406 120.837 949.037 120.44 951.688 120.276C953.386 120.241 955.084 120.353 956.762 120.611C958.283 124.036 959.433 127.615 960.192 131.286C960.973 136.085 965.265 151.489 965.265 151.489C965.265 151.489 956.539 158.125 943.824 153.752V121.463Z" fill="#0066AD"/>
<path d="M953.728 116.207C953.728 116.207 953.616 119.961 953.971 120.266C954.247 120.474 954.435 120.779 954.497 121.119C954.559 121.459 954.491 121.81 954.306 122.102C953.779 122.995 951.506 122.427 950.44 121.91C949.786 121.572 949.214 121.094 948.766 120.509L949.304 114.563L953.728 116.207Z" fill="#F39A8E"/>
<path d="M952.206 117.759C950.938 117.39 949.852 116.561 949.162 115.436L949.243 114.604L953.667 116.207C953.667 116.207 953.667 117.12 953.667 118.094C953.167 118.052 952.675 117.939 952.206 117.759Z" fill="#D2563E"/>
<path d="M948.522 110.362C948.522 110.362 948.411 108.16 947.041 108.586C945.671 109.012 946.716 112.341 947.853 112.229C948.989 112.118 948.522 110.362 948.522 110.362Z" fill="#F39A8E"/>
<path d="M952.825 103.158C953.453 103.155 954.074 103.299 954.637 103.577C955.201 103.855 955.692 104.26 956.072 104.761C957.158 106.405 958.355 111.123 956.539 114.37C954.722 117.617 952.419 116.816 951.465 116.491C950.539 116.196 949.704 115.668 949.041 114.957C948.378 114.246 947.91 113.377 947.68 112.432C946.726 109.358 947.416 102.529 952.825 103.158Z" fill="#F39A8E"/>
<path d="M944.23 121.362C945.245 123.543 947.609 128.241 947.508 133.417C947.307 136.839 945.782 140.049 943.256 142.366V145.025C943.256 145.025 947.812 144.315 949.557 137.303C951.303 130.291 947.112 120.763 947.112 120.763C946.838 120.622 946.537 120.541 946.229 120.525C945.921 120.509 945.613 120.559 945.326 120.672C944.893 120.771 944.507 121.015 944.23 121.362Z" fill="#1A538D"/>
<path d="M954.235 120.256C954.235 120.256 957.655 138.52 962.099 139.657L961.328 136.552C961.328 136.552 956.752 121.808 956.752 120.611C956.752 119.413 954.235 120.256 954.235 120.256Z" fill="#1A538D"/>
<path d="M963.51 151.428H950.217V136.461L963.51 137.049V151.428Z" fill="#F56B52"/>
<path d="M963.51 135.892H950.806C950.651 135.892 950.503 135.953 950.393 136.061C950.283 136.169 950.22 136.316 950.217 136.471C950.217 136.627 950.279 136.777 950.389 136.887C950.5 136.997 950.649 137.059 950.806 137.059H963.5C962.617 136.714 962.627 136.207 963.51 135.892Z" fill="#D2563E"/>
<path d="M963.144 136.055H951.252C951.198 136.053 951.144 136.063 951.093 136.083C951.043 136.102 950.997 136.132 950.958 136.17C950.92 136.208 950.889 136.253 950.868 136.303C950.847 136.353 950.836 136.407 950.836 136.461C950.836 136.571 950.88 136.677 950.958 136.755C951.036 136.833 951.142 136.877 951.252 136.877H963.144C962.739 136.623 962.739 136.308 963.144 136.055Z" fill="#FFE1B1"/>
<path d="M957.685 136.136H956.843C956.757 136.136 956.674 136.17 956.613 136.231C956.553 136.292 956.518 136.375 956.518 136.461H957.685V136.136Z" fill="#0066AD"/>
<path d="M956.884 136.136C957.144 136.171 957.38 136.306 957.543 136.511L959.573 138.947H960.74L958.852 136.633C958.632 136.361 958.316 136.183 957.969 136.136H956.884Z" fill="#0066AD"/>
<path d="M943.824 121.463C943.824 121.463 944.839 122.478 945.854 126.212C946.868 129.946 947.477 138.795 948.401 139.708C949.324 140.621 955.402 145.41 956.518 145.248C957.634 145.086 960.07 142.204 960.831 142.204C961.592 142.204 961.501 142.884 961.125 143.219C960.75 143.554 960.273 144.03 960.506 144.233L960.729 144.457C960.729 144.457 964.119 143.574 964.697 143.899C965.275 144.223 964.149 145.005 964.149 145.573C964.21 145.962 964.233 146.356 964.22 146.75C964.206 147.266 964.021 147.762 963.692 148.16C961.231 149.089 958.577 149.389 955.97 149.033C951.492 148.464 947.398 146.215 944.514 142.742C941.206 138.683 941.866 125.958 941.947 124.69C942.15 121.605 943.824 121.463 943.824 121.463Z" fill="#F39A8E"/>
<path d="M982.901 191.702C979.02 192.03 975.122 192.108 971.232 191.935C971.232 191.935 970.836 191.854 971.11 190.2C971.181 189.794 971.252 189.429 971.313 189.104C973.2 189.591 977.31 188.546 978.944 188.333C980.373 189.139 981.843 189.87 983.347 190.525C984.281 190.687 984.281 191.56 982.901 191.702Z" fill="#163659"/>
<path d="M938.385 191.702C938.385 191.337 940.344 190.221 942.881 189.46C945.59 190.363 949.344 189.622 950.755 189.348C951.181 190.464 951.323 191.519 951.1 191.743C950.684 192.179 938.385 192.108 938.385 191.702Z" fill="#163659"/>
<path d="M185.078 168.191C185.078 168.191 207.929 151.225 211.065 143.919C214.2 136.613 207.736 137.425 207.736 137.425C207.736 137.425 216.97 124.355 214.515 120.032C212.059 115.71 206.975 121.23 206.975 121.23C206.975 121.23 211.247 103.533 207.533 102.549C200.593 100.722 194.91 119.799 194.91 119.799C194.91 119.799 195.418 111.894 191.075 112.96C184.53 114.563 188.031 131.58 188.031 131.58C188.031 131.58 185.95 128.536 182.358 131.438C175.874 136.552 185.078 168.191 185.078 168.191Z" fill="#558D7D"/>
<path d="M181.344 131.833C182.241 131.013 183.398 130.534 184.613 130.48C185.828 130.426 187.024 130.801 187.99 131.539C187.99 131.539 184.53 114.522 191.034 112.919C195.377 111.904 194.87 119.758 194.87 119.758C194.87 119.758 200.552 100.722 207.493 102.508L184.865 168.1C183.891 164.041 175.336 136.643 181.344 131.833Z" fill="#A6D7C9"/>
<path d="M185.078 167.602C185.078 167.602 208.497 167.602 213.327 163.544C218.158 159.485 212.242 159.16 212.242 159.16C212.242 159.16 223.404 153.224 223.272 149.256C223.14 145.289 219.314 146.09 219.314 146.09C219.314 146.09 227.047 139.16 225.453 135.801C223.018 130.636 211.947 140.428 211.947 140.428C211.947 140.428 212.8 136.501 209.37 135.69C204.185 134.452 198.939 149.165 198.939 149.165C198.939 149.165 201.415 142.539 197.863 143.269C191.511 144.568 185.078 167.602 185.078 167.602Z" fill="#72BCA6"/>
<path d="M184.134 168.911C184.134 168.911 163.342 151.164 160.795 144.02C158.249 136.877 164.357 138.054 164.357 138.054C164.357 138.054 156.361 125.045 158.959 121.088C161.557 117.13 166.062 122.681 166.062 122.681C166.062 122.681 163.068 105.593 166.671 104.882C173.378 103.553 177.63 122.021 177.63 122.021C177.63 122.021 177.63 114.461 181.689 115.74C187.777 117.668 183.495 133.65 183.495 133.65C183.495 133.65 185.758 127.673 188.995 130.606C194.829 135.892 184.134 168.911 184.134 168.911Z" fill="#558D7D"/>
<path d="M191.004 127.166C187.209 124.964 184.915 128.952 184.915 128.952C184.915 128.952 187.828 117.668 181.699 115.76C177.64 114.482 177.64 122.041 177.64 122.041C177.64 122.041 173.388 103.573 166.681 104.903L183.586 172.503C184.804 168.647 197.853 131.143 191.004 127.166Z" fill="#72BCA6"/>
<path d="M182.034 166.334C182.034 166.334 159.202 166.334 156.026 165.969C152.85 165.603 156.361 162.762 156.361 162.762C156.361 162.762 149.258 163.026 148.162 161.291C147.066 159.556 149.989 158.886 149.989 158.886C149.989 158.886 142.886 156.857 143.251 155.335C143.88 152.524 151.693 154.32 151.693 154.32C151.693 154.32 148.791 152.919 149.968 151.6C151.744 149.632 159.344 155 159.344 155C159.344 155 156.737 150.027 158.178 148.911C164.205 144.325 182.034 166.334 182.034 166.334Z" fill="#A6D7C9"/>
<path d="M165.555 192.067H203.566C205.997 189.915 207.941 187.268 209.266 184.303C210.59 181.339 211.266 178.125 211.247 174.878C211.237 171.681 210.483 168.53 209.045 165.674L160.045 166.222C158.658 169.204 157.964 172.462 158.015 175.751C158.089 178.841 158.797 181.884 160.094 184.69C161.39 187.497 163.249 190.007 165.555 192.067Z" fill="#EE7459"/>
<path d="M770.571 165.147C770.571 165.147 793.433 148.181 796.568 140.875C799.704 133.569 793.24 134.381 793.24 134.381C793.24 134.381 802.464 121.311 800.018 116.988C797.573 112.666 792.469 118.186 792.469 118.186C792.469 118.186 796.751 100.489 793.027 99.5046C786.096 97.6781 780.404 116.755 780.404 116.755C780.404 116.755 780.911 108.85 776.578 109.916C770.033 111.519 773.534 128.536 773.534 128.536C773.534 128.536 771.444 125.492 767.862 128.394C761.357 133.508 770.571 165.147 770.571 165.147Z" fill="#558D7D"/>
<path d="M766.827 128.789C767.724 127.969 768.882 127.49 770.097 127.436C771.311 127.382 772.507 127.757 773.473 128.495C773.473 128.495 770.013 111.478 776.517 109.875C780.85 108.86 780.343 116.714 780.343 116.714C780.343 116.714 786.035 97.678 792.966 99.4639L770.338 165.055C769.374 160.997 760.809 133.599 766.827 128.789Z" fill="#A6D7C9"/>
<path d="M770.571 164.558C770.571 164.558 794.001 164.558 798.831 160.499C803.661 156.44 797.735 156.116 797.735 156.116C797.735 156.116 808.897 150.18 808.765 146.212C808.633 142.245 804.808 143.046 804.808 143.046C804.808 143.046 812.55 136.116 810.957 132.757C808.522 127.592 797.451 137.384 797.451 137.384C797.451 137.384 798.293 133.457 794.863 132.645C789.688 131.407 784.442 146.121 784.442 146.121C784.442 146.121 786.918 139.495 783.356 140.225C776.984 141.524 770.571 164.558 770.571 164.558Z" fill="#72BCA6"/>
<path d="M769.607 165.867C769.607 165.867 748.825 148.12 746.268 140.976C743.711 133.833 749.82 135.01 749.82 135.01C749.82 135.01 741.834 122.001 744.422 118.044C747.009 114.086 751.525 119.637 751.525 119.637C751.525 119.637 748.48 102.549 752.123 101.838C758.831 100.509 763.092 118.977 763.092 118.977C763.092 118.977 763.092 111.417 767.151 112.696C773.24 114.624 768.957 130.606 768.957 130.606C768.957 130.606 771.22 124.629 774.457 127.562C780.302 132.848 769.607 165.867 769.607 165.867Z" fill="#558D7D"/>
<path d="M776.477 124.122C772.692 121.92 770.388 125.908 770.388 125.908C770.388 125.908 773.301 114.624 767.172 112.716C763.113 111.438 763.113 118.997 763.113 118.997C763.113 118.997 758.851 100.529 752.144 101.859L769.059 169.459C770.277 165.603 783.326 128.099 776.477 124.122Z" fill="#72BCA6"/>
<path d="M767.527 163.29C767.527 163.29 744.685 163.29 741.509 162.925C738.333 162.559 741.844 159.718 741.844 159.718C741.844 159.718 734.741 159.982 733.655 158.247C732.57 156.512 735.472 155.842 735.472 155.842C735.472 155.842 728.369 153.812 728.734 152.29C729.363 149.48 737.187 151.276 737.187 151.276C737.187 151.276 734.274 149.875 735.462 148.556C737.237 146.588 744.838 151.955 744.838 151.955C744.838 151.955 742.23 146.983 743.671 145.867C749.688 141.281 767.527 163.29 767.527 163.29Z" fill="#A6D7C9"/>
<path d="M751.027 189.023H789.039C791.472 186.873 793.417 184.226 794.742 181.261C796.067 178.296 796.742 175.081 796.72 171.834C796.718 168.637 795.968 165.485 794.528 162.63L745.517 163.178C744.13 166.16 743.436 169.418 743.488 172.706C743.562 175.797 744.269 178.84 745.566 181.647C746.862 184.453 748.721 186.964 751.027 189.023Z" fill="#EE7459"/>
<path d="M972.886 104.974L964.474 96.5518L956.082 104.933L972.886 104.974Z" fill="#676767"/>
<path d="M966.797 102.397L964.514 100.113L962.201 102.427L966.797 102.397Z" fill="#EFEFEF"/>
<path d="M971.09 104.02C971.101 104.015 971.113 104.013 971.125 104.013C971.137 104.013 971.149 104.015 971.161 104.02C971.174 104.02 971.186 104.023 971.198 104.028C971.21 104.033 971.22 104.041 971.229 104.05C971.238 104.06 971.244 104.071 971.248 104.083C971.252 104.096 971.253 104.109 971.252 104.121V104.71C971.252 104.734 971.242 104.757 971.225 104.775C971.208 104.792 971.185 104.801 971.161 104.801C971.137 104.801 971.113 104.792 971.096 104.775C971.079 104.757 971.069 104.734 971.069 104.71V104.121C971.063 104.086 971.07 104.05 971.09 104.02Z" fill="#09304A"/>
<path d="M969.862 104.071H969.933C969.957 104.071 969.98 104.08 969.997 104.098C970.015 104.115 970.024 104.138 970.024 104.162V104.751C970.024 104.775 970.015 104.798 969.997 104.815C969.98 104.832 969.957 104.842 969.933 104.842C969.908 104.842 969.883 104.833 969.864 104.816C969.846 104.799 969.834 104.776 969.831 104.751V104.162C969.827 104.146 969.828 104.128 969.834 104.112C969.839 104.096 969.849 104.082 969.862 104.071Z" fill="#09304A"/>
<path d="M968.685 104.071C968.708 104.065 968.733 104.065 968.756 104.071C968.781 104.073 968.804 104.085 968.821 104.104C968.838 104.123 968.847 104.147 968.847 104.172V104.761C968.847 104.785 968.838 104.808 968.82 104.825C968.803 104.843 968.78 104.852 968.756 104.852C968.731 104.852 968.706 104.843 968.687 104.826C968.669 104.809 968.657 104.786 968.654 104.761V104.172C968.648 104.154 968.648 104.135 968.653 104.117C968.659 104.098 968.67 104.083 968.685 104.071Z" fill="#09304A"/>
<path d="M967.427 104.071C967.446 104.064 967.468 104.064 967.488 104.071C967.515 104.071 967.54 104.082 967.559 104.101C967.578 104.12 967.589 104.145 967.589 104.172V104.761C967.589 104.774 967.586 104.787 967.581 104.798C967.576 104.81 967.568 104.821 967.559 104.829C967.549 104.838 967.538 104.844 967.526 104.848C967.513 104.852 967.5 104.854 967.488 104.852C967.463 104.852 967.44 104.843 967.423 104.825C967.406 104.808 967.396 104.785 967.396 104.761V104.172C967.39 104.154 967.39 104.135 967.395 104.117C967.401 104.099 967.412 104.083 967.427 104.071Z" fill="#09304A"/>
<path d="M966.28 104.071H966.341C966.368 104.071 966.394 104.081 966.413 104.101C966.432 104.12 966.442 104.145 966.442 104.172V104.761C966.442 104.774 966.44 104.786 966.435 104.798C966.429 104.81 966.422 104.821 966.412 104.829C966.403 104.838 966.391 104.844 966.379 104.848C966.367 104.852 966.354 104.854 966.341 104.852C966.317 104.852 966.293 104.843 966.276 104.825C966.259 104.808 966.249 104.785 966.249 104.761V104.172C966.243 104.154 966.243 104.135 966.248 104.117C966.254 104.098 966.265 104.082 966.28 104.071Z" fill="#09304A"/>
<path d="M965.073 104.04H965.144C965.168 104.04 965.191 104.05 965.208 104.067C965.225 104.084 965.235 104.107 965.235 104.132V104.72C965.235 104.745 965.225 104.768 965.208 104.785C965.191 104.802 965.168 104.812 965.144 104.812C965.144 104.812 965.042 104.812 965.052 104.72V104.132C965.048 104.1 965.056 104.068 965.073 104.04Z" fill="#09304A"/>
<path d="M963.926 104.071H963.997C964.021 104.071 964.044 104.08 964.061 104.098C964.078 104.115 964.088 104.138 964.088 104.162V104.751C964.088 104.775 964.078 104.798 964.061 104.815C964.044 104.832 964.021 104.842 963.997 104.842C963.972 104.842 963.947 104.833 963.928 104.816C963.91 104.799 963.898 104.776 963.895 104.751V104.162C963.895 104.129 963.906 104.097 963.926 104.071Z" fill="#09304A"/>
<path d="M962.698 104.071H962.769C962.793 104.071 962.817 104.08 962.834 104.098C962.851 104.115 962.86 104.138 962.86 104.162V104.751C962.86 104.775 962.851 104.798 962.834 104.815C962.817 104.832 962.793 104.842 962.769 104.842C962.756 104.843 962.743 104.842 962.731 104.838C962.719 104.834 962.707 104.828 962.698 104.819C962.688 104.81 962.681 104.8 962.675 104.788C962.67 104.776 962.668 104.764 962.668 104.751V104.162C962.664 104.146 962.664 104.128 962.67 104.112C962.675 104.096 962.685 104.082 962.698 104.071Z" fill="#09304A"/>
<path d="M961.47 104.071H961.531C961.556 104.071 961.581 104.08 961.6 104.097C961.618 104.114 961.63 104.137 961.633 104.162V104.751C961.63 104.776 961.618 104.799 961.6 104.816C961.581 104.833 961.556 104.842 961.531 104.842C961.507 104.842 961.484 104.832 961.466 104.815C961.449 104.798 961.44 104.775 961.44 104.751V104.162C961.436 104.146 961.437 104.128 961.442 104.112C961.447 104.096 961.457 104.082 961.47 104.071Z" fill="#09304A"/>
<path d="M960.232 104.071H960.303C960.327 104.071 960.351 104.08 960.368 104.098C960.385 104.115 960.394 104.138 960.394 104.162V104.751C960.394 104.775 960.385 104.798 960.368 104.815C960.351 104.832 960.327 104.842 960.303 104.842C960.279 104.842 960.256 104.832 960.239 104.815C960.222 104.798 960.212 104.775 960.212 104.751V104.162C960.208 104.13 960.215 104.098 960.232 104.071Z" fill="#09304A"/>
<path d="M959.004 104.071H959.076C959.1 104.071 959.123 104.08 959.14 104.098C959.157 104.115 959.167 104.138 959.167 104.162V104.751C959.167 104.775 959.157 104.798 959.14 104.815C959.123 104.832 959.1 104.842 959.076 104.842C959.05 104.842 959.026 104.833 959.007 104.816C958.988 104.799 958.977 104.776 958.974 104.751V104.162C958.97 104.146 958.971 104.128 958.976 104.112C958.982 104.096 958.991 104.082 959.004 104.071Z" fill="#09304A"/>
<path d="M957.827 104.071H957.898C957.923 104.071 957.946 104.08 957.963 104.098C957.98 104.115 957.99 104.138 957.99 104.162V104.751C957.99 104.775 957.98 104.798 957.963 104.815C957.946 104.832 957.923 104.842 957.898 104.842C957.873 104.842 957.849 104.833 957.83 104.816C957.811 104.799 957.799 104.776 957.797 104.751V104.162C957.793 104.146 957.794 104.128 957.799 104.112C957.805 104.096 957.814 104.082 957.827 104.071Z" fill="#09304A"/>
<path d="M970.471 103.503C970.48 103.498 970.491 103.496 970.501 103.496C970.512 103.496 970.522 103.498 970.532 103.503C970.559 103.503 970.584 103.513 970.604 103.532C970.623 103.551 970.633 103.577 970.633 103.604V104.73C970.631 104.757 970.619 104.781 970.601 104.8C970.582 104.818 970.558 104.83 970.532 104.832C970.507 104.829 970.483 104.818 970.467 104.799C970.45 104.78 970.44 104.756 970.44 104.73V103.604C970.434 103.586 970.434 103.567 970.439 103.548C970.445 103.53 970.456 103.514 970.471 103.503Z" fill="#09304A"/>
<path d="M969.273 103.533C969.285 103.528 969.297 103.526 969.309 103.526C969.321 103.526 969.333 103.528 969.345 103.533C969.369 103.533 969.392 103.543 969.409 103.56C969.426 103.577 969.436 103.6 969.436 103.624V104.761C969.436 104.785 969.426 104.808 969.409 104.825C969.392 104.842 969.369 104.852 969.345 104.852C969.319 104.852 969.295 104.843 969.276 104.826C969.257 104.809 969.246 104.786 969.243 104.761V103.624C969.236 103.608 969.235 103.59 969.24 103.573C969.246 103.556 969.258 103.542 969.273 103.533Z" fill="#09304A"/>
<path d="M968.076 103.553H968.137C968.162 103.556 968.185 103.568 968.202 103.586C968.219 103.605 968.228 103.629 968.228 103.655V104.781C968.228 104.805 968.219 104.829 968.201 104.846C968.184 104.863 968.161 104.872 968.137 104.872C968.113 104.872 968.089 104.863 968.072 104.846C968.055 104.829 968.045 104.805 968.045 104.781V103.655C968.039 103.637 968.039 103.617 968.045 103.599C968.05 103.581 968.061 103.565 968.076 103.553Z" fill="#09304A"/>
<path d="M966.868 103.533H966.929C966.942 103.531 966.955 103.533 966.967 103.537C966.98 103.541 966.991 103.547 967.001 103.556C967.01 103.564 967.018 103.575 967.023 103.587C967.028 103.599 967.031 103.611 967.031 103.624V104.761C967.031 104.774 967.028 104.786 967.023 104.798C967.018 104.81 967.01 104.821 967.001 104.829C966.991 104.838 966.98 104.844 966.967 104.848C966.955 104.852 966.942 104.854 966.929 104.852C966.905 104.852 966.882 104.842 966.865 104.825C966.848 104.808 966.838 104.785 966.838 104.761V103.624C966.831 103.608 966.83 103.59 966.835 103.573C966.841 103.556 966.853 103.542 966.868 103.533Z" fill="#09304A"/>
<path d="M965.661 103.503C965.672 103.498 965.684 103.495 965.697 103.495C965.709 103.495 965.721 103.498 965.732 103.503C965.756 103.503 965.78 103.512 965.797 103.529C965.814 103.546 965.824 103.57 965.824 103.594V104.73C965.824 104.755 965.814 104.778 965.797 104.795C965.78 104.812 965.756 104.822 965.732 104.822C965.707 104.822 965.682 104.813 965.664 104.796C965.645 104.779 965.633 104.756 965.631 104.73V103.594C965.63 103.561 965.641 103.529 965.661 103.503Z" fill="#09304A"/>
<path d="M964.464 103.472H964.525C964.551 103.474 964.575 103.486 964.594 103.504C964.612 103.523 964.624 103.547 964.626 103.574V104.7C964.626 104.727 964.615 104.753 964.596 104.772C964.577 104.791 964.552 104.801 964.525 104.801C964.512 104.801 964.499 104.799 964.487 104.794C964.475 104.788 964.465 104.781 964.456 104.771C964.447 104.762 964.441 104.75 964.437 104.738C964.433 104.726 964.432 104.713 964.433 104.7V103.574C964.427 103.556 964.427 103.536 964.432 103.518C964.438 103.5 964.449 103.484 964.464 103.472Z" fill="#09304A"/>
<path d="M963.256 103.503C963.267 103.498 963.279 103.495 963.291 103.495C963.304 103.495 963.316 103.498 963.327 103.503C963.352 103.505 963.375 103.517 963.392 103.536C963.409 103.554 963.418 103.579 963.418 103.604V104.73C963.418 104.755 963.409 104.778 963.392 104.795C963.374 104.812 963.351 104.822 963.327 104.822C963.303 104.822 963.279 104.812 963.262 104.795C963.245 104.778 963.236 104.755 963.236 104.73V103.604C963.229 103.569 963.237 103.533 963.256 103.503Z" fill="#09304A"/>
<path d="M962.059 103.482C962.068 103.478 962.079 103.475 962.089 103.475C962.1 103.475 962.11 103.478 962.12 103.482C962.145 103.482 962.169 103.492 962.188 103.508C962.207 103.525 962.219 103.549 962.221 103.574V104.71C962.219 104.735 962.207 104.759 962.188 104.775C962.169 104.792 962.145 104.802 962.12 104.801C962.095 104.801 962.072 104.792 962.055 104.775C962.038 104.758 962.028 104.734 962.028 104.71V103.574C962.021 103.557 962.02 103.539 962.026 103.522C962.031 103.505 962.043 103.491 962.059 103.482Z" fill="#09304A"/>
<path d="M960.882 103.533C960.891 103.528 960.902 103.526 960.912 103.526C960.923 103.526 960.933 103.528 960.943 103.533C960.968 103.533 960.992 103.542 961.011 103.559C961.03 103.576 961.041 103.599 961.044 103.624V104.761C961.041 104.786 961.03 104.809 961.011 104.826C960.992 104.843 960.968 104.852 960.943 104.852C960.918 104.852 960.895 104.842 960.878 104.825C960.861 104.808 960.851 104.785 960.851 104.761V103.624C960.844 103.608 960.843 103.59 960.849 103.573C960.854 103.556 960.866 103.542 960.882 103.533Z" fill="#09304A"/>
<path d="M959.674 103.553H959.745C959.769 103.553 959.793 103.563 959.81 103.58C959.827 103.597 959.837 103.62 959.837 103.645V104.781C959.837 104.805 959.827 104.829 959.81 104.846C959.793 104.863 959.769 104.872 959.745 104.872C959.72 104.873 959.696 104.863 959.677 104.846C959.658 104.829 959.646 104.806 959.644 104.781V103.645C959.64 103.628 959.641 103.611 959.646 103.595C959.651 103.578 959.661 103.564 959.674 103.553Z" fill="#09304A"/>
<path d="M958.467 103.533C958.478 103.528 958.49 103.526 958.502 103.526C958.514 103.526 958.526 103.528 958.538 103.533C958.562 103.533 958.585 103.543 958.602 103.56C958.619 103.577 958.629 103.6 958.629 103.624V104.761C958.629 104.785 958.619 104.808 958.602 104.825C958.585 104.842 958.562 104.852 958.538 104.852C958.513 104.852 958.49 104.842 958.473 104.825C958.456 104.808 958.446 104.785 958.446 104.761V103.624C958.443 103.608 958.443 103.592 958.447 103.576C958.45 103.561 958.457 103.546 958.467 103.533Z" fill="#09304A"/>
<path d="M951.912 101.666C952.747 101.406 953.647 101.438 954.462 101.757C955.277 102.076 955.959 102.663 956.397 103.421C958.162 106.151 957.208 105.887 958.071 107.257C958.933 108.627 959.339 112.503 959.634 114.604C962.678 136.014 926.493 137.749 940.618 110.463C941.937 107.896 943.063 106.405 944.25 103.634C945.438 100.864 950.481 101.006 951.912 101.666Z" fill="#481C0C"/>
<path d="M944.169 121.686L940.526 120.428C940.526 120.428 939.075 122.255 938.639 126.831C938.365 129.245 938.365 131.682 938.639 134.096H942.769L944.169 121.686Z" fill="#1A538D"/>
<path d="M951.475 119.211C950.237 119.332 941.034 118.47 940.526 120.408C937.766 130.809 941.541 145.167 942.556 146.121C943.571 147.075 959.309 144.01 959.309 144.01C959.309 144.01 961.795 118.155 951.475 119.211Z" fill="#296EB6"/>
<path d="M964.048 108.546C963.2 108.028 962.522 107.273 962.099 106.374C961.511 105.288 959.745 103.898 960.476 103.675C961.206 103.452 962.343 105.278 962.505 104.761C962.668 104.243 960.618 100.255 961.287 100.053C961.957 99.8496 963.692 103.716 963.875 103.239C964.058 102.762 962.099 99.3929 963.043 99.1088C963.987 98.8247 964.991 103.269 965.499 103.107C966.006 102.944 965.275 99.5654 966.026 99.332C966.777 99.0986 966.676 103.523 966.95 103.391C967.224 103.259 967.772 101.179 968.177 101.361C968.583 101.544 967.386 105.948 967.944 106.922C968.502 107.896 972.957 119.951 971.435 121.453C969.913 122.955 959.258 126.861 956.995 126.212C954.732 125.562 953.515 123.411 954.053 122.082C954.59 120.753 965.032 117.769 965.214 117.353C965.397 116.937 964.048 108.546 964.048 108.546Z" fill="#F4A392"/>
<path d="M964.89 104.73C965.209 104.726 965.527 104.784 965.823 104.903C966.155 105.022 966.457 105.209 966.712 105.452C966.968 105.695 967.169 105.988 967.305 106.313C966.704 105.525 965.852 104.966 964.89 104.73Z" fill="#F18B80"/>
<path d="M899.999 182.904C899.999 182.904 900.313 185.543 900.313 185.948V186.395L900.09 186.852L899.999 187.034L901.602 189.246L908.147 189.338C908.289 189.338 907.294 187.806 907.294 187.806C907.294 187.806 905.174 186.233 904.788 185.127C904.402 184.021 905.113 181.707 905.113 181.707L899.999 182.904Z" fill="#F4A392"/>
<path d="M869.11 167.115C869.11 167.115 866.827 168.516 866.472 168.8L866.117 169.074L865.894 169.53L865.802 169.713L863.063 169.855L858.913 164.842C858.821 164.731 860.079 165.005 860.079 165.005C861.296 165.205 862.536 165.205 863.753 165.005C864.987 164.297 866.12 163.427 867.122 162.417L869.11 167.115Z" fill="#F4A392"/>
<path d="M889.851 142.366L865.265 163.077L869.05 168.374C869.05 168.374 894.316 152.859 895.645 152.686C896.178 152.554 896.74 152.621 897.226 152.875C897.713 153.129 898.089 153.553 898.284 154.066C898.537 155.02 899.176 183.635 899.176 183.635H905.742L909.161 147.602L889.851 142.366Z" fill="#0066AD"/>
<path d="M925.275 112.848C927.091 111.661 931.363 107.135 932.814 105.593C932.982 104.623 933.442 103.727 934.134 103.026C934.955 102.082 935.574 99.9816 936.163 100.55C936.751 101.118 935.372 102.863 935.98 102.873C936.589 102.884 939.633 99.5047 940.12 100.053C940.607 100.601 937.523 103.614 938.091 103.624C938.659 103.635 941.135 100.58 941.835 101.372C942.535 102.163 938.548 104.68 938.923 105.096C939.299 105.512 941.754 103.858 942.312 104.487C942.87 105.116 938.842 106.587 939.156 106.598C939.471 106.608 941.805 106.537 941.825 106.983C941.845 107.43 935.94 108.262 935.219 109.134C933.677 111.56 930.927 115.994 928.116 117.942C924.717 120.317 916.853 125.37 916.853 125.37L912.946 120.377C912.946 120.377 923.114 114.238 925.275 112.848Z" fill="#F4A392"/>
<path d="M935.97 103.949C936.111 104.241 936.194 104.559 936.214 104.883C936.235 105.235 936.177 105.587 936.043 105.914C935.91 106.241 935.704 106.533 935.443 106.77C935.963 105.928 936.152 104.922 935.97 103.949Z" fill="#F18B80"/>
<path d="M889.232 107.389C887.791 105.776 884.859 100.286 883.875 98.439C883.965 97.4598 883.756 96.4763 883.276 95.6182C882.738 94.502 882.697 92.2695 882.018 92.716C881.338 93.1625 882.18 95.1513 881.581 95.0093C880.983 94.8672 878.953 90.8185 878.334 91.2244C877.715 91.6303 879.897 95.2833 879.349 95.192C878.801 95.1006 877.198 91.4781 876.305 92.0464C875.412 92.6146 878.608 96.1052 878.131 96.3994C877.654 96.6937 875.726 94.4715 875.026 94.9281C874.326 95.3848 877.817 97.8606 877.512 97.7896C877.208 97.7186 874.965 97.0489 874.833 97.4751C874.701 97.9013 880.171 100.225 880.648 101.25C881.49 103.99 882.971 108.982 885.133 111.58C887.791 114.756 894.042 121.666 894.042 121.666L899.116 117.861C899.116 117.861 890.947 109.297 889.232 107.389Z" fill="#F4A392"/>
<path d="M881.297 96.0443C881.084 96.2909 880.922 96.5772 880.82 96.8866C880.703 97.2211 880.665 97.5777 880.707 97.9294C880.749 98.2812 880.871 98.6187 881.064 98.916C880.788 97.9625 880.871 96.9408 881.297 96.0443Z" fill="#F18B80"/>
<path d="M900.1 118.744C900.469 118.208 900.97 117.776 901.555 117.492C902.14 117.207 902.789 117.079 903.438 117.12C907.345 117.384 915.26 118.003 916.011 118.744C917.025 119.758 920.07 126.192 917.157 135.233C914.245 144.274 912.723 143.351 910.389 143.351C908.055 143.351 897.046 138.216 897.046 138.216L900.1 118.744Z" fill="#1A538D"/>
<path d="M893.352 111.072L888.765 116.988L894.468 125.37C894.468 125.37 893.93 131.6 893.108 133.488C892.287 135.375 887.527 143.411 887.527 143.411C887.527 143.411 899.075 150.413 910.369 149.388C910.369 149.388 913.545 133.203 914.428 131.651C915.31 130.098 923.936 122.397 923.936 122.397L919.755 115.72L912.54 119.677C912.54 119.677 899.349 117.566 898.71 116.937C898.07 116.308 893.352 111.072 893.352 111.072Z" fill="#FFD139"/>
<path d="M908.248 98.9668C908.248 98.9668 903.794 96.6329 902.261 100.499C902.261 100.499 898.263 100.093 898.953 104.193C898.953 104.193 894.894 106.222 897.482 111.356C897.482 111.356 896.356 116.207 902.099 116.511C902.099 116.511 902.962 118.226 905.579 117.83C908.197 117.435 908.867 116.745 908.867 116.745C908.867 116.745 913.515 118.084 914.955 113.944C914.955 113.944 918.152 113.193 915.97 109.134C915.97 109.134 918.761 103.888 913.86 102.305C913.849 102.305 913.271 96.9373 908.248 98.9668Z" fill="#703712"/>
<path d="M910.044 110.342C909.679 111.356 909.943 112.371 910.623 112.584C911.302 112.797 912.155 112.219 912.52 111.214C912.885 110.21 912.621 109.185 911.942 108.972C911.262 108.759 910.409 109.347 910.044 110.342Z" fill="#FAA694"/>
<path d="M898.03 107.886C898.03 108.901 898.527 109.834 899.248 109.916C899.968 109.997 900.597 109.114 900.648 108.059C900.699 107.003 900.161 106.11 899.43 106.029C898.7 105.948 898.081 106.831 898.03 107.886Z" fill="#FAA694"/>
<path d="M903.124 114.908C903.124 114.979 902.546 117.435 902.241 118.734C902.181 118.969 902.207 119.219 902.315 119.436C902.423 119.654 902.605 119.826 902.83 119.921C904.057 120.479 906.462 121.25 908.127 119.758C908.202 119.691 908.261 119.608 908.3 119.515C908.338 119.422 908.355 119.321 908.35 119.221L908.147 113.356L903.124 114.908Z" fill="#FAA694"/>
<path d="M902.809 116.288C903.57 116.638 904.408 116.784 905.242 116.713C906.076 116.642 906.878 116.356 907.568 115.882C907.796 115.752 908.016 115.61 908.228 115.456L908.147 113.356L903.124 114.908C903.124 114.908 902.992 115.537 902.809 116.288Z" fill="#F18B80"/>
<path d="M906.686 101.392C908.129 101.844 909.366 102.793 910.176 104.071C911.465 106.182 912.206 112.28 907.568 114.949C902.931 117.617 899.613 113.487 899.704 109.581C899.796 105.674 901.551 100.641 906.686 101.392Z" fill="#FAA694"/>
<path d="M899.176 117.191C897.056 118.774 894.834 126.902 894.001 129.013L893.322 132.909L901.947 117.851C901.947 117.851 899.633 116.856 899.176 117.191Z" fill="#296EB6"/>
<path d="M909.649 119.251C909.649 119.251 909.385 129.256 910.156 132.696C910.443 134.538 911.427 136.198 912.906 137.333L913.92 133.335C913.92 133.335 912.906 124.497 912.581 119.728C912.49 118.997 909.649 119.251 909.649 119.251Z" fill="#296EB6"/>
<path d="M898.832 190.91C897.817 190.789 899.542 187.43 900.09 186.852L907.294 187.805C908.795 188.468 910.229 189.274 911.576 190.21C911.779 190.403 911.8 190.738 910.957 190.87C906.923 191.214 902.868 191.227 898.832 190.91Z" fill="#163659"/>
<path d="M863.428 173.051C864.27 173.559 865.813 170.291 865.894 169.53L860.079 165.005C860.079 165.005 855.594 163.736 854.691 164.629C853.788 165.522 861.51 171.915 863.428 173.051Z" fill="#163659"/>
<path d="M973.038 177.577C973.038 177.577 975.067 185.817 976.61 187.105C978.152 188.394 983.104 190.88 981.805 191.164C980.506 191.448 970.877 191.651 971.14 190.068C971.279 189.194 971.462 188.327 971.688 187.471L969.141 181.585L973.038 177.577Z" fill="#F39A8E"/>
<path d="M950.613 184.487C950.613 184.487 950.4 186.517 950.4 187.531C950.4 188.546 951.262 191.032 950.856 191.438C950.45 191.844 939.004 191.783 939.004 191.438C939.004 191.093 941.034 189.936 943.784 189.155C944.346 188.995 944.87 188.724 945.325 188.357C945.78 187.991 946.157 187.537 946.433 187.022C946.71 186.507 946.88 185.942 946.934 185.36C946.987 184.779 946.924 184.192 946.747 183.635L950.613 184.487Z" fill="#F39A8E"/>
<path d="M963.043 149.652L965.072 151.448C965.072 151.448 967.386 157.648 967.518 158.054C967.711 158.622 975.199 182.488 975.199 182.488L969.984 184.345C969.984 184.345 964.809 174.381 963.895 170.921C962.982 167.46 954.458 152.97 954.458 152.97L963.043 149.652Z" fill="#FFD139"/>
<path d="M953.971 153.325L951.465 184.964H945.681C945.681 184.964 943.652 161.291 944.321 152.97L953.971 153.325Z" fill="#FFD139"/>
<path d="M943.824 121.463C946.406 120.837 949.037 120.44 951.688 120.276C953.386 120.241 955.084 120.353 956.762 120.611C958.283 124.036 959.433 127.615 960.192 131.286C960.973 136.085 965.265 151.489 965.265 151.489C965.265 151.489 956.539 158.125 943.824 153.751V121.463Z" fill="#0066AD"/>
<path d="M953.728 116.207C953.728 116.207 953.616 119.961 953.971 120.266C954.247 120.474 954.435 120.779 954.497 121.119C954.559 121.459 954.491 121.81 954.306 122.102C953.779 122.995 951.506 122.427 950.44 121.91C949.786 121.572 949.214 121.094 948.766 120.509L949.304 114.563L953.728 116.207Z" fill="#F39A8E"/>
<path d="M952.206 117.759C950.938 117.39 949.852 116.561 949.162 115.436L949.243 114.604L953.667 116.207C953.667 116.207 953.667 117.12 953.667 118.094C953.167 118.052 952.675 117.939 952.206 117.759Z" fill="#D2563E"/>
<path d="M948.522 110.362C948.522 110.362 948.411 108.16 947.041 108.586C945.671 109.012 946.716 112.341 947.853 112.229C948.989 112.118 948.522 110.362 948.522 110.362Z" fill="#F39A8E"/>
<path d="M952.825 103.158C953.453 103.155 954.074 103.299 954.637 103.577C955.201 103.855 955.692 104.26 956.072 104.761C957.158 106.405 958.355 111.123 956.539 114.37C954.722 117.617 952.419 116.816 951.465 116.491C950.539 116.196 949.704 115.668 949.041 114.957C948.378 114.246 947.91 113.377 947.68 112.432C946.726 109.358 947.416 102.529 952.825 103.158Z" fill="#F39A8E"/>
<path d="M944.23 121.362C945.245 123.543 947.609 128.241 947.508 133.417C947.307 136.839 945.782 140.049 943.256 142.366V145.025C943.256 145.025 947.812 144.315 949.557 137.303C951.303 130.291 947.112 120.763 947.112 120.763C946.838 120.622 946.537 120.541 946.229 120.525C945.921 120.509 945.613 120.559 945.326 120.672C944.893 120.771 944.507 121.015 944.23 121.362Z" fill="#1A538D"/>
<path d="M954.235 120.256C954.235 120.256 957.655 138.52 962.099 139.657L961.328 136.552C961.328 136.552 956.752 121.808 956.752 120.611C956.752 119.413 954.235 120.256 954.235 120.256Z" fill="#1A538D"/>
<path d="M963.51 151.428H950.217V136.461L963.51 137.049V151.428Z" fill="#F56B52"/>
<path d="M963.51 135.892H950.805C950.651 135.892 950.503 135.953 950.393 136.061C950.283 136.169 950.22 136.316 950.217 136.471C950.217 136.627 950.279 136.777 950.389 136.887C950.5 136.997 950.649 137.059 950.805 137.059H963.5C962.617 136.714 962.627 136.207 963.51 135.892Z" fill="#D2563E"/>
<path d="M963.144 136.055H951.252C951.198 136.053 951.144 136.063 951.093 136.083C951.043 136.102 950.997 136.132 950.958 136.17C950.92 136.208 950.889 136.253 950.868 136.303C950.847 136.353 950.836 136.407 950.836 136.461C950.836 136.571 950.88 136.677 950.958 136.755C951.036 136.833 951.142 136.877 951.252 136.877H963.144C962.739 136.623 962.739 136.308 963.144 136.055Z" fill="#FFE1B1"/>
<path d="M957.685 136.136H956.843C956.757 136.136 956.674 136.17 956.613 136.231C956.553 136.292 956.518 136.375 956.518 136.461H957.685V136.136Z" fill="#0066AD"/>
<path d="M956.884 136.136C957.144 136.171 957.38 136.306 957.543 136.511L959.573 138.947H960.74L958.852 136.633C958.632 136.361 958.316 136.183 957.969 136.136H956.884Z" fill="#0066AD"/>
<path d="M943.824 121.463C943.824 121.463 944.839 122.478 945.854 126.212C946.868 129.946 947.477 138.795 948.401 139.708C949.324 140.621 955.402 145.41 956.518 145.248C957.635 145.086 960.07 142.204 960.831 142.204C961.592 142.204 961.501 142.884 961.125 143.219C960.75 143.554 960.273 144.03 960.506 144.233L960.729 144.457C960.729 144.457 964.119 143.574 964.697 143.899C965.275 144.223 964.149 145.005 964.149 145.573C964.21 145.962 964.233 146.356 964.22 146.75C964.206 147.266 964.021 147.762 963.692 148.16C961.231 149.089 958.577 149.389 955.97 149.033C951.492 148.464 947.398 146.215 944.514 142.742C941.206 138.683 941.866 125.958 941.947 124.69C942.15 121.605 943.824 121.463 943.824 121.463Z" fill="#F39A8E"/>
<path d="M982.901 191.702C979.02 192.03 975.123 192.108 971.232 191.935C971.232 191.935 970.836 191.854 971.11 190.2C971.181 189.794 971.252 189.429 971.313 189.104C973.2 189.591 977.31 188.546 978.944 188.333C980.373 189.139 981.843 189.87 983.347 190.525C984.281 190.687 984.281 191.56 982.901 191.702Z" fill="#163659"/>
<path d="M938.385 191.702C938.385 191.337 940.344 190.221 942.881 189.46C945.59 190.363 949.344 189.622 950.755 189.348C951.181 190.464 951.323 191.519 951.1 191.743C950.684 192.179 938.385 192.108 938.385 191.702Z" fill="#163659"/>
<path d="M694.599 74.7048C694.599 74.7048 696.273 94.1773 678.505 94.1773" stroke="#F6D047" stroke-width="3" stroke-miterlimit="10"/>
<path d="M616.608 113.782C616.608 113.782 618.17 119.292 617.805 120.661C617.44 122.031 615.775 124.609 615.045 124.517C614.314 124.426 615.045 115.71 615.045 115.71L616.608 113.782Z" fill="#FFB784"/>
<path d="M590.012 71.1633C589.444 70.0674 602.462 66.0897 602.665 76.9573C602.665 76.9573 627.019 76.3587 615.41 62.7513C611.351 58.043 611.798 54.1566 611.92 50.5746C612.041 46.9927 609.403 36.4498 600.382 37.4645C599.504 37.1901 598.579 37.099 597.665 37.1967C596.75 37.2945 595.865 37.579 595.065 38.0327C588.358 41.5233 573.33 75.1715 590.012 71.1633Z" fill="#05315E"/>
<path d="M617.795 115.436C617.795 115.436 617.663 116.095 616.293 116.45C615.372 116.638 614.428 116.689 613.492 116.603C613.229 116.603 612.934 116.603 612.63 116.522C612.051 116.461 611.402 116.369 610.692 116.227L611.189 86.3741L609.089 63.0356C609.089 63.0356 613.584 65.1564 615.776 72.0362C617.47 77.3127 617.754 100.073 617.805 110.342C617.805 113.477 617.795 115.436 617.795 115.436Z" fill="#ACC3FB"/>
<g opacity="0.3">
<path opacity="0.3" d="M617.795 115.436C617.795 115.436 617.663 116.095 616.293 116.45C615.372 116.638 614.428 116.689 613.492 116.603L613.898 94.36C613.898 94.36 614.233 106.537 617.795 110.382C617.805 113.477 617.795 115.436 617.795 115.436Z" fill="#8A9EF0"/>
</g>
<path d="M573.512 178.582C573.512 178.582 570.783 181.068 571.32 182.843C571.858 184.619 574.365 185.796 574.649 187.917C574.933 190.038 576.313 191.266 577.52 191.266H583.233C583.233 191.266 584.116 189.744 581.985 189.287C579.854 188.83 579.053 186.243 579.185 183.919C579.239 182.08 579.171 180.239 578.982 178.409L574.446 177.394L573.512 178.582Z" fill="#173F7A"/>
<path d="M596.648 179.637C596.648 179.637 595.633 190.2 596.861 190.799H612.214C612.214 190.799 612.214 189.033 609.748 188.638C607.282 188.242 602.95 186.801 602.219 183.564C601.488 180.327 596.648 179.637 596.648 179.637Z" fill="#173F7A"/>
<path d="M609.231 92.9395C609.231 92.9395 613.655 106.719 613.939 111.407C614.223 116.095 605.486 178.044 605.131 180.205C604.776 182.367 602.27 183.544 602.27 183.544C601.39 183.97 600.382 184.046 599.449 183.757C598.331 183.539 597.285 183.047 596.405 182.326C596.405 182.326 592.954 138.145 595.085 122.366C596.383 112.608 597.104 102.782 597.247 92.9395H609.231Z" fill="#1A3560"/>
<path d="M590.428 92.5336C590.428 92.5336 583.68 101.585 583.051 107.754C582.422 113.924 582.036 135.385 580.717 141.362C579.398 147.339 574.446 158.815 574.446 177.435C574.922 178.218 575.67 178.8 576.546 179.069C577.149 179.275 577.762 179.448 578.383 179.586C579.017 179.729 579.681 179.655 580.268 179.375C580.855 179.095 581.331 178.627 581.62 178.044C584.948 171.337 595.562 149.703 596.11 145.218C596.496 142.042 598.748 122.965 606.065 110.626C607.82 107.663 607.708 94.7456 607.708 94.7456L590.428 92.5336Z" fill="#224588"/>
<path d="M584.877 74.7861C584.737 77.1517 584.737 79.5235 584.877 81.8891C585.029 84.4564 587.627 87.8963 587.992 88.7487C588.916 90.8796 589.961 91.2245 589.961 91.2245L598.018 93.254L598.698 97.5665C598.698 97.5665 605.456 100.459 610.154 95.9836C614.213 92.0871 613.858 79.9104 612.183 73.5177C611.241 69.7545 609.854 66.1165 608.053 62.6804C608.053 62.6804 601.965 60.2857 591.26 62.0716L584.877 74.7861Z" fill="#224588"/>
<path d="M594.162 61.351C592.323 61.6599 590.503 62.0767 588.713 62.5991L587.191 81.1786H601.194L595.938 67.3784L594.162 61.351Z" fill="#ACC3FB"/>
<path d="M601.194 81.1788L599.662 138.429C599.662 138.429 591.991 142.072 577.338 138.429L581.123 77.4852L601.194 81.1788Z" fill="#ACC3FB"/>
<path d="M590.58 76.7986L577.359 91.9808C576.708 92.7289 576.786 93.8634 577.534 94.5148L587.895 103.538C588.643 104.189 589.778 104.111 590.429 103.363L603.65 88.1804C604.302 87.4323 604.223 86.2978 603.475 85.6464L593.114 76.6236C592.366 75.9722 591.231 76.0505 590.58 76.7986Z" fill="#CF5D4C"/>
<path d="M592.863 93.3452C593.015 93.3452 598.373 94.0149 598.373 95.121C598.278 95.8823 597.923 96.5876 597.368 97.118C596.814 97.6484 596.094 97.9715 595.329 98.0332C594.73 98.0332 591.97 95.4661 591.97 95.4661L592.863 93.3452Z" fill="#FFB784"/>
<path d="M595.613 61.4222C596.333 59.3289 596.657 57.1196 596.567 54.9077L596.973 54.9889L603.782 56.3384C603.782 56.3384 603.629 58.4795 603.619 60.4988C603.619 62.2441 604.806 63.9996 601.996 64.6998C601.113 64.9636 594.335 64.5272 595.613 61.4222Z" fill="#FFB784"/>
<path d="M603.781 56.3384C603.781 56.3384 603.629 58.4795 603.619 60.4988C599.814 60.3872 597.805 56.9169 596.973 54.9889L603.781 56.3384Z" fill="#EF9964"/>
<path d="M605.05 58.2461C605.05 58.2461 596.039 58.3983 596.039 52.7869C596.039 47.1755 594.862 43.411 600.616 43.0761C606.369 42.7413 607.485 44.8823 607.942 46.7595C608.398 48.6367 607.394 58.0635 605.05 58.2461Z" fill="#FFB784"/>
<path d="M604.715 42.9443C604.715 42.9443 602.249 49.5298 598.464 50.4938C594.68 51.4578 593.036 50.4938 593.036 50.4938C594.904 48.8534 596.145 46.6154 596.547 44.1619C596.547 44.1619 602.858 39.8088 604.715 42.9443Z" fill="#05315E"/>
<path d="M604.157 43.4717C605.201 43.8783 606.101 44.5844 606.745 45.5011C607.651 47.0614 608.074 48.8551 607.962 50.6559C607.962 50.6559 609.819 46.181 607.729 43.6442C605.638 41.1074 604.157 43.4717 604.157 43.4717Z" fill="#05315E"/>
<path d="M592.863 93.3452C593.554 93.1202 594.279 93.0206 595.004 93.051C595.867 93.1728 596.496 93.051 596.496 93.2742C596.496 93.4974 595.39 93.6293 595.156 93.7409C594.38 93.6884 593.612 93.5558 592.863 93.3452Z" fill="#FFB784"/>
<path d="M591.26 62.0107C591.26 62.0107 584.867 62.4572 582.422 68.4238C579.976 74.3903 575.319 84.3853 575.319 86.0698C575.319 87.7542 577.916 92.9394 591.869 95.9227C591.869 95.9227 593.31 94.4006 593.218 93.2033C593.218 93.2033 584.512 85.7247 584.532 84.852C584.583 83.198 585.963 81.0063 593.665 73.3655C595.694 71.2853 591.26 62.0107 591.26 62.0107Z" fill="#ACC3FB"/>
<path d="M598.069 71.3663C598.069 71.3663 595.664 64.8011 596.131 59.8492C595.012 60.1591 594.018 60.8121 593.289 61.7164C593.289 61.7164 592.853 69.276 594.223 72.7869C595.058 72.8462 595.897 72.795 596.719 72.6347C596.719 72.6347 595.826 74.1568 595.968 74.3293L601.224 81.1786L598.069 71.3663Z" fill="#8A9EF0"/>
<path d="M608.622 78.2461L610.144 137.1C610.144 137.1 613.716 137.232 615.775 135.07L613.898 71.275C613.898 71.275 611.93 63.5936 608.053 62.6296L604.177 61.6149L608.622 78.2461Z" fill="#ACC3FB"/>
<path d="M603.619 60.4988C603.644 61.3522 603.725 62.2031 603.863 63.0457C604.492 67.4801 609.22 76.3689 608.683 80.2959C608.683 80.2959 609.18 73.3857 609.18 71.9245L607.8 70.9098L609.586 70.1792C609.586 70.1792 606.247 61.9397 603.619 60.4988Z" fill="#8A9EF0"/>
<path d="M596.542 115.739L583.203 114.771L583.105 116.128L596.444 117.095L596.542 115.739Z" fill="#8A9EF0"/>
<g opacity="0.3">
<path opacity="0.3" d="M583.101 116.136C583.101 116.136 582.087 124.406 583.101 125.157C584.116 125.908 594.263 126.882 595.166 126.121C596.07 125.36 596.435 117.1 596.435 117.1L583.101 116.136Z" fill="#8A9EF0"/>
</g>
<path d="M647.191 44.4661C647.191 44.4661 644.756 39.2808 645.253 36.5512C645.75 33.8216 645.629 30.1991 649.312 28.7988C652.996 27.3985 653.27 28.748 657.227 28.3218C661.184 27.8956 662.432 32.7764 662.798 34.8363C663.569 39.1996 662.25 41.9394 661.103 43.4006C660.088 44.669 659.642 45.3082 659.642 45.3082L647.191 44.4661Z" fill="#1A3560"/>
<path d="M637.074 190.789C637.055 189.645 637.178 188.503 637.44 187.389C637.805 186.537 639.134 183.077 639.134 183.077H644.36C644.791 184.45 645.13 185.85 645.375 187.268C645.436 188.282 645.375 190.789 645.375 190.789H637.074Z" fill="#1A3560"/>
<path d="M670.205 190.789C670.224 189.645 670.102 188.503 669.84 187.389C669.474 186.537 668.145 183.077 668.145 183.077H662.919C662.488 184.45 662.149 185.85 661.905 187.268C661.844 188.282 661.905 190.789 661.905 190.789H670.205Z" fill="#1A3560"/>
<path d="M637.734 102.336C637.734 102.336 638.647 130.21 637.278 146.111C635.908 162.011 637.278 184.153 637.278 184.153C638.698 184.852 640.26 185.215 641.844 185.215C643.427 185.215 644.989 184.852 646.41 184.153C646.41 184.153 651.595 153.427 651.565 146.111C651.565 138.328 657.207 103.553 657.207 103.553L637.734 102.336Z" fill="#5DB5BE"/>
<path d="M670.012 184.153C668.592 184.853 667.03 185.218 665.446 185.218C663.862 185.218 662.3 184.853 660.88 184.153C660.88 184.153 655.684 153.427 655.725 146.111C655.725 142.823 654.71 134.715 653.564 126.455C651.971 115.152 650.073 103.553 650.073 103.553L670.286 102.285C670.286 102.285 668.622 130.21 669.982 146.111C671.342 162.011 670.012 184.153 670.012 184.153Z" fill="#5DB5BE"/>
<path d="M641.702 57.0081C641.702 57.0081 634.172 57.901 632.569 64.659C630.966 71.4171 624.451 88.5861 630.915 92.4623C630.915 92.4623 637.795 83.2487 640.413 75.8209C643.031 68.3932 641.702 57.0081 641.702 57.0081Z" fill="#ACC3FB"/>
<path d="M667.222 60.6103C667.222 60.6103 674.792 59.6666 676.435 66.4145C678.079 73.1624 683.366 88.2614 676.872 92.1376C676.872 92.1376 669.535 83.2486 666.917 75.8209C664.299 68.3932 667.222 60.6103 667.222 60.6103Z" fill="#ACC3FB"/>
<path d="M649.302 47.4292C649.232 50.1967 648.927 52.9532 648.389 55.6687L642.625 59.7276L664.32 62.9646L659.145 55.8615C659.145 55.8615 657.582 48.241 658.404 45.4201C659.226 42.5992 649.302 47.4292 649.302 47.4292Z" fill="#FFB784"/>
<path d="M649.271 48.2104C649.271 48.2104 650.986 52.3404 654.213 52.2693C657.44 52.1983 658.18 48.525 658.18 48.525L649.271 48.2104Z" fill="#F49D68"/>
<path d="M653.878 50.656C651.534 50.656 647.222 47.5002 647.222 43.6341V37.6168C647.177 36.9868 647.381 36.3644 647.791 35.8841C648.201 35.4037 648.784 35.1039 649.413 35.0496H658.343C658.97 35.1064 659.55 35.4073 659.958 35.8873C660.366 36.3674 660.57 36.9884 660.525 37.6168V43.2992C660.494 47.348 656.527 50.7067 653.878 50.656Z" fill="#FFB784"/>
<path d="M670.631 114.746C653.878 117.638 635.928 115.304 635.928 115.304L637.592 81.4527C637.592 80.9657 637.511 80.438 637.501 79.951C637.501 79.2711 637.501 78.4695 637.501 77.5765C637.836 70.4735 639.977 57.6982 641.621 57.0082C643.804 56.3027 646.061 55.8499 648.348 55.6586C648.348 55.7499 650.844 59.3928 653.807 59.8088C655.976 59.0832 657.84 57.6548 659.104 55.7499C660.281 55.892 661.529 56.0543 662.838 56.308L663.143 56.3689C664.708 56.6707 666.253 57.0672 667.77 57.5561C667.77 57.5561 669.891 58.378 669.424 73.203L670.631 114.746Z" fill="#A4DBD9"/>
<path d="M651.981 46.7797C652.225 47.0812 652.535 47.3229 652.886 47.4865C653.238 47.65 653.622 47.731 654.01 47.7234C654.374 47.7207 654.733 47.6342 655.059 47.4705C655.384 47.3069 655.668 47.0705 655.887 46.7797C654.593 46.5768 653.275 46.5768 651.981 46.7797Z" fill="white"/>
<path d="M635.928 88.7993L634.994 139.2C639.602 140.359 644.295 141.15 649.028 141.565L650.712 79.951L648.399 59.0985L646.298 55.6586C646.298 55.6586 639.358 56.2065 635.197 59.5957C632.366 61.8991 631.057 69.7429 631.057 69.7429L637.592 76.6126L635.928 88.7993Z" fill="#ACC3FB"/>
<path d="M671.666 88.7993L672.6 139.2C667.989 140.36 663.293 141.15 658.556 141.565L657.186 81.7877L659.216 59.0985L661.316 55.6586C661.316 55.6586 668.236 56.2268 672.417 59.5957C676.902 63.1979 677.795 72.0767 677.795 72.0767L670.032 76.6531L671.666 88.7993Z" fill="#ACC3FB"/>
<path d="M630.834 92.4624C638.434 94.4918 642.706 89.2255 660.494 81.9094L659.966 79.0681C659.966 79.0681 639.52 79.3117 635.938 81.2498C631.27 83.7764 630.215 92.2594 630.834 92.4624Z" fill="#FFB784"/>
<path d="M645.669 77.1301C645.669 77.1301 637.988 76.6937 637.907 80.6106L645.01 80.2959L645.669 77.1301Z" fill="#FFB784"/>
<path d="M665.994 79.1291C665.994 79.1291 671.737 77.6781 672.701 81.5239C673.665 85.3697 664.441 81.5239 664.441 81.5239L665.994 79.1291Z" fill="#F49D68"/>
<path d="M651.585 85.8665C649.389 83.532 646.87 81.523 644.106 79.9L653.087 81.5946L655.826 83.8371L654.578 84.4764L651.585 85.8665Z" fill="#F49D68"/>
<path d="M660.667 79.4232L668.317 78.8651L667.78 81.0467L660.667 79.4232Z" fill="#F49D68"/>
<path d="M637.907 80.6105C637.907 80.6105 643.153 79.7176 643.061 79.6465C642.324 79.3473 641.533 79.2055 640.738 79.2305C640.322 79.4435 637.907 80.6105 637.907 80.6105Z" fill="#F49D68"/>
<path d="M648.916 52.6854C648.916 52.6854 645.73 54.451 645.172 56.0949C645.172 56.0949 643.64 62.8022 645.669 67.3177L648.916 66.5262L647.242 68.5557C647.242 68.5557 648.105 77.8708 650.712 79.9002C650.712 79.9509 648.673 55.2121 648.916 52.6854Z" fill="#8A9EF0"/>
<path d="M658.617 52.6854C658.617 52.6854 661.793 54.451 662.351 56.0949C662.351 56.0949 664.381 62.3253 662.351 66.8408L658.617 66.5262L661.286 68.7383C661.286 68.7383 659.794 79.7379 657.227 81.7572C657.186 81.7876 658.85 55.2121 658.617 52.6854Z" fill="#8A9EF0"/>
<path d="M676.872 92.1377C676.872 92.1377 661.103 90.433 642.625 78.7738L645.669 77.13C645.669 77.13 669.891 79.7683 672.935 82.0413C677.694 85.6232 680.444 91.3056 676.872 92.1377Z" fill="#FFB784"/>
<path d="M645.669 69.3978H640.484V71.6709H645.669V69.3978Z" fill="#EAF2F9"/>
<path d="M650.834 35.0497C651.578 35.6859 652.441 36.1672 653.373 36.4652C654.306 36.7631 655.288 36.8718 656.263 36.7849C659.307 36.3587 659.236 35.0903 659.662 35.6281C660.088 36.1659 660.129 40.5393 660.677 40.8234L660.991 35.0497L654.903 31.5793L646.237 32.5941L647.08 41.0568C647.08 41.0568 646.927 37.9517 648.236 37.0588C649.144 36.4449 650.012 35.7738 650.834 35.0497Z" fill="#1A3560"/>
</svg>
