<svg width="25" height="24" viewBox="0 0 25 24" fill="none" xmlns="http://www.w3.org/2000/svg">
<g clip-path="url(#clip0_970_21056)">
<path d="M20.9169 8.04004C20.8161 8.04004 20.7194 8.08007 20.6482 8.15134C20.5769 8.2226 20.5369 8.31926 20.5369 8.42004V9.42004C20.5369 9.52082 20.5769 9.61748 20.6482 9.68874C20.7194 9.76 20.8161 9.80004 20.9169 9.80004C21.0176 9.80004 21.1143 9.76 21.1856 9.68874C21.2568 9.61748 21.2969 9.52082 21.2969 9.42004V8.42004C21.2969 8.37014 21.287 8.32072 21.2679 8.27462C21.2488 8.22852 21.2209 8.18662 21.1856 8.15134C21.1503 8.11605 21.1084 8.08806 21.0623 8.06896C21.0162 8.04987 20.9668 8.04004 20.9169 8.04004Z" fill="#333333"/>
<path d="M20.9168 -0.0400391H3.08679C2.98555 -0.0387242 2.8889 0.00241797 2.81778 0.0744775C2.74665 0.146537 2.70678 0.243713 2.70679 0.344961V23.655C2.70679 23.7557 2.74682 23.8524 2.81809 23.9237C2.88935 23.9949 2.986 24.035 3.08679 24.035H20.9168C21.0176 24.035 21.1142 23.9949 21.1855 23.9237C21.2568 23.8524 21.2968 23.7557 21.2968 23.655V15.235C21.2968 15.1342 21.2568 15.0375 21.1855 14.9663C21.1142 14.895 21.0176 14.855 20.9168 14.855C20.816 14.855 20.7194 14.895 20.6481 14.9663C20.5768 15.0375 20.5368 15.1342 20.5368 15.235V23.275H3.46679V0.724961H20.5368V5.99996C20.5368 6.10074 20.5768 6.1974 20.6481 6.26866C20.7194 6.33993 20.816 6.37996 20.9168 6.37996C21.0176 6.37996 21.1142 6.33993 21.1855 6.26866C21.2568 6.1974 21.2968 6.10074 21.2968 5.99996V0.344961C21.2968 0.243713 21.2569 0.146537 21.1858 0.0744775C21.1147 0.00241797 21.018 -0.0387242 20.9168 -0.0400391Z" fill="#333333"/>
<path d="M20.9169 11.46C20.867 11.46 20.8175 11.4698 20.7714 11.4889C20.7253 11.508 20.6835 11.536 20.6482 11.5713C20.6129 11.6065 20.5849 11.6484 20.5658 11.6945C20.5467 11.7406 20.5369 11.7901 20.5369 11.84V12.84C20.5369 12.9407 20.5769 13.0374 20.6482 13.1087C20.7194 13.1799 20.8161 13.22 20.9169 13.22C21.0176 13.22 21.1143 13.1799 21.1856 13.1087C21.2568 13.0374 21.2969 12.9407 21.2969 12.84V11.84C21.2969 11.7901 21.287 11.7406 21.2679 11.6945C21.2488 11.6484 21.2209 11.6065 21.1856 11.5713C21.1503 11.536 21.1084 11.508 21.0623 11.4889C21.0162 11.4698 20.9668 11.46 20.9169 11.46Z" fill="#333333"/>
<path d="M12.0018 11.23C12.6546 11.2295 13.2985 11.078 13.8831 10.7874C14.4676 10.4969 14.9772 10.0751 15.3718 9.55504C15.3944 9.53044 15.4145 9.50364 15.4318 9.47504C15.8942 8.84214 16.1724 8.09356 16.2355 7.31225C16.2986 6.53094 16.1441 5.74742 15.7892 5.04853C15.4343 4.34963 14.8928 3.76265 14.2247 3.35263C13.5567 2.94262 12.7881 2.72559 12.0043 2.72559C11.2204 2.72559 10.4519 2.94262 9.78382 3.35263C9.11576 3.76265 8.57426 4.34963 8.21935 5.04853C7.86443 5.74742 7.70996 6.53094 7.77305 7.31225C7.83614 8.09356 8.11433 8.84214 8.57678 9.47504C8.58725 9.49251 8.59894 9.50922 8.61178 9.52504C9.00531 10.0533 9.51664 10.4825 10.1051 10.7785C10.6936 11.0744 11.343 11.2291 12.0018 11.23ZM11.0568 6.43004C11.0604 6.18879 11.1561 5.95806 11.3244 5.78514C11.4927 5.61223 11.7207 5.51022 11.9618 5.50004H12.0018C12.1889 5.50004 12.3718 5.55559 12.5273 5.65965C12.6828 5.76371 12.8039 5.9116 12.8753 6.08456C12.9467 6.25753 12.9651 6.4478 12.9282 6.63124C12.8914 6.81469 12.8009 6.98306 12.6682 7.11502C12.5355 7.24698 12.3667 7.33659 12.1831 7.37248C11.9994 7.40838 11.8093 7.38895 11.6367 7.31666C11.4641 7.24437 11.3168 7.12247 11.2136 6.9664C11.1104 6.81034 11.0558 6.62715 11.0568 6.44004V6.43004ZM9.91178 8.83504C10.6107 8.31604 11.4779 8.07611 12.3441 8.16209C13.2104 8.24807 14.0135 8.65378 14.5968 9.30004C14.2721 9.66737 13.8731 9.96152 13.4261 10.163C12.9792 10.3644 12.4945 10.4686 12.0043 10.4686C11.514 10.4686 11.0294 10.3644 10.5824 10.163C10.1355 9.96152 9.73645 9.66737 9.41178 9.30004C9.56259 9.12881 9.73008 8.97304 9.91178 8.83504ZM14.5518 8.22504C14.1612 7.93647 13.7252 7.71509 13.2618 7.57004C13.5477 7.25923 13.7066 6.85238 13.7068 6.43004C13.7074 6.15282 13.6404 5.87965 13.5116 5.63418C13.3828 5.3887 13.196 5.17834 12.9676 5.02131C12.7392 4.86428 12.4759 4.76532 12.2005 4.733C11.9252 4.70069 11.6462 4.73599 11.3876 4.83585C11.129 4.93572 10.8986 5.09713 10.7165 5.30611C10.5343 5.51508 10.4059 5.76532 10.3423 6.03513C10.2787 6.30495 10.2818 6.58621 10.3514 6.85454C10.421 7.12287 10.555 7.37017 10.7418 7.57504C10.0632 7.78206 9.44881 8.15897 8.95678 8.67004C8.66526 8.16125 8.50863 7.58638 8.50178 7.00004C8.50178 6.54041 8.59231 6.08528 8.7682 5.66064C8.94409 5.236 9.2019 4.85017 9.52691 4.52516C9.85191 4.20016 10.2377 3.94235 10.6624 3.76646C11.087 3.59057 11.5422 3.50004 12.0018 3.50004C12.4614 3.50004 12.9165 3.59057 13.3412 3.76646C13.7658 3.94235 14.1516 4.20016 14.4767 4.52516C14.8017 4.85017 15.0595 5.236 15.2354 5.66064C15.4112 6.08528 15.5018 6.54041 15.5018 7.00004C15.5021 7.59014 15.3505 8.17041 15.0618 8.68504C14.9034 8.51928 14.7329 8.36552 14.5518 8.22504Z" fill="#333333"/>
<path d="M18.6868 13.6399H5.31678C5.22287 13.6506 5.1362 13.6956 5.07328 13.7661C5.01036 13.8366 4.97559 13.9279 4.97559 14.0224C4.97559 14.1169 5.01036 14.2081 5.07328 14.2787C5.1362 14.3492 5.22287 14.3941 5.31678 14.4049H18.6868C18.7807 14.3941 18.8674 14.3492 18.9303 14.2787C18.9932 14.2081 19.028 14.1169 19.028 14.0224C19.028 13.9279 18.9932 13.8366 18.9303 13.7661C18.8674 13.6956 18.7807 13.6506 18.6868 13.6399Z" fill="#333333"/>
<path d="M18.6868 17.0701H5.31677C5.21599 17.0701 5.11933 17.1101 5.04807 17.1814C4.9768 17.2526 4.93677 17.3493 4.93677 17.4501C4.93677 17.5509 4.9768 17.6475 5.04807 17.7188C5.11933 17.79 5.21599 17.8301 5.31677 17.8301H18.6868C18.7875 17.8301 18.8842 17.79 18.9555 17.7188C19.0267 17.6475 19.0668 17.5509 19.0668 17.4501C19.0668 17.3493 19.0267 17.2526 18.9555 17.1814C18.8842 17.1101 18.7875 17.0701 18.6868 17.0701Z" fill="#333333"/>
<path d="M18.6868 20.5H5.31677C5.21599 20.5 5.11933 20.54 5.04807 20.6113C4.9768 20.6826 4.93677 20.7792 4.93677 20.88C4.93677 20.9808 4.9768 21.0774 5.04807 21.1487C5.11933 21.22 5.21599 21.26 5.31677 21.26H18.6868C18.7875 21.26 18.8842 21.22 18.9555 21.1487C19.0267 21.0774 19.0668 20.9808 19.0668 20.88C19.0668 20.7792 19.0267 20.6826 18.9555 20.6113C18.8842 20.54 18.7875 20.5 18.6868 20.5Z" fill="#333333"/>
</g>
<defs>
<clipPath id="clip0_970_21056">
<rect width="24" height="24" fill="white" transform="translate(0.00170898)"/>
</clipPath>
</defs>
</svg>
