<svg width="36" height="36" viewBox="0 0 36 36" fill="none" xmlns="http://www.w3.org/2000/svg">
<g clip-path="url(#clip0_803_13432)">
<path d="M10.61 28.0001C10.61 28.5301 10.77 28.6901 11.32 28.6901H28C28.55 28.6901 28.71 28.5301 28.71 27.9701C28.71 21.3034 28.71 14.6634 28.71 8.0501C28.71 7.4801 28.57 7.3301 27.98 7.3301H11.11C10.9912 7.32449 10.8749 7.3651 10.7854 7.44341C10.6959 7.52171 10.6402 7.63163 10.63 7.7501C10.6 8.1501 10.61 27.7001 10.61 28.0001Z" fill="#FFE982"/>
<path d="M3.65001 31.2C3.23001 31.2 2.86001 31.2 2.49001 31.2C2.17175 31.2 1.86652 31.0736 1.64148 30.8485C1.41644 30.6235 1.29001 30.3183 1.29001 30C1.29001 29.6818 1.41644 29.3765 1.64148 29.1515C1.86652 28.9264 2.17175 28.8 2.49001 28.8C2.86001 28.8 3.23001 28.8 3.63001 28.8V19.2C3.26001 19.2 2.90001 19.2 2.53001 19.2C2.37242 19.2 2.21638 19.169 2.07079 19.1087C1.9252 19.0484 1.79291 18.96 1.68148 18.8485C1.57005 18.7371 1.48166 18.6048 1.42135 18.4592C1.36105 18.3136 1.33001 18.1576 1.33001 18C1.33001 17.8424 1.36105 17.6864 1.42135 17.5408C1.48166 17.3952 1.57005 17.2629 1.68148 17.1515C1.79291 17.0401 1.9252 16.9517 2.07079 16.8914C2.21638 16.8311 2.37242 16.8 2.53001 16.8C2.89001 16.8 3.24001 16.8 3.63001 16.8V7.20002H2.51001C2.35242 7.20002 2.19638 7.16898 2.05079 7.10867C1.9052 7.04837 1.77291 6.95997 1.66148 6.84854C1.55005 6.73711 1.46166 6.60483 1.40135 6.45924C1.34105 6.31364 1.31001 6.1576 1.31001 6.00002C1.31001 5.84243 1.34105 5.68639 1.40135 5.5408C1.46166 5.39521 1.55005 5.26292 1.66148 5.15149C1.77291 5.04006 1.9052 4.95167 2.05079 4.89136C2.19638 4.83105 2.35242 4.80002 2.51001 4.80002H3.66001V3.33002C3.62871 2.8838 3.69372 2.43607 3.85064 2.01718C4.00757 1.59829 4.25273 1.21805 4.5695 0.902221C4.88627 0.586397 5.26725 0.342379 5.68661 0.186715C6.10596 0.0310499 6.55389 -0.0326222 7.00001 1.56648e-05H31.54C31.981 -0.0276811 32.4229 0.0386181 32.8364 0.194524C33.2498 0.35043 33.6255 0.592386 33.9384 0.904373C34.2513 1.21636 34.4944 1.59126 34.6516 2.00426C34.8087 2.41725 34.8764 2.85892 34.85 3.30002C34.85 13.1 34.85 22.9 34.85 32.7C34.8764 33.1411 34.8087 33.5828 34.6516 33.9958C34.4944 34.4088 34.2513 34.7837 33.9384 35.0957C33.6255 35.4076 33.2498 35.6496 32.8364 35.8055C32.4229 35.9614 31.981 36.0277 31.54 36H7.00001C6.55505 36.0277 6.10929 35.9606 5.6922 35.8032C5.2751 35.6457 4.89617 35.4016 4.58046 35.0868C4.26475 34.772 4.01945 34.3939 3.86078 33.9772C3.70211 33.5606 3.63367 33.115 3.66001 32.67L3.65001 31.2ZM6.10001 31.2C6.10001 31.29 6.10001 31.32 6.10001 31.34V32.58C6.10001 33.37 6.33001 33.58 7.10001 33.58H31.42C32.23 33.58 32.42 33.35 32.42 32.53V3.46002C32.42 2.61002 32.21 2.40002 31.35 2.40002H7.73001C7.42001 2.40002 7.10001 2.40002 6.79001 2.40002C6.61761 2.39123 6.44832 2.44833 6.31648 2.55975C6.18463 2.67117 6.10009 2.82857 6.08001 3.00002C6.08001 3.58002 6.08001 4.16002 6.08001 4.77002H6.59001C7.90001 4.77002 8.47001 5.14002 8.47001 5.98002C8.47001 6.82002 7.88001 7.20002 6.60001 7.20002H6.09001V16.8C6.48001 16.8 6.84001 16.8 7.19001 16.8C7.34759 16.8 7.50364 16.8311 7.64923 16.8914C7.79482 16.9517 7.92711 17.0401 8.03854 17.1515C8.14997 17.2629 8.23836 17.3952 8.29866 17.5408C8.35897 17.6864 8.39001 17.8424 8.39001 18C8.39001 18.1576 8.35897 18.3136 8.29866 18.4592C8.23836 18.6048 8.14997 18.7371 8.03854 18.8485C7.92711 18.96 7.79482 19.0484 7.64923 19.1087C7.50364 19.169 7.34759 19.2 7.19001 19.2C6.83001 19.2 6.46001 19.2 6.10001 19.2V28.8C6.50001 28.8 6.85001 28.8 7.21001 28.8C7.36759 28.8 7.52364 28.8311 7.66923 28.8914C7.81482 28.9517 7.94711 29.0401 8.05854 29.1515C8.16997 29.2629 8.25836 29.3952 8.31866 29.5408C8.37897 29.6864 8.41001 29.8424 8.41001 30C8.41001 30.1576 8.37897 30.3136 8.31866 30.4592C8.25836 30.6048 8.16997 30.7371 8.05854 30.8485C7.94711 30.96 7.81482 31.0484 7.66923 31.1087C7.52364 31.169 7.36759 31.2 7.21001 31.2C6.85001 31.21 6.48001 31.2 6.10001 31.2Z" fill="#00365C"/>
<path d="M21.06 24.8599V26.3099C21.06 26.6282 20.9336 26.9334 20.7085 27.1584C20.4835 27.3835 20.1783 27.5099 19.86 27.5099C19.5417 27.5099 19.2365 27.3835 19.0115 27.1584C18.7864 26.9334 18.66 26.6282 18.66 26.3099C18.66 25.8299 18.66 25.3099 18.66 24.7999H16.87C16.44 24.7999 16.01 24.7999 15.59 24.7999C15.2866 24.7846 15.0006 24.6539 14.7905 24.4345C14.5804 24.2151 14.4622 23.9237 14.46 23.6199C14.4536 23.3243 14.5594 23.0373 14.7561 22.8165C14.9527 22.5958 15.2257 22.4576 15.52 22.4299C15.6765 22.4197 15.8335 22.4197 15.99 22.4299H20.99C21.211 22.4537 21.4344 22.4309 21.646 22.3629C21.8576 22.295 22.0526 22.1835 22.2185 22.0355C22.3843 21.8876 22.5173 21.7066 22.6088 21.5041C22.7004 21.3016 22.7485 21.0821 22.75 20.8599C22.758 20.632 22.7174 20.405 22.631 20.1939C22.5447 19.9829 22.4144 19.7926 22.249 19.6356C22.0835 19.4787 21.8866 19.3587 21.6713 19.2836C21.456 19.2085 21.2272 19.1799 21 19.1999C19.919 19.2319 18.837 19.1985 17.76 19.0999C16.7888 18.942 15.9135 18.422 15.3105 17.6445C14.7074 16.867 14.4214 15.8899 14.51 14.9099C14.578 13.9595 14.9831 13.0646 15.6522 12.3863C16.3213 11.708 17.2106 11.2909 18.16 11.2099L18.63 11.1599C18.63 10.6699 18.63 10.1599 18.63 9.69991C18.6163 9.53579 18.6365 9.3706 18.6893 9.21463C18.7422 9.05865 18.8266 8.91523 18.9373 8.79328C19.048 8.67133 19.1826 8.57348 19.3327 8.5058C19.4829 8.43813 19.6453 8.40208 19.81 8.39991C19.979 8.39934 20.1462 8.43388 20.3012 8.50135C20.4561 8.56882 20.5953 8.66774 20.71 8.79184C20.8247 8.91594 20.9124 9.06251 20.9675 9.22227C21.0226 9.38203 21.0439 9.55149 21.03 9.71991V11.1699H21.5H23.86C24.0305 11.147 24.2039 11.1609 24.3685 11.2109C24.5331 11.2608 24.685 11.3456 24.814 11.4594C24.943 11.5732 25.046 11.7134 25.116 11.8705C25.1861 12.0276 25.2215 12.1979 25.22 12.3699C25.2187 12.5428 25.1806 12.7135 25.1083 12.8706C25.036 13.0277 24.9311 13.1676 24.8006 13.2811C24.6701 13.3945 24.517 13.479 24.3513 13.5288C24.1857 13.5786 24.0114 13.5926 23.84 13.5699H18.56C18.3399 13.5525 18.1186 13.5808 17.91 13.653C17.7014 13.7253 17.51 13.8399 17.3478 13.9897C17.1857 14.1395 17.0563 14.3213 16.9678 14.5235C16.8793 14.7258 16.8336 14.9441 16.8336 15.1649C16.8336 15.3857 16.8793 15.6041 16.9678 15.8063C17.0563 16.0086 17.1857 16.1903 17.3478 16.3401C17.51 16.4899 17.7014 16.6046 17.91 16.6768C18.1186 16.7491 18.3399 16.7773 18.56 16.7599C19.45 16.7599 20.33 16.7599 21.22 16.7599C22.1855 16.7611 23.1181 17.1116 23.8454 17.7466C24.5728 18.3815 25.046 19.2582 25.1776 20.2147C25.3092 21.1713 25.0903 22.1431 24.5614 22.9509C24.0326 23.7587 23.2293 24.348 22.3 24.6099C21.89 24.7499 21.48 24.7799 21.06 24.8599Z" fill="#00365C"/>
<path d="M6.11 4.77002H6.63C7.98 4.77002 8.63 5.16002 8.57 6.02002C8.51 6.88002 8 7.25002 6.65 7.25002H2.44C2.27169 7.25676 2.10375 7.22941 1.94628 7.16961C1.7888 7.10982 1.64503 7.01881 1.52361 6.90206C1.40219 6.78531 1.30562 6.64522 1.2397 6.49021C1.17378 6.3352 1.13986 6.16847 1.14 6.00002C1.1412 5.83504 1.17559 5.67199 1.2411 5.52058C1.30661 5.36916 1.40192 5.23247 1.52134 5.11864C1.64077 5.00482 1.78187 4.91618 1.93626 4.858C2.09064 4.79983 2.25515 4.77331 2.42 4.78002H6.11V4.77002Z" fill="#F278AB"/>
<path d="M6.11 16.7603H6.63C7.98 16.7603 8.63 17.1403 8.57 18.0103C8.51 18.8803 8 19.2403 6.65 19.2403H2.44C2.11113 19.2403 1.79573 19.1096 1.56318 18.8771C1.33064 18.6445 1.2 18.3291 1.2 18.0003C1.2 17.6714 1.33064 17.356 1.56318 17.1234C1.79573 16.8909 2.11113 16.7603 2.44 16.7603C2.82 16.7603 3.2 16.7603 3.64 16.7603H6.11Z" fill="#F278AB"/>
<path d="M6.11 28.7501H6.63C7.98 28.7501 8.63 29.1301 8.57 30.0001C8.51 30.8701 8 31.2201 6.65 31.2201H2.44C2.26848 31.2356 2.09562 31.2151 1.93244 31.1601C1.76925 31.105 1.61932 31.0166 1.4922 30.9004C1.36508 30.7842 1.26356 30.6428 1.19409 30.4853C1.12463 30.3277 1.08876 30.1573 1.08876 29.9851C1.08876 29.8129 1.12463 29.6426 1.19409 29.485C1.26356 29.3274 1.36508 29.186 1.4922 29.0698C1.61932 28.9536 1.76925 28.8652 1.93244 28.8102C2.09562 28.7551 2.26848 28.7347 2.44 28.7501C2.82 28.7501 3.2 28.7501 3.64 28.7501H6.11Z" fill="#F278AB"/>
</g>
<defs>
<clipPath id="clip0_803_13432">
<rect width="36" height="36" fill="white"/>
</clipPath>
</defs>
</svg>
