<svg width="37" height="36" viewBox="0 0 37 36" fill="none" xmlns="http://www.w3.org/2000/svg">
<rect x="0.993164" width="36" height="36" fill="white"/>
<path d="M5.18175 20.957C4.98186 21.4767 4.48214 21.8365 3.92245 21.8365H2.64316V7.48444L8.05015 9.45334C8.38997 9.57328 8.65982 9.82314 8.80973 10.153C8.95965 10.4828 8.97964 10.8526 8.84971 11.1924L5.18175 20.957Z" fill="white"/>
<path d="M32.7355 21.9656C32.9154 22.4453 33.3852 22.7751 33.9049 22.7751H35.0942V9.49249L30.097 11.3115C29.7772 11.4314 29.5273 11.6613 29.3874 11.9611C29.2475 12.261 29.2375 12.6108 29.3474 12.9206L32.7355 21.9656Z" fill="white"/>
<path d="M36.5134 7.67351C36.2236 7.47362 35.8638 7.42365 35.534 7.54358L29.5373 9.72237C28.7078 10.0222 28.0481 10.6319 27.6783 11.4314C27.6583 11.4814 27.6384 11.5314 27.6184 11.5713C26.5789 11.2615 24.8499 10.6818 23.1409 9.80232C20.5823 8.48306 18.2836 8.69294 15.9149 10.452C14.9154 10.4819 13.5462 10.6019 12.4368 10.6918C11.7472 10.7518 11.0976 10.8118 10.5279 10.8517C10.4779 10.5419 10.3979 10.2421 10.258 9.95224C9.88822 9.15269 9.22859 8.54302 8.39905 8.24319L2.40238 6.0644C2.07256 5.94447 1.70277 5.99444 1.42293 6.19433C1.16307 6.39422 0.993164 6.72404 0.993164 7.07384V21.7857C0.993164 22.3753 1.4729 22.8551 2.06257 22.8551H4.21138C5.09089 22.8551 5.9604 22.4853 6.57007 21.8456L7.43958 22.4953C8.27912 23.1249 9.13864 23.7746 9.52842 24.0944C12.2769 26.3931 15.5851 28.8817 16.2447 29.3215C16.9143 29.7612 18.0737 30.211 18.9832 30.211C19.303 30.211 20.1225 30.211 20.7822 29.7612C21.4118 29.9611 22.0914 29.9211 22.7011 29.6513C23.2908 29.3914 23.7905 28.9317 24.1203 28.352C24.71 28.412 25.3496 28.302 25.9193 28.0122C26.469 27.7424 26.8988 27.3426 27.1686 26.8529C27.7183 26.8429 28.278 26.643 28.7777 26.2632C29.5073 25.7035 29.9171 24.874 29.8871 24.0044L31.3263 23.2149C31.946 23.9145 32.8455 24.3342 33.775 24.3342H35.9238C36.5134 24.3342 36.9932 23.8545 36.9932 23.2648V8.54302C36.9732 8.19322 36.8033 7.8734 36.5134 7.67351ZM34.8344 10.0722V22.1954H33.755C33.2852 22.1954 32.8555 21.8956 32.6856 21.4559L29.5973 13.2004C29.4873 12.9106 29.4973 12.6008 29.6273 12.3209C29.7572 12.0411 29.9871 11.8312 30.2669 11.7313L34.8344 10.0722ZM27.4685 24.5641C27.3185 24.6841 27.1586 24.724 27.1486 24.734C27.1386 24.724 27.1186 24.704 27.1087 24.6941L27.0587 24.6441C26.549 24.2443 24.2103 21.8456 22.7511 20.3265C22.5512 20.1166 22.2813 20.0067 22.0015 19.9967C21.7117 20.0067 21.4418 20.0966 21.2419 20.2965C21.032 20.4964 20.9221 20.7662 20.9121 21.0461C20.9021 21.3259 21.012 21.6058 21.2119 21.8057C21.3319 21.9256 23.9804 24.6941 25.2297 25.8634C25.1597 25.9633 25.0498 26.0433 24.9499 26.0833C24.5701 26.2732 24.2402 26.2132 24.1803 26.1532L24.1203 26.1033C23.3108 25.4636 21.2319 23.2648 20.5623 22.5353C20.1625 22.1055 19.4829 22.0755 19.0531 22.4753C18.8432 22.6652 18.7233 22.935 18.7133 23.2149C18.7033 23.4947 18.8033 23.7746 18.9932 23.9844C19.0132 24.0044 20.9821 26.1332 22.2514 27.2926C22.1514 27.4625 22.0115 27.6024 21.8416 27.6724C21.6217 27.7723 21.4018 27.7324 21.1919 27.5725C20.1625 26.6929 18.0437 24.4442 17.6239 24.0044C17.434 23.7945 17.1642 23.6746 16.8843 23.6646C16.6145 23.6646 16.3246 23.7546 16.1148 23.9545C15.9049 24.1444 15.7849 24.4142 15.775 24.704C15.765 24.9839 15.8649 25.2637 16.0648 25.4736C16.4246 25.8534 17.494 26.9928 18.4934 27.9722C18.1137 27.8723 17.6839 27.6824 17.434 27.5225C16.9143 27.1827 13.6961 24.774 10.9177 22.4453C10.4879 22.0855 9.49844 21.3459 8.62892 20.6863C8.24913 20.3964 7.88933 20.1366 7.59949 19.9067L10.1881 13.0005C10.8677 12.9606 11.7172 12.8906 12.6567 12.8107C12.9365 12.7907 13.2164 12.7607 13.4962 12.7407C12.6667 13.7301 11.9171 14.9894 12.057 16.2288C12.147 16.9883 12.5567 17.628 13.2564 18.0577C14.5556 18.8673 16.8743 18.2976 18.1037 16.8884C18.6833 16.7984 19.1131 16.6385 19.5329 16.4486C20.3824 17.2382 21.4718 18.1277 22.6112 19.0672C24.6 20.7063 27.0787 22.7451 27.6783 23.8045C27.8682 24.1544 27.6683 24.4142 27.4685 24.5641ZM19.7228 14.0999C19.5529 14.0999 19.373 14.1399 19.213 14.2299C18.4735 14.6296 18.1836 14.7696 17.404 14.8395C17.0742 14.8695 16.7844 15.0594 16.6045 15.3293C16.0848 16.1488 14.6756 16.4486 14.3757 16.2587C14.1858 16.1388 14.1758 16.0489 14.1658 15.9989C14.1159 15.5791 14.5756 14.6196 15.685 13.5103C18.1936 11.0017 19.8927 10.5319 22.1714 11.7013C24.3502 12.8306 26.529 13.5003 27.5384 13.7701C27.5584 13.8301 27.5684 13.8901 27.5984 13.95L30.3568 21.2959L29.0276 22.0355C27.9582 20.7163 25.9393 19.0472 23.9804 17.4381C22.6012 16.3087 21.3119 15.2393 20.4823 14.4098C20.2625 14.1999 19.9926 14.0999 19.7228 14.0999ZM5.28078 19.9767C5.11088 20.4164 4.69111 20.7163 4.21138 20.7163H3.13198V8.60299L7.68944 10.2621C7.97928 10.372 8.20916 10.5819 8.32909 10.8517C8.45902 11.1316 8.46901 11.4414 8.35907 11.7313L5.28078 19.9767Z" fill="#00365C"/>
<path d="M5.33077 17.8079C5.22083 18.1077 4.921 18.3176 4.60118 18.3176H3.87158V10.0222L6.98985 11.1616C7.18974 11.2315 7.33966 11.3815 7.42961 11.5714C7.51956 11.7613 7.52955 11.9711 7.44959 12.171L5.33077 17.8079Z" fill="#F278AB"/>
<path d="M32.6955 19.1871C32.8055 19.4869 33.1053 19.6968 33.4251 19.6968H34.1647V11.4014L31.0465 12.5408C30.8466 12.6108 30.6967 12.7607 30.6067 12.9506C30.5168 13.1405 30.5068 13.3503 30.5867 13.5502L32.6955 19.1871Z" fill="#F278AB"/>
<path d="M27.4684 24.5641C27.3185 24.6841 27.1586 24.7241 27.1486 24.734C27.1386 24.7241 27.1186 24.7041 27.1086 24.6941L27.0587 24.6441C26.5489 24.2443 24.2102 21.8456 22.7511 20.3265C22.5512 20.1166 22.2813 20.0067 22.0015 19.9967C21.7116 20.0067 21.4418 20.0966 21.2419 20.2965C21.032 20.4964 20.9221 20.7662 20.9121 21.0461C20.9021 21.3259 21.012 21.6058 21.2119 21.8057C21.3318 21.9256 23.9804 24.6941 25.2297 25.8634C25.1597 25.9634 25.0498 26.0433 24.9498 26.0833C24.57 26.2732 24.2402 26.2132 24.1703 26.1633L24.1103 26.1133C23.3007 25.4736 21.2219 23.2749 20.5523 22.5453C20.1525 22.1155 19.4729 22.0855 19.0431 22.4853C18.8332 22.6752 18.7133 22.945 18.6933 23.2249C18.6833 23.5047 18.7833 23.7846 18.9732 23.9945C18.9931 24.0144 20.962 26.1433 22.2313 27.3026C22.1314 27.4725 21.9915 27.6124 21.8216 27.6824C21.6017 27.7824 21.3818 27.7424 21.1719 27.5825C20.1425 26.703 18.0237 24.4542 17.6039 24.0144C17.414 23.8046 17.1442 23.6846 16.8643 23.6746C16.5945 23.6746 16.3046 23.7646 16.0948 23.9645C15.8849 24.1544 15.7649 24.4242 15.7549 24.7041C15.7449 24.9939 15.8449 25.2638 16.0448 25.4736C16.4046 25.8534 17.474 26.9928 18.4634 27.9822C18.0836 27.8723 17.6539 27.6924 17.404 27.5325C16.8943 27.1927 13.6661 24.784 10.8876 22.4553C10.4579 22.0955 9.46843 21.3559 8.59892 20.6963C8.21913 20.4064 7.85933 20.1366 7.56949 19.9167L10.1581 13.0106C10.8377 12.9706 11.6872 12.9006 12.6267 12.8207C12.9065 12.8007 13.1864 12.7707 13.4662 12.7507C12.6367 13.7402 11.8871 14.9995 12.027 16.2388C12.117 16.9983 12.5267 17.638 13.2263 18.0677C14.5256 18.8773 16.8443 18.3076 18.0737 16.8984C18.6533 16.8084 19.0831 16.6485 19.5029 16.4586C20.3524 17.2482 21.4418 18.1377 22.5812 19.0772C24.57 20.7163 27.0387 22.7551 27.6483 23.8046C27.8682 24.1544 27.6683 24.4142 27.4684 24.5641Z" fill="#FFE982"/>
</svg>
