<svg width="25" height="24" viewBox="0 0 25 24" fill="none" xmlns="http://www.w3.org/2000/svg">
<g clip-path="url(#clip0_970_21044)">
<path d="M23.812 7.06059L21.9286 4.65037C21.6042 4.23861 21.1061 4.00186 20.562 4.00093C20.2403 4.00093 19.9311 4.08774 19.6679 4.25161L17.8305 5.39451C17.6518 5.50871 17.3371 5.58438 17.0483 5.58206C16.8227 5.58298 16.6008 5.54028 16.4523 5.46693L14.6539 4.5956C14.3675 4.45772 14.0346 4.38716 13.6647 4.3867C13.1331 4.38902 12.6541 4.52782 12.2785 4.78825L12.1253 4.89594C11.9619 4.81424 11.7358 4.7019 11.4838 4.57656L11.4722 4.57099C11.1333 4.4048 10.722 4.31985 10.2499 4.31846C9.82792 4.31985 9.45144 4.38902 9.12974 4.52503L7.90421 5.04774C7.71666 5.12898 7.4075 5.1819 7.11875 5.17958C6.82676 5.18144 6.52548 5.13037 6.33423 5.04728L5.10777 4.52411C4.88169 4.42755 4.63102 4.37881 4.3627 4.37834C4.07489 4.37881 3.79218 4.43405 3.52293 4.54314C3.23698 4.65966 2.99698 4.82538 2.80897 5.03521L0.577017 7.53455C0.318913 7.82283 0.177327 8.19374 0.177791 8.57857C0.177327 9.03768 0.378333 9.47266 0.729744 9.77208L2.71798 11.4683L1.81555 12.4098C1.53191 12.7059 1.37547 13.0954 1.37547 13.5067C1.375 13.9407 1.55512 14.3604 1.86986 14.658L2.0704 14.8483C2.23102 15.0005 2.42181 15.1152 2.63907 15.1899C2.54994 15.3928 2.50351 15.6073 2.50398 15.8176C2.50351 16.0673 2.5634 16.3124 2.67388 16.5325L2.82738 16.9177L3.19845 17.1601C3.49647 17.4423 3.88734 17.5978 4.2991 17.5978H4.3005C4.47179 17.5983 4.63891 17.5714 4.80185 17.518C4.88402 17.7659 5.02282 17.9873 5.20804 18.1628L5.40904 18.354C5.70707 18.6363 6.09794 18.7918 6.51017 18.7918H6.51295C6.77802 18.7918 7.03705 18.7259 7.27055 18.6001C7.35597 18.8113 7.47899 18.9942 7.63728 19.1446L7.83829 19.3359C8.13539 19.6181 8.52626 19.7736 8.93848 19.7736H8.9408C9.37577 19.7736 9.79682 19.5944 10.0958 19.2825L10.8896 18.4534L11.9916 19.4733C12.2869 19.7472 12.6717 19.8976 13.0746 19.8976C13.077 19.8976 13.0793 19.8976 13.0816 19.8976C13.5226 19.8976 13.9478 19.7133 14.2482 19.392L14.4376 19.1892C14.5643 19.0532 14.6646 18.8944 14.7365 18.7157L15.0652 19.0193C15.3609 19.2922 15.7462 19.4426 16.1501 19.4426H16.1524C16.5953 19.4426 17.0219 19.2579 17.3232 18.9357L17.5112 18.7333C17.7066 18.5244 17.8389 18.2663 17.8983 17.9804C17.9963 17.9994 18.0863 18.0082 18.1722 18.0082C18.6151 18.0082 19.0417 17.8239 19.343 17.5017L19.5319 17.2993C19.8072 17.0046 19.9585 16.6202 19.9576 16.2173C19.9576 16.1421 19.9511 16.0641 19.9376 15.9814C20.2649 15.9141 20.5522 15.7549 20.7741 15.5163L20.9635 15.3134C21.2379 15.0191 21.3892 14.6347 21.3892 14.2309C21.3897 13.7894 21.2045 13.3642 20.8804 13.0648L20.6107 12.8155L23.7293 9.36728C24.0185 9.0465 24.1782 8.6171 24.1792 8.15892V8.16032C24.1773 7.74763 24.0506 7.36743 23.812 7.06059ZM15.2495 12.5783L18.7404 15.8125C18.8537 15.9174 18.9163 16.0617 18.9173 16.2182C18.9163 16.3621 18.8653 16.4925 18.7692 16.5956L18.5812 16.798C18.4758 16.9108 18.3305 16.9735 18.1727 16.9739C18.0302 16.9735 17.8955 16.9215 17.7939 16.8272L14.5267 13.8066L13.8188 14.5656L16.7271 17.2548C16.8367 17.3597 16.897 17.5013 16.897 17.6535C16.897 17.7965 16.8459 17.9265 16.7498 18.0296L16.5609 18.232C16.456 18.3448 16.3102 18.4074 16.1519 18.4079C16.0076 18.4074 15.8762 18.3568 15.7727 18.2607L12.954 15.6588L12.8746 15.5725L12.2405 16.2549L12.1629 16.3398L12.2465 16.4187L13.6675 17.7301C13.7673 17.8337 13.8225 17.9692 13.823 18.1103C13.8225 18.2528 13.7714 18.3824 13.6758 18.4854L13.4873 18.6883C13.382 18.8011 13.2371 18.8633 13.0798 18.8638C12.9354 18.8633 12.8045 18.8127 12.701 18.7166L11.5344 17.6364C11.6268 17.4293 11.6755 17.2102 11.6755 16.9976C11.676 16.564 11.4958 16.1444 11.1816 15.8463L10.9801 15.6551C10.6881 15.378 10.307 15.2234 9.90405 15.2178C9.84277 14.7991 9.45237 14.2156 9.43473 14.1886L9.42776 14.178L9.21747 13.9783C9.02622 13.7968 8.79411 13.6669 8.54018 13.5977C8.57686 13.4621 8.59589 13.327 8.59589 13.1947C8.59589 12.7607 8.41577 12.3411 8.10196 12.0435L7.90096 11.8522C7.60293 11.5695 7.21206 11.414 6.80077 11.414C6.7938 11.414 6.78684 11.414 6.77988 11.4145C6.74135 11.0561 6.5863 10.727 6.33516 10.4726L6.09841 10.2465C5.80038 9.9638 5.40951 9.80828 4.99821 9.80828H4.99589C4.56092 9.80828 4.13988 9.98747 3.84046 10.2999L3.43891 10.7191L1.40704 8.98616C1.28634 8.88264 1.21949 8.73827 1.21903 8.57997C1.21949 8.44674 1.26638 8.32418 1.35504 8.22484L3.587 5.72503C3.66545 5.63683 3.78289 5.55838 3.91705 5.5036C4.05632 5.44697 4.21462 5.41587 4.36224 5.41587H4.36363C4.48711 5.41587 4.60641 5.43815 4.69926 5.47807L5.92525 6.00124C6.26135 6.14283 6.66336 6.21525 7.12015 6.2171C7.57647 6.21571 7.97802 6.14283 8.31504 6.00124L9.54057 5.47807C9.71465 5.4024 9.98297 5.35552 10.2439 5.35552C10.2466 5.35552 10.2494 5.35552 10.2522 5.35552C10.534 5.35413 10.8367 5.41122 11.0089 5.49942C11.0609 5.52542 11.1119 5.55095 11.1616 5.57556L10.0716 6.34198C9.65384 6.63583 9.40455 7.11397 9.40502 7.6209C9.40455 7.95327 9.51457 8.28472 9.71558 8.55351L9.88084 8.77587C10.1993 9.19923 10.716 9.45269 11.2637 9.45362C11.5729 9.45362 11.8728 9.37192 12.1304 9.21734L12.8783 8.76844C13.0157 8.68442 13.2223 8.63428 13.4326 8.63428C13.4367 8.63428 13.4414 8.63428 13.446 8.63428C13.6921 8.63428 13.9483 8.70577 14.101 8.81811L16.1677 10.2999C16.6278 10.6295 17.3663 11.232 17.7809 11.6159L20.173 13.8275C20.2862 13.9324 20.3489 14.0768 20.3494 14.2337C20.3489 14.3762 20.2979 14.5062 20.2013 14.6097L20.0128 14.8121C19.907 14.9253 19.7617 14.9875 19.6043 14.988C19.4599 14.9875 19.329 14.9369 19.225 14.8409L15.9588 11.8202L15.2495 12.5783ZM2.5685 13.1256L4.59156 11.0148C4.69694 10.9048 4.84038 10.844 4.99543 10.844C5.1398 10.844 5.27628 10.8983 5.3798 10.9957L5.57059 11.1777C5.64765 11.2942 5.75117 11.492 5.75117 11.5876C5.75071 11.6967 5.71821 11.8026 5.65694 11.8935C5.53531 12.0203 4.12038 13.4946 3.48858 14.1534C3.39574 14.2165 3.28711 14.2499 3.17291 14.2504C3.02761 14.2499 2.89114 14.1961 2.78854 14.0986L2.58754 13.9082C2.47752 13.8038 2.41624 13.6613 2.41578 13.5076C2.41624 13.3614 2.46916 13.2291 2.5685 13.1256ZM3.69609 15.4364C4.482 14.6185 6.27945 12.7468 6.41268 12.6052C6.51666 12.5054 6.65361 12.4506 6.79752 12.4501C6.94421 12.4501 7.07744 12.5031 7.18189 12.6019L7.38289 12.7932C7.49291 12.8972 7.55372 13.0397 7.55419 13.1938C7.55372 13.3377 7.49941 13.4733 7.40146 13.5759L4.7039 16.3918C4.59899 16.5014 4.45554 16.5617 4.3005 16.5622C4.15612 16.5622 4.01918 16.5079 3.91612 16.4104L3.71512 16.2196L3.70862 16.2135C3.60231 16.1096 3.54382 15.9694 3.54382 15.8185C3.54429 15.6746 3.59814 15.539 3.69609 15.4364ZM5.87419 16.6713L7.74545 14.7183C7.8485 14.6269 7.97941 14.5763 8.1145 14.5763C8.26119 14.5763 8.39442 14.6292 8.49887 14.7281L8.70034 14.9193C8.81036 15.0238 8.87117 15.1663 8.87163 15.3199C8.87117 15.4634 8.81686 15.5994 8.71891 15.702L6.91403 17.5853C6.80912 17.6949 6.66614 17.7557 6.51109 17.7557C6.36672 17.7557 6.22978 17.7014 6.12626 17.6034L5.92479 17.4126C5.81431 17.3082 5.75349 17.1657 5.75349 17.0115C5.75396 16.8881 5.79527 16.7706 5.87419 16.6713ZM8.33546 17.6127L9.47419 16.4234C9.57956 16.3134 9.72347 16.253 9.87852 16.2525C10.0234 16.2525 10.1598 16.3069 10.2634 16.4048L10.4648 16.5956C10.5744 16.6996 10.6352 16.8421 10.6357 16.9958C10.6352 17.1397 10.5809 17.2757 10.4829 17.3778L9.34328 18.5671C9.23837 18.6767 9.09492 18.737 8.93987 18.7375C8.7955 18.7375 8.65856 18.6832 8.5555 18.5857L8.3545 18.3944C8.24448 18.29 8.18367 18.1475 8.1832 17.9938C8.1832 17.8504 8.23751 17.7148 8.33546 17.6127ZM22.9564 8.67513L19.848 12.1122L18.4874 10.8546C18.0297 10.4322 17.2772 9.81803 16.7745 9.45734L14.7078 7.97463C14.361 7.72906 13.9218 7.59815 13.4372 7.59629C13.0282 7.59768 12.649 7.69517 12.3398 7.87946L11.5933 8.3279C11.4982 8.385 11.384 8.41517 11.2628 8.41563H11.2605C11.0451 8.41563 10.8311 8.31397 10.715 8.15614L10.5507 7.93471L10.5465 7.9296C10.4788 7.83676 10.4444 7.73184 10.4439 7.6195C10.4449 7.44542 10.5275 7.28759 10.67 7.18685L12.8801 5.63405C13.0524 5.50917 13.3694 5.42329 13.6554 5.42329C13.6614 5.42329 13.6675 5.42329 13.673 5.42329C13.8703 5.42329 14.0662 5.46229 14.1999 5.52821L15.9983 6.39954C16.3 6.54438 16.6533 6.61819 17.0497 6.61912C17.5576 6.61679 18.0181 6.49703 18.3825 6.27327L20.2194 5.13037C20.3178 5.0691 20.4357 5.0366 20.5643 5.03707C20.7779 5.03707 20.9909 5.13501 21.1084 5.28774L22.9917 7.69749C23.085 7.81587 23.1384 7.98438 23.1384 8.16032C23.1389 8.35807 23.0706 8.55026 22.9564 8.67513Z" fill="#333333"/>
</g>
<defs>
<clipPath id="clip0_970_21044">
<rect width="24" height="15.8976" fill="white" transform="translate(0.00170898 4)"/>
</clipPath>
</defs>
</svg>
