<?xml version="1.0" encoding="utf-8"?>
<!-- Generator: Adobe Illustrator 18.1.1, SVG Export Plug-In . SVG Version: 6.00 Build 0)  -->
<svg version="1.1" id="Capa_1" xmlns="http://www.w3.org/2000/svg" xmlns:xlink="http://www.w3.org/1999/xlink" x="0px" y="0px"
	 viewBox="0 0 40 40" enable-background="new 0 0 40 40" xml:space="preserve">
<g>
	<path fill="#FFE982" d="M13.4,28.5c0-1,0.8-2.9,2.3-2.8c3.9,0,4,0,7.9,0c0.5,0.1,1,0.3,1.4,0.7c0.4,0.4,0.7,0.9,0.8,1.4
		c0,1.6,0.1,4.7,0.1,6.4v0.3h1.5c0-0.1,0-0.2,0-0.2c0-1.6-0.1-6.5-0.1-8.1c0-0.2,0-0.3,0-0.5c-0.4-1.8-2.8-2.3-5.8-2.2l-4.5-0.1
		c-3.4-0.1-4.8,1.3-4.8,3.9c0,3.6-0.2,5.3-0.2,6.9c0,0.2,0,0.3,0,0.5h1.4C13.3,32.7,13.4,31.6,13.4,28.5z"/>
	<path fill="#F278AB" d="M26.1,27.7H13.6v7.9h12.6V27.7z"/>
	<path fill="#FFE982" d="M25.2,18.5c0,0,0-0.1,0-0.1c0-2.5,0.1-4.9-0.1-7.4c0-0.7-0.2-1.5-0.6-2.1c-0.3-0.7-0.8-1.3-1.3-1.7
		C22.7,6.6,22,6.2,21.3,6c-0.7-0.2-1.4-0.3-2.2-0.3c-1.5,0.2-2.8,0.9-3.8,2c-1,1.1-1.5,2.5-1.4,4c0,2.1,0,4.3,0,6.4
		c0,0.1,0,0.3,0,0.3h2c-0.6-1-0.8-2.2-0.7-3.3c0-0.8,0-1.6,0-2.4c0-1.9,1.5-0.4,4.8-3.4C20.2,9.2,20.6,9,20.9,9
		c0.3,0,0.6,0.1,0.9,0.3c0.7,0.5,1.3,1.1,2,1.6c0.1,0.1,0.2,0.3,0.2,0.5c0,1.5,0,2.9,0,4.4c0,0.5-0.1,0.9-0.2,1.3
		c-0.1,0.4-0.3,0.8-0.5,1.3L25.2,18.5z"/>
	<path fill="#00365C" d="M32.9,35.6h5.9c0.1,0,0.3,0,0.4,0.1c0.1,0.1,0.3,0.1,0.4,0.3c0.1,0.1,0.2,0.2,0.2,0.4
		c0.1,0.1,0.1,0.3,0.1,0.4c0,0.3-0.1,0.6-0.3,0.8c-0.2,0.2-0.5,0.3-0.8,0.3H1.2c-0.3,0-0.6-0.1-0.8-0.3c-0.2-0.2-0.3-0.5-0.3-0.8
		s0.1-0.6,0.3-0.8c0.2-0.2,0.5-0.3,0.8-0.3h5.6v-0.6c0-3,0-5.9,0-8.8c0-1.2,0.2-2.4,0.7-3.4s1.3-2,2.2-2.7C9.8,20,9.9,20,10,19.9
		c0.7-0.3,0.8-0.8,0.8-1.5c0-2.6-0.1-5.3,0-7.9c0-1.7,0.6-3.3,1.6-4.7c1-1.4,2.4-2.4,4-3c1.2-0.5,2.5-0.7,3.7-0.7
		c1.3,0,2.5,0.4,3.7,1c1.1,0.6,2.1,1.4,2.9,2.4c0.8,1,1.4,2.2,1.6,3.4c0.2,0.8,0.2,1.5,0.2,2.3c0,2.5,0,4.9,0,7.4
		c0,0.1,0,0.3,0.1,0.4c0.1,0.1,0.2,0.2,0.3,0.3c1.2,0.6,2.2,1.6,2.9,2.8c0.7,1.2,1,2.5,1,3.9c0,3,0,6,0,9L32.9,35.6z M11.2,27.2
		c0-0.5,0.2-0.9,0.6-1.3s0.8-0.5,1.3-0.5h13.5c1.2,0,2,0.9,2,2.6c0,3.1,0,4.1,0,7.1v0.5h2c0-0.2,0-0.3,0-0.5v-9.1c0-0.3,0-0.7-0.1-1
		c-0.6-3.4-3.9-4.4-8.1-4.1L16,20.9c-4.7-0.3-6.6,2.4-6.7,7.3c0,6.6,0,3.5,0,6.5c0,0.3,0,0.6,0,0.9h1.9V27.2z M13.5,35.6h12.6v-7.9
		H13.6L13.5,35.6z M26.1,18.5c0,0,0-0.1,0-0.1c0-2.7,0.1-5.4-0.1-8.1c-0.2-1.7-1-3.3-2.3-4.3c-1.3-1.1-3-1.6-4.7-1.5
		c-1.7,0.1-3.2,0.9-4.3,2.1S13,9.3,13,11c0,2.4,0,4.7,0,7.1c0,0.1,0,0.2,0,0.4h2.4c-0.6-1.1-0.9-2.3-0.8-3.6c0-0.9,0-1.7,0-2.6
		c0-0.5,0,1.5,0,0c0-2.1,1.7-0.4,5.5-3.7c0.3-0.3,0.7-0.4,1.1-0.4c0.4,0,0.8,0.1,1.1,0.4c0.8,0.6,1.6,1.2,2.3,1.8
		c0.1,0.1,0.2,0.3,0.2,0.5c0,1.6,0,3.2,0,4.8c0,0.5-0.1,1-0.2,1.5c-0.1,0.5-0.3,0.9-0.5,1.4H26.1z M21.2,10.6
		c-1.2,1-2.6,1.7-4.1,2.1c-0.1,0-0.1,0-0.1,0.1c0,0-0.1,0.1-0.1,0.2c0,1.1,0,2.2,0.1,3.3c0.1,0.4,0.2,0.8,0.5,1.2
		c0.3,0.3,0.6,0.6,1,0.8c0.4,0.2,0.8,0.3,1.2,0.3c0.4,0,0.8-0.1,1.2-0.3c0.4-0.2,0.8-0.6,1-1c0.2-0.4,0.4-0.9,0.4-1.4
		c0.1-1,0-2,0-2.9C22.4,11.4,22.4,11.4,21.2,10.6z"/>
	<path fill="#FFE982" d="M20,30.8L20,30.8c-0.6,0-1.2,0.5-1.2,1.1v0c0,0.6,0.5,1.1,1.1,1.1h0c0.6,0,1.1-0.5,1.1-1.1v0
		C21.1,31.3,20.6,30.8,20,30.8z"/>
</g>
</svg>
