<svg width="24" height="24" viewBox="0 0 24 24" fill="none" xmlns="http://www.w3.org/2000/svg">
<path d="M20.7028 18.8667C21.2159 18.2088 21.5248 17.3842 21.5248 16.487C21.5248 14.8509 20.5056 13.4509 19.0699 12.8811V7.70486C19.0692 7.69516 19.0713 7.68564 19.0699 7.676V5.89422C19.0699 5.0786 18.4088 4.41485 17.5962 4.41485H14.1804V2.56094C14.1804 1.70031 13.4801 1 12.6195 1H6.45328C5.59266 1 4.89234 1.70031 4.89234 2.56094V4.41485H1.47375C0.661172 4.41485 0 5.0786 0 5.89422V16.7425C0 17.5553 0.661172 18.2163 1.47375 18.2163H14.1755C14.8128 19.4893 16.1263 20.3674 17.6442 20.3674C18.5414 20.3674 19.3661 20.0585 20.0241 19.5454L23.1806 22.7022C23.2744 22.7959 23.3972 22.8428 23.52 22.8428C23.6428 22.8428 23.7656 22.7959 23.8594 22.7022C24.0469 22.5147 24.0469 22.211 23.8594 22.0235L20.7028 18.8667ZM5.85234 2.56094C5.85234 2.22953 6.12187 1.96 6.45328 1.96H12.6195C12.9509 1.96 13.2204 2.22953 13.2204 2.56094V4.41485H5.85234V2.56094ZM1.47375 5.37485H5.3584C5.36329 5.37499 5.36739 5.37766 5.37234 5.37766H13.7004C13.7053 5.37766 13.7094 5.37499 13.7143 5.37485H17.5962C17.8795 5.37485 18.1099 5.60782 18.1099 5.89422V7.58697L16.6943 9.43141C16.102 10.1983 15.2084 10.6384 14.243 10.6384H11.7281V9.40844C11.7281 9.14313 11.5132 8.92844 11.2481 8.92844H7.82461C7.55953 8.92844 7.34461 9.14313 7.34461 9.40844V10.6384H4.83258C3.87633 10.6384 2.96039 10.188 2.38195 9.43282L0.96 7.58011V5.89422C0.96 5.60782 1.19039 5.37485 1.47375 5.37485ZM8.30461 11.1208C8.30461 11.1199 8.30508 11.1193 8.30508 11.1184C8.30508 11.1176 8.30461 11.1169 8.30461 11.1161V9.88844H10.7681V12.3522H8.30461V11.1208ZM1.47375 17.2563C1.19039 17.2563 0.96 17.0256 0.96 16.7425V9.15681L1.62 10.0169C2.37867 11.0073 3.57961 11.5984 4.83258 11.5984H7.34461V12.8322C7.34461 13.0975 7.55953 13.3122 7.82461 13.3122H11.2481C11.5132 13.3122 11.7281 13.0975 11.7281 12.8322V11.5984H14.243C15.5081 11.5984 16.6786 11.0223 17.4551 10.0173L18.1099 9.16425V12.637C17.9569 12.6185 17.8021 12.6063 17.6442 12.6063C15.5046 12.6063 13.7639 14.3472 13.7639 16.487C13.7639 16.7504 13.7909 17.0075 13.8411 17.2563H1.47375ZM14.7239 16.487C14.7239 14.8764 16.0341 13.5663 17.6442 13.5663C19.2546 13.5663 20.5648 14.8764 20.5648 16.487C20.5648 18.0972 19.2546 19.4074 17.6442 19.4074C16.0341 19.4074 14.7239 18.0972 14.7239 16.487Z" fill="#333333"/>
</svg>
