<svg width="34" height="37" viewBox="0 0 34 37" fill="none" xmlns="http://www.w3.org/2000/svg">
<path d="M31.3937 16.8913C31.3937 24.4013 25.3137 30.4813 17.8037 30.4813C10.2937 30.4813 4.22367 24.3913 4.22367 16.8913C4.22367 9.39133 10.3037 3.30133 17.8137 3.30133C25.3237 3.30133 31.3937 9.38133 31.3937 16.8913Z" fill="#FFE982"/>
<path d="M2.37368 21.2813C4.27368 24.4313 6.96368 26.5413 10.3837 27.5613C14.7037 28.8513 18.8637 28.1513 22.7537 25.5013L22.9437 25.3713L27.3337 30.3913C28.8437 32.1213 30.3537 33.8513 31.8737 35.5713C32.2037 35.9513 32.5637 36.0813 32.9837 35.9613C33.3537 35.8613 33.6237 35.6113 33.7237 35.2813C33.8337 34.9113 33.7237 34.5013 33.4137 34.1513C32.0437 32.5713 30.6637 31.0013 29.2937 29.4313L24.5237 23.9813L24.6837 23.8113C29.8937 18.1813 29.8137 9.57135 24.4937 4.19135C19.4737 -0.868654 11.4837 -1.41865 5.88368 2.93135C0.223676 7.33135 -1.28632 15.2213 2.37368 21.2813ZM20.7737 24.1813C20.5937 24.5713 20.1437 24.7313 19.7137 24.8913C19.5837 24.9313 19.4537 24.9813 19.3337 25.0313C17.6937 25.7213 16.0637 26.0713 14.4537 26.0713C12.5537 26.0713 10.6837 25.5913 8.84368 24.6313C8.65368 24.5313 8.37368 24.2713 8.37368 23.9913C8.32368 22.3713 8.38368 20.4613 9.19368 18.6013C9.71368 17.4113 10.4337 16.5613 11.4037 16.0113C11.6337 15.8813 11.9737 15.8613 12.2137 15.9613C13.7237 16.6013 15.2337 16.6013 16.7037 15.9613C17.0337 15.8113 17.3037 15.8413 17.6237 16.0313C18.8737 16.8213 19.7037 18.0113 20.1037 19.5713C20.3037 20.3713 20.4337 21.2013 20.5437 22.0013C20.5937 22.3613 20.6437 22.7113 20.7037 23.0713L20.7537 23.2813C20.8837 23.6413 20.8937 23.9313 20.7737 24.1813ZM10.9637 10.8513C10.9637 9.91135 11.3237 9.02135 11.9837 8.36135C12.6437 7.69135 13.5237 7.33135 14.4537 7.32135H14.4637C15.4037 7.32135 16.2837 7.69135 16.9437 8.35135C17.6037 9.01135 17.9737 9.89135 17.9637 10.8213C17.9537 12.7513 16.3737 14.3213 14.4437 14.3313H14.4337C12.5437 14.3413 10.9737 12.7813 10.9637 10.8513ZM12.9237 2.21135C18.2837 1.54135 23.4637 4.52135 25.5137 9.43135C27.6737 14.6113 25.7637 19.7413 23.0837 22.3213L22.7037 22.6913L22.6637 22.1613C22.3537 18.4313 21.2937 16.1213 19.0937 14.4513L18.9037 14.3113L19.0337 14.1113C20.1337 12.4413 20.3737 10.7013 19.7637 8.93135C19.3537 7.77135 18.6237 6.83135 17.5737 6.15135C15.3837 4.72135 12.6137 4.95135 10.6637 6.72135C8.97367 8.26134 8.01368 11.2313 9.91368 14.1213L10.0437 14.3213L9.85368 14.4613C7.68368 16.1113 6.59368 18.4713 6.31368 22.0913L6.28368 22.4513L5.95368 22.3013C3.92368 21.4013 2.08368 15.9513 2.61368 12.4213C3.41368 7.06135 7.65368 2.86135 12.9237 2.21135Z" fill="#00365C"/>
<path d="M10.9737 10.8514C10.9737 9.91135 11.3337 9.02135 11.9937 8.36135C12.6537 7.69135 13.5337 7.33135 14.4637 7.32135H14.4737C15.4137 7.32135 16.2937 7.69135 16.9537 8.35135C17.6137 9.01135 17.9837 9.89135 17.9737 10.8213C17.9637 12.7513 16.3837 14.3213 14.4537 14.3313H14.4437C12.5537 14.3414 10.9837 12.7814 10.9737 10.8514Z" fill="#F278AB"/>
</svg>
