<svg width="36" height="36" viewBox="0 0 36 36" fill="none" xmlns="http://www.w3.org/2000/svg">
<rect width="36" height="36" fill="white"/>
<path d="M26.2027 19.6445C21.664 19.6445 17.855 16.5454 16.7353 12.3566H11.4068C10.697 12.3566 10.1672 13.0064 10.3171 13.7062L12.5665 24.2233H27.1924L28.3721 19.4046C27.6823 19.5546 26.9525 19.6445 26.2027 19.6445Z" fill="#FFE982"/>
<path d="M27.1425 18.7947C31.5374 18.7947 35.1003 15.2319 35.1003 10.8369C35.1003 6.44197 31.5374 2.87915 27.1425 2.87915C22.7475 2.87915 19.1847 6.44197 19.1847 10.8369C19.1847 15.2319 22.7475 18.7947 27.1425 18.7947Z" fill="#F278AB"/>
<path d="M26.1527 0C20.7243 0 16.3155 4.40878 16.3155 9.83727C16.3155 15.2658 20.7342 19.6745 26.1527 19.6745C31.5712 19.6745 35.99 15.2658 35.99 9.83727C35.99 4.40878 31.5712 0 26.1527 0ZM34.1105 9.83727C34.1105 14.226 30.5415 17.7951 26.1527 17.7951C21.764 17.7951 18.195 14.226 18.195 9.83727C18.195 5.44849 21.764 1.87948 26.1527 1.87948C30.5415 1.87948 34.1105 5.44849 34.1105 9.83727Z" fill="#00365C"/>
<path d="M29.7917 5.9383C29.5418 5.9583 29.3119 6.06827 29.1419 6.25821L24.6132 11.4368L22.3538 9.1774C22.0039 8.8175 21.3741 8.8175 21.0242 9.1774C20.8442 9.35735 20.7442 9.58729 20.7442 9.84722C20.7442 10.0971 20.8442 10.3371 21.0242 10.517L23.9933 13.4862C24.1733 13.6662 24.4032 13.7561 24.6931 13.7561C24.9531 13.7461 25.193 13.6262 25.363 13.4362L30.5515 7.50787C30.7215 7.31792 30.8014 7.07799 30.7815 6.82805C30.7615 6.57812 30.6515 6.34819 30.4615 6.17824C30.2916 5.99829 30.0517 5.91831 29.7917 5.9383Z" fill="#00365C"/>
<path d="M32.0811 26.6934H6.86809C6.56818 26.6934 6.32824 26.4534 6.32824 26.1535C6.32824 25.8536 6.56818 25.6137 6.86809 25.6137H29.1119C29.5618 25.6137 29.9417 25.2938 30.0317 24.8539L30.5615 22.2046C30.6115 21.9547 30.5615 21.7048 30.4216 21.4948C30.2816 21.2849 30.0716 21.1449 29.8217 21.0949C29.5818 21.0449 29.3319 21.0949 29.1219 21.2349C28.912 21.3748 28.762 21.5848 28.712 21.8347L28.3321 23.7242H10.6071L8.01777 10.7778H12.8064C13.3263 10.7778 13.7462 10.3579 13.7462 9.83805C13.7462 9.31819 13.3263 8.89831 12.8064 8.89831H7.64788L7.08803 6.10909C6.71813 4.28959 5.10858 2.95996 3.2491 2.95996H0.939739C0.419883 2.96996 0 3.38984 0 3.9097C0 4.42955 0.419883 4.84944 0.939739 4.84944H3.2491C4.20883 4.84944 5.0486 5.52925 5.23854 6.47898L8.68759 23.7342H6.86809C5.52846 23.7342 4.44876 24.8239 4.44876 26.1535C4.44876 27.4931 5.53846 28.5728 6.86809 28.5728H32.0811C32.6009 28.5728 33.0208 28.153 33.0208 27.6331C33.0208 27.1133 32.6009 26.6934 32.0811 26.6934Z" fill="#00365C"/>
<path d="M12.0666 29.6617C10.3171 29.6617 8.89752 31.0813 8.89752 32.8309C8.89752 34.5804 10.3171 36 12.0666 36C13.8162 36 15.2358 34.5804 15.2358 32.8309C15.2258 31.0813 13.8062 29.6617 12.0666 29.6617ZM13.3463 32.8209C13.3463 33.5307 12.7664 34.1005 12.0666 34.1005C11.3568 34.1005 10.787 33.5207 10.787 32.8209C10.787 32.1111 11.3668 31.5412 12.0666 31.5412C12.7664 31.5412 13.3463 32.1211 13.3463 32.8209Z" fill="#00365C"/>
<path d="M25.4129 29.6617C23.6634 29.6617 22.2438 31.0813 22.2438 32.8309C22.2438 34.5804 23.6634 36 25.4129 36C27.1625 36 28.5821 34.5804 28.5821 32.8309C28.5721 31.0813 27.1525 29.6617 25.4129 29.6617ZM26.6926 32.8209C26.6926 33.5307 26.1127 34.1005 25.4129 34.1005C24.7031 34.1005 24.1333 33.5207 24.1333 32.8209C24.1333 32.1111 24.7131 31.5412 25.4129 31.5412C26.1227 31.5412 26.6926 32.1211 26.6926 32.8209Z" fill="#00365C"/>
</svg>
