<svg width="24" height="24" viewBox="0 0 24 24" fill="none" xmlns="http://www.w3.org/2000/svg">
<g clip-path="url(#clip0_969_20971)">
<path d="M19.8499 7.85C19.8499 3.55 16.3499 0 11.9999 0C7.6499 0 4.1499 3.55 4.1499 7.85C4.1499 10.15 5.1499 12.3 6.8999 13.8L7.0499 13.95L6.6499 23.3C6.6499 23.6 6.7999 23.85 7.0499 23.95C7.2999 24.05 7.5499 24 7.7999 23.85L12.0499 20.2L16.2999 23.85C16.4999 24.05 16.7999 24.05 17.0499 23.95C17.2999 23.85 17.4499 23.6 17.4499 23.3L16.9999 13.95L17.1499 13.8C18.8499 12.35 19.8499 10.15 19.8499 7.85ZM12.4499 19.5C12.1999 19.25 11.7999 19.25 11.5499 19.5L7.4499 23.05L7.7999 14.55L8.3999 14.85C10.6499 16.05 13.3999 16.05 15.6499 14.85L16.2499 14.55L16.5999 23.05L12.4499 19.5ZM11.9999 14.95C8.0999 14.95 4.9499 11.8 4.9499 7.9C4.9499 4 8.0999 0.8 11.9999 0.8C15.8999 0.8 19.0499 3.95 19.0499 7.85C19.0499 11.75 15.8999 14.95 11.9999 14.95Z" fill="#333333"/>
<path d="M10.6499 10.4C10.7999 10.55 11.0499 10.55 11.1999 10.4L15.3499 6.24998C15.4499 6.14998 15.4499 6.04998 15.4499 5.94998C15.4499 5.84998 15.3999 5.74998 15.3499 5.64998C15.1999 5.49998 14.9499 5.49998 14.7999 5.64998L10.9499 9.49998L8.99985 7.54998C8.89985 7.44998 8.79985 7.44998 8.69985 7.44998C8.59985 7.44998 8.49985 7.49998 8.39985 7.54998C8.24985 7.69998 8.24985 7.94998 8.39985 8.09998L10.6499 10.4Z" fill="#333333"/>
</g>
<defs>
<clipPath id="clip0_969_20971">
<rect width="24" height="24" fill="white"/>
</clipPath>
</defs>
</svg>
