<svg width="36" height="36" viewBox="0 0 36 36" fill="none" xmlns="http://www.w3.org/2000/svg">
<g clip-path="url(#clip0_770_13202)">
<path d="M19.0501 30.3001C26.296 30.3001 32.1701 24.426 32.1701 17.1801C32.1701 9.93408 26.296 4.06006 19.0501 4.06006C11.8041 4.06006 5.93005 9.93408 5.93005 17.1801C5.93005 24.426 11.8041 30.3001 19.0501 30.3001Z" fill="#FFE982"/>
<path d="M3.55001 33.9H35C35.1402 33.8993 35.2789 33.9281 35.4073 33.9845C35.5356 34.0409 35.6507 34.1236 35.745 34.2273C35.8393 34.331 35.9107 34.4534 35.9546 34.5865C35.9986 34.7197 36.014 34.8605 36 35V35.16C36 35.396 35.9062 35.6224 35.7393 35.7893C35.5724 35.9562 35.3461 36.05 35.11 36.05H1.67001C1.44596 36.0488 1.22442 36.0027 1.01843 35.9146C0.812443 35.8265 0.626162 35.698 0.470553 35.5368C0.314944 35.3756 0.193151 35.1849 0.112342 34.976C0.0315334 34.767 -0.00665903 34.544 1.25957e-05 34.32V1C1.25957e-05 0.734784 0.105369 0.48043 0.292906 0.292893C0.480442 0.105357 0.734796 0 1.00001 0C1.26523 0 1.51958 0.105357 1.70712 0.292893C1.89466 0.48043 2.00001 0.734784 2.00001 1V32.3C2.15874 32.1515 2.30584 31.991 2.44001 31.82L6.59001 27.51C7.08001 27.01 7.29001 27.02 7.14001 26.75C6.84818 26.2229 6.66823 25.6412 6.61144 25.0414C6.55464 24.4415 6.62222 23.8364 6.80993 23.2639C6.99765 22.6914 7.30146 22.1637 7.70239 21.714C8.10332 21.2642 8.59273 20.902 9.14001 20.65C10.1729 20.1735 11.3527 20.1268 12.42 20.52C12.5029 20.5557 12.5955 20.5623 12.6827 20.5387C12.7698 20.5151 12.8464 20.4627 12.9 20.39C14.46 18.35 16.0233 16.3133 17.59 14.28C17.6534 14.2211 17.6941 14.1417 17.7051 14.0559C17.7161 13.97 17.6966 13.883 17.65 13.81C17.1363 13.0551 16.8615 12.1631 16.8615 11.25C16.8615 10.3369 17.1363 9.44488 17.65 8.69C18.1429 8.01509 18.8178 7.4945 19.5957 7.18916C20.3737 6.88382 21.2225 6.80634 22.0429 6.9658C22.8632 7.12526 23.6212 7.51505 24.2282 8.08958C24.8351 8.66411 25.2658 9.3996 25.47 10.21C25.6488 10.9449 25.6316 11.7139 25.42 12.44C25.3862 12.5237 25.386 12.6173 25.4195 12.7012C25.4531 12.7851 25.5177 12.8527 25.6 12.89C26.5 13.46 27.39 14.05 28.28 14.63C28.3319 14.6689 28.3951 14.69 28.46 14.69C28.5249 14.69 28.5881 14.6689 28.64 14.63C29.4304 13.9662 30.4294 13.602 31.4615 13.6016C32.4937 13.6011 33.493 13.9644 34.2839 14.6275C35.0749 15.2907 35.6069 16.2113 35.7865 17.2277C35.9661 18.2441 35.7818 19.2913 35.266 20.1854C34.7502 21.0794 33.9359 21.7631 32.9661 22.1164C31.9963 22.4697 30.933 22.47 29.963 22.1172C28.993 21.7644 28.1783 21.0811 27.662 20.1874C27.1458 19.2936 26.9609 18.2465 27.14 17.23C27.14 17.23 27.14 17.16 27.14 17.13C27.28 16.53 27.28 16.53 26.76 16.19C25.97 15.69 25.18 15.19 24.4 14.66C24.22 14.53 24.11 14.55 23.9 14.75C23.3528 15.2603 22.6679 15.5986 21.9301 15.7231C21.1924 15.8475 20.4343 15.7525 19.75 15.45C19.49 15.35 19.39 15.36 19.26 15.53C17.68 17.59 16.11 19.65 14.52 21.7C14.36 21.91 14.41 22.03 14.52 22.21C14.8695 22.7244 15.1076 23.3063 15.2189 23.9182C15.3302 24.5301 15.3123 25.1586 15.1664 25.7632C15.0204 26.3677 14.7496 26.9351 14.3713 27.4288C13.9931 27.9226 13.5158 28.3317 12.97 28.63C12.3619 28.9811 11.6722 29.1659 10.97 29.1659C10.2679 29.1659 9.57809 28.9811 8.97001 28.63C8.66001 28.46 8.58001 28.63 8.19001 29C4.00001 33.43 7.00001 30.43 4.00001 33.43C3.79001 33.68 3.77001 33.66 3.55001 33.9ZM11.07 22.42C10.7698 22.4187 10.4722 22.4767 10.1944 22.5907C9.91665 22.7047 9.66412 22.8724 9.45134 23.0843C9.23856 23.2961 9.06972 23.5479 8.95452 23.8252C8.83931 24.1024 8.78001 24.3997 8.78001 24.7C8.78514 25.305 9.02638 25.884 9.45229 26.3137C9.87821 26.7433 10.4551 26.9896 11.06 27C11.6647 27 12.2446 26.7598 12.6722 26.3322C13.0998 25.9046 13.34 25.3247 13.34 24.72C13.34 24.1153 13.0998 23.5354 12.6722 23.1078C12.2446 22.6802 11.6647 22.44 11.06 22.44L11.07 22.42ZM31.61 15.73C31.1897 15.7275 30.7768 15.8413 30.4171 16.0588C30.0574 16.2763 29.7648 16.589 29.5716 16.9624C29.3785 17.3357 29.2923 17.7552 29.3226 18.1745C29.353 18.5937 29.4986 18.9964 29.7435 19.3381C29.9883 19.6798 30.3229 19.9471 30.7102 20.1106C31.0975 20.274 31.5224 20.3272 31.938 20.2643C32.3536 20.2013 32.7438 20.0247 33.0653 19.754C33.3868 19.4832 33.6273 19.1288 33.76 18.73C33.8737 18.3884 33.9049 18.0247 33.851 17.6687C33.7971 17.3127 33.6597 16.9745 33.4499 16.6818C33.2402 16.3892 32.9641 16.1503 32.6443 15.9849C32.3245 15.8194 31.9701 15.7321 31.61 15.73ZM22.15 9.18C21.7684 9.03858 21.3562 9.00093 20.9553 9.07089C20.5544 9.14086 20.1793 9.31593 19.8681 9.57824C19.557 9.84056 19.3211 10.1807 19.1844 10.564C19.0477 10.9473 19.0151 11.36 19.09 11.76C19.1604 12.1267 19.3205 12.4702 19.5561 12.7599C19.7917 13.0496 20.0954 13.2764 20.44 13.42C20.8813 13.6042 21.3692 13.6456 21.8352 13.5384C22.3012 13.4313 22.722 13.1809 23.0385 12.8225C23.3551 12.4641 23.5514 12.0155 23.6001 11.5398C23.6488 11.0641 23.5474 10.5851 23.31 10.17C23.0611 9.7063 22.6471 9.35298 22.15 9.18Z" fill="#00365C"/>
<path d="M11.07 22.4199C11.6747 22.4199 12.2546 22.6602 12.6822 23.0877C13.1098 23.5153 13.35 24.0953 13.35 24.6999C13.35 25.3046 13.1098 25.8846 12.6822 26.3121C12.2546 26.7397 11.6747 26.9799 11.07 26.9799C10.4668 26.9722 9.89031 26.7299 9.46279 26.3042C9.03528 25.8786 8.79038 25.3031 8.78003 24.6999C8.78003 24.3997 8.83933 24.1024 8.95454 23.8251C9.06974 23.5478 9.23858 23.296 9.45136 23.0842C9.66414 22.8723 9.91666 22.7046 10.1944 22.5906C10.4722 22.4766 10.7698 22.4186 11.07 22.4199Z" fill="#F278AB"/>
<path d="M21.37 9C21.82 9.00198 22.2595 9.13713 22.6329 9.38841C23.0063 9.6397 23.297 9.99589 23.4683 10.4121C23.6396 10.8283 23.6839 11.2859 23.5956 11.7272C23.5073 12.1686 23.2904 12.5739 22.9721 12.8922C22.6539 13.2104 22.2485 13.4274 21.8072 13.5157C21.3659 13.604 20.9083 13.5597 20.492 13.3883C20.0758 13.217 19.7197 12.9263 19.4684 12.5529C19.2171 12.1795 19.0819 11.7401 19.08 11.29C19.0826 10.6835 19.3247 10.1025 19.7536 9.67363C20.1825 9.24474 20.7634 9.00263 21.37 9Z" fill="white"/>
<path d="M31.6101 15.7202C32.2148 15.7202 32.7947 15.9604 33.2223 16.388C33.6499 16.8156 33.8901 17.3955 33.8901 18.0002C33.8901 18.6049 33.6499 19.1848 33.2223 19.6124C32.7947 20.04 32.2148 20.2802 31.6101 20.2802C31.0068 20.2725 30.4303 20.0301 30.0028 19.6045C29.5753 19.1788 29.3304 18.6034 29.3201 18.0002C29.3227 17.3946 29.5651 16.8147 29.9943 16.3874C30.4235 15.9601 31.0045 15.7202 31.6101 15.7202Z" fill="#F278AB"/>
</g>
<defs>
<clipPath id="clip0_770_13202">
<rect width="36" height="36" fill="white"/>
</clipPath>
</defs>
</svg>
