<svg width="36" height="36" viewBox="0 0 36 36" fill="none" xmlns="http://www.w3.org/2000/svg">
<rect width="36" height="36" fill="white"/>
<path d="M25.68 28.86C27.08 28.42 28.53 27.96 29.65 27.96C30.56 27.96 31.13 28.26 31.48 28.59C29.04 29.83 22.44 33.06 19.58 33.06C17.74 33.06 13.91 31.78 9.05 29.54L10.58 23.52L21.85 26.24C22.55 26.4 23.04 27.01 23.07 27.73C22.27 27.93 24.15 29.34 25.68 28.86Z" fill="#FFE982"/>
<path d="M31.25 25.77C29.61 25.77 27.76 26.36 25.96 26.92L25.62 27.03C25.36 25.45 24.19 24.18 22.62 23.81L9.46 20.63C9.57 20.19 9.39 19.73 9.01 19.48C8.9 19.41 6.17 17.67 1.07 17.67C0.48 17.67 0 18.15 0 18.74V31.99C0 32.58 0.48 33.05 1.06 33.05H5.48C5.97 33.05 6.39 32.72 6.51 32.25L6.61 31.85C10.84 33.78 16.37 36 19.47 36C23.96 36 34.27 30.6 35.43 29.99C35.89 29.74 36.1 29.21 35.94 28.71C35.9 28.59 34.92 25.77 31.25 25.77ZM7.19 20.94L4.66 30.93H2.13V19.83C4.59 19.96 6.28 20.54 7.19 20.94ZM21.31 27.98C18.61 27.98 14.72 26.59 14.68 26.57C14.13 26.37 13.52 26.65 13.31 27.21C13.11 27.76 13.4 28.38 13.95 28.58C14.12 28.64 18.21 30.11 21.31 30.11C22.95 30.11 24.81 29.52 26.6 28.96C28.24 28.44 29.94 27.9 31.25 27.9C32.31 27.9 32.98 28.26 33.39 28.64C30.54 30.09 22.81 33.87 19.47 33.87C17.31 33.87 12.83 32.37 7.15 29.75L8.94 22.7L22.13 25.88C22.95 26.07 23.53 26.78 23.56 27.62C22.61 27.87 21.9 27.98 21.31 27.98Z" fill="#00365C"/>
<path d="M32.46 9.76001C32.46 13.2 29.68 15.98 26.24 15.98C22.8 15.98 20.02 13.2 20.02 9.76001C20.02 6.32001 22.8 3.54001 26.24 3.54001C29.67 3.54001 32.46 6.33001 32.46 9.76001Z" fill="#FFE982"/>
<path d="M25.32 13.42C25.01 13.42 24.74 13.42 24.47 13.42C23.9 13.41 23.49 13.02 23.5 12.49C23.51 11.97 23.91 11.6 24.48 11.6C25.15 11.6 25.83 11.6 26.5 11.6C26.58 11.6 26.67 11.61 26.76 11.59C27 11.54 27.15 11.39 27.15 11.14C27.14 10.88 26.99 10.73 26.74 10.71C26.46 10.69 26.17 10.7 25.89 10.7C24.67 10.69 23.74 9.94 23.55 8.79C23.36 7.64 23.99 6.62 25.15 6.23C25.29 6.18 25.34 6.12 25.34 5.97C25.33 5.72 25.33 5.48 25.34 5.23C25.36 4.69 25.74 4.31 26.26 4.31C26.77 4.31 27.15 4.7 27.16 5.25C27.16 5.53 27.16 5.82 27.16 6.13C27.45 6.13 27.71 6.13 27.98 6.13C28.57 6.13 28.98 6.5 28.99 7.03C29 7.57 28.59 7.96 27.99 7.96C27.33 7.97 26.68 7.96 26.02 7.96C25.94 7.96 25.87 7.96 25.79 7.96C25.52 7.98 25.34 8.17 25.34 8.42C25.34 8.66 25.51 8.85 25.77 8.86C26.08 8.88 26.4 8.86 26.71 8.87C28.27 8.9 29.35 10.38 28.86 11.87C28.63 12.58 28.14 13.07 27.43 13.31C27.2 13.39 27.14 13.49 27.15 13.71C27.17 13.94 27.16 14.17 27.15 14.39C27.13 14.88 26.72 15.26 26.23 15.25C25.74 15.24 25.34 14.86 25.33 14.37C25.32 14.05 25.32 13.75 25.32 13.42Z" fill="#F278AB"/>
<path d="M26.24 19.52C20.86 19.52 16.48 15.14 16.48 9.76C16.48 4.38 20.85 0 26.24 0C31.63 0 36 4.38 36 9.76C36 15.14 31.62 19.52 26.24 19.52ZM26.24 2C21.96 2 18.48 5.48 18.48 9.76C18.48 14.04 21.96 17.52 26.24 17.52C30.52 17.52 34 14.04 34 9.76C34 5.48 30.52 2 26.24 2Z" fill="#00365C"/>
</svg>
