<svg width="36" height="36" viewBox="0 0 36 36" fill="none" xmlns="http://www.w3.org/2000/svg">
<rect width="36" height="36" fill="white"/>
<path d="M7.43384 29.1929V12.3459C7.43384 11.7921 7.88698 11.3389 8.44083 11.3389H11.9552C13.7578 11.3389 15.2179 9.87879 15.2179 8.07627V4.57193C15.2179 4.01809 15.671 3.56494 16.2249 3.56494H25.2979C25.9524 3.56494 26.4861 4.09865 26.4861 4.75319V29.1929C26.4861 29.8475 25.9524 30.3812 25.2979 30.3812H8.62209C7.96754 30.3812 7.43384 29.8475 7.43384 29.1929Z" fill="#FFE982"/>
<path d="M28.7821 4.5214H27.5737V3.31301C27.5737 1.49035 26.0834 0 24.2607 0H11.8344C11.5524 0 11.2806 0.110769 11.0892 0.312168L4.31217 7.08923C4.11077 7.28056 4 7.55245 4 7.83441V28.1656C4 29.9883 5.49035 31.4786 7.31301 31.4786H8.5214V32.687C8.5214 33.5731 8.86378 34.409 9.48811 35.0333C10.1124 35.6576 10.9483 36 11.8344 36H28.7821C30.6048 36 32.0951 34.5097 32.0951 32.687V7.83441C32.0951 6.00168 30.6048 4.5214 28.7821 4.5214ZM11.9049 2.46713V6.6965C11.9049 7.36112 11.3611 7.9049 10.6965 7.9049H6.46713L11.9049 2.46713ZM6.10462 28.1656V10.0196H10.6965C12.5192 10.0196 14.0095 8.52923 14.0095 6.70657V2.10462H24.2506C24.9152 2.10462 25.459 2.64839 25.459 3.31301V28.1656C25.459 28.8302 24.9152 29.374 24.2506 29.374H7.31301C6.64839 29.374 6.10462 28.8302 6.10462 28.1656ZM29.9804 32.687C29.9804 33.3516 29.4366 33.8954 28.772 33.8954H11.8344C11.5122 33.8954 11.2101 33.7745 10.9785 33.5429C10.7469 33.3113 10.626 33.0092 10.626 32.687V31.4786H24.2607C26.0834 31.4786 27.5737 29.9883 27.5737 28.1656V6.62601H28.7821C29.4467 6.62601 29.9905 7.16979 29.9905 7.83441V32.687H29.9804Z" fill="#00365C"/>
<path d="M10.7065 15.6689H20.8771C21.4612 15.6689 21.9345 15.1956 21.9345 14.6115C21.9345 14.0275 21.4612 13.5542 20.8771 13.5542H10.7065C10.1225 13.5542 9.64917 14.0275 9.64917 14.6115C9.64917 15.1956 10.1225 15.6689 10.7065 15.6689Z" fill="#F278AB"/>
<path d="M10.7065 20.1801H20.8771C21.4612 20.1801 21.9345 19.7068 21.9345 19.1228C21.9345 18.5387 21.4612 18.0654 20.8771 18.0654H10.7065C10.1225 18.0654 9.64917 18.5387 9.64917 19.1228C9.64917 19.7169 10.1225 20.1801 10.7065 20.1801Z" fill="#F278AB"/>
<path d="M10.7065 24.7016H16.3557C16.9398 24.7016 17.4131 24.2283 17.4131 23.6443C17.4131 23.0602 16.9398 22.5869 16.3557 22.5869H10.7065C10.1225 22.5869 9.64917 23.0602 9.64917 23.6443C9.64917 24.2283 10.1225 24.7016 10.7065 24.7016Z" fill="#F278AB"/>
</svg>
