<svg width="37" height="36" viewBox="0 0 37 36" fill="none" xmlns="http://www.w3.org/2000/svg">
<path d="M21.0611 24.54L24.0011 25.1C25.108 25.2652 26.1234 25.8088 26.8746 26.6384C27.6258 27.468 28.0663 28.5322 28.1211 29.65V32.73H7.89111V29.65C7.94549 28.5337 8.38455 27.4706 9.13373 26.6412C9.88291 25.8118 10.896 25.2673 12.0011 25.1L14.9311 24.54H21.0611Z" fill="#FFE982"/>
<path d="M35.0353 33.9277H31.8363V29.9733C31.8434 28.1156 31.2066 26.312 30.0326 24.8648C28.8586 23.4176 27.2188 22.4148 25.388 22.0245L21.9065 21.2836V19.2814C22.8357 18.7134 23.628 17.9502 24.2278 17.0456C24.8275 16.141 25.2201 15.117 25.3779 14.0456H25.8018C26.487 14.0474 27.1546 13.8302 27.7056 13.426C28.2567 13.022 28.6618 12.4525 28.8611 11.8021C29.0603 11.1518 29.0432 10.4549 28.8121 9.81501C28.5809 9.17507 28.1482 8.626 27.5778 8.24917V6.68743C27.5752 4.91463 26.8641 3.21519 25.6005 1.96163C24.3369 0.708065 22.6238 0.00264795 20.8368 0H15.1655C13.3786 0.00264795 11.6655 0.708065 10.402 1.96163C9.13832 3.21519 8.42725 4.91463 8.42458 6.68743V8.2792C7.85427 8.65604 7.4215 9.20511 7.19037 9.84505C6.95923 10.4851 6.94203 11.1818 7.14133 11.8321C7.34061 12.4826 7.74578 13.052 8.29681 13.4561C8.84784 13.8602 9.51542 14.0774 10.2006 14.0756H10.6245C10.7823 15.147 11.1749 16.1711 11.7746 17.0757C12.3744 17.9803 13.1668 18.7434 14.0959 19.3115V21.3137L10.6144 22.0245C8.79044 22.4134 7.15579 23.4103 5.98253 24.8493C4.80928 26.2883 4.16822 28.0825 4.16606 29.9333V33.8876H0.967126C0.702647 33.9132 0.457234 34.0355 0.278681 34.2308C0.100128 34.426 0.0012207 34.6802 0.0012207 34.9438C0.0012207 35.2074 0.100128 35.4616 0.278681 35.6568C0.457234 35.8521 0.702647 35.9745 0.967126 36H35.0353C35.2998 35.9745 35.5452 35.8521 35.7237 35.6568C35.9023 35.4616 36.0012 35.2074 36.0012 34.9438C36.0012 34.6802 35.9023 34.426 35.7237 34.2308C35.5452 34.0355 35.2998 33.9132 35.0353 33.8876V33.9277ZM25.8018 9.901C25.9503 9.88664 26.1002 9.90326 26.2418 9.94981C26.3835 9.99635 26.5138 10.0718 26.6243 10.1713C26.7348 10.2707 26.8231 10.392 26.8835 10.5274C26.944 10.6627 26.9752 10.8091 26.9752 10.9572C26.9752 11.1052 26.944 11.2516 26.8835 11.387C26.8231 11.5223 26.7348 11.6436 26.6243 11.743C26.5138 11.8426 26.3835 11.918 26.2418 11.9645C26.1002 12.011 25.9503 12.0277 25.8018 12.0133H25.4486V9.85095L25.8018 9.901ZM10.5538 12.0133H10.2006C10.0521 12.0277 9.90222 12.011 9.76057 11.9645C9.61891 11.918 9.48864 11.8426 9.37812 11.743C9.26761 11.6436 9.17929 11.5223 9.11885 11.387C9.05842 11.2516 9.02719 11.1052 9.02719 10.9572C9.02719 10.8091 9.05842 10.6627 9.11885 10.5274C9.17929 10.392 9.26761 10.2707 9.37812 10.1713C9.48864 10.0718 9.61891 9.99635 9.76057 9.94981C9.90222 9.90326 10.0521 9.88664 10.2006 9.901H10.5538V12.0133ZM10.5538 7.78865V6.68743C10.5565 5.47485 11.0433 4.3127 11.9075 3.45528C12.7718 2.59786 13.9433 2.11499 15.1655 2.11235H20.8368C22.0591 2.11499 23.2306 2.59786 24.0949 3.45528C24.9591 4.3127 25.4459 5.47485 25.4486 6.68743V7.7386H23.6826C22.7452 7.73822 21.8206 7.5219 20.9819 7.1067C20.1431 6.69149 19.4129 6.08876 18.8489 5.34594C18.7502 5.21538 18.6222 5.10943 18.4751 5.03645C18.328 4.96346 18.1657 4.92547 18.0012 4.92547C17.8367 4.92547 17.6744 4.96346 17.5273 5.03645C17.3802 5.10943 17.2522 5.21538 17.1535 5.34594C16.5895 6.08876 15.8593 6.69149 15.0205 7.1067C14.1818 7.5219 13.2572 7.73822 12.3198 7.7386L10.5538 7.78865ZM12.6831 13.0145V9.85095C14.6766 9.75714 16.5673 8.94564 18.0012 7.56841C19.4351 8.94564 21.3258 9.75714 23.3193 9.85095V13.0145C23.3193 14.4137 22.759 15.7556 21.7617 16.7451C20.7643 17.7345 19.4117 18.2903 18.0012 18.2903C16.5907 18.2903 15.2381 17.7345 14.2408 16.7451C13.2434 15.7556 12.6831 14.4137 12.6831 13.0145ZM14.2573 33.9177H6.29532V29.9733C6.30035 28.6066 6.77503 27.2824 7.64101 26.2195C8.50698 25.1566 9.71246 24.4183 11.0584 24.1268L14.4592 23.406L15.4683 26.4794L14.2573 33.9177ZM16.4169 33.9177L17.4865 27.4405H18.4957L19.5653 33.9177H16.4169ZM16.8306 23.7864C17.6063 23.9066 18.3961 23.9066 19.1718 23.7864L18.6571 25.3281H17.3453L16.8306 23.7864ZM19.7773 21.4639C18.6294 21.8743 17.373 21.8743 16.2251 21.4639V20.2024C17.3923 20.4828 18.6101 20.4828 19.7773 20.2024V21.4639ZM29.7071 33.9277H21.7451L20.5139 26.4794L21.5231 23.406L24.9238 24.1268C26.2698 24.4183 27.4753 25.1566 28.3412 26.2195C29.2072 27.2824 29.6819 28.6066 29.6869 29.9733L29.7071 33.9277Z" fill="#00365C"/>
<path d="M26.0912 28.5499H24.0012C23.854 28.5356 23.7055 28.5522 23.5651 28.5987C23.4247 28.6452 23.2956 28.7205 23.1861 28.8199C23.0766 28.9192 22.9891 29.0404 22.9292 29.1756C22.8693 29.3108 22.8384 29.457 22.8384 29.6049C22.8384 29.7528 22.8693 29.899 22.9292 30.0342C22.9891 30.1694 23.0766 30.2906 23.1861 30.39C23.2956 30.4893 23.4247 30.5647 23.5651 30.6112C23.7055 30.6577 23.854 30.6743 24.0012 30.6599H26.1112C26.3733 30.6344 26.6165 30.5122 26.7934 30.3172C26.9703 30.1221 27.0684 29.8682 27.0684 29.6049C27.0684 29.3416 26.9703 29.0877 26.7934 28.8927C26.6165 28.6977 26.3733 28.5755 26.1112 28.5499H26.0912Z" fill="#FFE982"/>
<path d="M12.1611 6.80988V5.99988C12.1611 5.04153 12.5411 4.12228 13.2178 3.44369C13.8946 2.76509 14.8128 2.38253 15.7711 2.37988H20.2311C21.1895 2.38253 22.1077 2.76509 22.7844 3.44369C23.4611 4.12228 23.8411 5.04153 23.8411 5.99988V6.82988H22.4511C21.7176 6.82949 20.9943 6.65854 20.3383 6.33052C19.6823 6.00251 19.1115 5.52642 18.6711 4.93988C18.5916 4.83806 18.49 4.75569 18.3739 4.69904C18.2578 4.64239 18.1303 4.61295 18.0011 4.61295C17.8719 4.61295 17.7445 4.64239 17.6284 4.69904C17.5123 4.75569 17.4106 4.83806 17.3311 4.93988C16.8907 5.52642 16.32 6.00251 15.6639 6.33052C15.0079 6.65854 14.2846 6.82949 13.5511 6.82988L12.1611 6.80988Z" fill="#FFE982"/>
<path d="M16.8413 23.77C17.61 23.89 18.3926 23.89 19.1613 23.77L18.6513 25.31H17.3513L16.8413 23.77Z" fill="#F278AB"/>
<path d="M16.4312 33.8899L17.4912 27.4199H18.5112L19.5712 33.8899H16.4312Z" fill="#F278AB"/>
</svg>
