<svg width="36" height="36" viewBox="0 0 36 36" fill="none" xmlns="http://www.w3.org/2000/svg">
<path d="M32.1 32.1001C22.7 32.1001 13.3 32.1001 3.90001 32.1001C3.90001 32.0001 3.90001 31.9001 3.90001 31.7001C3.90001 25.8001 3.90001 19.2001 3.90001 13.2001C3.90001 12.5001 4.30001 12.1001 5.10001 12.1001C13.7 12.1001 22.4 12.1001 31 12.1001C31.8 12.1001 32.2 12.4001 32.2 13.1001C32.2 19.0001 32.2 25.7001 32.2 31.6001C32.1 31.8001 32.1 31.9001 32.1 32.1001Z" fill="#FFE982"/>
<path d="M35.9 18C35.9 22.8 35.9 27.7 35.9 32.5C35.9 34.6 34.6 35.9 32.5 35.9C22.8 35.9 13.1 35.9 3.50001 35.9C1.40001 35.9 0.100006 34.6 0.100006 32.5C0.100006 22.8 0.100006 13 0.100006 3.3C0.100006 1.3 1.40001 0 3.50001 0C13.2 0 22.8 0 32.5 0C34.7 0 35.9 1.3 35.9 3.5C35.9 8.3 35.9 13.2 35.9 18ZM2.20001 10.6C2.20001 10.8 2.20001 10.9 2.20001 11C2.20001 18.2 2.20001 25.5 2.20001 32.7C2.20001 33.5 2.60001 34 3.50001 34C13.2 34 22.9 34 32.5 34C33.4 34 33.8 33.6 33.8 32.7C33.8 25.5 33.8 18.3 33.8 11.1C33.8 11 33.8 10.8 33.8 10.7C23.3 10.6 12.7 10.6 2.20001 10.6ZM2.20001 8.4C12.8 8.4 23.3 8.4 33.9 8.4C33.9 6.7 33.9 5.1 33.9 3.5C33.9 2.5 33.5 2.1 32.5 2.1C24.9 2.1 17.3 2.1 9.60001 2.1C7.50001 2.1 5.50001 2.1 3.40001 2.1C2.70001 2.1 2.20001 2.5 2.20001 3.2C2.20001 4.9 2.20001 6.6 2.20001 8.4Z" fill="#00365C"/>
<path d="M22.2 4.2001C24.9 4.2001 27.6 4.2001 30.3 4.2001C30.4 4.2001 30.6 4.2001 30.7 4.2001C31.3 4.3001 31.7 4.7001 31.7 5.2001C31.7 5.7001 31.3 6.2001 30.7 6.3001C30.5 6.3001 30.2 6.3001 30 6.3001C24.7 6.3001 19.3 6.3001 14 6.3001C13.8 6.3001 13.6 6.3001 13.4 6.2001C12.9 6.1001 12.6 5.6001 12.7 5.1001C12.8 4.6001 13.1 4.2001 13.6 4.1001C13.8 4.1001 13.9 4.1001 14.1 4.1001C16.8 4.2001 19.5 4.2001 22.2 4.2001Z" fill="#00365C"/>
<path d="M5.4 6.3002C4.8 6.3002 4.3 5.8002 4.3 5.3002C4.3 4.7002 4.7 4.2002 5.3 4.2002C5.9 4.2002 6.4 4.7002 6.4 5.2002C6.4 5.8002 5.9 6.3002 5.4 6.3002Z" fill="#F278AB"/>
<path d="M8.5 5.3002C8.5 4.7002 9 4.3002 9.5 4.2002C10.1 4.2002 10.5 4.7002 10.6 5.2002C10.6 5.8002 10.1 6.3002 9.5 6.3002C9 6.3002 8.5 5.8002 8.5 5.3002Z" fill="#F278AB"/>
<path d="M18 28.4C21.4242 28.4 24.2 25.6242 24.2 22.2C24.2 18.7758 21.4242 16 18 16C14.5758 16 11.8 18.7758 11.8 22.2C11.8 25.6242 14.5758 28.4 18 28.4Z" fill="#FFE982"/>
<path d="M17.1 25.8002C16.8 25.8002 16.5 25.8002 16.2 25.8002C15.6 25.8002 15.2 25.4002 15.2 24.9002C15.2 24.4002 15.6 24.0002 16.2 24.0002C16.9 24.0002 17.5 24.0002 18.2 24.0002C18.3 24.0002 18.4 24.0002 18.5 24.0002C18.7 23.9002 18.9 23.8002 18.9 23.5002C18.9 23.2002 18.7 23.1002 18.5 23.1002C18.2 23.1002 17.9 23.1002 17.6 23.1002C16.4 23.1002 15.4 22.3002 15.3 21.2002C15.1 20.0002 15.7 19.0002 16.9 18.6002C17 18.6002 17.1 18.5002 17.1 18.3002C17.1 18.1002 17.1 17.8002 17.1 17.6002C17.1 17.1002 17.5 16.7002 18 16.7002C18.5 16.7002 18.9 17.1002 18.9 17.6002C18.9 17.9002 18.9 18.2002 18.9 18.5002C19.2 18.5002 19.5 18.5002 19.7 18.5002C20.3 18.5002 20.7 18.9002 20.7 19.4002C20.7 19.9002 20.3 20.3002 19.7 20.3002C19 20.3002 18.4 20.3002 17.7 20.3002C17.6 20.3002 17.5 20.3002 17.5 20.3002C17.2 20.3002 17 20.5002 17.1 20.8002C17.1 21.0002 17.3 21.2002 17.5 21.2002C17.8 21.2002 18.1 21.2002 18.4 21.2002C20 21.2002 21 22.7002 20.6 24.2002C20.4 24.9002 19.9 25.4002 19.2 25.6002C19 25.7002 18.9 25.8002 18.9 26.0002C18.9 26.2002 18.9 26.5002 18.9 26.7002C18.9 27.2002 18.5 27.6002 18 27.6002C17.5 27.6002 17.1 27.2002 17.1 26.7002C17.1 26.5002 17.1 26.2002 17.1 25.8002Z" fill="#F278AB"/>
<path d="M18 30.3001C22.4735 30.3001 26.1 26.6736 26.1 22.2001C26.1 17.7266 22.4735 14.1001 18 14.1001C13.5265 14.1001 9.90001 17.7266 9.90001 22.2001C9.90001 26.6736 13.5265 30.3001 18 30.3001Z" stroke="#00365C" stroke-width="2" stroke-miterlimit="10" stroke-linecap="round" stroke-linejoin="round"/>
</svg>
