<svg width="22" height="24" viewBox="0 0 22 24" fill="none" xmlns="http://www.w3.org/2000/svg">
<path fill-rule="evenodd" clip-rule="evenodd" d="M10.44 16.5467C10.3452 16.4999 10.2594 16.4367 10.1867 16.36L4.73335 10.3067C4.53355 10.091 4.42763 9.80471 4.43888 9.51091C4.45014 9.2171 4.57764 8.9398 4.79335 8.74C5.00906 8.5402 5.2953 8.43428 5.58911 8.44553C5.88292 8.45679 6.16022 8.58429 6.36002 8.8L9.90668 12.8V1.09333C9.90668 0.803363 10.0219 0.52527 10.2269 0.32023C10.432 0.11519 10.71 0 11 0C11.29 0 11.5681 0.11519 11.7731 0.32023C11.9782 0.52527 12.0933 0.803363 12.0933 1.09333V12.84L15.64 8.84C15.8345 8.62429 16.1067 8.49468 16.3968 8.47968C16.6868 8.46467 16.971 8.56551 17.1867 8.76C17.4024 8.95449 17.532 9.22671 17.547 9.51677C17.562 9.80682 17.4612 10.091 17.2667 10.3067L11.76 16.36C11.6873 16.4367 11.6015 16.4999 11.5067 16.5467C11.4706 16.561 11.4386 16.5839 11.4134 16.6133C11.2749 16.6751 11.125 16.707 10.9733 16.707C10.8217 16.707 10.6718 16.6751 10.5333 16.6133C10.5081 16.5839 10.4761 16.561 10.44 16.5467ZM20.0489 14.8716C20.251 14.6669 20.5257 14.5502 20.8134 14.5467C21.1033 14.5467 21.3814 14.6619 21.5865 14.8669C21.7915 15.0719 21.9067 15.35 21.9067 15.64V20.48C21.9391 21.3797 21.6134 22.2555 21.0011 22.9153C20.3887 23.5752 19.5396 23.9653 18.64 24H3.36002C2.46044 23.9653 1.61135 23.5752 0.998971 22.9153C0.38659 22.2555 0.060907 21.3797 0.0933502 20.48V15.64C0.0763972 15.4872 0.0918649 15.3325 0.138743 15.1861C0.185622 15.0397 0.262857 14.9048 0.365405 14.7902C0.467954 14.6757 0.593511 14.584 0.733878 14.5213C0.874246 14.4585 1.02627 14.4261 1.18002 14.4261C1.33377 14.4261 1.48579 14.4585 1.62616 14.5213C1.76652 14.584 1.89208 14.6757 1.99463 14.7902C2.09718 14.9048 2.17441 15.0397 2.22129 15.1861C2.26817 15.3325 2.28364 15.4872 2.26668 15.64V20.48C2.23685 20.8014 2.3349 21.1216 2.53956 21.3712C2.74422 21.6208 3.03901 21.7796 3.36002 21.8133H18.64C18.961 21.7796 19.2558 21.6208 19.4605 21.3712C19.6651 21.1216 19.7632 20.8014 19.7334 20.48V15.64C19.7333 15.3523 19.8467 15.0762 20.0489 14.8716Z" fill="#333333"/>
</svg>
