<svg width="37" height="36" viewBox="0 0 37 36" fill="none" xmlns="http://www.w3.org/2000/svg">
<path d="M12.05 25.837C12.05 24.957 12.77 23.247 14.16 23.267C17.67 23.267 17.76 23.267 21.27 23.267C21.7548 23.3521 22.2036 23.5789 22.5595 23.9188C22.9155 24.2588 23.1627 24.6966 23.27 25.177C23.27 26.657 23.39 29.477 23.38 30.957V31.217H24.7C24.7 31.137 24.7 31.067 24.7 30.997C24.7 29.537 24.58 25.077 24.57 23.617C24.5893 23.4609 24.5893 23.3031 24.57 23.147C24.21 21.497 22.04 21.027 19.3 21.147L15.19 21.097C12.11 20.977 10.86 22.277 10.84 24.617C10.84 27.837 10.68 29.377 10.67 30.837C10.67 30.987 10.67 31.127 10.67 31.267H11.97C11.92 29.647 12.05 28.677 12.05 25.837Z" fill="#FFE982"/>
<path d="M23.56 25.1367H12.17V32.2567H23.56V25.1367Z" fill="#F278AB"/>
<path d="M22.72 16.777C22.7268 16.7406 22.7268 16.7033 22.72 16.667C22.72 14.447 22.79 12.217 22.66 10.0069C22.6168 9.33666 22.4417 8.68154 22.1446 8.07916C21.8475 7.47677 21.4344 6.939 20.9289 6.49672C20.4235 6.05444 19.8356 5.71635 19.1991 5.50187C18.5626 5.2874 17.8901 5.20076 17.22 5.24692C15.8979 5.39016 14.6791 6.02885 13.809 7.03446C12.9388 8.04008 12.4818 9.33796 12.53 10.6669C12.53 12.607 12.53 14.547 12.53 16.497C12.53 16.607 12.53 16.727 12.53 16.787H14.31C13.8068 15.8719 13.5907 14.8265 13.69 13.787C13.69 13.067 13.69 12.357 13.69 11.6369C13.69 9.87692 15.04 11.2669 18.01 8.57692C18.2246 8.37567 18.5048 8.25876 18.7988 8.24773C19.0928 8.23671 19.3809 8.33231 19.61 8.51692C20.22 9.00692 20.83 9.51692 21.42 9.98692C21.5145 10.1023 21.5642 10.2479 21.56 10.3969C21.56 11.7169 21.56 13.047 21.56 14.397C21.559 14.8076 21.5121 15.2168 21.42 15.617C21.3032 16.0051 21.163 16.3858 21 16.757L22.72 16.777Z" fill="#FFE982"/>
<path d="M29.65 32.3069H35C35.1356 32.3067 35.2699 32.3342 35.3946 32.3875C35.5193 32.4409 35.6318 32.519 35.7254 32.6173C35.8189 32.7155 35.8915 32.8317 35.9387 32.9589C35.9859 33.086 36.0068 33.2214 36 33.3569C36 33.6221 35.8946 33.8765 35.7071 34.064C35.5196 34.2515 35.2652 34.3569 35 34.3569H1C0.734784 34.3569 0.48043 34.2515 0.292893 34.064C0.105357 33.8765 0 33.6221 0 33.3569C0 33.0917 0.105357 32.8373 0.292893 32.6498C0.48043 32.4623 0.734784 32.3569 1 32.3569H6.08V31.8569C6.08 29.1769 6.08 26.4869 6.08 23.8569C6.04136 22.7806 6.26084 21.7106 6.72011 20.7364C7.17938 19.7622 7.8651 18.912 8.72 18.2569C8.77833 18.2009 8.84196 18.1506 8.91 18.1069C9.56 17.8769 9.63 17.3969 9.62 16.7769C9.62 14.3869 9.53 11.9969 9.62 9.61688C9.64451 8.08052 10.136 6.58799 11.0291 5.33764C11.9222 4.0873 13.1746 3.13834 14.62 2.61688C15.6924 2.16943 16.8494 1.96098 18.0105 2.00601C19.1717 2.05104 20.3091 2.34848 21.3436 2.87764C22.3781 3.4068 23.2849 4.15498 24.001 5.07013C24.7171 5.98529 25.2252 7.04545 25.49 8.17688C25.6355 8.8605 25.7059 9.55796 25.7 10.2569C25.7 12.4969 25.7 14.7369 25.7 16.9669C25.7008 17.0964 25.7366 17.2232 25.8035 17.3341C25.8703 17.445 25.9659 17.5358 26.08 17.5969C27.1847 18.1655 28.1056 19.0357 28.7357 20.1066C29.3659 21.1775 29.6794 22.405 29.64 23.6469C29.64 26.3569 29.64 29.0669 29.64 31.7769L29.65 32.3069ZM10 24.6569C10.0104 24.22 10.1906 23.8044 10.5024 23.4982C10.8142 23.192 11.233 23.0194 11.67 23.0169H23.94C25.05 23.0169 25.72 23.8469 25.72 25.3669C25.72 28.1469 25.72 29.0369 25.72 31.8069V32.2969H27.5C27.5 32.1469 27.5 32.0169 27.5 31.8869V23.6669C27.5049 23.3724 27.4848 23.078 27.44 22.7869C26.94 19.6969 23.91 18.7869 20.08 19.0869L14.35 19.0069C10.05 18.7769 8.35 21.2069 8.27 25.5969C8.27 31.5969 8.27 28.7369 8.27 31.4769C8.27 31.7569 8.27 32.0169 8.27 32.2769H10V24.6569ZM12.14 32.2969H23.56V25.1669H12.17L12.14 32.2969ZM23.55 16.7769C23.553 16.7336 23.553 16.6902 23.55 16.6469C23.55 14.1969 23.64 11.7369 23.48 9.29688C23.3304 7.76124 22.5803 6.34687 21.3928 5.3617C20.2054 4.37654 18.6769 3.90038 17.14 4.03688C15.6362 4.15372 14.2333 4.83925 13.2171 5.95393C12.2009 7.06861 11.6477 8.52866 11.67 10.0369C11.67 12.1769 11.67 14.3269 11.67 16.4669C11.6631 16.5768 11.6631 16.687 11.67 16.7969H13.8C13.2239 15.8125 12.9688 14.673 13.07 13.5369C13.07 12.7469 13.07 11.9569 13.07 11.1569C13.07 10.7469 13.07 12.4769 13.07 11.1569C13.07 9.21688 14.65 10.7569 18.07 7.77688C18.328 7.53219 18.6664 7.39006 19.0218 7.37717C19.3771 7.36428 19.725 7.48152 20 7.70688C20.72 8.24688 21.43 8.78688 22.12 9.32688C22.2294 9.45061 22.2867 9.61185 22.28 9.77688C22.28 11.2469 22.28 12.7069 22.28 14.1669C22.2783 14.6221 22.2212 15.0755 22.11 15.5169C21.9802 15.9478 21.8198 16.3689 21.63 16.7769H23.55ZM19.07 9.69688C17.9851 10.5726 16.7277 11.2098 15.38 11.5669C15.3278 11.5797 15.2812 11.609 15.2469 11.6504C15.2127 11.6919 15.1927 11.7432 15.19 11.7969C15.1604 12.7976 15.1871 13.7992 15.27 14.7969C15.3314 15.1803 15.4845 15.5431 15.7163 15.8545C15.9481 16.166 16.2517 16.4168 16.6012 16.5857C16.9508 16.7546 17.336 16.8366 17.7241 16.8246C18.1121 16.8126 18.4915 16.707 18.83 16.5169C19.2158 16.2977 19.5371 15.9809 19.7618 15.5982C19.9865 15.2156 20.1065 14.7806 20.11 14.3369C20.16 13.4569 20.11 12.5569 20.11 11.6669C20.15 10.4269 20.14 10.4269 19.07 9.69688Z" fill="#00365C"/>
<path d="M18 27.9668H17.99C17.4156 27.9668 16.95 28.4324 16.95 29.0068V29.0168C16.95 29.5912 17.4156 30.0568 17.99 30.0568H18C18.5744 30.0568 19.04 29.5912 19.04 29.0168V29.0068C19.04 28.4324 18.5744 27.9668 18 27.9668Z" fill="#FFE982"/>
</svg>
