<svg width="36" height="37" viewBox="0 0 36 37" fill="none" xmlns="http://www.w3.org/2000/svg">
<rect y="0.995605" width="36" height="36" fill="white"/>
<path d="M25.86 29.4456C25.8574 29.6667 25.7677 29.8778 25.6105 30.0331C25.4532 30.1885 25.2411 30.2756 25.02 30.2756H14.57V25.9956C14.57 25.7728 14.4815 25.5592 14.324 25.4016C14.1664 25.2441 13.9528 25.1556 13.73 25.1556H9.45V8.53562C9.44999 8.31456 9.53711 8.1024 9.69248 7.94516C9.84786 7.78791 10.059 7.69825 10.28 7.69562H25.02C25.242 7.69821 25.4541 7.78755 25.6111 7.94452C25.7681 8.10149 25.8574 8.31364 25.86 8.53562V29.4456Z" fill="#FFE982"/>
<path d="M27.94 0.995605H7.48C6.55705 0.995605 5.6719 1.36225 5.01927 2.01487C4.36664 2.6675 4 3.55265 4 4.47561C4 30.3756 4 28.8056 4.06 29.0756C4.11702 29.2454 4.2129 29.3995 4.34 29.5256C4.41 29.5956 11.46 36.6556 11.56 36.7356C12.02 37.0856 11.32 36.9756 27.94 36.9756C28.863 36.9756 29.7481 36.609 30.4007 35.9563C31.0534 35.3037 31.42 34.4186 31.42 33.4956V4.49561C31.4226 4.03693 31.3346 3.58225 31.1609 3.15772C30.9872 2.7332 30.7312 2.3472 30.4078 2.02193C30.0844 1.69667 29.6999 1.43854 29.2764 1.2624C28.8529 1.08627 28.3987 0.995598 27.94 0.995605V0.995605ZM11.11 32.9956L7.96 29.8656H11.11V32.9956ZM29.11 33.4756C29.11 33.7833 28.9878 34.0783 28.7702 34.2958C28.5527 34.5134 28.2577 34.6356 27.95 34.6356H13.43V28.7056C13.43 28.398 13.3078 28.1029 13.0902 27.8854C12.8727 27.6678 12.5777 27.5456 12.27 27.5456H6.32V4.47561C6.32 4.16795 6.44221 3.8729 6.65976 3.65536C6.8773 3.43782 7.17235 3.31561 7.48 3.31561H27.94C28.2477 3.31561 28.5427 3.43782 28.7602 3.65536C28.9778 3.8729 29.1 4.16795 29.1 4.47561L29.11 33.4756ZM25.41 30.3556C25.41 30.6633 25.2878 30.9583 25.0702 31.1758C24.8527 31.3934 24.5577 31.5156 24.25 31.5156H16.77C16.4623 31.5156 16.1673 31.3934 15.9498 31.1758C15.7322 30.9583 15.61 30.6633 15.61 30.3556C15.61 30.048 15.7322 29.7529 15.9498 29.5354C16.1673 29.3178 16.4623 29.1956 16.77 29.1956H24.24C24.394 29.1956 24.5465 29.2262 24.6886 29.2858C24.8306 29.3453 24.9594 29.4326 25.0674 29.5424C25.1754 29.6522 25.2604 29.7825 25.3175 29.9255C25.3746 30.0686 25.4027 30.2216 25.4 30.3756L25.41 30.3556ZM17.71 13.1856C18.4842 13.1876 19.2415 12.9597 19.886 12.5308C20.5306 12.1019 21.0333 11.4914 21.3304 10.7765C21.6276 10.0617 21.7059 9.27466 21.5553 8.51526C21.4048 7.75587 21.0322 7.05826 20.4848 6.51083C19.9374 5.96341 19.2397 5.59081 18.4803 5.44026C17.7209 5.28971 16.9339 5.36799 16.2191 5.66516C15.5042 5.96234 14.8937 6.46504 14.4648 7.10957C14.0359 7.7541 13.808 8.51143 13.81 9.28561C13.8126 10.3191 14.2244 11.3096 14.9552 12.0404C15.686 12.7712 16.6765 13.183 17.71 13.1856ZM17.71 7.69561C18.0249 7.69362 18.3333 7.78519 18.5961 7.95869C18.8589 8.1322 19.0642 8.37982 19.1861 8.67018C19.308 8.96053 19.3409 9.28054 19.2807 9.58962C19.2204 9.89871 19.0698 10.183 18.8478 10.4063C18.6259 10.6297 18.3426 10.7821 18.0339 10.8443C17.7252 10.9064 17.405 10.8756 17.1139 10.7555C16.8227 10.6355 16.5738 10.4317 16.3987 10.17C16.2235 9.90831 16.13 9.6005 16.13 9.28561C16.13 8.86564 16.2961 8.46272 16.5922 8.16483C16.8882 7.86693 17.29 7.69825 17.71 7.69561ZM11.79 18.8756V17.2856C11.7973 16.7997 11.9433 16.326 12.2109 15.9203C12.4784 15.5146 12.8563 15.1937 13.3 14.9956L15.14 14.1756C15.45 14.0356 15.23 14.0756 19.69 14.0756C20.02 14.0756 20.01 14.0756 22.01 14.9956C22.4591 15.1976 22.8405 15.5248 23.1083 15.9381C23.3761 16.3514 23.5191 16.8331 23.52 17.3256V18.9156C23.4931 19.206 23.3587 19.4758 23.1432 19.6722C22.9277 19.8687 22.6466 19.9776 22.355 19.9776C22.0634 19.9776 21.7823 19.8687 21.5668 19.6722C21.3513 19.4758 21.2169 19.206 21.19 18.9156V17.2856C21.1905 17.2419 21.1786 17.1989 21.1556 17.1617C21.1326 17.1245 21.0994 17.0946 21.06 17.0756L19.45 16.3556H15.86L14.24 17.0756C14.2006 17.0946 14.1674 17.1245 14.1444 17.1617C14.1214 17.1989 14.1095 17.2419 14.11 17.2856V18.8756C14.11 19.1833 13.9878 19.4783 13.7702 19.6958C13.5527 19.9134 13.2577 20.0356 12.95 20.0356C12.6423 20.0356 12.3473 19.9134 12.1298 19.6958C11.9122 19.4783 11.79 19.1833 11.79 18.8756Z" fill="#00365C"/>
<path d="M17.71 7.69562C18.0249 7.69364 18.3333 7.7852 18.5961 7.95871C18.8589 8.13221 19.0642 8.37984 19.1861 8.67019C19.308 8.96055 19.3409 9.28055 19.2807 9.58964C19.2204 9.89872 19.0698 10.183 18.8478 10.4063C18.6259 10.6297 18.3426 10.7821 18.0339 10.8443C17.7252 10.9065 17.405 10.8756 17.1139 10.7555C16.8227 10.6355 16.5738 10.4317 16.3987 10.17C16.2235 9.90832 16.13 9.60052 16.13 9.28562C16.13 8.86565 16.2961 8.46274 16.5922 8.16484C16.8882 7.86694 17.29 7.69826 17.71 7.69562Z" fill="#F278AB"/>
<path d="M25.38 23.9956C25.38 24.3033 25.2578 24.5983 25.0402 24.8158C24.8227 25.0334 24.5277 25.1556 24.22 25.1556H11.09C10.7823 25.1556 10.4873 25.0334 10.2698 24.8158C10.0522 24.5983 9.93 24.3033 9.93 23.9956C9.93 23.688 10.0522 23.3929 10.2698 23.1754C10.4873 22.9578 10.7823 22.8356 11.09 22.8356H24.22C24.5277 22.8356 24.8227 22.9578 25.0402 23.1754C25.2578 23.3929 25.38 23.688 25.38 23.9956Z" fill="#00365C"/>
</svg>
