<svg width="32" height="42" viewBox="0 0 32 42" fill="none" xmlns="http://www.w3.org/2000/svg">
<path d="M18 14C18 15.6569 16.433 17 14.5 17C12.567 17 11 15.6569 11 14C11 12.3431 12.567 11 14.5 11C16.433 11 18 12.3431 18 14Z" fill="#F278AB"/>
<path fill-rule="evenodd" clip-rule="evenodd" d="M1.26046 42V34.032L1.94778 33.3959C4.32895 31.1919 6.49206 29.1456 8.43786 27.2568C10.3991 25.3521 12.0533 23.5988 13.4083 21.9956L13.4114 21.992C14.7985 20.358 15.8211 18.9068 16.5154 17.6346L16.5201 17.6258L16.525 17.6171C17.2193 16.3727 17.4928 15.3255 17.4928 14.4461C17.4928 12.9554 17.1105 12.207 16.715 11.8152L16.6991 11.7995L16.6836 11.7835C16.2453 11.3312 15.588 11.0073 14.4247 11.0073C13.5205 11.0073 12.7808 11.252 12.1225 11.735L12.1007 11.751L12.0786 11.7664C11.1575 12.4084 10.2744 13.1779 9.43111 14.0828L7.85376 15.7754L0 8.09312L1.4352 6.58075C3.40471 4.50532 5.48022 2.87885 7.67423 1.76727C9.98192 0.558267 12.6515 0 15.601 0C17.6751 0 19.6187 0.326401 21.4005 1.01777C23.1903 1.65893 24.7632 2.60715 26.0886 3.86895C27.4256 5.10296 28.4404 6.58813 29.1382 8.29313C29.8445 10.0188 30.1768 11.9054 30.1768 13.9218C30.1768 15.7793 29.7774 17.64 29.021 19.4911L29.0176 19.4994L29.0141 19.5077C28.2824 21.2558 27.3041 22.9979 26.0941 24.7344C24.9411 26.4063 23.6118 28.0859 22.1108 29.7738C21.9016 30.0097 21.6912 30.2452 21.4796 30.4803C21.7428 30.4724 21.9986 30.4684 22.2469 30.4684H32V42H1.26046ZM19.3608 32.7748C19.2844 32.7819 19.2074 32.7894 19.1298 32.7971C17.9927 32.8747 16.9537 32.9718 16.0127 33.0883C16.7923 32.2963 17.5566 31.4993 18.3056 30.6972C19.0257 29.9259 19.7318 29.1501 20.4237 28.3695C21.8744 26.7383 23.1487 25.1265 24.2465 23.5342C25.3835 21.903 26.2853 20.2912 26.9519 18.6988C27.6184 17.0676 27.9517 15.4753 27.9517 13.9218C27.9517 12.1352 27.6576 10.5234 27.0695 9.08643C26.4814 7.64943 25.6384 6.42603 24.5406 5.41624C23.4427 4.36761 22.1292 3.57143 20.6001 3.0277C19.1102 2.44513 17.4438 2.15385 15.601 2.15385C12.9348 2.15385 10.6411 2.65874 8.7199 3.66853C6.79868 4.63948 4.91667 6.09591 3.07386 8.03781L7.77889 12.6401C8.28766 12.0942 8.81361 11.5879 9.35676 11.1215C9.81821 10.7251 10.2921 10.3575 10.7783 10.0185C11.837 9.24179 13.0524 8.85341 14.4247 8.85341C16.0715 8.85341 17.3654 9.33888 18.3064 10.3098C19.2474 11.2419 19.7179 12.6207 19.7179 14.4461C19.7179 15.7666 19.3062 17.1647 18.4828 18.6406C17.6987 20.0776 16.5812 21.6505 15.1305 23.3594C13.719 25.0294 12.0134 26.8354 10.0138 28.7773C8.05335 30.6804 5.87728 32.7388 3.48555 34.9526V39.8462H29.7749V32.6223H22.2469C21.4046 32.6223 20.4425 32.6731 19.3608 32.7748Z" fill="#00365C"/>
<path d="M5.55856 38V34.7217C7.95828 32.5079 9.19085 31.2876 11.1578 29.3845C13.1641 27.4425 14.9099 25.6698 16.3261 23.9997C17.7817 22.2908 18.725 20.5463 19.5118 19.1092C20.3379 17.6334 20.9108 15.5354 20.9108 14.2149C20.9108 12.3895 20.4559 10.3932 19.5118 9.46102C18.5677 8.49006 16.3671 7.84561 14.7148 7.84561C13.338 7.84561 11.6439 8.55267 10.5817 9.32945C9.51956 10.0674 9.46504 10.0001 8.34878 11.0771L5 7.84554C6.84896 5.9036 7.0633 5.48568 8.99094 4.51471C10.9186 3.5049 13.2199 3 15.895 3C17.744 3 19.4159 3.49436 20.9108 4.07694C21.7439 4.4016 22.4731 4.82585 23.4183 5.69236C24.5198 6.70216 25.6188 8.02462 26.2089 9.46166C26.767 10.5386 26.767 12.154 26.767 13.6906C26.767 14.8464 26.3196 16.8365 25.6508 18.4677C24.982 20.0601 24.5591 21.2922 23.4183 22.9234C22.3168 24.5158 21.5251 25.6 20.0695 27.2312C18.6533 28.8236 13.7904 33.1432 12.2561 34.6968C13.2003 34.5802 15.0222 34.4832 16.163 34.4055C17.3432 34.289 21.6583 34.2307 22.5631 34.2307H29V38H5.55856Z" fill="#FFE982"/>
</svg>
