<svg width="37" height="36" viewBox="0 0 37 36" fill="none" xmlns="http://www.w3.org/2000/svg">
<rect x="0.0152893" width="36" height="36" fill="white"/>
<path d="M34.9079 9.73828V18.9497C34.9079 19.5336 34.4347 20.0067 33.8508 20.0067H31.324V18.8088C31.324 18.2249 30.8508 17.7517 30.267 17.7517H29.069V10.6141C29.069 10.1309 29.4616 9.73828 29.9448 9.73828H34.9079Z" fill="#FFE982"/>
<path d="M12.267 24.3556C12.8509 24.3556 13.324 23.8825 13.324 23.2986V22.9764C13.324 22.4932 13.7167 22.1006 14.1999 22.1006H24.7099V23.2986C24.7099 23.8825 25.1831 24.3556 25.767 24.3556H26.965V34.6241H11.069V24.3556H12.267Z" fill="#FFE982"/>
<path d="M26.965 9.73828V17.7517H25.767C25.1831 17.7517 24.7099 18.2249 24.7099 18.8088V20.0067H13.324V18.8088C13.324 18.2249 12.8509 17.7517 12.267 17.7517H11.069V10.6141C11.069 10.1309 11.4616 9.73828 11.9448 9.73828H26.965Z" fill="#FFE982"/>
<path d="M4.01194 9.73828H8.96496V17.7517H7.76698C7.18308 17.7517 6.70993 18.2249 6.70993 18.8088V20.0067H4.18308C3.59919 20.0067 3.12604 19.5336 3.12604 18.9497V10.6141C3.12604 10.1309 3.51866 9.73828 4.01194 9.73828Z" fill="#FFE982"/>
<path d="M5.19984 22.1106H6.70991V23.3086C6.70991 23.8925 7.18306 24.3656 7.76696 24.3656H8.96494V34.624H4.32401V22.9864C4.32401 22.5032 4.71662 22.1106 5.19984 22.1106Z" fill="#FFE982"/>
<path d="M29.069 34.624V25.2415C29.069 24.7582 29.4616 24.3656 29.9448 24.3656H30.267C30.8508 24.3656 31.324 23.8925 31.324 23.3086V22.9864C31.324 22.5032 31.7166 22.1106 32.1998 22.1106H33.7099V34.624H29.069Z" fill="#FFE982"/>
<path d="M34.9482 6.62752H28.0623V6.55705C28.0623 5.97315 27.5891 5.5 27.0052 5.5C26.4213 5.5 25.9482 5.97315 25.9482 6.55705V6.62752H24.6797V2.05705C24.6797 1.47315 24.2066 1 23.6227 1H12.3878C11.8039 1 11.3307 1.47315 11.3307 2.05705V6.62752H10.0623V6.55705C10.0623 5.97315 9.58912 5.5 9.00522 5.5C8.42133 5.5 7.94818 5.97315 7.94818 6.55705V6.62752H1.07234C0.488444 6.62752 0.0152893 7.0906 0.0152893 7.6745V17.9329C0.0152893 18.9295 0.478377 19.8255 1.21328 20.4094V34.6644C1.21328 35.2483 1.68643 35.7215 2.27032 35.7215H33.7603C34.3442 35.7215 34.8173 35.2483 34.8173 34.6644V20.4094C35.5421 19.8255 36.0153 18.9396 36.0153 17.9329V7.6745C36.0052 7.0906 35.5321 6.62752 34.9482 6.62752ZM33.9012 8.73154V17.943C33.9012 18.5268 33.428 19 32.8442 19H30.3173V17.802C30.3173 17.2181 29.8442 16.745 29.2603 16.745H28.0623V8.73154H33.9012ZM7.8173 18.8591H10.2032V21.245H7.8173V18.8591ZM11.2603 23.349C11.8441 23.349 12.3173 22.8758 12.3173 22.2919V21.094H23.7032V22.2919C23.7032 22.8758 24.1764 23.349 24.7603 23.349H25.9582V33.6175H10.0623V23.349H11.2603ZM25.8173 21.245V18.8591H28.2032V21.245H25.8173ZM13.4448 3.10403H22.5858V6.61745H13.4448V3.10403ZM25.9582 8.73154V16.745H24.7603C24.1764 16.745 23.7032 17.2181 23.7032 17.802V19H12.3173V17.802C12.3173 17.2181 11.8441 16.745 11.2603 16.745H10.0623V8.73154H25.9582ZM2.11932 8.73154H7.95824V16.745H6.76026C6.17636 16.745 5.70321 17.2181 5.70321 17.802V19H3.17636C2.59247 19 2.11932 18.5268 2.11932 17.943V8.73154ZM3.3173 21.104H5.70321V22.302C5.70321 22.8859 6.17636 23.3591 6.76026 23.3591H7.95824V33.6175H3.3173V21.104ZM28.0623 33.6175V23.349H29.2603C29.8442 23.349 30.3173 22.8758 30.3173 22.2919V21.094H32.7032V33.6175H28.0623Z" fill="#00365C"/>
<path d="M14.069 30.6678H21.9415C22.5254 30.6678 22.9985 30.1947 22.9985 29.6108V25.1108C22.9985 24.5269 22.5254 24.0537 21.9415 24.0537H14.069C13.4851 24.0537 13.0119 24.5269 13.0119 25.1108V29.6108C13.022 30.1947 13.4952 30.6678 14.069 30.6678ZM15.126 26.1678H20.8945V28.5537H15.126V26.1678Z" fill="#F278AB"/>
<path d="M10.2032 18.8591H7.81729V21.245H10.2032V18.8591Z" fill="#F278AB"/>
<path d="M28.2032 18.8591H25.8173V21.245H28.2032V18.8591Z" fill="#F278AB"/>
</svg>
