<svg width="36" height="36" viewBox="0 0 36 36" fill="none" xmlns="http://www.w3.org/2000/svg">
<g clip-path="url(#clip0_969_20966)">
<path d="M25.7 27.9C27.1 27.5 28.6 27 29.7 27C30.6 27 31.2 27.3 31.5 27.6C29.1 28.8 22.5 32.1 19.6 32.1C17.8 32.1 13.9 30.8 9.10001 28.6L10.6 22.6L21.9 25.3C22.6 25.5 23.1 26.1 23.1 26.8C22.3 26.9 24.1 28.4 25.7 27.9Z" fill="#FFE982"/>
<path d="M31.3 24.8C29.7 24.8 27.8 25.4 26 26H25.6C25.3 24.4 24.2 23.1 22.6 22.8L9.5 19.6C9.6 19.2 9.4 18.7 9 18.4C8.9 18.3 6.2 16.6 1.1 16.6C0.5 16.6 0 17.1 0 17.7V31C0 31.6 0.5 32.1 1.1 32.1H5.5C6 32.1 6.4 31.8 6.5 31.3L6.6 30.9C10.8 32.8 16.4 35.1 19.5 35.1C24 35.1 34.3 29.7 35.5 29.1C36 28.9 36.2 28.3 36 27.8C35.9 27.6 34.9 24.8 31.3 24.8ZM7.2 19.9L4.7 29.9H2.1V18.8C4.6 19 6.3 19.5 7.2 19.9ZM21.3 27C18.6 27 14.7 25.6 14.7 25.6C14.2 25.4 13.5 25.7 13.3 26.2C13.1 26.8 13.4 27.4 13.9 27.6C14.1 27.7 18.2 29.1 21.3 29.1C22.9 29.1 24.8 28.5 26.6 27.9C28.2 27.4 29.9 26.8 31.2 26.8C32.3 26.8 32.9 27.2 33.3 27.5C30.4 29 22.7 32.7 19.4 32.7C17.2 32.7 12.8 31.2 7.1 28.6L8.9 21.6L22.1 24.8C22.9 25 23.5 25.7 23.5 26.5C22.6 26.9 21.9 27 21.3 27Z" fill="#00365C"/>
<path d="M23.1 15.7H20V3.70001H20.2H20.3L26.3 5.40001C26.5 5.50001 26.6 5.40001 26.7 5.40001C26.8 5.30001 26.9 5.20001 26.9 5.00001V4.20001V3.70001L27.1 3.80001H27.2L28.3 4.20001C29.5 4.60001 30.6 5.00001 31.8 5.40001C32 5.50001 32.1 5.60001 32.1 5.80001C32.1 8.90001 32.1 11.9 32.1 15V15.7H23.1Z" fill="#FFE982"/>
<path d="M29 13.3H23V17.4H29V13.3Z" fill="#F278AB"/>
<path d="M34.5 17.6L34.4 3.7L26.6 1V3.4L17.5 1.1V17.6H34.5Z" stroke="#00365C" stroke-width="2" stroke-miterlimit="10" stroke-linecap="round" stroke-linejoin="round"/>
<path d="M23.3 17.4V13.2H29.8V17.4" stroke="#00365C" stroke-width="2.1242" stroke-miterlimit="10" stroke-linecap="round" stroke-linejoin="round"/>
<path d="M20.8 7.39999C20.9 7.39999 31.1 7.39999 31.1 7.39999" stroke="#00365C" stroke-width="1.8016" stroke-miterlimit="10" stroke-linecap="round" stroke-linejoin="round"/>
</g>
<defs>
<clipPath id="clip0_969_20966">
<rect width="36" height="36" fill="white"/>
</clipPath>
</defs>
</svg>
