<svg width="36" height="36" viewBox="0 0 36 36" fill="none" xmlns="http://www.w3.org/2000/svg">
<path d="M33.1599 20.7301C33.1599 24.7301 31.9599 27.6401 29.5999 29.4301L20.9099 36.0001L12.2199 29.4301C9.84991 27.6401 8.65991 24.7101 8.65991 20.7201V8.62006C9.50047 8.7801 10.3543 8.86045 11.2099 8.86006C15.3999 8.86006 18.5299 6.69006 20.2099 5.53006C20.4399 5.37006 20.7099 5.18006 20.9099 5.06006C21.0999 5.18006 21.3799 5.37006 21.6099 5.54006C23.2899 6.70006 26.4199 8.86006 30.6099 8.86006C31.4689 8.86049 32.326 8.78014 33.1699 8.62006L33.1599 20.7301Z" fill="#FFE982"/>
<path d="M31.0799 3.58C30.9513 3.48401 30.8024 3.41877 30.6447 3.3893C30.4869 3.35983 30.3245 3.36691 30.1699 3.41C29.0943 3.72204 27.9799 3.88027 26.8599 3.88C23.3199 3.88 20.6499 2.03 19.0599 0.88C18.1899 0.33 17.7199 0 17.1699 0C16.6199 0 16.1699 0.33 15.2899 0.92C13.6899 2.03 11.0099 3.92 7.47991 3.92C6.35993 3.92027 5.24555 3.76204 4.16991 3.45C4.01363 3.40755 3.8498 3.40078 3.69055 3.43021C3.5313 3.45964 3.3807 3.5245 3.24991 3.62C3.12269 3.71782 3.01958 3.84349 2.9485 3.98738C2.87743 4.13126 2.84028 4.28952 2.83991 4.45V17.82C2.82366 19.7618 3.16257 21.6901 3.83991 23.51C4.51556 25.3641 5.70957 26.985 7.27991 28.18L16.5999 35.18C16.7799 35.3197 17.0021 35.3938 17.2299 35.39C17.4543 35.3915 17.6727 35.3176 17.8499 35.18L27.1699 28.18C28.7346 26.9816 29.9245 25.3615 30.5999 23.51C31.2602 21.687 31.5822 19.7587 31.5499 17.82V4.41C31.5419 4.24455 31.4952 4.08329 31.4135 3.93915C31.3319 3.79501 31.2177 3.672 31.0799 3.58ZM29.4199 17.82C29.4199 21.82 28.2199 24.74 25.8599 26.52L17.1799 33.1L8.47991 26.52C6.11991 24.74 4.91991 21.81 4.91991 17.82V5.72C5.76326 5.88902 6.61997 5.98273 7.47991 6C11.6599 6 14.7899 3.84 16.4799 2.68L17.1799 2.21L17.8899 2.68C19.5599 3.84 22.6899 6 26.8899 6C27.7484 5.99879 28.605 5.92183 29.4499 5.77L29.4199 17.82Z" fill="#00365C"/>
<path d="M24.8098 13.2499L22.9998 12.1999V10.3099C22.9998 10.0354 22.8908 9.77212 22.6967 9.57802C22.5026 9.38392 22.2393 9.27487 21.9648 9.27487C21.6903 9.27487 21.427 9.38392 21.2329 9.57802C21.0388 9.77212 20.9298 10.0354 20.9298 10.3099V10.9999L17.6798 9.17987C17.5278 9.09211 17.3553 9.0459 17.1798 9.0459C17.0043 9.0459 16.8318 9.09211 16.6798 9.17987L9.5098 13.3999C9.27522 13.4835 9.08027 13.6516 8.96309 13.8713C8.84591 14.091 8.81493 14.3466 8.87621 14.5879C8.93749 14.8293 9.08662 15.0391 9.29442 15.1763C9.50223 15.3136 9.75376 15.3683 9.9998 15.3299C10.187 15.3305 10.3707 15.2785 10.5298 15.1799L11.3098 14.7199V21.1799C11.3098 21.4451 11.4152 21.6994 11.6027 21.887C11.7902 22.0745 12.0446 22.1799 12.3098 22.1799H21.9998C22.265 22.1799 22.5194 22.0745 22.7069 21.887C22.8944 21.6994 22.9998 21.4451 22.9998 21.1799V14.5899L23.7998 15.0499C23.9171 15.1233 24.0484 15.1717 24.1854 15.1918C24.3223 15.2119 24.4619 15.2033 24.5954 15.1667C24.7289 15.13 24.8533 15.066 24.9608 14.9788C25.0683 14.8916 25.1565 14.783 25.2198 14.6599C25.2909 14.5417 25.3367 14.4101 25.3545 14.2733C25.3723 14.1366 25.3616 13.9976 25.3231 13.8652C25.2846 13.7328 25.2191 13.6098 25.1308 13.5039C25.0424 13.398 24.9332 13.3115 24.8098 13.2499ZM13.4298 20.1399V13.4899L17.1798 11.2899L20.9098 13.4099V20.1399H13.4298Z" fill="#00365C"/>
<path d="M13.4299 20.14V13.49L17.1799 11.29L20.9099 13.41V20.14H13.4299Z" fill="white"/>
<path d="M14.4199 19.2099V14.1299L17.2899 12.4399L20.1399 14.0599V19.2099H14.4199Z" fill="#F278AB"/>
</svg>
