<svg width="37" height="36" viewBox="0 0 37 36" fill="none" xmlns="http://www.w3.org/2000/svg">
<rect x="0.0012207" width="36" height="36" fill="white"/>
<path d="M30.2412 23.1001H18.2212V31.8501H30.2412V23.1001Z" fill="#FFE982"/>
<path d="M8.16113 7.60986V26.0399C8.29113 26.0499 8.38113 26.0399 8.50113 26.0399C10.2911 26.0399 9.85113 26.0199 12.0111 26.0599C14.0211 26.0999 14.1911 26.2099 14.1911 25.7999C14.1811 23.8299 14.1811 22.7999 14.1811 20.8299C14.1811 20.0099 15.2911 19.4899 16.0211 19.4899H17.9611C17.9811 19.3699 17.9911 19.3599 17.9711 19.2299C17.7911 18.1499 18.5011 17.1899 19.5911 17.0499C19.9411 16.9999 19.9611 16.9099 19.9611 16.7399C19.9611 13.6999 19.9611 10.6699 19.9611 7.62986L19.9411 7.60986H8.16113Z" fill="#FFE982"/>
<path d="M2.00122 1.59C2.00122 0.71 2.71122 0 3.59122 0H23.1212C24.3212 0 25.2312 0.85 25.2312 1.92C25.2312 7.32 25.2412 11.3 25.2312 16.7C25.2312 17.01 25.3012 17.15 25.6112 17.28C27.2812 17.95 28.2212 19.18 28.3812 20.99C28.3912 21.06 28.3912 21.12 28.4112 21.23H31.7212C32.7912 21.23 33.6612 22.1 33.6612 23.17V34.51C33.6612 35.33 32.9912 36 32.1712 36H16.1712C15.3512 36 14.6812 35.33 14.6812 34.51V33.93H4.06122C2.92122 33.93 2.00122 33.01 2.00122 31.88V1.59ZM4.12122 2.11V31.77C4.34122 31.79 4.48122 31.77 4.68122 31.77C7.56122 31.77 7.70122 31.74 11.1712 31.81C14.4112 31.88 14.6712 32.05 14.6712 31.39C14.6612 28.21 14.6612 26.57 14.6612 23.39C14.6612 22.08 15.5912 21.24 16.7712 21.24H19.9012C19.9312 21.05 19.9212 21.04 19.9212 20.82C19.9012 19.14 20.8212 17.91 22.5312 17.31C23.0612 17.12 23.1212 17.08 23.1212 16.81C23.1212 11.92 23.1212 7.03 23.1212 2.14C23.1112 2.13 23.1012 2.12 23.0912 2.11H4.12122ZM23.1012 30.71V29.67C20.9112 29.54 18.8012 29.22 16.8012 28.26V33.9H31.5312V28.26C29.5212 29.23 27.4112 29.53 25.2312 29.68V30.71C25.2312 31.3 24.7512 31.78 24.1612 31.78C23.5712 31.78 23.1012 31.3 23.1012 30.71ZM16.7912 23.38C16.7912 24.03 16.8012 24.65 16.7912 25.26C16.7812 25.63 16.9212 25.9 17.2212 26.06C17.7012 26.32 18.1912 26.59 18.7112 26.75C21.8912 27.75 25.1212 27.84 28.3512 27.1C29.2312 26.9 30.0812 26.54 30.9112 26.19C31.1712 26.08 31.5012 25.77 31.5312 25.52C31.6112 24.82 31.5612 24.11 31.5612 23.38H16.7912ZM26.2612 21.21C26.2412 20.01 25.2612 19.09 24.0812 19.13C22.9712 19.17 22.0212 20.16 22.1012 21.21H26.2612Z" fill="#00365C"/>
<path d="M10.4512 15.9599C10.4512 15.3899 10.9112 14.9199 11.4912 14.9199H19.9412C20.5112 14.9199 20.9812 15.3799 20.9812 15.9599C20.9812 16.5299 20.5212 16.9999 19.9412 16.9999H11.4912C10.9112 16.9999 10.4512 16.5399 10.4512 15.9599Z" fill="#00365C"/>
<path d="M20.9812 7.52023C20.9812 8.09023 20.5212 8.55023 19.9512 8.55023H11.4912C10.9212 8.55023 10.4612 8.09023 10.4612 7.52023C10.4612 6.95023 10.9212 6.49023 11.4912 6.49023H19.9412C20.5212 6.49023 20.9812 6.95023 20.9812 7.52023Z" fill="#00365C"/>
<path d="M10.4412 11.73C10.4412 11.17 10.9012 10.71 11.4612 10.71H19.9512C20.5112 10.71 20.9712 11.17 20.9712 11.73C20.9712 12.29 20.5112 12.75 19.9512 12.75H11.4612C10.8912 12.75 10.4412 12.3 10.4412 11.73Z" fill="#00365C"/>
<path d="M7.28121 8.55023C6.71121 8.55023 6.24121 8.09023 6.24121 7.52023C6.24121 6.95023 6.70121 6.49023 7.28121 6.49023C7.85121 6.49023 8.31121 6.95023 8.31121 7.52023C8.31121 8.09023 7.85121 8.55023 7.28121 8.55023Z" fill="#F278AB"/>
<path d="M7.28121 14.9302C7.85121 14.9302 8.32121 15.3902 8.32121 15.9702C8.32121 16.5402 7.86121 17.0102 7.28121 17.0102C6.70121 17.0102 6.24121 16.5502 6.24121 15.9702C6.24121 15.3902 6.71121 14.9302 7.28121 14.9302Z" fill="#00365C"/>
<path d="M8.31121 11.7302C8.31121 12.3002 7.85121 12.7602 7.28121 12.7602H7.27121C6.70121 12.7602 6.24121 12.3002 6.24121 11.7302C6.24121 11.1602 6.70121 10.7002 7.27121 10.7002H7.28121C7.85121 10.7002 8.31121 11.1602 8.31121 11.7302Z" fill="#00365C"/>
<path d="M26.2511 21.1901C26.2311 19.9901 25.2511 19.0701 24.0711 19.1101C22.9611 19.1501 22.0111 20.1401 22.0911 21.1901H26.2511Z" fill="#F278AB"/>
</svg>
