<svg width="36" height="36" viewBox="0 0 36 36" fill="none" xmlns="http://www.w3.org/2000/svg">
<path d="M29.19 7.41992H10.9V32.0199H29.19V7.41992Z" fill="#FFE982"/>
<path d="M7.57001 34.6199C7.57001 35.6199 7.91001 35.8999 8.86001 35.8999H31.19C32.14 35.8999 32.46 35.5799 32.46 34.6199V5.04987C32.46 4.11987 32.14 3.79987 31.19 3.79987H28.87C28.745 3.81072 28.6204 3.77512 28.52 3.69987C28.442 3.60086 28.4061 3.47514 28.42 3.34987C28.42 2.83987 28.42 2.34987 28.42 1.79987V1.35987C28.42 0.439868 28.08 0.0998676 27.16 0.0998676H4.67001C4.48845 0.0718454 4.30266 0.0976389 4.1356 0.17406C3.96854 0.250481 3.82753 0.37418 3.73001 0.529868C3.60392 0.787958 3.54216 1.07273 3.55001 1.35987C3.55001 4.36653 3.55001 7.36653 3.55001 10.3599V30.9999C3.55001 31.8499 3.89001 32.1899 4.76001 32.1899H7.17001C7.28399 32.1808 7.39747 32.2127 7.49001 32.2799C7.56131 32.3742 7.59354 32.4924 7.58001 32.6099C7.58001 33.1299 7.58001 33.6699 7.58001 34.1799L7.57001 34.6199ZM30.47 5.77987V33.9099H9.57001V5.77987H30.47ZM7.47001 30.1499C7.37312 30.2245 7.25185 30.2601 7.13001 30.2499H7.00001C6.69687 30.2345 6.39315 30.2345 6.09001 30.2499H5.51001V2.08987H26.44V3.79987H8.93001C7.87001 3.79987 7.58001 4.09987 7.58001 5.16987V29.6299C7.59519 29.7215 7.59055 29.8153 7.5664 29.905C7.54225 29.9947 7.49915 30.0782 7.44001 30.1499H7.47001Z" fill="#00365C"/>
<path d="M19.51 11.45C19.5186 11.3094 19.4975 11.1686 19.4479 11.0367C19.3983 10.9049 19.3215 10.785 19.2223 10.6849C19.1232 10.5848 19.004 10.5068 18.8727 10.456C18.7413 10.4052 18.6007 10.3827 18.46 10.39C16.9109 10.4425 15.4393 11.0799 14.3413 12.1739C13.2433 13.2678 12.6004 14.7371 12.5421 16.2859C12.4838 17.8348 13.0144 19.3482 14.027 20.5216C15.0397 21.695 16.4593 22.4412 18 22.61C18.8287 22.6899 19.665 22.598 20.4565 22.3399C21.248 22.0818 21.9777 21.6631 22.6 21.11C23.2255 20.5822 23.7343 19.93 24.0941 19.1948C24.4539 18.4597 24.6569 17.6578 24.69 16.84C24.7167 16.6644 24.7075 16.4852 24.6628 16.3133C24.6181 16.1414 24.5389 15.9804 24.43 15.84C24.2911 15.7274 24.1311 15.6437 23.9593 15.5939C23.7876 15.5441 23.6076 15.5292 23.43 15.55H19.51V11.45ZM21.18 17.45H22.5V17.57C22.275 18.4558 21.7577 19.2399 21.0318 19.7952C20.3059 20.3505 19.4138 20.6446 18.5 20.63H18.33C17.3126 20.5788 16.3479 20.1623 15.6131 19.4568C14.8782 18.7514 14.4226 17.8044 14.33 16.79C14.253 15.8302 14.518 14.8742 15.078 14.0909C15.638 13.3076 16.4569 12.7477 17.39 12.51H17.5V16.24C17.5 17.1 17.87 17.47 18.72 17.47L21.18 17.45Z" fill="#00365C"/>
<path d="M21.77 7.41993H21.68C21.3692 7.39476 21.0607 7.4916 20.82 7.68993C20.7127 7.81613 20.6317 7.96256 20.5819 8.12058C20.5321 8.27859 20.5144 8.44499 20.53 8.60993C20.53 10.1599 20.53 11.7599 20.53 13.3799C20.5062 13.5351 20.5193 13.6937 20.5682 13.8429C20.617 13.992 20.7004 14.1276 20.8114 14.2386C20.9224 14.3496 21.0579 14.4329 21.2071 14.4818C21.3563 14.5307 21.5149 14.5437 21.67 14.5199H26.56C26.7042 14.5292 26.8487 14.5071 26.9836 14.4552C27.1184 14.4033 27.2404 14.3228 27.3412 14.2192C27.4419 14.1156 27.519 13.9914 27.5671 13.8551C27.6153 13.7189 27.6333 13.5738 27.62 13.4299C27.5911 11.8724 26.9703 10.3842 25.8837 9.26789C24.7971 8.15156 23.3262 7.49082 21.77 7.41993ZM22.49 12.5299V9.60993H22.59C23.71 9.60993 25.24 11.1099 25.47 12.4199V12.5299H22.49Z" fill="#00365C"/>
<path d="M27.46 25.2299C27.2968 25.2199 27.1332 25.2199 26.97 25.2299H12.83C12.637 25.2144 12.443 25.2144 12.25 25.2299C12.0381 25.2673 11.8459 25.3778 11.7071 25.5423C11.5682 25.7067 11.4914 25.9146 11.49 26.1299C11.4749 26.3887 11.561 26.6433 11.73 26.8399C11.8426 26.9509 11.9775 27.0368 12.1257 27.092C12.274 27.1471 12.4322 27.1703 12.59 27.1599H27.39C27.6043 27.1104 27.7964 26.9917 27.9364 26.8221C28.0764 26.6525 28.1566 26.4415 28.1646 26.2217C28.1726 26.0019 28.1079 25.7856 27.9805 25.6063C27.8531 25.427 27.6702 25.2947 27.46 25.2299Z" fill="#00365C"/>
<path d="M11.48 30.3096C11.4677 30.4332 11.4807 30.5579 11.5183 30.6763C11.556 30.7946 11.6175 30.9039 11.699 30.9976C11.7804 31.0913 11.8803 31.1673 11.9922 31.221C12.1042 31.2746 12.226 31.3048 12.35 31.3096H24.64C25.54 31.3096 26.48 31.3096 27.4 31.3096C27.6264 31.308 27.8441 31.2221 28.0105 31.0686C28.1769 30.9151 28.2801 30.7051 28.3 30.4796C28.323 30.2609 28.2685 30.041 28.1461 29.8583C28.0237 29.6756 27.841 29.5416 27.63 29.4796C27.4372 29.4324 27.2381 29.4155 27.04 29.4296H13.23C12.95 29.4296 12.66 29.4296 12.37 29.4296C12.1388 29.4393 11.9194 29.5348 11.7548 29.6975C11.5903 29.8602 11.4923 30.0785 11.48 30.3096Z" fill="#00365C"/>
<path d="M22.49 12.5299V9.60986H22.59C23.71 9.60986 25.24 11.1099 25.47 12.4199V12.5299H22.49Z" fill="#F278AB"/>
<path d="M21.18 17.4898H22.5V17.6098C22.275 18.4956 21.7577 19.2796 21.0318 19.835C20.3059 20.3903 19.4138 20.6844 18.5 20.6698H18.33C17.3126 20.6186 16.3479 20.2021 15.6131 19.4966C14.8782 18.7912 14.4226 17.8442 14.33 16.8298C14.253 15.87 14.5179 14.9139 15.0779 14.1307C15.6379 13.3474 16.4569 12.7874 17.39 12.5498H17.5V16.2798C17.5 17.1398 17.87 17.5098 18.72 17.5098L21.18 17.4898Z" fill="#F278AB"/>
</svg>
