<svg width="36" height="36" viewBox="0 0 36 36" fill="none" xmlns="http://www.w3.org/2000/svg">
<g clip-path="url(#clip0_1397_20776)">
<path d="M24.44 3.79004H5.76997C5.11827 3.79004 4.58997 4.31834 4.58997 4.97004V17.6C4.58997 18.2517 5.11827 18.78 5.76997 18.78H24.44C25.0917 18.78 25.62 18.2517 25.62 17.6V4.97004C25.62 4.31834 25.0917 3.79004 24.44 3.79004Z" fill="#FFE982"/>
<path d="M12.81 25.22H10.81V22.65H11.35C11.5993 22.65 11.8384 22.551 12.0147 22.3747C12.191 22.1984 12.29 21.9593 12.29 21.71C12.29 21.4607 12.191 21.2216 12.0147 21.0453C11.8384 20.869 11.5993 20.77 11.35 20.77H2.42C2.27678 20.77 2.13943 20.7131 2.03816 20.6118C1.93689 20.5106 1.88 20.3732 1.88 20.23V3.16C1.88262 2.82133 2.01831 2.49728 2.25779 2.25779C2.49728 2.01831 2.82133 1.88262 3.16 1.88H26.9C27.2404 1.87999 27.567 2.01453 27.8087 2.25429C28.0503 2.49405 28.1874 2.81961 28.19 3.16V15C28.19 15.2493 28.289 15.4884 28.4653 15.6647C28.6416 15.841 28.8807 15.94 29.13 15.94C29.3793 15.94 29.6184 15.841 29.7947 15.6647C29.971 15.4884 30.07 15.2493 30.07 15V2.42C30.0674 1.77726 29.8102 1.16174 29.3547 0.708191C28.8993 0.254638 28.2827 -5.44234e-06 27.64 0H2.42C1.77899 0.00263253 1.16498 0.258441 0.71171 0.71171C0.258441 1.16498 0.00263253 1.77899 0 2.42V20.23C0.00263253 20.871 0.258441 21.485 0.71171 21.9383C1.16498 22.3916 1.77899 22.6474 2.42 22.65H8.9V25.22H8.36C8.1107 25.22 7.8716 25.319 7.69532 25.4953C7.51904 25.6716 7.42 25.9107 7.42 26.16C7.42 26.4093 7.51904 26.6484 7.69532 26.8247C7.8716 27.001 8.1107 27.1 8.36 27.1H12.81C13.0593 27.1 13.2984 27.001 13.4747 26.8247C13.651 26.6484 13.75 26.4093 13.75 26.16C13.75 25.9107 13.651 25.6716 13.4747 25.4953C13.2984 25.319 13.0593 25.22 12.81 25.22Z" fill="#00365C"/>
<path d="M35.72 32.3199L31.07 27.6699C30.8869 27.5068 30.6502 27.4167 30.405 27.4167C30.1598 27.4167 29.9231 27.5068 29.74 27.6699L29.37 28.0399L28.07 26.7399C29.2276 25.2793 29.8573 23.4702 29.8567 21.6065C29.8562 19.7428 29.2253 17.9341 28.0667 16.4743C26.9081 15.0144 25.2899 13.9893 23.475 13.5655C21.6601 13.1417 19.7553 13.3442 18.07 14.1399C16.8987 14.6837 15.874 15.499 15.081 16.5182C14.2879 17.5373 13.7493 18.7309 13.51 19.9999C13.1705 21.6605 13.3507 23.3855 14.0261 24.9401C14.7015 26.4947 15.8394 27.8035 17.285 28.6886C18.7306 29.5736 20.4137 29.9919 22.1054 29.8866C23.7971 29.7813 25.4154 29.1574 26.74 28.0999L28.04 29.3999L27.67 29.7699C27.5069 29.953 27.4168 30.1897 27.4168 30.4349C27.4168 30.6801 27.5069 30.9168 27.67 31.0999L32.33 35.7499C32.419 35.8347 32.5243 35.9005 32.6394 35.9435C32.7546 35.9864 32.8772 36.0056 33 35.9999C33.2505 35.9938 33.4896 35.8939 33.67 35.7199L35.74 33.6499C35.8261 33.5613 35.8939 33.4566 35.9394 33.3418C35.985 33.227 36.0075 33.1043 36.0057 32.9808C36.0038 32.8572 35.9776 32.7353 35.9286 32.6219C35.8796 32.5085 35.8087 32.4059 35.72 32.3199ZM28 21.6099C28.0013 22.4494 27.8369 23.2809 27.5163 24.0568C27.1956 24.8327 26.725 25.5376 26.1313 26.1313C25.5377 26.7249 24.8328 27.1955 24.0569 27.5162C23.281 27.8368 22.4495 28.0012 21.61 27.9999H21.51C19.8602 27.9449 18.2932 27.2642 17.1269 26.0961C15.9606 24.9279 15.2824 23.3598 15.23 21.7099C15.2194 20.8649 15.3766 20.0262 15.6923 19.2423C16.0081 18.4584 16.4762 17.745 17.0695 17.1432C17.6629 16.5415 18.3697 16.0635 19.1491 15.7367C19.9285 15.41 20.7649 15.2412 21.61 15.2399C22.4482 15.2373 23.2787 15.4001 24.0538 15.719C24.829 16.038 25.5336 16.5068 26.1272 17.0985C26.7208 17.6903 27.1918 18.3934 27.5132 19.1676C27.8346 19.9417 28 20.7717 28 21.6099ZM33.73 32.9999L32.99 33.7399L29.66 30.3999L30.41 29.6599L33.73 32.9999Z" fill="#00365C"/>
<path d="M20.4 8.52998C20.6297 8.23145 20.7871 7.8838 20.8599 7.51427C20.9328 7.14474 20.9191 6.76335 20.82 6.39998C20.7115 5.99307 20.497 5.62224 20.1983 5.32533C19.8996 5.02843 19.5275 4.81609 19.12 4.70998C18.7582 4.6117 18.3785 4.59847 18.0107 4.67133C17.643 4.74419 17.297 4.90117 17 5.12998C16.7056 5.35562 16.4675 5.64641 16.3044 5.97954C16.1413 6.31268 16.0577 6.67908 16.06 7.04998C16.0617 7.36199 16.1228 7.67081 16.24 7.95998L14.24 9.95998C13.9519 9.83897 13.6425 9.77664 13.33 9.77664C13.0175 9.77664 12.7081 9.83897 12.42 9.95998L10.33 7.99998C10.5601 7.43588 10.5601 6.80409 10.33 6.23998C10.1328 5.70633 9.75396 5.25919 9.25991 4.9771C8.76585 4.69501 8.18822 4.596 7.62842 4.69745C7.06862 4.79891 6.56247 5.09434 6.19884 5.53188C5.83521 5.96941 5.63735 6.52108 5.64001 7.08998C5.65466 7.40457 5.72934 7.71345 5.86001 7.99998L3.50001 10.31C3.41263 10.3973 3.34331 10.5009 3.29601 10.6151C3.24872 10.7292 3.22437 10.8515 3.22437 10.975C3.22437 11.0985 3.24872 11.2208 3.29601 11.3349C3.34331 11.449 3.41263 11.5527 3.50001 11.64C3.58576 11.7283 3.68836 11.7985 3.80172 11.8464C3.91509 11.8943 4.03693 11.919 4.16001 11.919C4.2831 11.919 4.40493 11.8943 4.5183 11.8464C4.63166 11.7985 4.73426 11.7283 4.82001 11.64L7.19001 9.28998C7.76958 9.52944 8.42044 9.52944 9.00001 9.28998L11.05 11.29C10.9179 11.614 10.8577 11.9628 10.8734 12.3123C10.8891 12.6618 10.9804 13.0038 11.1411 13.3146C11.3017 13.6254 11.5279 13.8977 11.8039 14.1127C12.0799 14.3277 12.3993 14.4803 12.74 14.56C12.9174 14.5992 13.0984 14.6193 13.28 14.62C13.6771 14.6212 14.0685 14.5247 14.4195 14.339C14.7705 14.1532 15.0705 13.8839 15.2928 13.5549C15.5151 13.2258 15.6531 12.847 15.6945 12.4521C15.7358 12.0571 15.6793 11.658 15.53 11.29L17.53 9.28998C18.0248 9.50008 18.5756 9.53943 19.0952 9.40181C19.6149 9.26419 20.074 8.95745 20.4 8.52998ZM17.94 7.04998C17.94 6.90677 17.9969 6.76942 18.0982 6.66815C18.1994 6.56688 18.3368 6.50998 18.48 6.50998C18.6232 6.50998 18.7606 6.56688 18.8618 6.66815C18.9631 6.76942 19.02 6.90677 19.02 7.04998C19.02 7.1932 18.9631 7.33055 18.8618 7.43182C18.7606 7.53309 18.6232 7.58998 18.48 7.58998C18.3368 7.58998 18.1994 7.53309 18.0982 7.43182C17.9969 7.33055 17.94 7.1932 17.94 7.04998ZM13.83 12.24C13.83 12.3832 13.7731 12.5206 13.6718 12.6218C13.5706 12.7231 13.4332 12.78 13.29 12.78C13.2191 12.78 13.1489 12.766 13.0834 12.7389C13.0178 12.7117 12.9583 12.672 12.9082 12.6218C12.858 12.5717 12.8182 12.5121 12.7911 12.4466C12.764 12.3811 12.75 12.3109 12.75 12.24C12.75 12.1691 12.764 12.0989 12.7911 12.0333C12.8182 11.9678 12.858 11.9083 12.9082 11.8581C12.9583 11.808 13.0178 11.7682 13.0834 11.7411C13.1489 11.714 13.2191 11.7 13.29 11.7C13.4332 11.7 13.5706 11.7569 13.6718 11.8581C13.7731 11.9594 13.83 12.0968 13.83 12.24ZM8.64001 7.04998C8.64001 7.1932 8.58312 7.33055 8.48185 7.43182C8.38058 7.53309 8.24323 7.58998 8.10001 7.58998C7.95586 7.59001 7.81746 7.53344 7.7146 7.43244C7.61173 7.33145 7.55263 7.19411 7.55001 7.04998C7.55001 6.90412 7.60796 6.76422 7.7111 6.66108C7.81425 6.55793 7.95414 6.49998 8.10001 6.49998C8.24414 6.50261 8.38148 6.56171 8.48247 6.66457C8.58346 6.76743 8.64004 6.90583 8.64001 7.04998Z" fill="#00365C"/>
<path d="M28 21.6098C28.0013 22.4493 27.8369 23.2809 27.5163 24.0567C27.1956 24.8326 26.725 25.5375 26.1314 26.1312C25.5377 26.7248 24.8328 27.1954 24.0569 27.5161C23.281 27.8368 22.4495 28.0011 21.61 27.9998H21.51C19.8602 27.9448 18.2932 27.2641 17.1269 26.096C15.9606 24.9278 15.2824 23.3597 15.23 21.7098C15.2194 20.8648 15.3766 20.0261 15.6923 19.2422C16.0081 18.4583 16.4762 17.7449 17.0696 17.1432C17.6629 16.5414 18.3697 16.0634 19.1491 15.7367C19.9285 15.4099 20.7649 15.2411 21.61 15.2398C22.4482 15.2372 23.2787 15.4 24.0538 15.719C24.829 16.0379 25.5336 16.5067 26.1272 17.0985C26.7208 17.6902 27.1918 18.3934 27.5132 19.1675C27.8346 19.9417 28 20.7716 28 21.6098Z" fill="white"/>
<path d="M8.10003 8.11998C8.69097 8.11998 9.17003 7.64093 9.17003 7.04998C9.17003 6.45904 8.69097 5.97998 8.10003 5.97998C7.50908 5.97998 7.03003 6.45904 7.03003 7.04998C7.03003 7.64093 7.50908 8.11998 8.10003 8.11998Z" fill="#F278AB"/>
<path d="M13.29 13.3099C13.8809 13.3099 14.36 12.8309 14.36 12.2399C14.36 11.649 13.8809 11.1699 13.29 11.1699C12.6991 11.1699 12.22 11.649 12.22 12.2399C12.22 12.8309 12.6991 13.3099 13.29 13.3099Z" fill="#F278AB"/>
<path d="M18.4799 7.58977C18.7781 7.58977 19.0199 7.348 19.0199 7.04977C19.0199 6.75154 18.7781 6.50977 18.4799 6.50977C18.1817 6.50977 17.9399 6.75154 17.9399 7.04977C17.9399 7.348 18.1817 7.58977 18.4799 7.58977Z" fill="#F278AB"/>
<path d="M26.11 21.6099C26.11 22.8043 25.6362 23.9499 24.7926 24.7954C23.949 25.6409 22.8044 26.1172 21.61 26.1199H21.54C20.3736 26.0847 19.2645 25.6057 18.4394 24.7805C17.6142 23.9553 17.1351 22.8463 17.1 21.6799C17.0921 21.0826 17.2028 20.4897 17.4259 19.9356C17.649 19.3814 17.98 18.8771 18.3995 18.452C18.8191 18.0268 19.319 17.6892 19.8701 17.4588C20.4213 17.2284 21.0127 17.1098 21.61 17.1099C22.8027 17.1152 23.9447 17.5927 24.7861 18.4379C25.6276 19.2831 26.1 20.4272 26.1 21.6199L26.11 21.6099Z" fill="#FFE982"/>
</g>
<defs>
<clipPath id="clip0_1397_20776">
<rect width="36" height="36" fill="white"/>
</clipPath>
</defs>
</svg>
