<svg width="36" height="36" viewBox="0 0 36 36" fill="none" xmlns="http://www.w3.org/2000/svg">
<g clip-path="url(#clip0_748_8707)">
<path d="M32.09 10.6401H3.9V32.5101H32.09V10.6401Z" fill="#FFE982"/>
<path d="M31.31 3.6001C31.1655 3.6029 31.023 3.6344 30.8909 3.69277C30.7587 3.75114 30.6394 3.83521 30.54 3.9401C30.4488 4.02997 30.3769 4.13754 30.3288 4.25619C30.2806 4.37484 30.2572 4.50208 30.26 4.6301C30.2765 4.8899 30.3872 5.13478 30.5712 5.31886C30.7553 5.50293 31.0002 5.61359 31.26 5.6301C31.4045 5.62729 31.547 5.59579 31.6791 5.53742C31.8113 5.47905 31.9306 5.39498 32.03 5.2901C32.205 5.10316 32.3017 4.85619 32.3 4.6001C32.2859 4.34117 32.1773 4.09641 31.9949 3.91213C31.8124 3.72785 31.5688 3.61684 31.31 3.6001Z" fill="#F278AB"/>
<path d="M27.34 3.6001C27.1955 3.6029 27.053 3.6344 26.9209 3.69277C26.7887 3.75114 26.6694 3.83521 26.57 3.9401C26.4788 4.02997 26.4069 4.13754 26.3588 4.25619C26.3106 4.37484 26.2872 4.50208 26.29 4.6301C26.3075 4.89816 26.4253 5.14981 26.6198 5.33507C26.8143 5.52033 27.0714 5.62565 27.34 5.6301C27.4837 5.63135 27.6259 5.60163 27.7571 5.54295C27.8882 5.48428 28.0052 5.39804 28.1 5.2901C28.1917 5.20058 28.2639 5.09308 28.3121 4.97435C28.3603 4.85561 28.3834 4.72819 28.38 4.6001C28.3649 4.33292 28.2493 4.08134 28.0564 3.89586C27.8635 3.71038 27.6076 3.60472 27.34 3.6001Z" fill="#F278AB"/>
<path d="M35 0.0500488H1.05C0.784786 0.0500488 0.530433 0.155406 0.342896 0.342942C0.15536 0.530478 0.0500031 0.784832 0.0500031 1.05005V35C0.0500031 35.2653 0.15536 35.5196 0.342896 35.7072C0.530433 35.8947 0.784786 36 1.05 36H35C35.2652 36 35.5196 35.8947 35.7071 35.7072C35.8946 35.5196 36 35.2653 36 35V1.05005C36 0.784832 35.8946 0.530478 35.7071 0.342942C35.5196 0.155406 35.2652 0.0500488 35 0.0500488ZM34 33.94H2.06V9.21005H33.94L34 33.94ZM34 7.20005H2.06V2.06005H33.94L34 7.20005Z" fill="#00365C"/>
<path d="M22.39 16.1001H29.75C30.0152 16.1001 30.2696 15.9947 30.4571 15.8072C30.6446 15.6197 30.75 15.3653 30.75 15.1001C30.75 14.8349 30.6446 14.5805 30.4571 14.393C30.2696 14.2055 30.0152 14.1001 29.75 14.1001H22.39C22.1248 14.1001 21.8704 14.2055 21.6829 14.393C21.4954 14.5805 21.39 14.8349 21.39 15.1001C21.39 15.3653 21.4954 15.6197 21.6829 15.8072C21.8704 15.9947 22.1248 16.1001 22.39 16.1001Z" fill="#00365C"/>
<path d="M22.39 20.4202H29.75C30.0152 20.4202 30.2696 20.3148 30.4571 20.1273C30.6446 19.9397 30.75 19.6854 30.75 19.4202C30.75 19.1549 30.6446 18.9006 30.4571 18.7131C30.2696 18.5255 30.0152 18.4202 29.75 18.4202H22.39C22.1248 18.4202 21.8704 18.5255 21.6829 18.7131C21.4954 18.9006 21.39 19.1549 21.39 19.4202C21.39 19.6854 21.4954 19.9397 21.6829 20.1273C21.8704 20.3148 22.1248 20.4202 22.39 20.4202Z" fill="#00365C"/>
<path d="M22.39 24.74H29.75C30.0152 24.74 30.2696 24.6346 30.4571 24.4471C30.6446 24.2596 30.75 24.0052 30.75 23.74C30.75 23.4748 30.6446 23.2204 30.4571 23.0329C30.2696 22.8453 30.0152 22.74 29.75 22.74H22.39C22.1248 22.74 21.8704 22.8453 21.6829 23.0329C21.4954 23.2204 21.39 23.4748 21.39 23.74C21.39 24.0052 21.4954 24.2596 21.6829 24.4471C21.8704 24.6346 22.1248 24.74 22.39 24.74Z" fill="#00365C"/>
<path d="M29.75 27.05H6.25C5.98478 27.05 5.73043 27.1554 5.54289 27.3429C5.35536 27.5305 5.25 27.7848 5.25 28.05C5.25 28.3153 5.35536 28.5696 5.54289 28.7572C5.73043 28.9447 5.98478 29.05 6.25 29.05H29.75C30.0152 29.05 30.2696 28.9447 30.4571 28.7572C30.6446 28.5696 30.75 28.3153 30.75 28.05C30.75 27.7848 30.6446 27.5305 30.4571 27.3429C30.2696 27.1554 30.0152 27.05 29.75 27.05Z" fill="#00365C"/>
<path d="M19.42 15.0901C19.42 14.8249 19.3146 14.5705 19.1271 14.383C18.9396 14.1954 18.6852 14.0901 18.42 14.0901H6.25C5.98478 14.0901 5.73043 14.1954 5.54289 14.383C5.35536 14.5705 5.25 14.8249 5.25 15.0901V24.0901C5.25 24.3553 5.35536 24.6097 5.54289 24.7972C5.73043 24.9847 5.98478 25.0901 6.25 25.0901H18.42C18.6852 25.0901 18.9396 24.9847 19.1271 24.7972C19.3146 24.6097 19.42 24.3553 19.42 24.0901V15.0901ZM17.42 23.0901H7.25V16.0901H17.41L17.42 23.0901Z" fill="#00365C"/>
<path d="M17.41 16.1001H7.25V23.0801H17.41V16.1001Z" fill="#F278AB"/>
</g>
<defs>
<clipPath id="clip0_748_8707">
<rect width="36" height="36" fill="white"/>
</clipPath>
</defs>
</svg>
