<svg width="37" height="36" viewBox="0 0 37 36" fill="none" xmlns="http://www.w3.org/2000/svg">
<g clip-path="url(#clip0_1147_26647)">
<path d="M5.48639 6.53979C5.21744 6.5333 4.9604 6.42757 4.76471 6.24296C4.56902 6.05835 4.44852 5.8079 4.42639 5.53979C4.41204 5.39261 4.42865 5.24406 4.47514 5.10369C4.52163 4.96332 4.59698 4.83422 4.69634 4.7247C4.7957 4.61519 4.91687 4.52767 5.05208 4.46778C5.18728 4.40789 5.33351 4.37695 5.48139 4.37695C5.62926 4.37695 5.7755 4.40789 5.9107 4.46778C6.0459 4.52767 6.16708 4.61519 6.26644 4.7247C6.3658 4.83422 6.44114 4.96332 6.48764 5.10369C6.53413 5.24406 6.55073 5.39261 6.53639 5.53979C6.51446 5.80623 6.39538 6.05533 6.20178 6.2397C6.00819 6.42408 5.75358 6.53088 5.48639 6.53979Z" fill="#00365C"/>
<path d="M31.6364 27.35V30.52C31.6364 31.28 31.6364 32.04 31.6364 32.79C31.6297 33.5427 31.3519 34.2677 30.8541 34.8323C30.3563 35.3968 29.6717 35.7631 28.9258 35.8639C28.1799 35.9647 27.4226 35.7934 26.7928 35.3813C26.1629 34.9692 25.7027 34.3439 25.4964 33.62C25.4022 33.2612 25.3585 32.891 25.3664 32.52C25.3664 30.82 25.3664 29.11 25.3664 27.35H3.36638C2.59657 27.3823 1.84236 27.1266 1.25076 26.633C0.65916 26.1394 0.272582 25.4432 0.166382 24.68C0.146199 24.4672 0.146199 24.2529 0.166382 24.04V3.42005C0.142453 2.98551 0.209403 2.55076 0.362958 2.14355C0.516513 1.73634 0.753298 1.36564 1.05819 1.0551C1.36309 0.744555 1.72939 0.501009 2.13371 0.340009C2.53803 0.179009 2.97148 0.104093 3.40638 0.120046H32.6264C33.0612 0.101452 33.495 0.173725 33.9003 0.33225C34.3056 0.490775 34.6733 0.732068 34.9801 1.04072C35.2869 1.34938 35.5259 1.71861 35.682 2.12484C35.838 2.53108 35.9076 2.96539 35.8864 3.40005V24.1C35.9032 24.5305 35.8309 24.9598 35.6742 25.361C35.5174 25.7623 35.2795 26.1268 34.9754 26.4319C34.6713 26.737 34.3074 26.976 33.9067 27.134C33.5059 27.2919 33.0769 27.3655 32.6464 27.35H31.6364ZM25.3464 25.26V19.55C25.3479 19.3125 25.385 19.0766 25.4564 18.85C26.1064 17.07 26.7764 15.29 27.4564 13.51C27.5024 13.2682 27.636 13.0519 27.8316 12.9025C28.0272 12.753 28.271 12.6809 28.5164 12.7C29.0064 12.7 29.3264 12.97 29.5164 13.55C30.1664 15.27 30.8264 17 31.4664 18.73C31.5662 19.0057 31.617 19.2968 31.6164 19.59C31.6164 21.32 31.6164 23.04 31.6164 24.77V25.26H32.4764C33.3864 25.26 33.7764 24.87 33.7764 23.94V10.62H2.21638V24C2.21638 24.91 2.60638 25.3 3.53638 25.3H25.3464V25.26ZM33.7764 8.48005C33.7764 8.38004 33.7764 8.30005 33.7764 8.23005C33.7764 6.60005 33.7764 4.98005 33.7764 3.36005C33.7859 3.2022 33.761 3.04417 33.7034 2.89692C33.6457 2.74967 33.5567 2.61672 33.4425 2.50731C33.3284 2.3979 33.1918 2.31464 33.0422 2.2633C32.8926 2.21197 32.7337 2.1938 32.5764 2.21005H3.42638C3.26231 2.19245 3.09637 2.212 2.94088 2.26724C2.78538 2.32248 2.6443 2.412 2.5281 2.52917C2.4119 2.64633 2.32354 2.78814 2.26958 2.94408C2.21562 3.10003 2.19744 3.26612 2.21638 3.43005V8.48005H33.7764ZM27.4564 20.4V29.55H29.4564V20.4H27.4564ZM27.4564 31.71C27.4564 32.1 27.4564 32.46 27.4564 32.81C27.4729 33.0699 27.5835 33.3147 27.7676 33.4988C27.9517 33.6829 28.1966 33.7935 28.4564 33.81C28.699 33.8124 28.9343 33.7265 29.1183 33.5683C29.3022 33.4101 29.4224 33.1903 29.4564 32.95C29.4564 32.56 29.4564 32.16 29.4564 31.74L27.4564 31.71ZM27.9364 18.24H29.0064L28.4464 16.74L27.9364 18.24Z" fill="#00365C"/>
<path d="M25.3463 25.2601H3.53631C2.60631 25.2601 2.21631 24.8701 2.21631 23.9601V10.6201H33.7963V23.9401C33.7963 24.8701 33.4063 25.2601 32.4963 25.2601H31.6363V24.7701C31.6363 23.0401 31.6363 21.3201 31.6363 19.5901C31.6369 19.2969 31.5862 19.0058 31.4863 18.7301C30.8463 17.0001 30.1863 15.2701 29.5363 13.5501C29.3263 12.9701 29.0063 12.7001 28.5363 12.7001C28.2909 12.681 28.0471 12.7531 27.8515 12.9025C27.6559 13.052 27.5223 13.2683 27.4763 13.5101C26.8063 15.2901 26.1363 17.0701 25.4763 18.8501C25.4049 19.0767 25.3678 19.3126 25.3663 19.5501V25.2601H25.3463ZM13.8263 12.6901H5.72631C5.57001 12.6749 5.41261 12.6749 5.25631 12.6901C5.06332 12.7186 4.88287 12.8028 4.73717 12.9325C4.59147 13.0622 4.48689 13.2317 4.43631 13.4201C4.37034 13.5958 4.36294 13.7881 4.4152 13.9683C4.46746 14.1485 4.57659 14.307 4.72631 14.4201C5.02294 14.6162 5.37074 14.7205 5.72631 14.7201C10.5163 14.7201 15.3063 14.7201 20.0963 14.7201C20.8163 14.7201 21.5363 14.7201 22.2463 14.7201C22.5248 14.7201 22.7919 14.6095 22.9888 14.4126C23.1857 14.2157 23.2963 13.9486 23.2963 13.6701C23.2963 13.3916 23.1857 13.1246 22.9888 12.9277C22.7919 12.7307 22.5248 12.6201 22.2463 12.6201H13.8263V12.6901ZM13.8263 21.0601H5.47631C5.23234 21.0406 4.98969 21.1113 4.79434 21.2588C4.59898 21.4062 4.46448 21.6202 4.41631 21.8601C4.35684 22.0764 4.37185 22.3065 4.45891 22.5132C4.54596 22.72 4.70002 22.8915 4.89631 23.0001C5.13605 23.106 5.39428 23.1638 5.65631 23.1701H22.1763C22.4548 23.1701 22.7219 23.0595 22.9188 22.8626C23.1157 22.6657 23.2263 22.3986 23.2263 22.1201C23.2263 21.8416 23.1157 21.5746 22.9188 21.3777C22.7219 21.1807 22.4548 21.0701 22.1763 21.0701H13.8563L13.8263 21.0601ZM13.7963 19.0001H22.1363C22.32 19.0237 22.5066 18.9958 22.6754 18.9195C22.8442 18.8432 22.9884 18.7216 23.0921 18.5681C23.1958 18.4146 23.2548 18.2354 23.2626 18.0504C23.2705 17.8653 23.2267 17.6818 23.1363 17.5201C23.0402 17.3073 22.879 17.1306 22.6758 17.0156C22.4727 16.9005 22.2382 16.8531 22.0063 16.8801H5.47631C5.25415 16.8817 5.03809 16.953 4.85865 17.0839C4.67921 17.2149 4.54547 17.399 4.47631 17.6101C4.40493 17.7735 4.37852 17.953 4.39983 18.13C4.42114 18.307 4.48938 18.4751 4.59749 18.6169C4.70561 18.7586 4.84966 18.8689 5.01472 18.9363C5.17979 19.0037 5.35987 19.0257 5.53631 19.0001H13.7963Z" fill="#FFE982"/>
<path d="M27.4563 20.3999H29.4563V29.5499H27.4563V20.3999Z" fill="#F278AB"/>
<path d="M27.4363 31.71H29.5063C29.5063 32.13 29.5063 32.53 29.5063 32.92C29.4724 33.1602 29.3522 33.38 29.1682 33.5382C28.9842 33.6964 28.749 33.7823 28.5063 33.78C28.2465 33.7635 28.0017 33.6528 27.8176 33.4687C27.6335 33.2846 27.5228 33.0398 27.5063 32.78C27.4163 32.46 27.4363 32.1 27.4363 31.71Z" fill="white"/>
<path d="M27.9164 18.2402L28.4864 16.7402L29.0464 18.2402H27.9164Z" fill="white"/>
<path d="M13.8264 12.6899H22.2064C22.4848 12.6899 22.7519 12.8006 22.9488 12.9975C23.1457 13.1944 23.2564 13.4615 23.2564 13.7399C23.2564 14.0184 23.1457 14.2855 22.9488 14.4824C22.7519 14.6793 22.4848 14.7899 22.2064 14.7899C21.4964 14.7899 20.7764 14.7899 20.0564 14.7899C15.2664 14.7899 10.4764 14.7899 5.68636 14.7899C5.33079 14.7903 4.98299 14.686 4.68636 14.4899C4.53664 14.3768 4.42751 14.2183 4.37525 14.0381C4.32298 13.8579 4.33039 13.6656 4.39636 13.4899C4.44694 13.3015 4.55152 13.1321 4.69722 13.0024C4.84292 12.8726 5.02337 12.7884 5.21636 12.7599C5.37265 12.7448 5.53006 12.7448 5.68636 12.7599L13.8264 12.6899Z" fill="#00365C"/>
<path d="M13.8564 21.0601H22.1964C22.4748 21.0601 22.7419 21.1707 22.9388 21.3676C23.1357 21.5645 23.2464 21.8316 23.2464 22.1101C23.2464 22.3885 23.1357 22.6556 22.9388 22.8525C22.7419 23.0494 22.4748 23.1601 22.1964 23.1601H5.65635C5.395 23.1569 5.1368 23.1025 4.89635 23.0001C4.70211 22.8919 4.54946 22.722 4.46253 22.5174C4.3756 22.3127 4.35935 22.085 4.41635 21.8701C4.46453 21.6301 4.59903 21.4161 4.79439 21.2687C4.98974 21.1213 5.23238 21.0506 5.47635 21.0701H13.8564V21.0601Z" fill="#00365C"/>
<path d="M13.7963 19.0001H5.53629C5.3605 19.031 5.17964 19.0142 5.0125 18.9516C4.84535 18.889 4.69801 18.7828 4.58577 18.644C4.47353 18.5053 4.40047 18.339 4.37419 18.1624C4.3479 17.9859 4.36934 17.8055 4.43629 17.6401C4.50545 17.429 4.63919 17.2449 4.81863 17.1139C4.99807 16.9829 5.21413 16.9116 5.43629 16.9101H22.0063C22.2316 16.885 22.4592 16.9301 22.6579 17.0393C22.8566 17.1485 23.0167 17.3164 23.1163 17.5201C23.2067 17.6817 23.2504 17.8653 23.2426 18.0503C23.2348 18.2354 23.1758 18.4146 23.0721 18.5681C22.9684 18.7215 22.8242 18.8432 22.6554 18.9195C22.4866 18.9957 22.3 19.0237 22.1163 19.0001H13.7963Z" fill="#00365C"/>
<path d="M13.8064 4.32014C14.0781 4.31724 14.3404 4.41982 14.5381 4.60631C14.7358 4.7928 14.8534 5.04868 14.8664 5.32014C14.8664 5.59861 14.7557 5.86569 14.5588 6.0626C14.3619 6.25951 14.0948 6.37014 13.8164 6.37014C13.5379 6.37014 13.2708 6.25951 13.0739 6.0626C12.877 5.86569 12.7664 5.59861 12.7664 5.32014C12.7662 5.18538 12.7934 5.05199 12.8461 4.92798C12.8989 4.80397 12.9761 4.6919 13.0732 4.5985C13.1704 4.5051 13.2854 4.4323 13.4114 4.38446C13.5374 4.33663 13.6717 4.31475 13.8064 4.32014Z" fill="#00365C"/>
<path d="M10.6664 5.36006C10.6566 5.55541 10.5897 5.74361 10.4741 5.90135C10.3584 6.05909 10.199 6.17945 10.0157 6.24753C9.83229 6.31561 9.63298 6.32842 9.44241 6.28437C9.25183 6.24032 9.07836 6.14135 8.94346 5.99971C8.80857 5.85807 8.71817 5.67998 8.68347 5.48749C8.64876 5.29499 8.67127 5.09655 8.74821 4.91671C8.82515 4.73688 8.95314 4.58356 9.11633 4.47573C9.27952 4.36791 9.47075 4.3103 9.66635 4.31006C9.93607 4.32292 10.1905 4.43919 10.3767 4.63473C10.5629 4.83027 10.6667 5.09003 10.6664 5.36006Z" fill="#00365C"/>
</g>
<defs>
<clipPath id="clip0_1147_26647">
<rect width="36" height="36" fill="white" transform="translate(0.00634766)"/>
</clipPath>
</defs>
</svg>
