<svg width="36" height="37" viewBox="0 0 36 37" fill="none" xmlns="http://www.w3.org/2000/svg">
<path d="M32.86 29.2056L25.64 32.0956V17.7856L32.86 14.8956V29.2056Z" fill="#FFE982"/>
<path d="M28.12 18.4256C25.67 15.5156 22.5 11.0456 22.5 8.89561C22.5612 7.44481 23.1806 6.07374 24.2288 5.06882C25.277 4.0639 26.6729 3.50284 28.125 3.50284C29.5771 3.50284 30.973 4.0639 32.0212 5.06882C33.0694 6.07374 33.6888 7.44481 33.75 8.89561C33.75 10.9956 30.58 15.5156 28.12 18.4256Z" fill="white"/>
<path d="M28.12 16.4956C26.17 14.1656 23.64 10.6056 23.64 8.8956C23.64 7.70213 24.1141 6.55753 24.958 5.71362C25.8019 4.86971 26.9465 4.3956 28.14 4.3956C29.3335 4.3956 30.4781 4.86971 31.322 5.71362C32.1659 6.55753 32.64 7.70213 32.64 8.8956C32.61 10.6056 30.08 14.1656 28.12 16.4956Z" fill="#F278AB"/>
<path d="M35.9 31.3656V17.8656C35.9 17.6004 35.7947 17.346 35.6071 17.1585C35.4196 16.971 35.1652 16.8656 34.9 16.8656C34.6348 16.8656 34.3804 16.971 34.1929 17.1585C34.0054 17.346 33.9 17.6004 33.9 17.8656V30.6756H33.84L24.7 34.3256V22.3256C24.7 22.0604 24.5947 21.806 24.4071 21.6185C24.2196 21.431 23.9652 21.3256 23.7 21.3256C23.4348 21.3256 23.1804 21.431 22.9929 21.6185C22.8054 21.806 22.7 22.0604 22.7 22.3256V34.3256L22.56 34.2656L13.4 30.6756V12.6756L18.75 14.8156C18.9379 14.9036 19.1484 14.931 19.3525 14.894C19.5566 14.857 19.7442 14.7575 19.8892 14.6091C20.0342 14.4608 20.1295 14.2711 20.1619 14.0662C20.1943 13.8613 20.1622 13.6514 20.07 13.4656C20.0186 13.3409 19.9425 13.2279 19.8462 13.1334C19.75 13.0388 19.6356 12.9648 19.51 12.9156L12.78 10.2156C12.6566 10.1633 12.524 10.1364 12.39 10.1364C12.256 10.1364 12.1234 10.1633 12 10.2156L0.740013 14.6656C0.548868 14.7393 0.384979 14.87 0.270514 15.0399C0.156049 15.2098 0.0965317 15.4108 0.100013 15.6156V35.8656C0.0843125 36.0398 0.114603 36.2152 0.187858 36.374C0.261114 36.5329 0.374771 36.6698 0.517479 36.771C0.660187 36.8722 0.826952 36.9342 1.00112 36.9508C1.17528 36.9674 1.35076 36.938 1.51001 36.8656L12.38 32.5256L23.18 36.8456C23.3034 36.8979 23.436 36.9248 23.57 36.9248C23.704 36.9248 23.8366 36.8979 23.96 36.8456L35.19 32.3556C35.4009 32.2918 35.5848 32.1602 35.7132 31.9812C35.8416 31.8022 35.9072 31.5858 35.9 31.3656ZM11.35 30.6756H11.29L2.15001 34.3556V16.3556H2.21001L11.35 12.7056V30.6756Z" fill="#00365C"/>
<path d="M28.12 5.59561C27.4709 5.59561 26.8363 5.78824 26.2967 6.14909C25.7571 6.50995 25.3367 7.02281 25.0887 7.62273C24.8408 8.22266 24.7764 8.88267 24.9038 9.5192C25.0312 10.1557 25.3445 10.7401 25.8043 11.1985C26.264 11.6568 26.8494 11.9684 27.4863 12.0938C28.1232 12.2192 28.783 12.1528 29.3822 11.9031C29.9813 11.6533 30.4929 11.2313 30.8521 10.6906C31.2113 10.1499 31.402 9.51476 31.4 8.86561C31.3974 7.99744 31.0506 7.16572 30.4358 6.55276C29.821 5.9398 28.9882 5.59561 28.12 5.59561ZM28.12 10.0956C27.8767 10.0956 27.6389 10.0235 27.4367 9.88832C27.2344 9.75317 27.0767 9.56106 26.9836 9.33631C26.8905 9.11156 26.8662 8.86425 26.9136 8.62565C26.9611 8.38705 27.0783 8.16789 27.2503 7.99587C27.4223 7.82385 27.6415 7.70671 27.8801 7.65925C28.1186 7.61179 28.366 7.63614 28.5907 7.72924C28.8155 7.82234 29.0076 7.97999 29.1427 8.18226C29.2779 8.38453 29.35 8.62234 29.35 8.86561C29.35 9.19183 29.2204 9.50468 28.9898 9.73535C28.7591 9.96602 28.4462 10.0956 28.12 10.0956Z" fill="#00365C"/>
<path d="M28.12 1.09561C26.0601 1.09826 24.0853 1.91773 22.6287 3.37431C21.1721 4.8309 20.3527 6.80569 20.35 8.86561C20.35 12.8656 26.64 20.0056 27.35 20.8056C27.4439 20.9171 27.561 21.0067 27.6931 21.0682C27.8253 21.1297 27.9693 21.1616 28.115 21.1616C28.2608 21.1616 28.4047 21.1297 28.5369 21.0682C28.669 21.0067 28.7861 20.9171 28.88 20.8056C29.59 20.0056 35.88 12.8556 35.88 8.86561C35.8747 6.80823 35.0558 4.83647 33.6019 3.38074C32.1481 1.92501 30.1774 1.10353 28.12 1.09561ZM28.2 18.4656L28.12 18.5556L28.05 18.4656C25.44 15.3756 22.4 10.9956 22.4 8.86561C22.4617 7.38865 23.0919 5.99269 24.1588 4.96946C25.2257 3.94624 26.6467 3.37493 28.125 3.37493C29.6033 3.37493 31.0243 3.94624 32.0912 4.96946C33.1581 5.99269 33.7883 7.38865 33.85 8.86561C33.85 10.9956 30.81 15.3756 28.2 18.4656Z" fill="#00365C"/>
<path d="M10.36 29.2056L3.14001 32.0956V17.7856L10.36 14.8956V29.2056Z" fill="#FFE982"/>
<path d="M14.39 29.2056L21.61 32.0956V17.7856L14.39 14.8956V29.2056Z" fill="#FFE982"/>
<path d="M28.12 10.0856C28.7938 10.0856 29.34 9.53939 29.34 8.8656C29.34 8.19181 28.7938 7.6456 28.12 7.6456C27.4462 7.6456 26.9 8.19181 26.9 8.8656C26.9 9.53939 27.4462 10.0856 28.12 10.0856Z" fill="white"/>
</svg>
