<svg width="36" height="36" viewBox="0 0 36 36" fill="none" xmlns="http://www.w3.org/2000/svg">
<rect width="36" height="36" fill="white"/>
<path d="M6.28363 24.1035C4.54153 24.1035 3.12167 22.6836 3.12167 20.9415V16.7222C3.12167 14.9801 4.54153 13.5401 6.28363 13.5401H13.6649V24.1035H6.28363Z" fill="#FFE982"/>
<path d="M26.4738 29.4103L22.9393 26.8425C20.8649 25.2917 18.3575 24.3452 15.7695 24.1438V15.111C15.7695 14.2249 16.4039 13.4797 17.28 13.3085C19.3141 12.9259 21.2576 12.08 22.9192 10.8515L26.4738 8.2937V29.4103Z" fill="#FFE982"/>
<path d="M30.6931 31.4847C30.6931 32.0688 30.2098 32.5421 29.6257 32.5421C29.0417 32.5421 28.5684 32.0688 28.5684 31.4847V6.16895C28.5684 5.58489 29.0417 5.1116 29.6257 5.1116C30.2098 5.1116 30.6931 5.58489 30.6931 6.16895V31.4847Z" fill="#FFE982"/>
<path d="M9.49594 14.6579H5.27664C4.69259 14.6579 4.2193 15.1312 4.2193 15.7153C4.2193 16.2993 4.69259 16.7525 5.27664 16.7525H9.49594C10.08 16.7525 10.5533 16.2993 10.5533 15.7153C10.5432 15.1312 10.0699 14.6579 9.49594 14.6579Z" fill="#F278AB"/>
<path d="M9.49594 18.8772H5.27664C4.69259 18.8772 4.2193 19.3505 4.2193 19.9346C4.2193 20.5186 4.69259 20.9718 5.27664 20.9718H9.49594C10.08 20.9718 10.5533 20.5186 10.5533 19.9346C10.5432 19.3505 10.0699 18.8772 9.49594 18.8772Z" fill="#F278AB"/>
<path d="M31.7807 12.654V5.16196C31.7807 3.41986 30.3608 2 28.6187 2C27.0478 2 25.7387 3.15804 25.4971 4.65846L20.6736 8.14266L20.6635 8.15273C18.6797 9.62294 16.2227 10.4386 13.7455 10.4386H5.27664C2.36643 10.4386 0 12.805 0 15.7152V19.9345C0 22.8448 2.36643 25.2112 5.27664 25.2112L6.33399 25.2011V32.6025C6.33399 34.3446 7.75385 35.7645 9.49594 35.7645C11.238 35.7645 12.6579 34.3446 12.6579 32.6025V29.4406H13.7152C15.4573 29.4406 16.8772 28.0207 16.8772 26.2786V25.6643C18.2366 26.0571 19.5357 26.6915 20.6736 27.5373L20.6836 27.5474L25.5071 31.0719C25.779 32.5421 27.068 33.6599 28.6187 33.6599C30.3608 33.6599 31.7807 32.24 31.7807 30.4979V23.0059C34.1874 22.5124 36 20.3877 36 17.84C36 15.2722 34.1874 13.1474 31.7807 12.654ZM10.5432 32.5824C10.5432 33.1664 10.0699 33.6397 9.48588 33.6397C8.90182 33.6397 8.42853 33.1664 8.42853 32.5824V25.181H10.5331V32.5824H10.5432ZM5.27664 23.0965C3.53455 23.0965 2.11469 21.6766 2.11469 19.9345V15.7152C2.11469 13.9731 3.53455 12.5331 5.27664 12.5331H12.6579V23.0965H5.27664ZM14.7625 26.2585C14.7625 26.8425 14.2892 27.3158 13.7052 27.3158H12.6478V25.191C13.7656 25.191 14.0979 25.191 14.7524 25.2515V26.2585H14.7625ZM25.4669 28.4034L21.9323 25.8355C19.8579 24.2848 17.3505 23.3382 14.7625 23.1368V12.513C17.3304 12.3217 19.8378 11.3952 21.9122 9.85455L25.4669 7.29678V28.4034ZM29.6862 30.4778C29.6862 31.0618 29.2028 31.5351 28.6187 31.5351C28.0347 31.5351 27.5614 31.0618 27.5614 30.4778V5.16196C27.5614 4.5779 28.0347 4.10462 28.6187 4.10462C29.2028 4.10462 29.6862 4.5779 29.6862 5.16196V30.4778ZM31.7807 20.8006V14.8392C33.0092 15.2722 33.8954 16.4503 33.8954 17.8199C33.8954 19.1994 33.0092 20.3676 31.7807 20.8006Z" fill="#00365C"/>
<path d="M31.7807 20.8006V14.8392C33.0092 15.2722 33.8954 16.4503 33.8954 17.8199C33.8954 19.1994 33.0092 20.3676 31.7807 20.8006Z" fill="#F278AB"/>
</svg>
