<svg width="36" height="37" viewBox="0 0 36 37" fill="none" xmlns="http://www.w3.org/2000/svg">
<rect y="0.995605" width="36" height="36" fill="white"/>
<path d="M18.21 31.1856C24.9423 31.1856 30.4 25.728 30.4 18.9956C30.4 12.2633 24.9423 6.8056 18.21 6.8056C11.4776 6.8056 6.02 12.2633 6.02 18.9956C6.02 25.728 11.4776 31.1856 18.21 31.1856Z" fill="#FFE982"/>
<path d="M16.67 26.5556H10C9.83485 26.5834 9.66544 26.5714 9.50591 26.5204C9.34637 26.4695 9.20134 26.3811 9.08291 26.2627C8.96449 26.1443 8.87611 25.9992 8.82516 25.8397C8.7742 25.6801 8.76215 25.5107 8.79 25.3456C8.79 22.5723 8.79 19.7956 8.79 17.0156C8.79 16.1856 9.16 15.8156 9.99 15.8156C11.18 15.8156 12.37 15.8156 13.56 15.8156C13.7866 15.8033 14.005 15.727 14.19 15.5956C14.549 15.3303 14.8397 14.9833 15.038 14.5834C15.2362 14.1834 15.3363 13.742 15.33 13.2956C15.33 12.2956 15.33 11.3756 15.33 10.4256C15.3073 10.2733 15.3201 10.1178 15.3674 9.9712C15.4147 9.82464 15.4952 9.69098 15.6026 9.58064C15.71 9.4703 15.8415 9.38627 15.9868 9.33509C16.132 9.28391 16.2871 9.26697 16.44 9.28559C17.2387 9.25016 18.0389 9.29034 18.83 9.40559C19.6218 9.56913 20.3355 9.99445 20.8562 10.613C21.3768 11.2316 21.674 12.0075 21.7 12.8156C21.7 13.3456 21.7 13.8756 21.7 14.4056C21.7 14.6556 21.78 14.7356 22.03 14.7356H24.47C25.2803 14.7132 26.0677 15.0061 26.6664 15.5526C27.2652 16.0991 27.6285 16.8566 27.68 17.6656C27.704 18.0011 27.677 18.3382 27.6 18.6656C27.22 20.4056 26.84 22.1356 26.45 23.8756C26.3251 24.6446 25.9198 25.34 25.3121 25.8276C24.7045 26.3152 23.9378 26.5603 23.16 26.5156H16.67V26.5556ZM15.15 24.4956H15.57H23.05C23.218 24.5224 23.3898 24.5138 23.5544 24.4703C23.7189 24.4267 23.8725 24.3493 24.0052 24.2428C24.138 24.1364 24.2471 24.0034 24.3254 23.8523C24.4037 23.7012 24.4496 23.5354 24.46 23.3656L25.6 18.2956C25.6598 18.1093 25.6728 17.9111 25.6378 17.7186C25.6028 17.5261 25.5208 17.3452 25.3992 17.1919C25.2776 17.0386 25.12 16.9177 24.9405 16.8399C24.761 16.762 24.565 16.7296 24.37 16.7456H20.8C20.6431 16.7716 20.4823 16.7598 20.3309 16.7112C20.1795 16.6626 20.0419 16.5786 19.9294 16.4661C19.817 16.3537 19.733 16.2161 19.6844 16.0647C19.6358 15.9133 19.624 15.7525 19.65 15.5956V13.1956C19.6715 12.9044 19.6214 12.6123 19.5041 12.3449C19.3869 12.0775 19.2059 11.8428 18.9772 11.6614C18.7484 11.4799 18.4787 11.3572 18.1916 11.3039C17.9044 11.2506 17.6087 11.2683 17.33 11.3556C17.33 12.0056 17.33 12.6556 17.33 13.3556C17.3327 14.1151 17.16 14.8649 16.8252 15.5466C16.4904 16.2283 16.0027 16.8234 15.4 17.2856C15.2663 17.4073 15.184 17.5754 15.17 17.7556C15.17 19.0456 15.17 20.3356 15.17 21.6256L15.15 24.4956ZM13.09 24.4956V17.8656H10.83V24.5056L13.09 24.4956Z" fill="#00365C"/>
<path d="M13.09 24.5056V17.8656H10.83V24.5056H13.09Z" fill="#F278AB"/>
<path d="M18 36.9956C14.4399 36.9956 10.9598 35.9399 7.99974 33.9621C5.03965 31.9842 2.73255 29.173 1.37017 25.8839C0.00779152 22.5948 -0.348669 18.9756 0.345865 15.484C1.0404 11.9923 2.75473 8.78502 5.27208 6.26768C7.78942 3.75033 10.9967 2.036 14.4884 1.34146C17.98 0.646929 21.5992 1.00339 24.8883 2.36577C28.1774 3.72814 30.9886 6.03525 32.9665 8.99533C34.9443 11.9554 36 15.4355 36 18.9956C36 23.7695 34.1036 28.3479 30.7279 31.7235C27.3523 35.0992 22.7739 36.9956 18 36.9956ZM18 3.1256C14.8612 3.1256 11.7929 4.05636 9.1831 5.80018C6.57329 7.54399 4.5392 10.0225 3.33803 12.9224C2.13687 15.8223 1.82259 19.0132 2.43494 22.0917C3.04729 25.1702 4.55876 27.9979 6.77822 30.2174C8.99767 32.4368 11.8254 33.9483 14.9039 34.5607C17.9824 35.173 21.1733 34.8587 24.0732 33.6576C26.9731 32.4564 29.4516 30.4223 31.1954 27.8125C32.9392 25.2027 33.87 22.1344 33.87 18.9956C33.8647 14.7882 32.191 10.7547 29.2159 7.77966C26.2409 4.8046 22.2074 3.13089 18 3.1256Z" fill="#00365C"/>
</svg>
