<svg width="36" height="37" viewBox="0 0 36 37" fill="none" xmlns="http://www.w3.org/2000/svg">
<path d="M23.619 15.8088L24.4881 16.7103C26.6608 18.9642 26.6608 22.6832 24.4881 24.9371L22.5326 26.9656L17.7525 22.007L23.619 15.8088Z" fill="#FFE982"/>
<path d="M12.4294 17.1613L9.82204 19.866C7.32336 22.458 7.32336 26.6277 9.82204 29.2197C12.3207 31.8116 16.3403 31.8116 18.839 29.2197L21.4463 26.515L12.4294 17.1613Z" fill="#FFE982"/>
<path d="M22.4239 14.682L21.5548 13.7805C19.382 11.5266 15.7969 11.5266 13.6242 13.7805L11.6687 15.809L16.4488 20.7676L22.4239 14.682Z" fill="#F278AB"/>
<path d="M33.6137 5.44108C29.7028 2.06024 27.0954 0.7079 25.2486 1.04599C24.5968 1.15868 23.8363 1.72215 23.5104 2.62371C22.9672 3.86335 23.2931 5.32838 24.2708 6.34263C25.3572 7.46958 26.335 9.16 25.4659 10.8504L25.2486 10.625C23.5104 8.82192 21.1203 7.69497 18.6217 7.69497C16.123 7.69497 13.7329 8.70922 11.9947 10.625L5.25915 17.6121C3.19502 19.7533 2 22.5707 2 25.5007C2 28.5435 3.08638 31.4736 5.25915 33.6148C7.43191 35.8687 10.2565 36.9956 13.0811 36.9956C15.9057 36.9956 18.6217 35.8687 20.7944 33.6148L24.3795 29.8958C24.4881 29.7831 24.4881 29.7831 24.5968 29.6704L27.53 26.6277C31.2237 22.7961 31.2237 16.5979 27.53 12.7662L27.2041 12.4282C28.8336 9.94887 28.2905 7.0188 26.0091 4.65221C25.6831 4.20143 25.5745 3.86335 25.6831 3.52526C25.7918 3.29988 25.9004 3.29988 25.9004 3.29988C26.2263 3.18718 27.8559 3.18718 32.4187 7.1315C32.8533 7.58228 33.5051 7.46958 33.9396 7.0188C34.0483 6.68072 34.0483 6.00455 33.6137 5.44108ZM25.4659 14.1186L25.7918 14.5694C27.0954 15.9217 27.8559 17.8375 27.8559 19.866C27.8559 21.8945 27.0954 23.6976 25.7918 25.1627L23.619 27.4166L18.1871 21.7818L25.4659 14.1186ZM11.2343 14.5694L13.5157 12.2028C16.3402 9.2727 20.7944 9.2727 23.7276 12.2028L23.9449 12.4282L16.6662 20.0914L11.2343 14.5694ZM21.9894 29.107L19.0562 32.1497C15.6884 35.6433 10.0392 35.6433 6.67144 32.1497C3.19502 28.5435 3.19502 22.9088 6.67144 19.3025L9.49603 16.3725L21.9894 29.107Z" fill="#00365C"/>
</svg>
