<svg width="36" height="36" viewBox="0 0 36 36" fill="none" xmlns="http://www.w3.org/2000/svg">
<path d="M3.42731 4.00165C3.06772 3.98246 2.71621 4.13154 2.44903 4.41656C2.18184 4.70157 2.0205 5.09955 2 5.52419V21.4758C2.0205 21.9004 2.18184 22.2984 2.44903 22.5834C2.71621 22.8685 3.06772 23.0175 3.42731 22.9984H27.5727C27.9323 23.0175 28.2838 22.8685 28.551 22.5834C28.8182 22.2984 28.9795 21.9004 29 21.4758V5.52419C28.9795 5.09955 28.8182 4.70157 28.551 4.41656C28.2838 4.13154 27.9323 3.98246 27.5727 4.00165H3.42731Z" fill="#FFE982"/>
<path d="M32.8472 9.87688H31.6385V5.16284C31.6385 3.42026 30.2182 2 28.4756 2H3.16284C1.42026 2 0 3.42026 0 5.16284V23.1628C0 24.9054 1.42026 26.3256 3.16284 26.3256H4.37157V31.0397C4.37157 32.7823 5.79182 34.2025 7.5344 34.2025H32.8371C34.5797 34.2025 35.9999 32.7823 35.9999 31.0397C35.9999 30.536 35.9999 13.5434 35.9999 13.0397C36.01 11.2971 34.5898 9.87688 32.8472 9.87688ZM3.16284 24.2204C2.57862 24.2204 2.1052 23.747 2.1052 23.1628V5.16284C2.1052 4.57862 2.57862 4.1052 3.16284 4.1052H28.4655C29.0498 4.1052 29.5232 4.57862 29.5232 5.16284V23.1628C29.5232 23.747 29.0498 24.2204 28.4655 24.2204C27.7907 24.2204 3.84778 24.2204 3.16284 24.2204ZM33.9048 31.0397C33.9048 31.6239 33.4314 32.0973 32.8472 32.0973H7.5344C6.95019 32.0973 6.47677 31.6239 6.47677 31.0397V26.3256H28.4655C30.1275 26.3256 31.6284 25.0061 31.6284 23.0923H33.8947V31.0397H33.9048ZM33.9048 20.9871H31.6385V17.5624H33.9048V20.9871ZM33.9048 15.4471H31.6385V11.9821H32.8472C33.4314 11.9821 33.9048 12.4555 33.9048 13.0397V15.4471Z" fill="#00365C"/>
<path d="M7.3128 19.0229H6.00335C5.41913 19.0229 4.94571 19.4964 4.94571 20.0806C4.94571 20.6648 5.41913 21.1382 6.00335 21.1382H7.3128C7.89702 21.1382 8.37044 20.6648 8.37044 20.0806C8.37044 19.4964 7.89702 19.0229 7.3128 19.0229Z" fill="#F278AB"/>
<path d="M13.4169 19.0229H12.1074C11.5232 19.0229 11.0498 19.4964 11.0498 20.0806C11.0498 20.6648 11.5232 21.1382 12.1074 21.1382H13.4169C14.0011 21.1382 14.4745 20.6648 14.4745 20.0806C14.4745 19.4964 14.0011 19.0229 13.4169 19.0229Z" fill="#F278AB"/>
<path d="M19.531 19.0229H18.2216C17.6374 19.0229 17.1639 19.4964 17.1639 20.0806C17.1639 20.6648 17.6374 21.1382 18.2216 21.1382H19.531C20.1152 21.1382 20.5887 20.6648 20.5887 20.0806C20.5786 19.4964 20.1052 19.0229 19.531 19.0229Z" fill="#F278AB"/>
<path d="M25.6351 19.0229H24.3256C23.7414 19.0229 23.268 19.4964 23.268 20.0806C23.268 20.6648 23.7414 21.1382 24.3256 21.1382H25.6351C26.2193 21.1382 26.6927 20.6648 26.6927 20.0806C26.6927 19.4964 26.2193 19.0229 25.6351 19.0229Z" fill="#F278AB"/>
<path fill-rule="evenodd" clip-rule="evenodd" d="M5 11.6722L7.1759 9.48792V13.8482L5 11.6722Z" fill="#00365C"/>
<path fill-rule="evenodd" clip-rule="evenodd" d="M9.66385 14.2867V16.3277L7.48795 14.1771V12.1361L9.66385 14.2867Z" fill="#00365C"/>
<path fill-rule="evenodd" clip-rule="evenodd" d="M7.64819 9.02409L9.66385 7V9.02409H7.64819Z" fill="#00365C"/>
<path fill-rule="evenodd" clip-rule="evenodd" d="M7.48795 11.512H9.66385V9.30237H7.48795V11.512Z" fill="#00365C"/>
<path fill-rule="evenodd" clip-rule="evenodd" d="M7.64819 11.8325H9.66385V13.8566L7.64819 11.8325Z" fill="#00365C"/>
<path fill-rule="evenodd" clip-rule="evenodd" d="M14.3277 7L9.97589 11.3602V7H14.3277Z" fill="#00365C"/>
<path fill-rule="evenodd" clip-rule="evenodd" d="M9.97589 16.4879V12.1361L14.3277 16.4879H9.97589Z" fill="#00365C"/>
<path fill-rule="evenodd" clip-rule="evenodd" d="M22.6554 15.5435C23.3226 15.5435 23.9749 15.3209 24.5296 14.9039C25.0844 14.4869 25.5168 13.8941 25.7721 13.2007C26.0274 12.5072 26.0942 11.7441 25.9641 11.0079C25.8339 10.2717 25.5126 9.59547 25.0408 9.06471C24.569 8.53394 23.9679 8.17249 23.3135 8.02605C22.6592 7.87961 21.9809 7.95477 21.3644 8.24202C20.748 8.52926 20.2211 9.0157 19.8505 9.63982C19.4798 10.2639 19.2819 10.9977 19.2819 11.7483C19.2819 12.7548 19.6373 13.7202 20.27 14.4319C20.9026 15.1436 21.7607 15.5435 22.6554 15.5435Z" fill="#F278AB"/>
<path d="M22.6976 16.3952C23.6267 16.3952 24.5349 16.1197 25.3074 15.6035C26.0799 15.0873 26.682 14.3536 27.0376 13.4953C27.3931 12.6369 27.4862 11.6924 27.3049 10.7811C27.1237 9.86989 26.6762 9.03286 26.0193 8.37589C25.3623 7.71892 24.5253 7.27152 23.614 7.09027C22.7028 6.90901 21.7583 7.00203 20.8999 7.35758C20.0415 7.71313 19.3079 8.31523 18.7917 9.08775C18.2755 9.86026 18 10.7685 18 11.6976C18.0022 12.9428 18.4979 14.1363 19.3784 15.0168C20.2588 15.8973 21.4524 16.3929 22.6976 16.3952ZM19.5265 11.6976C19.5248 11.068 19.7101 10.4521 20.0588 9.92798C20.4076 9.40382 20.904 8.99499 21.4854 8.75329C22.0667 8.5116 22.7067 8.44792 23.3242 8.57033C23.9418 8.69275 24.5091 8.99574 24.9543 9.44091C25.3994 9.88608 25.7024 10.4534 25.8248 11.0709C25.9473 11.6885 25.8836 12.3285 25.6419 12.9098C25.4002 13.4911 24.9914 13.9876 24.4672 14.3363C23.943 14.6851 23.3271 14.8703 22.6976 14.8687C21.8566 14.8687 21.05 14.5346 20.4553 13.9399C19.8606 13.3452 19.5265 12.5386 19.5265 11.6976Z" fill="#00365C"/>
</svg>
