<svg width="36" height="36" viewBox="0 0 36 36" fill="none" xmlns="http://www.w3.org/2000/svg">
<rect width="36" height="36" fill="white"/>
<path d="M35.1201 8.67261C35.1201 11.8626 32.5301 14.4526 29.3401 14.4526C26.1501 14.4526 23.5601 11.8626 23.5601 8.67261C23.5601 5.48261 26.1501 2.89261 29.3401 2.89261C32.5201 2.88261 35.1201 5.48261 35.1201 8.67261Z" fill="#F278AB"/>
<path d="M27.45 16.1024C27.09 22.6624 23.15 28.3124 17.12 30.9024C10.82 28.1924 6.76001 22.0224 6.76001 15.1424V10.8824L17.15 6.92236L21.66 8.65236V8.67236C21.67 12.1524 24.09 15.2424 27.45 16.1024Z" fill="#FFE982"/>
<path d="M16.13 13.5127C17.05 13.5127 17.8 14.1527 17.8 14.9427C17.8 15.4627 18.22 15.8827 18.74 15.8827C19.26 15.8827 19.68 15.4627 19.68 14.9427C19.68 13.4527 18.59 12.1427 17.07 11.7527V11.4527C17.07 10.9327 16.65 10.5127 16.13 10.5127C15.61 10.5127 15.19 10.9327 15.19 11.4527V11.7527C13.67 12.1427 12.58 13.4527 12.58 14.9427C12.58 16.7727 14.17 18.2527 16.13 18.2527C17.05 18.2527 17.8 18.8927 17.8 19.6827C17.8 20.4727 17.05 21.1127 16.13 21.1127C15.21 21.1127 14.46 20.4727 14.46 19.6827C14.46 19.1627 14.04 18.7427 13.52 18.7427C13 18.7427 12.58 19.1627 12.58 19.6827C12.58 21.1727 13.67 22.4827 15.19 22.8727V23.1727C15.19 23.6927 15.61 24.1127 16.13 24.1127C16.65 24.1127 17.07 23.6927 17.07 23.1727V22.8727C18.59 22.4827 19.68 21.1727 19.68 19.6827C19.68 17.8527 18.09 16.3727 16.13 16.3727C15.21 16.3727 14.46 15.7327 14.46 14.9427C14.46 14.1527 15.21 13.5127 16.13 13.5127Z" fill="#00365C"/>
<path d="M28.33 0.0025C26.28 0.0025 24.36 0.8025 22.91 2.2525L16.45 0.0525C16.26 -0.0175 16.04 -0.0175 15.84 0.0525L0.64 5.2125C0.26 5.3425 0 5.6925 0 6.1025V14.1425C0 18.0625 1.01 21.9325 2.92 25.3425C3.16 25.7825 3.75 25.9525 4.2 25.7025C4.65 25.4525 4.81 24.8725 4.56 24.4225C2.81 21.2925 1.88 17.7325 1.88 14.1425V6.7725L16.15 1.9325L21.7 3.8225C21.35 4.4225 21.09 5.0625 20.91 5.7325L16.49 4.0325C16.27 3.9525 16.03 3.9525 15.82 4.0325L4.49 8.3625C4.13 8.4925 3.88 8.8525 3.88 9.2325V14.1425C3.88 17.9725 5.01 21.6625 7.14 24.8125C9.26 27.9525 12.25 30.3725 15.77 31.7925C15.99 31.8825 16.25 31.8825 16.48 31.7925C23.25 29.0525 27.88 22.6125 28.33 15.3325C28.33 15.3325 28.33 15.3325 28.34 15.3325C29.02 15.3325 29.69 15.2425 30.35 15.0625C29.97 23.6725 24.3 31.2625 16.13 34.0525C13.16 33.0325 10.42 31.3425 8.19 29.1525C7.82 28.7925 7.22 28.7925 6.86 29.1625C6.68 29.3425 6.59 29.5825 6.59 29.8325C6.59 30.0825 6.69 30.3225 6.87 30.4925C9.38 32.9625 12.48 34.8425 15.84 35.9325C15.94 35.9625 16.03 35.9825 16.13 35.9825C16.23 35.9825 16.32 35.9625 16.42 35.9325C21.05 34.4225 25.01 31.5425 27.88 27.6025C30.71 23.7025 32.23 19.0925 32.26 14.2425C34.56 12.8725 36 10.3625 36 7.6725C36 3.4425 32.56 0.0025 28.33 0.0025ZM34.12 7.6725C34.12 10.8625 31.53 13.4525 28.34 13.4525C25.15 13.4525 22.56 10.8625 22.56 7.6725C22.56 4.4825 25.15 1.8925 28.34 1.8925C31.52 1.8825 34.12 4.4825 34.12 7.6725ZM26.45 15.1025C26.09 21.6625 22.15 27.3125 16.12 29.9025C9.82 27.1925 5.76 21.0225 5.76 14.1425V9.8825L16.15 5.9225L20.66 7.6525V7.6725C20.67 11.1525 23.09 14.2425 26.45 15.1025Z" fill="#00365C"/>
<path d="M29.64 5.82259L27.95 7.51259L27.53 7.09259C27.16 6.72259 26.57 6.72259 26.2 7.09259C26.02 7.27259 25.92 7.50259 25.92 7.75259C25.92 8.00259 26.02 8.24259 26.2 8.42259L27.29 9.51259C27.47 9.69259 27.71 9.79259 27.96 9.79259C28.21 9.79259 28.45 9.69259 28.63 9.51259L30.99 7.15259C31.36 6.78259 31.36 6.19259 30.99 5.82259C30.61 5.46259 30.01 5.45259 29.64 5.82259Z" fill="#00365C"/>
<path d="M4.79002 26.8224C4.62002 27.0024 4.52002 27.2424 4.52002 27.4924C4.52002 27.7424 4.62002 27.9824 4.79002 28.1524C4.96002 28.3324 5.21002 28.4324 5.46002 28.4324C5.71002 28.4324 5.95002 28.3324 6.13002 28.1524C6.30002 27.9824 6.41002 27.7324 6.41002 27.4824C6.41002 27.2324 6.31002 26.9924 6.13002 26.8124C5.77002 26.4724 5.14002 26.4724 4.79002 26.8224Z" fill="#00365C"/>
</svg>
