<svg width="36" height="36" viewBox="0 0 36 36" fill="none" xmlns="http://www.w3.org/2000/svg">
<g clip-path="url(#clip0_760_13565)">
<path d="M25.68 28.86C26.9651 28.3759 28.3114 28.073 29.68 27.96C30.3457 27.924 30.999 28.1502 31.5 28.59C29.07 29.83 22.5 33.06 19.61 33.06C17.77 33.06 13.94 31.77 9.07999 29.53L10.61 23.53L21.88 26.25C22.2183 26.3308 22.5209 26.5202 22.7412 26.7893C22.9616 27.0585 23.0876 27.3924 23.1 27.74C22.27 27.93 24.15 29.34 25.68 28.86Z" fill="#FFE982"/>
<path d="M31.25 25.77C29.4547 25.905 27.6874 26.2921 26 26.92L25.66 27.03C25.5296 26.2587 25.1759 25.5426 24.6426 24.9703C24.1094 24.398 23.4201 23.9946 22.66 23.81L9.46 20.63C9.51204 20.4143 9.49573 20.1877 9.41331 19.9817C9.3309 19.7756 9.18646 19.6003 9 19.48C8.88 19.41 6.15 17.67 1.05 17.67C0.769699 17.6752 0.502651 17.7903 0.306292 17.9904C0.109933 18.1905 -4.89616e-05 18.4596 1.63514e-08 18.74V32C1.63514e-08 32.1392 0.0274177 32.277 0.0806877 32.4056C0.133958 32.5342 0.212037 32.6511 0.310467 32.7495C0.408897 32.8479 0.52575 32.926 0.654356 32.9793C0.782961 33.0326 0.920799 33.06 1.06 33.06H5.48C5.71395 33.0647 5.94214 32.9872 6.12486 32.8411C6.30758 32.6949 6.43325 32.4893 6.48 32.26L6.59 31.86C10.84 33.78 16.37 36 19.47 36C23.97 36 34.27 30.6 35.47 30C35.6918 29.8808 35.8639 29.6865 35.9555 29.452C36.0471 29.2174 36.0523 28.958 35.97 28.72C35.5987 27.7906 34.9411 27.0036 34.0924 26.4732C33.2437 25.9427 32.2481 25.6964 31.25 25.77ZM7.19 20.94L4.65 30.94H2.13V19.83C3.8697 19.8926 5.58384 20.2686 7.19 20.94ZM21.31 27.94C19.0464 27.7723 16.816 27.298 14.68 26.53C14.4148 26.4332 14.122 26.4457 13.866 26.5648C13.61 26.6839 13.4118 26.8998 13.315 27.165C13.2182 27.4302 13.2307 27.723 13.3498 27.979C13.4689 28.235 13.6848 28.4332 13.95 28.53C16.3163 29.3952 18.7953 29.9139 21.31 30.07C23.1189 29.9699 24.9039 29.6095 26.61 29C28.1029 28.4445 29.6634 28.0914 31.25 27.95C32.0326 27.9076 32.8007 28.1732 33.39 28.69C30.54 30.15 22.81 33.92 19.47 33.92C17.32 33.92 12.83 32.42 7.15 29.8L8.94 22.8L22.13 25.98C22.5266 26.0757 22.8811 26.2986 23.1393 26.6145C23.3975 26.9305 23.5452 27.3222 23.56 27.73C22.8238 27.9113 22.0682 28.0019 21.31 28V27.94Z" fill="#00365C"/>
<path d="M31.87 7.95001H21.95V14.54H31.87V7.95001Z" fill="#FFE982"/>
<path d="M22.41 4.49998C22.41 3.76998 22.41 3.08998 22.41 2.40998C22.3861 2.08738 22.4321 1.76342 22.5447 1.46019C22.6574 1.15696 22.8341 0.881584 23.0629 0.652845C23.2916 0.424107 23.567 0.24738 23.8702 0.134714C24.1734 0.0220481 24.4974 -0.0239083 24.82 -2.18707e-05H29C29.3166 -0.0188282 29.6336 0.0295111 29.9302 0.141825C30.2268 0.25414 30.4963 0.427891 30.7211 0.651683C30.9458 0.875475 31.1207 1.14425 31.2342 1.44038C31.3478 1.73651 31.3975 2.0533 31.38 2.36998V4.49998H34.16C34.5466 4.4928 34.9238 4.6192 35.2281 4.85785C35.5323 5.0965 35.7449 5.43279 35.83 5.80998C35.8498 5.98274 35.8498 6.15721 35.83 6.32998C35.83 9.60998 35.83 12.89 35.83 16.17C35.8484 16.4082 35.8164 16.6476 35.736 16.8726C35.6557 17.0976 35.5288 17.3031 35.3637 17.4758C35.1986 17.6485 34.9989 17.7844 34.7777 17.8747C34.5565 17.965 34.3188 18.0077 34.08 18H19.74C19.4947 18.0196 19.2481 17.9857 19.0172 17.9007C18.7862 17.8156 18.5765 17.6815 18.4025 17.5075C18.2285 17.3335 18.0944 17.1237 18.0093 16.8928C17.9243 16.6619 17.8904 16.4153 17.91 16.17V6.32998C17.8904 6.08468 17.9243 5.83805 18.0093 5.60713C18.0944 5.37621 18.2285 5.1665 18.4025 4.9925C18.5765 4.81849 18.7862 4.68434 19.0172 4.5993C19.2481 4.51427 19.4947 4.48038 19.74 4.49998H22.41ZM33.64 11.27H33.51C31.8351 11.8306 30.0933 12.1668 28.33 12.27C28.11 12.27 28.05 12.37 28 12.57C27.9471 12.8223 27.8087 13.0485 27.6083 13.2107C27.408 13.3728 27.1578 13.4609 26.9 13.46C26.6431 13.4563 26.3951 13.3651 26.1969 13.2015C25.9988 13.0378 25.8623 12.8116 25.81 12.56C25.782 12.478 25.7587 12.3945 25.74 12.31V12.42L20.24 11.32V15.68H33.64V11.27ZM28.06 10.07C29.9119 9.96335 31.7348 9.56162 33.46 8.87998C33.5072 8.85127 33.5483 8.81353 33.5809 8.76891C33.6135 8.7243 33.637 8.67368 33.65 8.61998C33.65 8.00998 33.65 7.39998 33.65 6.77998H20.18V8.77998C21.9571 9.50707 23.8429 9.93291 25.76 10.04C25.91 9.40998 26.24 8.98998 26.88 8.97998C27.52 8.96998 27.91 9.42998 28.06 10.07ZM29.12 4.48998V2.26998H24.69V4.48998H29.12Z" fill="#00365C"/>
<path d="M29.12 4.49002H24.69V2.27002H29.12V4.49002Z" fill="#F278AB"/>
</g>
<defs>
<clipPath id="clip0_760_13565">
<rect width="36" height="36" fill="white"/>
</clipPath>
</defs>
</svg>
