<svg width="37" height="36" viewBox="0 0 37 36" fill="none" xmlns="http://www.w3.org/2000/svg">
<rect x="0.0151672" width="36" height="36" fill="white"/>
<path d="M30.8181 26.966L31.2972 29.8305L28.4327 29.3514C28.236 29.3218 28.0352 29.3606 27.8637 29.4612C26.0209 30.5362 23.8438 30.8864 21.7569 30.4435C19.6699 30.0007 17.8227 28.7965 16.5752 27.0658C17.2577 26.9566 17.9268 26.7759 18.5714 26.5268C19.5516 26.1067 20.485 25.5848 21.3561 24.9698C22.1432 24.4383 22.8209 23.7607 23.3523 22.9736C23.6218 22.5544 24.1209 21.706 24.3504 21.2668C24.6758 20.6385 24.9078 19.966 25.0391 19.2706C25.119 18.8514 25.2288 17.9931 25.2687 17.5639C25.2786 17.3844 25.2786 17.2044 25.2687 17.0249C25.269 15.8838 25.0802 14.7506 24.7097 13.6713C26.0893 13.8711 27.3992 14.4047 28.5257 15.2256C29.6523 16.0466 30.5614 17.1301 31.1741 18.3821C31.7868 19.6342 32.0847 21.0169 32.0418 22.4101C31.9989 23.8034 31.6165 25.1651 30.9279 26.3771C30.828 26.5525 30.7894 26.7562 30.8181 26.956V26.966Z" fill="#FFE982"/>
<path d="M8.07144 22.9736H7.92172L5.07714 23.4926L5.54625 20.658C5.58417 20.4625 5.54863 20.26 5.44644 20.0891C4.40053 18.3144 4.03772 16.2192 4.42601 14.1962C4.8143 12.1732 5.92704 10.3613 7.55566 9.09995C9.18428 7.83863 11.217 7.21455 13.2728 7.34467C15.3286 7.47479 17.2664 8.35019 18.723 9.80678C20.1796 11.2634 21.055 13.2012 21.1851 15.257C21.3153 17.3128 20.6912 19.3455 19.4299 20.9742C18.1686 22.6028 16.3566 23.7155 14.3336 24.1038C12.3106 24.4921 10.2154 24.1293 8.44073 23.0834C8.32813 23.0179 8.20152 22.9803 8.07144 22.9736Z" fill="#FFE982"/>
<path d="M34.4712 28.2236C35.5059 26.3229 36.0372 24.1891 36.0145 22.0251C35.9918 19.8611 35.4159 17.7389 34.3416 15.8604C33.2672 13.9818 31.7302 12.4093 29.8766 11.2924C28.023 10.1755 25.9145 9.55131 23.7516 9.47928C22.1077 6.54627 19.366 4.38641 16.1297 3.47484C12.8934 2.56328 9.42746 2.97468 6.49445 4.61854C3.56144 6.2624 1.40157 9.00407 0.490008 12.2404C-0.421557 15.4768 -0.010157 18.9427 1.63371 21.8757L0.86517 26.5068C0.823387 26.6746 0.825904 26.8504 0.872474 27.0169C0.919045 27.1834 1.00807 27.335 1.13083 27.4567C1.2536 27.5785 1.40588 27.6662 1.57277 27.7114C1.73966 27.7566 1.91542 27.7577 2.08285 27.7145L6.69407 26.966C8.43327 27.9164 10.3722 28.4431 12.3533 28.503C14.0077 31.3709 16.7178 33.4784 19.9049 34.3754C23.0919 35.2724 26.5034 34.8879 29.4108 33.3039L34.022 34.0525C34.1888 34.0935 34.3633 34.0908 34.5287 34.0447C34.6941 33.9985 34.8449 33.9105 34.9663 33.7891C35.0877 33.6676 35.1758 33.5169 35.2219 33.3515C35.2681 33.1861 35.2708 33.0115 35.2297 32.8448L34.4712 28.2236ZM6.89369 24.7901H6.71403L3.18076 25.379L3.76964 21.8357C3.80741 21.5949 3.76162 21.3483 3.63988 21.1371C2.36098 18.91 1.93667 16.2934 2.44622 13.7763C2.95577 11.2592 4.36433 9.01369 6.40873 7.45935C8.45312 5.905 10.9935 5.14815 13.5552 5.33021C16.1169 5.51226 18.5247 6.62076 20.3288 8.4486C22.1328 10.2764 23.2097 12.6986 23.3581 15.2625C23.5066 17.8263 22.7165 20.3566 21.1355 22.3804C19.5545 24.4043 17.2907 25.7833 14.7672 26.2598C12.2436 26.7363 9.63282 26.2778 7.42268 24.9698C7.26384 24.8713 7.08056 24.8195 6.89369 24.8201V24.7901ZM32.3352 28.2036L32.9241 31.7369L29.3908 31.148C29.1467 31.1095 28.8968 31.1553 28.6822 31.2778C26.4108 32.6064 23.7259 33.0409 21.1514 32.4965C18.5769 31.952 16.2977 30.4678 14.7587 28.3334C15.6174 28.1953 16.46 27.9713 17.2739 27.6646C17.4456 27.7684 17.6422 27.8236 17.8428 27.8243H28.8219C28.9688 27.8387 29.1171 27.8221 29.2572 27.7757C29.3973 27.7293 29.5261 27.6541 29.6355 27.5549C29.7448 27.4557 29.8321 27.3348 29.8919 27.1998C29.9517 27.0649 29.9825 26.9189 29.9825 26.7713C29.9825 26.6238 29.9517 26.4778 29.8919 26.3428C29.8321 26.2079 29.7448 26.087 29.6355 25.9878C29.5261 25.8886 29.3973 25.8134 29.2572 25.767C29.1171 25.7206 28.9688 25.704 28.8219 25.7183H20.6675C21.5724 24.9945 22.372 24.148 23.0429 23.2031H28.8319C28.9788 23.2175 29.1271 23.2009 29.2672 23.1545C29.4073 23.1081 29.5361 23.0329 29.6454 22.9337C29.7547 22.8345 29.8421 22.7136 29.9019 22.5786C29.9616 22.4437 29.9925 22.2977 29.9925 22.1501C29.9925 22.0026 29.9616 21.8566 29.9019 21.7216C29.8421 21.5867 29.7547 21.4658 29.6454 21.3666C29.5361 21.2674 29.4073 21.1922 29.2672 21.1458C29.1271 21.0994 28.9788 21.0828 28.8319 21.0972H24.2906C24.6652 20.2926 24.9497 19.4491 25.1389 18.5819H28.8319C28.9788 18.5963 29.1271 18.5797 29.2672 18.5333C29.4073 18.4869 29.5361 18.4117 29.6454 18.3125C29.7547 18.2133 29.8421 18.0924 29.9019 17.9574C29.9616 17.8225 29.9925 17.6765 29.9925 17.5289C29.9925 17.3814 29.9616 17.2354 29.9019 17.1005C29.8421 16.9655 29.7547 16.8446 29.6454 16.7454C29.5361 16.6462 29.4073 16.571 29.2672 16.5246C29.1271 16.4782 28.9788 16.4616 28.8319 16.476H25.4284C25.4284 16.2564 25.4284 16.0368 25.4284 15.8072C25.4279 14.4005 25.1917 13.0038 24.7297 11.6751C26.4561 11.9065 28.0986 12.561 29.5111 13.5804C30.9235 14.5998 32.0621 15.9524 32.8257 17.518C33.5892 19.0836 33.954 20.8137 33.8876 22.5543C33.8212 24.2949 33.3256 25.9921 32.445 27.495C32.3225 27.7096 32.2768 27.9595 32.3153 28.2036H32.3352Z" fill="#00365C"/>
<path d="M11.1755 12.5035C11.1755 12.1873 11.2695 11.8781 11.4454 11.6153C11.6213 11.3524 11.8713 11.1478 12.1637 11.0272C12.4561 10.9066 12.7777 10.8756 13.0877 10.938C13.3978 11.0005 13.6823 11.1535 13.9052 11.3779C14.1282 11.6022 14.2795 11.8877 14.34 12.1981C14.4005 12.5086 14.3674 12.83 14.245 13.1216C14.1226 13.4132 13.9164 13.6619 13.6524 13.8362C13.3885 14.0105 13.0788 14.1025 12.7625 14.1005C12.6271 14.1003 12.4931 14.1277 12.3687 14.1809C12.2442 14.2342 12.1319 14.3122 12.0385 14.4102C11.9451 14.5083 11.8727 14.6243 11.8256 14.7512C11.7784 14.8781 11.7576 15.0133 11.7644 15.1485V18.2526C11.7501 18.3995 11.7667 18.5477 11.8131 18.6878C11.8595 18.828 11.9347 18.9568 12.0338 19.0661C12.133 19.1754 12.254 19.2628 12.3889 19.3225C12.5239 19.3823 12.6698 19.4132 12.8174 19.4132C12.965 19.4132 13.111 19.3823 13.2459 19.3225C13.3808 19.2628 13.5018 19.1754 13.601 19.0661C13.7001 18.9568 13.7753 18.828 13.8217 18.6878C13.8681 18.5477 13.8847 18.3995 13.8704 18.2526V16.0568C14.5239 15.8539 15.1084 15.4739 15.559 14.959C16.0096 14.444 16.3088 13.8143 16.4232 13.1397C16.5377 12.4651 16.463 11.772 16.2074 11.1372C15.9518 10.5025 15.5254 9.95099 14.9754 9.54392C14.4254 9.13686 13.7733 8.89014 13.0916 8.83116C12.4099 8.77219 11.7252 8.90325 11.1134 9.20982C10.5017 9.51638 9.98687 9.98645 9.62608 10.5679C9.26529 11.1493 9.07265 11.8193 9.06954 12.5035C9.05522 12.6504 9.0718 12.7987 9.1182 12.9388C9.1646 13.0789 9.23981 13.2078 9.33898 13.3171C9.43815 13.4264 9.5591 13.5137 9.69404 13.5735C9.82899 13.6333 9.97495 13.6642 10.1225 13.6642C10.2701 13.6642 10.4161 13.6333 10.551 13.5735C10.686 13.5137 10.8069 13.4264 10.9061 13.3171C11.0053 13.2078 11.0805 13.0789 11.1269 12.9388C11.1733 12.7987 11.1898 12.6504 11.1755 12.5035Z" fill="#00365C"/>
<path d="M12.7625 20.7079C12.5532 20.7079 12.3487 20.7699 12.1747 20.8862C12.0007 21.0024 11.8651 21.1677 11.785 21.361C11.705 21.5543 11.684 21.767 11.7248 21.9723C11.7657 22.1775 11.8664 22.366 12.0144 22.514C12.1624 22.6619 12.3509 22.7627 12.5561 22.8035C12.7613 22.8443 12.9741 22.8234 13.1674 22.7433C13.3607 22.6632 13.5259 22.5276 13.6422 22.3537C13.7584 22.1797 13.8205 21.9751 13.8205 21.7659C13.8154 21.4869 13.7023 21.2207 13.5049 21.0234C13.3076 20.8261 13.0415 20.713 12.7625 20.7079Z" fill="#F278AB"/>
<path d="M23.0429 23.2531H28.9317C29.1984 23.2273 29.446 23.1031 29.6261 22.9048C29.8062 22.7064 29.906 22.4481 29.906 22.1801C29.906 21.9122 29.8062 21.6538 29.6261 21.4554C29.446 21.2571 29.1984 21.1329 28.9317 21.1071H24.3205L23.0429 23.2531Z" fill="#F278AB"/>
</svg>
