<svg width="36" height="36" viewBox="0 0 36 36" fill="none" xmlns="http://www.w3.org/2000/svg">
<path d="M33.3206 20.73C33.3206 24.73 32.1206 27.64 29.7606 29.43L21.0706 36L12.3806 29.43C10.0106 27.64 8.82056 24.71 8.82056 20.72V8.62C9.66111 8.78004 10.5149 8.86039 11.3706 8.86C15.5606 8.86 18.6906 6.69 20.3706 5.53C20.6006 5.37 20.8706 5.18 21.0706 5.06C21.2606 5.18 21.5406 5.37 21.7706 5.54C23.4506 6.7 26.5806 8.86 30.7706 8.86C31.6295 8.86043 32.4866 8.78007 33.3306 8.62L33.3206 20.73Z" fill="#FFE982"/>
<path d="M31.2406 3.58C31.112 3.48401 30.9631 3.41877 30.8053 3.3893C30.6476 3.35983 30.4851 3.36691 30.3306 3.41C29.2549 3.72204 28.1405 3.88027 27.0206 3.88C23.4806 3.88 20.8106 2.03 19.2206 0.88C18.3506 0.33 17.8806 0 17.3306 0C16.7806 0 16.3306 0.33 15.4506 0.92C13.8506 2.03 11.1706 3.92 7.64056 3.92C6.52058 3.92027 5.40619 3.76204 4.33056 3.45C4.17428 3.40755 4.01045 3.40078 3.85119 3.43021C3.69194 3.45964 3.54135 3.5245 3.41056 3.62C3.28333 3.71782 3.18022 3.84349 3.10915 3.98738C3.03807 4.13126 3.00093 4.28952 3.00056 4.45V17.82C2.98431 19.7618 3.32321 21.6901 4.00056 23.51C4.6762 25.3641 5.87022 26.985 7.44056 28.18L16.7606 35.18C16.9405 35.3197 17.1628 35.3938 17.3906 35.39C17.6149 35.3915 17.8333 35.3176 18.0106 35.18L27.3306 28.18C28.8952 26.9816 30.0852 25.3615 30.7606 23.51C31.4209 21.687 31.7428 19.7587 31.7106 17.82V4.41C31.7025 4.24455 31.6558 4.08329 31.5742 3.93915C31.4926 3.79501 31.3783 3.672 31.2406 3.58ZM29.5806 17.82C29.5806 21.82 28.3806 24.74 26.0206 26.52L17.3406 33.1L8.64056 26.52C6.28056 24.74 5.08056 21.81 5.08056 17.82V5.72C5.92391 5.88902 6.78061 5.98273 7.64056 6C11.8206 6 14.9506 3.84 16.6406 2.68L17.3406 2.21L18.0506 2.68C19.7206 3.84 22.8506 6 27.0506 6C27.909 5.99879 28.7657 5.92183 29.6106 5.77L29.5806 17.82Z" fill="#00365C"/>
<path d="M24.1086 22H10.8914C10.4041 22 10 21.557 10 20.9933V13.0067C10 12.4564 10.4041 12 10.8914 12H24.1086C24.5959 12 25 12.4564 25 13.0067V20.9933C24.9881 21.5436 24.5959 22 24.1086 22Z" fill="white"/>
<path d="M22.3463 20H12.6537C12.2964 20 12 19.7342 12 19.396V14.604C12 14.2738 12.2964 14 12.6537 14H22.3463C22.7036 14 23 14.2738 23 14.604V19.396C22.9913 19.7262 22.7036 20 22.3463 20Z" fill="#F278AB"/>
<path d="M23.8523 11H11.1477C9.96647 11 9 11.9804 9 13.1788V20.8212C9 22.0279 9.96647 23 11.1477 23H23.8523C25.0335 23 26 22.0196 26 20.8212V13.1788C26 11.9804 25.0335 11 23.8523 11ZM24.224 20.8296C24.224 21.0391 24.0505 21.2151 23.844 21.2151H11.1477C10.9412 21.2151 10.7677 21.0475 10.7677 20.8296V16.5559H24.224V20.8296ZM24.224 14.7626H10.7677V13.1788C10.7677 12.9693 10.9329 12.7933 11.1477 12.7933H23.8523C24.0588 12.7933 24.2323 12.9693 24.2323 13.1788V14.7626H24.224Z" fill="#00365C"/>
<path d="M12.9554 18H14.0446C14.5714 18 15 18.4486 15 19C15 19.5514 14.5714 20 14.0446 20H12.9554C12.4286 20 12 19.5514 12 19C12 18.4486 12.4286 18 12.9554 18Z" fill="#FFE982"/>
</svg>
