<svg width="36" height="36" viewBox="0 0 36 36" fill="none" xmlns="http://www.w3.org/2000/svg">
<path d="M33.2 20.7C33.2 24.7 32 27.6 29.6 29.4L20.9 36L12.2 29.4C9.79997 27.6 8.59998 24.7 8.59998 20.7V8.6C9.39998 8.8 10.3 8.8 11.2 8.8C15.4 8.8 18.5 6.6 20.2 5.5C20.4 5.3 20.7 5.1 20.9 5C21.1 5.1 21.4 5.3 21.6 5.5C23.3 6.7 26.4 8.8 30.6 8.8C31.5 8.8 32.3 8.7 33.2 8.6V20.7Z" fill="#FFE982"/>
<path d="M31.1 3.6C30.8 3.4 30.5 3.3 30.2 3.4C29.1 3.7 28 3.9 26.9 3.9C23.4 3.9 20.7 2.1 19.1 0.9C18.2 0.3 17.7 0 17.2 0C16.7 0 16.2 0.3 15.3 0.9C13.7 2 11 3.9 7.49999 3.9C6.39999 3.9 5.29999 3.7 4.19999 3.4C3.89999 3.3 3.49999 3.4 3.29999 3.6C2.99999 3.8 2.79999 4.1 2.79999 4.4V17.8C2.79999 19.9 3.09999 21.8 3.69999 23.5C4.39999 25.4 5.59999 27 7.09999 28.2L16.4 35.2C16.6 35.3 16.8 35.4 17 35.4C17.2 35.4 17.4 35.3 17.6 35.2L26.9 28.2C28.4 27 29.6 25.5 30.3 23.5C30.9 21.9 31.2 19.9 31.2 17.8V4.4C31.5 4.1 31.3 3.8 31.1 3.6ZM29.4 17.8C29.4 21.8 28.2 24.7 25.8 26.5L17.1 33.1L8.39999 26.5C5.99999 24.7 4.79999 21.8 4.79999 17.8V5.7C5.79999 5.9 6.59999 6 7.49999 6C11.7 6 14.8 3.8 16.5 2.7C16.7 2.5 17 2.3 17.2 2.2C17.4 2.3 17.7 2.5 17.9 2.7C19.6 3.9 22.7 6 26.9 6C27.8 6 28.6 5.9 29.5 5.8V17.8H29.4Z" fill="#00365C"/>
<path d="M22.4 21.9C22.4 24 20.7 24.9 17 24.9C13.3 24.9 11.6 24 11.6 21.9C11.6 17.8 14.8 15.3 17 15.3C19.2 15.3 22.4 17.8 22.4 21.9Z" fill="#F278AB" stroke="#00365C" stroke-width="1.7182" stroke-miterlimit="10" stroke-linecap="round" stroke-linejoin="round"/>
<path d="M22.8 22C22.8 24.3 21 25.3 17.1 25.3C13.2 25.3 11.4 24.3 11.4 22C11.4 17.5 14.7 14.8 17.1 14.8C19.5 14.8 22.8 17.5 22.8 22Z" stroke="#00365C" stroke-width="1.7182" stroke-miterlimit="10" stroke-linecap="round" stroke-linejoin="round"/>
<path d="M26.6 15.1C26.6 15.7 26.4 16 26.1 16.3C25.8 16.5 25.4 16.5 25.3 16.5C25.2 16.5 24.8 16.5 24.6 16.3C24.3 16.1 24.1 15.7 24.1 15.1C24.1 14.4 24.5 14 25 13.5C25.1 13.4 25.3 13.3 25.4 13.1C25.5 13.2 25.6 13.4 25.8 13.5C26.2 13.9 26.6 14.3 26.6 15.1Z" fill="#FFE982"/>
<path d="M25.8 12.7C26.4 13.4 26.9 13.9 26.9 14.9C26.9 15.7 26.7 16.2 26.2 16.5C25.8 16.8 25.3 16.8 25.2 16.8C25 16.8 24.6 16.8 24.2 16.5C23.8 16.2 23.5 15.6 23.6 14.8C23.6 13.8 24.2 13.2 24.8 12.6C25 12.4 25.1 12.3 25.3 12.1C25.5 12.3 25.6 12.5 25.8 12.7Z" stroke="#00365C" stroke-width="2.2549" stroke-miterlimit="10" stroke-linecap="round" stroke-linejoin="round"/>
<path d="M21.8 10.3C21.8 10.9 21.6 11.2 21.3 11.5C21 11.7 20.6 11.7 20.5 11.7C20.4 11.7 20 11.7 19.8 11.5C19.5 11.3 19.3 10.9 19.3 10.3C19.3 9.59999 19.7 9.19999 20.2 8.69999C20.3 8.59999 20.5 8.49999 20.6 8.29999C20.7 8.39999 20.8 8.59999 21 8.69999C21.4 9.19999 21.8 9.59999 21.8 10.3Z" fill="#FFE982"/>
<path d="M18.9 9.90001C18.9 8.90001 19.5 8.30001 20.1 7.70001C20.3 7.50001 20.4 7.40001 20.6 7.20001C20.8 7.40001 20.9 7.60001 21.1 7.70001C21.7 8.40001 22.2 8.90001 22.2 9.90001C22.2 10.7 22 11.2 21.5 11.5C21.1 11.8 20.6 11.8 20.5 11.8C20.4 11.8 19.9 11.8 19.5 11.5C19.1 11.3 18.9 10.7 18.9 9.90001Z" stroke="#00365C" stroke-width="2.2549" stroke-miterlimit="10" stroke-linecap="round" stroke-linejoin="round"/>
<path d="M15.3 10.1C15.3 10.7 15.1 11 14.8 11.3C14.5 11.5 14.1 11.5 14 11.5C13.9 11.5 13.5 11.5 13.3 11.3C13 11.1 12.8 10.7 12.8 10.1C12.8 9.40004 13.2 9.00004 13.7 8.50004C13.8 8.40004 14 8.30004 14.1 8.10004C14.2 8.20004 14.3 8.40004 14.5 8.50004C14.9 9.00004 15.3 9.40004 15.3 10.1Z" fill="#FFE982"/>
<path d="M12.4 9.90001C12.4 8.90001 13 8.30001 13.6 7.70001C13.8 7.50001 13.9 7.40001 14.1 7.20001C14.3 7.40001 14.4 7.60001 14.6 7.70001C15.2 8.40001 15.7 8.90001 15.7 9.90001C15.7 10.5 15.5 11 15.2 11.4C14.8 11.8 14.2 11.9 14 11.8C13.8 11.8 13.4 11.8 13 11.5C12.6 11.2 12.4 10.7 12.4 9.90001Z" stroke="#00365C" stroke-width="2.2549" stroke-miterlimit="10" stroke-linecap="round" stroke-linejoin="round"/>
<path d="M10.2 15.1001C10.2 15.7001 9.99998 16.0001 9.69998 16.3001C9.39998 16.4001 8.99998 16.4001 8.99998 16.4001C8.89998 16.4001 8.49998 16.4001 8.29998 16.2001C7.89998 16.0001 7.69998 15.6001 7.69998 15.0001C7.69998 14.3001 8.09998 13.9001 8.59998 13.4001C8.69998 13.3001 8.89998 13.2001 8.99998 13.0001C9.09998 13.1001 9.19998 13.3001 9.39998 13.4001C9.89998 13.9001 10.3 14.3001 10.2 15.1001Z" fill="#FFE982"/>
<path d="M10.7 14.9C10.7 15.7 10.5 16.2 10 16.5C9.6 16.8 9.1 16.8 9 16.8C8.8 16.8 8.4 16.8 8 16.5C7.6 16.2 7.3 15.6 7.4 14.8C7.4 13.8 8 13.2 8.6 12.6C8.8 12.4 8.9 12.3 9.1 12.1C9.3 12.3 9.4 12.5 9.6 12.6C10.2 13.3 10.7 13.9 10.7 14.9Z" stroke="#00365C" stroke-width="2.2549" stroke-miterlimit="10" stroke-linecap="round" stroke-linejoin="round"/>
</svg>
