<svg width="38" height="36" viewBox="0 0 38 36" fill="none" xmlns="http://www.w3.org/2000/svg">
<path d="M30.45 8.22021H7.64001V23.5602H30.45V8.22021Z" fill="#FFE982"/>
<path d="M14.78 8.56006C13.3303 8.56006 11.9131 8.98996 10.7077 9.79539C9.50227 10.6008 8.56277 11.7456 8.00798 13.085C7.45319 14.4244 7.30803 15.8982 7.59086 17.3201C7.87369 18.742 8.5718 20.048 9.59692 21.0732C10.622 22.0983 11.9281 22.7964 13.35 23.0792C14.7719 23.362 16.2457 23.2169 17.5851 22.6621C18.9245 22.1073 20.0693 21.1678 20.8747 19.9624C21.6801 18.757 22.11 17.3398 22.11 15.8901C22.1074 13.9468 21.3343 12.084 19.9602 10.7099C18.5861 9.33582 16.7232 8.5627 14.78 8.56006ZM9.55002 14.8901C9.69846 14.1015 10.024 13.357 10.5021 12.7126C10.9802 12.0682 11.5984 11.5407 12.31 11.1701C11.9462 12.3787 11.7379 13.6288 11.69 14.8901H9.55002ZM13.7 14.8901C13.7426 13.8178 13.9241 12.7556 14.24 11.7301C14.3532 11.3373 14.5361 10.9681 14.78 10.6401C15.0278 10.9657 15.2111 11.3356 15.32 11.7301C15.6359 12.7556 15.8174 13.8178 15.86 14.8901H13.7ZM12.31 20.6101C11.5984 20.2394 10.9802 19.7119 10.5021 19.0675C10.024 18.4231 9.69846 17.6786 9.55002 16.8901H11.69C11.7379 18.1514 11.9462 19.4014 12.31 20.6101ZM15.86 16.8901C15.8174 17.9623 15.6359 19.0245 15.32 20.0501C15.2111 20.4445 15.0278 20.8145 14.78 21.1401C14.5361 20.812 14.3532 20.4428 14.24 20.0501C13.9241 19.0245 13.7426 17.9623 13.7 16.8901H15.86ZM20.01 16.8901C19.8616 17.6786 19.536 18.4231 19.0579 19.0675C18.5798 19.7119 17.9616 20.2394 17.25 20.6101C17.6138 19.4014 17.8222 18.1514 17.87 16.8901H20.01ZM20.01 14.8901H17.87C17.8222 13.6288 17.6138 12.3787 17.25 11.1701C17.9598 11.5419 18.576 12.0699 19.0523 12.7142C19.5286 13.3585 19.8527 14.1025 20 14.8901H20.01Z" fill="#00365C"/>
<path d="M28.73 19.9999L29.51 19.2199C29.6271 19.1044 29.7139 18.9619 29.7627 18.8049C29.8116 18.648 29.8209 18.4814 29.79 18.3199C29.7589 18.1592 29.6889 18.0086 29.586 17.8814C29.4831 17.7541 29.3506 17.654 29.2 17.5899L24 15.3299C23.8153 15.2478 23.6101 15.2236 23.4113 15.2604C23.2126 15.2973 23.0296 15.3936 22.8867 15.5365C22.7438 15.6795 22.6475 15.8624 22.6106 16.0611C22.5737 16.2599 22.5979 16.4652 22.68 16.6499L24.92 21.8699C24.9842 22.0205 25.0842 22.153 25.2115 22.2558C25.3388 22.3587 25.4894 22.4288 25.65 22.4599C25.8115 22.4908 25.9781 22.4814 26.1351 22.4326C26.2921 22.3837 26.4346 22.2969 26.55 22.1799L27.33 21.3999L28.86 22.9299C28.9535 23.0226 29.0643 23.0959 29.1861 23.1457C29.308 23.1954 29.4384 23.2206 29.57 23.2199C29.7016 23.2206 29.8321 23.1954 29.9539 23.1457C30.0758 23.0959 30.1866 23.0226 30.28 22.9299C30.3738 22.8369 30.4482 22.7263 30.4989 22.6045C30.5497 22.4826 30.5758 22.3519 30.5758 22.2199C30.5758 22.0879 30.5497 21.9572 30.4989 21.8353C30.4482 21.7134 30.3738 21.6028 30.28 21.5099L28.73 19.9999ZM27 18.8299L26.12 19.7199L25.45 18.1599L27 18.8299Z" fill="#00365C"/>
<path d="M19 31.6597C19.5523 31.6597 20 31.212 20 30.6597C20 30.1074 19.5523 29.6597 19 29.6597C18.4477 29.6597 18 30.1074 18 30.6597C18 31.212 18.4477 31.6597 19 31.6597Z" fill="#F278AB"/>
<path d="M36.3 25.4298H35.19V5.33984C35.19 5.07463 35.0847 4.82027 34.8971 4.63274C34.7096 4.4452 34.4552 4.33984 34.19 4.33984H3.81001C3.5448 4.33984 3.29044 4.4452 3.10291 4.63274C2.91537 4.82027 2.81001 5.07463 2.81001 5.33984V25.4298H1.70001C1.4348 25.4298 1.18044 25.5352 0.992906 25.7227C0.805369 25.9103 0.700012 26.1646 0.700012 26.4298C0.700012 27.8143 1.24998 29.142 2.22891 30.1209C3.20785 31.0999 4.53558 31.6498 5.92001 31.6498H15.84C16.1052 31.6498 16.3596 31.5445 16.5471 31.357C16.7347 31.1694 16.84 30.9151 16.84 30.6498C16.84 30.3846 16.7347 30.1303 16.5471 29.9427C16.3596 29.7552 16.1052 29.6498 15.84 29.6498H5.92001C5.25257 29.6379 4.60534 29.4188 4.06788 29.0229C3.53041 28.6269 3.12929 28.0737 2.92001 27.4398H35.13C34.918 28.0818 34.5093 28.6406 33.9618 29.0373C33.4144 29.434 32.756 29.6483 32.08 29.6498H22.16C21.8948 29.6498 21.6404 29.7552 21.4529 29.9427C21.2654 30.1303 21.16 30.3846 21.16 30.6498C21.16 30.9151 21.2654 31.1694 21.4529 31.357C21.6404 31.5445 21.8948 31.6498 22.16 31.6498H32.08C33.4644 31.6498 34.7922 31.0999 35.7711 30.1209C36.7501 29.142 37.3 27.8143 37.3 26.4298C37.3 26.1646 37.1947 25.9103 37.0071 25.7227C36.8196 25.5352 36.5652 25.4298 36.3 25.4298ZM4.82001 25.4298V6.34984H33.18V25.4298H4.82001Z" fill="#00365C"/>
<path d="M27.04 18.8297L26.16 19.7197L25.49 18.1597L27.04 18.8297Z" fill="#F278AB"/>
<path d="M9.54999 14.9302C9.70052 14.1437 10.027 13.4015 10.5049 12.759C10.9829 12.1165 11.6 11.5905 12.31 11.2202C11.9462 12.4254 11.7378 13.6722 11.69 14.9302H9.54999Z" fill="#FFE982"/>
<path d="M15.86 16.9399C15.8175 18.0089 15.636 19.0678 15.32 20.0899C15.2163 20.4863 15.0326 20.8573 14.78 21.1799C14.5315 20.8547 14.3482 20.4846 14.24 20.0899C13.924 19.0678 13.7425 18.0089 13.7 16.9399H15.86Z" fill="#FFE982"/>
<path d="M20 14.9302H17.87C17.8222 13.6722 17.6138 12.4254 17.25 11.2202C17.9581 11.5916 18.5733 12.1182 19.0494 12.7606C19.5256 13.403 19.8505 14.1447 20 14.9302Z" fill="#FFE982"/>
</svg>
