<svg width="36" height="36" viewBox="0 0 36 36" fill="none" xmlns="http://www.w3.org/2000/svg">
<path d="M18.91 6.89023C19.0044 6.14636 19.374 5.46482 19.9459 4.97988C20.5179 4.49494 21.2507 4.24176 22 4.27023C22.7686 4.30685 23.4974 4.62267 24.0498 5.15843C24.6021 5.69419 24.94 6.41308 25 7.18023C25.0426 7.95043 24.7868 8.70743 24.2859 9.29401C23.785 9.8806 23.0773 10.2517 22.31 10.3302C21.9512 10.3668 21.5906 10.3835 21.23 10.3802H20.37H18.89V9.84023C18.89 9.52023 18.89 9.21023 18.89 8.90023C18.8515 8.23054 18.8581 7.55902 18.91 6.89023Z" fill="#F278AB"/>
<path d="M16.89 6.89004C16.7933 6.14799 16.4227 5.46887 15.851 4.98599C15.2793 4.5031 14.5478 4.25132 13.8 4.28005C13.0315 4.31214 12.3016 4.62514 11.7486 5.15969C11.1957 5.69423 10.8581 6.41314 10.8 7.18004C10.7572 7.94868 11.0116 8.70434 11.5104 9.29067C12.0093 9.87699 12.7144 10.2491 13.48 10.33C13.84 10.33 14.2 10.33 14.56 10.33H15.42H16.35H16.86V9.83005C16.86 9.51005 16.86 9.19005 16.86 8.89005C16.9097 8.22457 16.9197 7.55672 16.89 6.89004Z" fill="#F278AB"/>
<path d="M21 31.5601H25.8C26.26 31.5601 26.47 31.2401 26.47 30.5601V15.5601C26.47 14.8301 26.26 14.5601 25.78 14.5601H10.24C9.75999 14.5601 9.54999 14.8701 9.54999 15.6101V30.4401C9.54999 31.2801 9.73999 31.5601 10.3 31.5601H21Z" fill="#FFE982"/>
<path d="M33.4 19.65V17.19C33.4 15.19 33.4 13.19 33.4 11.19C33.4 10.06 33.06 9.74003 31.9 9.73003H28L28.38 8.18003C29.16 4.96003 28.38 2.73003 25.92 1.18003C23.63 -0.289965 21.3 -0.0999653 18.81 1.76003L18 2.33003L17.25 1.76003C14.8 -0.0899653 12.48 -0.239965 10.17 1.16003C7.70999 2.72003 6.90999 5.00003 7.67999 8.23003L8.04999 9.77003H4.77999C4.45999 9.77003 4.14999 9.77003 3.77999 9.77003C3.02999 9.77003 2.58999 10.18 2.57999 10.84C2.57999 14.26 2.57999 17.75 2.57999 20.41C2.57999 20.96 2.78999 21.26 3.23999 21.41L5.01999 21.88V22C5.01999 22 5.01999 25 5.01999 25.65C5.01999 28.49 5.01999 31.46 5.01999 34.48C5.01999 35.39 5.40999 35.78 6.30999 35.78H29.69C30.63 35.78 31.02 35.39 31.03 34.44C31.03 31.94 31.03 29.44 31.03 26.95V22L31.88 21.71C33.39 21.2 33.4 21.18 33.4 19.65ZM19.2 5.65003C19.3161 4.77955 19.7439 3.98068 20.404 3.40147C21.0641 2.82226 21.9118 2.502 22.79 2.50003H22.89C23.7911 2.55486 24.6423 2.93296 25.2871 3.56489C25.9319 4.19682 26.327 5.04016 26.4 5.94003C26.4389 6.85635 26.1295 7.75343 25.534 8.45096C24.9385 9.14848 24.1011 9.59474 23.19 9.70003C22.86 9.70003 22.52 9.75003 22.11 9.75003H19.18V8.47003C19.18 8.20003 19.18 7.93003 19.18 7.68003C19.1463 7.00024 19.153 6.31904 19.2 5.64003V5.65003ZM13.2 2.50003C14.1389 2.51135 15.0385 2.87926 15.7162 3.52917C16.394 4.17908 16.7993 5.06238 16.85 6.00003C16.85 6.58003 16.85 7.18003 16.85 7.71003V9.71003H14C13.61 9.71003 13.3 9.71003 13 9.71003C12.0672 9.65074 11.1943 9.22996 10.5668 8.53716C9.93936 7.84435 9.60686 6.93415 9.63999 6.00003C9.69434 5.07144 10.0937 4.19666 10.7597 3.5473C11.4257 2.89794 12.3103 2.52086 13.24 2.49003L13.2 2.50003ZM28.7 33.5H7.31999V21.56H28.74L28.7 33.5ZM31.05 19.22H4.91999V12.1H31.09L31.05 19.22Z" fill="#00365C"/>
</svg>
