<svg width="24" height="24" viewBox="0 0 24 24" fill="none" xmlns="http://www.w3.org/2000/svg">
<path d="M13.455 0.160012C12.972 0.104153 12.4862 0.0757741 12 0.0750122C8.83806 0.0776604 5.80642 1.33489 3.57063 3.57069C1.33483 5.80649 0.0775993 8.83812 0.0749512 12C0.0775993 15.1619 1.33483 18.1935 3.57063 20.4293C5.80642 22.6651 8.83806 23.9224 12 23.925C15.1618 23.9224 18.1935 22.6651 20.4293 20.4293C22.6651 18.1935 23.9223 15.1619 23.9249 12C23.9195 9.33026 23.0239 6.73855 21.3799 4.63501L21.2849 4.50001H22.1799C22.2352 4.50626 22.2912 4.50077 22.3442 4.48389C22.3972 4.46702 22.446 4.43914 22.4875 4.40209C22.5289 4.36504 22.5621 4.31964 22.5849 4.26888C22.6076 4.21812 22.6193 4.16313 22.6193 4.10751C22.6193 4.0519 22.6076 3.99691 22.5849 3.94614C22.5621 3.89538 22.5289 3.84999 22.4875 3.81293C22.446 3.77588 22.3972 3.74801 22.3442 3.73113C22.2912 3.71426 22.2352 3.70876 22.1799 3.71501H20.3999C20.296 3.715 20.1963 3.75593 20.1224 3.82893C20.0485 3.90193 20.0063 4.00112 20.0049 4.10501V5.89001C20.0049 5.99477 20.0466 6.09524 20.1206 6.16932C20.1947 6.2434 20.2952 6.28501 20.3999 6.28501C20.5047 6.28501 20.6052 6.2434 20.6793 6.16932C20.7533 6.09524 20.7949 5.99477 20.7949 5.89001V5.16001L20.9299 5.34001C22.4295 7.35063 23.2066 9.80845 23.1355 12.3157C23.0645 14.8229 22.1494 17.2327 20.5383 19.1552C18.9273 21.0776 16.7147 22.4001 14.2586 22.9087C11.8024 23.4172 9.24657 23.0819 7.00467 21.9572C4.76276 20.8325 2.96601 18.9841 1.90526 16.7112C0.844505 14.4384 0.581819 11.874 1.15972 9.43331C1.73763 6.99258 3.1223 4.81829 5.08961 3.26239C7.05692 1.70649 9.49173 0.860024 12 0.860012C12.4546 0.860766 12.9088 0.889151 13.36 0.945012C13.4633 0.956296 13.5669 0.926409 13.6483 0.861829C13.7297 0.797249 13.7824 0.70318 13.795 0.600012C13.8021 0.548774 13.7986 0.496624 13.7849 0.446758C13.7711 0.396893 13.7473 0.35036 13.715 0.310012C13.6504 0.228944 13.5575 0.175349 13.455 0.160012Z" fill="#333333"/>
<path d="M5.04 7.14004C4.97849 7.097 4.90507 7.07428 4.83 7.07504C4.76372 7.07486 4.69852 7.0918 4.64071 7.12421C4.5829 7.15662 4.53443 7.2034 4.5 7.26004C3.42697 8.96088 2.96377 10.9759 3.18635 12.9745C3.40893 14.9732 4.30408 16.8369 5.725 18.26C6.90432 19.4441 8.39417 20.271 10.0229 20.6453C11.6516 21.0196 13.353 20.9262 14.9309 20.3758C16.5089 19.8254 17.8993 18.8405 18.9419 17.5344C19.9845 16.2283 20.6369 14.6542 20.8239 12.9936C21.011 11.3329 20.7251 9.65312 19.9992 8.14782C19.2733 6.64252 18.1369 5.37292 16.7209 4.48528C15.305 3.59764 13.667 3.12808 11.9958 3.13069C10.3246 3.1333 8.68819 3.60798 7.275 4.50004C7.23114 4.52711 7.19308 4.5626 7.16302 4.60447C7.13296 4.64634 7.1115 4.69375 7.09988 4.74396C7.08825 4.79418 7.0867 4.8462 7.0953 4.89702C7.10391 4.94784 7.1225 4.99645 7.15 5.04004C7.20733 5.12873 7.29704 5.19153 7.4 5.21504C7.45002 5.22681 7.50189 5.22845 7.55256 5.21987C7.60322 5.21128 7.65166 5.19264 7.695 5.16504C8.98329 4.35503 10.474 3.92507 11.9958 3.92457C13.5176 3.92407 15.0086 4.35306 16.2974 5.16221C17.5862 5.97137 18.6205 7.12783 19.2813 8.49863C19.9422 9.86943 20.2027 11.3989 20.033 12.9112C19.8633 14.4235 19.2703 15.8571 18.322 17.0474C17.3738 18.2376 16.1089 19.1361 14.6728 19.6394C13.2367 20.1428 11.6877 20.2307 10.2039 19.8929C8.72008 19.5551 7.36172 18.8054 6.285 17.73C4.99406 16.4277 4.18099 14.7274 3.97769 12.905C3.77439 11.0825 4.19278 9.24484 5.165 7.69004C5.19411 7.64608 5.21399 7.59668 5.22347 7.54482C5.23294 7.49296 5.2318 7.43971 5.22012 7.3883C5.20843 7.3369 5.18645 7.28839 5.15549 7.24572C5.12453 7.20305 5.08525 7.1671 5.04 7.14004Z" fill="#333333"/>
<path d="M18.67 11.615H18.09C18.0347 11.6087 17.9788 11.6142 17.9258 11.6311C17.8728 11.648 17.824 11.6759 17.7825 11.7129C17.741 11.75 17.7078 11.7954 17.6851 11.8461C17.6624 11.8969 17.6506 11.9519 17.6506 12.0075C17.6506 12.0631 17.6624 12.1181 17.6851 12.1689C17.7078 12.2196 17.741 12.265 17.7825 12.3021C17.824 12.3391 17.8728 12.367 17.9258 12.3839C17.9788 12.4007 18.0347 12.4062 18.09 12.4H18.67C18.7665 12.3891 18.8555 12.343 18.9202 12.2706C18.9849 12.1982 19.0206 12.1046 19.0206 12.0075C19.0206 11.9104 18.9849 11.8167 18.9202 11.7443C18.8555 11.6719 18.7665 11.6259 18.67 11.615Z" fill="#333333"/>
<path d="M5.90988 11.6H5.33488C5.27961 11.5938 5.22365 11.5993 5.17066 11.6162C5.11767 11.633 5.06883 11.6609 5.02736 11.698C4.98588 11.735 4.95269 11.7804 4.92997 11.8312C4.90725 11.8819 4.89551 11.9369 4.89551 11.9925C4.89551 12.0482 4.90725 12.1031 4.92997 12.1539C4.95269 12.2047 4.98588 12.2501 5.02736 12.2871C5.06883 12.3242 5.11767 12.352 5.17066 12.3689C5.22365 12.3858 5.27961 12.3913 5.33488 12.385H5.90988C5.96514 12.3913 6.0211 12.3858 6.0741 12.3689C6.12709 12.352 6.17593 12.3242 6.2174 12.2871C6.25888 12.2501 6.29206 12.2047 6.31478 12.1539C6.3375 12.1031 6.34925 12.0482 6.34925 11.9925C6.34925 11.9369 6.3375 11.8819 6.31478 11.8312C6.29206 11.7804 6.25888 11.735 6.2174 11.698C6.17593 11.6609 6.12709 11.633 6.0741 11.6162C6.0211 11.5993 5.96514 11.5938 5.90988 11.6Z" fill="#333333"/>
<path d="M12 4.94003C11.9484 4.93937 11.8972 4.94897 11.8493 4.96827C11.8014 4.98758 11.7578 5.0162 11.721 5.05248C11.6843 5.08876 11.6551 5.13198 11.6352 5.17962C11.6153 5.22727 11.605 5.2784 11.605 5.33003V5.91003C11.5988 5.9653 11.6043 6.02126 11.6212 6.07425C11.638 6.12725 11.6659 6.17608 11.703 6.21756C11.74 6.25903 11.7854 6.29222 11.8362 6.31494C11.8869 6.33766 11.9419 6.3494 11.9975 6.3494C12.0532 6.3494 12.1081 6.33766 12.1589 6.31494C12.2097 6.29222 12.2551 6.25903 12.2921 6.21756C12.3292 6.17608 12.357 6.12725 12.3739 6.07425C12.3908 6.02126 12.3963 5.9653 12.39 5.91003V5.33003C12.39 5.2266 12.349 5.1274 12.2758 5.05426C12.2027 4.98112 12.1035 4.94003 12 4.94003Z" fill="#333333"/>
<path d="M12 17.695C11.8953 17.695 11.7948 17.7366 11.7207 17.8107C11.6467 17.8848 11.605 17.9852 11.605 18.09V18.665C11.5988 18.7203 11.6043 18.7762 11.6212 18.8292C11.638 18.8822 11.6659 18.9311 11.703 18.9725C11.74 19.014 11.7854 19.0472 11.8362 19.0699C11.8869 19.0926 11.9419 19.1044 11.9975 19.1044C12.0532 19.1044 12.1081 19.0926 12.1589 19.0699C12.2097 19.0472 12.2551 19.014 12.2921 18.9725C12.3292 18.9311 12.357 18.8822 12.3739 18.8292C12.3908 18.7762 12.3963 18.7203 12.39 18.665V18.09C12.39 17.9861 12.3491 17.8864 12.2761 17.8125C12.2031 17.7385 12.1039 17.6963 12 17.695Z" fill="#333333"/>
<path d="M16.575 7.425C16.4997 7.35288 16.3994 7.31262 16.295 7.31262C16.1907 7.31262 16.0904 7.35288 16.015 7.425L12.775 10.67L12.725 10.645C12.5017 10.5268 12.2528 10.465 12 10.465C11.7473 10.465 11.4984 10.5268 11.275 10.645L11.225 10.67L9.60005 9.045C9.56406 9.00687 9.52066 8.97649 9.47251 8.95572C9.42437 8.93496 9.37248 8.92425 9.32005 8.92425C9.26761 8.92425 9.21573 8.93496 9.16758 8.95572C9.11944 8.97649 9.07604 9.00687 9.04005 9.045C8.96727 9.11813 8.926 9.21684 8.92505 9.32C8.92676 9.42449 8.96783 9.52448 9.04005 9.6L10.67 11.225L10.645 11.275C10.5231 11.4972 10.4595 11.7466 10.46 12C10.46 12.4084 10.6223 12.8001 10.9111 13.0889C11.1999 13.3778 11.5916 13.54 12 13.54C12.4085 13.54 12.8002 13.3778 13.089 13.0889C13.3778 12.8001 13.54 12.4084 13.54 12C13.5406 11.7466 13.477 11.4972 13.355 11.275L13.33 11.225L16.575 8C16.6483 7.92523 16.6894 7.82471 16.6894 7.72C16.6894 7.6153 16.6483 7.51478 16.575 7.44V7.425ZM12 12.75C11.8517 12.75 11.7067 12.706 11.5834 12.6236C11.46 12.5412 11.3639 12.4241 11.3071 12.287C11.2504 12.15 11.2355 11.9992 11.2645 11.8537C11.2934 11.7082 11.3648 11.5746 11.4697 11.4697C11.5746 11.3648 11.7082 11.2934 11.8537 11.2644C11.9992 11.2355 12.15 11.2503 12.2871 11.3071C12.4241 11.3639 12.5412 11.46 12.6237 11.5833C12.7061 11.7067 12.75 11.8517 12.75 12C12.75 12.1989 12.671 12.3897 12.5304 12.5303C12.3897 12.671 12.199 12.75 12 12.75Z" fill="#333333"/>
<path d="M6.39986 6.00004C6.39836 5.89453 6.35523 5.79389 6.27986 5.72004C6.20673 5.64726 6.10803 5.60599 6.00486 5.60504C5.92674 5.60504 5.85037 5.62821 5.78541 5.67161C5.72046 5.71501 5.66983 5.7767 5.63993 5.84888C5.61003 5.92106 5.60221 6.00048 5.61745 6.0771C5.63269 6.15372 5.67031 6.22411 5.72556 6.27935C5.7808 6.33459 5.85118 6.37221 5.9278 6.38745C6.00443 6.40269 6.08385 6.39487 6.15602 6.36497C6.2282 6.33508 6.28989 6.28445 6.33329 6.21949C6.3767 6.15453 6.39986 6.07817 6.39986 6.00004Z" fill="#333333"/>
<path d="M15.2449 0.540041C15.1929 0.539859 15.1414 0.549923 15.0934 0.569656C15.0454 0.589389 15.0017 0.618405 14.9649 0.655041C14.893 0.728755 14.8518 0.827088 14.8499 0.930041C14.8516 1.03452 14.8926 1.13452 14.9649 1.21004C15.0413 1.27996 15.1412 1.31873 15.2449 1.31873C15.3485 1.31873 15.4484 1.27996 15.5249 1.21004C15.5971 1.13452 15.6381 1.03452 15.6399 0.930041C15.6379 0.827088 15.5968 0.728755 15.5249 0.655041C15.488 0.618405 15.4444 0.589389 15.3963 0.569656C15.3483 0.549923 15.2968 0.539859 15.2449 0.540041Z" fill="#333333"/>
</svg>
