<svg width="36" height="37" viewBox="0 0 36 37" fill="none" xmlns="http://www.w3.org/2000/svg">
<rect y="0.995605" width="36" height="36" fill="white"/>
<path d="M31.95 26.9456H22.03V33.5356H31.95V26.9456Z" fill="#FFE982"/>
<path d="M5.53001 12.2756V11.9056C5.53001 11.0256 5.53001 10.1456 5.53001 9.2556C5.54001 8.4256 6.09001 7.8756 6.92001 7.8656C8.04001 7.8556 9.17001 7.8556 10.29 7.8656C11.15 7.8656 11.7 8.4256 11.71 9.2956C11.71 10.1756 11.71 11.0556 11.71 11.9456V12.2656C11.79 12.2756 11.82 12.2856 11.85 12.2856C15.83 12.2856 21.42 12.2856 25.4 12.2756C25.52 12.2756 25.69 12.1656 25.76 12.0556C26.51 10.9056 27.24 9.7356 27.99 8.5756C28.12 8.3856 28.12 8.2456 27.99 8.0456C27.25 6.8956 26.52 5.7456 25.79 4.5956C25.68 4.4156 25.56 4.3356 25.34 4.3356C18.81 4.3456 10.67 4.3456 4.13001 4.3456H3.79001V12.2756H5.53001Z" fill="#FFE982"/>
<path d="M4.5 15.6256C3.58 15.6256 2.72 15.6256 1.87 15.6256C0.68 15.6156 0 14.9356 0 13.7456C0 10.1256 0 6.49561 0 2.86561C0 1.68561 0.69 1.00561 1.88 1.00561C10.74 1.00561 19.61 1.00561 28.47 0.995605C29.05 0.995605 29.45 1.21561 29.76 1.70561C30.98 3.64561 32.2 5.57561 33.45 7.49561C33.82 8.06561 33.81 8.56561 33.45 9.12561C32.2 11.0556 30.96 13.0056 29.74 14.9456C29.45 15.4156 29.06 15.6156 28.51 15.6156C23.31 15.6056 18.12 15.6156 12.93 15.6156H12.39V16.1356V35.5756C12.39 36.5856 11.99 36.9856 10.98 36.9856C9.25 36.9856 7.53 36.9856 5.8 36.9856C4.96 36.9856 4.52 36.5356 4.51 35.6956C4.51 29.1756 4.51 22.6556 4.51 16.1356V15.6256H4.5ZM4.5 13.3656V12.8956C4.5 11.7756 4.5 10.6456 4.5 9.52561C4.51 8.47561 5.22 7.76561 6.27 7.75561C7.7 7.74561 9.14 7.74561 10.57 7.75561C11.67 7.75561 12.37 8.46561 12.38 9.57561C12.38 10.6956 12.38 11.8256 12.38 12.9456V13.3656C12.49 13.3756 12.53 13.3856 12.57 13.3856C17.64 13.3856 22.72 13.3856 27.79 13.3756C27.95 13.3756 28.16 13.2356 28.25 13.0956C29.2 11.6256 30.14 10.1356 31.09 8.66561C31.25 8.41561 31.26 8.23561 31.09 7.98561C30.14 6.52561 29.21 5.05561 28.29 3.58561C28.15 3.35561 28 3.25561 27.72 3.26561C19.38 3.25561 11.05 3.25561 2.72 3.25561H2.28V13.3656H4.5ZM6.78 34.7256H10.1V10.0256H6.78V34.7256Z" fill="#00365C"/>
<path d="M22.49 23.4956C22.49 22.7656 22.49 22.0856 22.49 21.4056C22.49 19.9356 23.43 18.9956 24.9 18.9956C26.31 18.9956 27.71 18.9956 29.12 18.9956C30.54 18.9956 31.48 19.9356 31.49 21.3656C31.49 22.0556 31.49 22.7556 31.49 23.4956C32.44 23.4956 33.36 23.4856 34.28 23.4956C35.11 23.5056 35.75 24.0056 35.94 24.8056C35.98 24.9756 35.99 25.1456 35.99 25.3256C35.99 28.6056 35.99 31.8856 35.99 35.1656C35.99 36.2956 35.29 36.9956 34.16 36.9956C29.38 36.9956 24.6 36.9956 19.82 36.9956C18.7 36.9956 18 36.2956 18 35.1656C18 31.8856 18 28.6056 18 25.3256C18 24.1956 18.7 23.4956 19.83 23.4956C20.69 23.4956 21.56 23.4956 22.49 23.4956ZM33.73 30.2656C33.67 30.2656 33.63 30.2556 33.6 30.2656C31.92 30.8356 30.19 31.1956 28.42 31.3056C28.21 31.3156 28.14 31.4056 28.09 31.6056C27.95 32.1556 27.51 32.4956 26.99 32.4956C26.47 32.4956 26.05 32.1456 25.89 31.6056C25.87 31.5256 25.84 31.4356 25.82 31.3456C25.8 31.3856 25.79 31.4256 25.77 31.4556C23.93 31.0856 22.09 30.7156 20.26 30.3556V34.7156H33.71V30.2656H33.73ZM28.15 29.0656C30.03 28.9556 31.82 28.5556 33.55 27.8756C33.63 27.8456 33.73 27.7156 33.74 27.6256C33.76 27.0156 33.75 26.4056 33.75 25.7756H20.27V27.8056C22.07 28.5156 23.92 28.9556 25.85 29.0556C26 28.4356 26.33 28.0156 26.97 27.9956C27.65 27.9856 28 28.4256 28.15 29.0656ZM29.21 21.2656H24.78V23.4756H29.21V21.2656Z" fill="#00365C"/>
<path d="M29.2 21.2656H24.77V23.4756H29.2V21.2656Z" fill="#F278AB"/>
<path d="M23.16 9.4356C22.19 9.4356 21.23 9.4456 20.27 9.4356C19.35 9.4156 18.82 8.4856 19.29 7.7256C19.52 7.3556 19.87 7.1856 20.3 7.1856C21.1 7.1856 21.91 7.1856 22.71 7.1856H23.15C23 6.3556 23.16 5.8856 23.67 5.6256C24.11 5.4056 24.59 5.4556 24.97 5.8256C25.55 6.3856 26.12 6.9456 26.67 7.5356C27.13 8.0156 27.1 8.6656 26.62 9.1556C26.11 9.6856 25.58 10.2056 25.06 10.7156C24.6 11.1656 24.09 11.2456 23.6 10.9556C23.15 10.6856 22.98 10.1956 23.14 9.5956C23.15 9.5556 23.15 9.5156 23.16 9.4356Z" fill="#00365C"/>
<path d="M16.87 8.30561C16.87 8.92561 16.37 9.43561 15.76 9.43561C15.15 9.44561 14.63 8.93561 14.63 8.32561C14.62 7.71561 15.13 7.19561 15.74 7.19561C16.36 7.18561 16.87 7.68561 16.87 8.30561Z" fill="#F278AB"/>
</svg>
