<svg width="36" height="36" viewBox="0 0 36 36" fill="none" xmlns="http://www.w3.org/2000/svg">
<g clip-path="url(#clip0_803_13408)">
<path d="M3.12 17.7H21.19V19.81H2.07V18.81C2.06182 18.6671 2.08293 18.5241 2.13202 18.3897C2.18112 18.2553 2.25716 18.1323 2.35549 18.0284C2.45382 17.9244 2.57236 17.8417 2.70382 17.7852C2.83529 17.7287 2.97691 17.6997 3.12 17.7Z" fill="#F278AB"/>
<path d="M32.67 11.62H24.56V18.76H32.67V11.62Z" fill="#FFE982"/>
<path d="M28.62 13.5C28.4813 13.4987 28.3437 13.5248 28.2151 13.577C28.0866 13.6292 27.9696 13.7063 27.8711 13.804C27.7725 13.9016 27.6943 14.0178 27.6409 14.1458C27.5875 14.2739 27.56 14.4112 27.56 14.55V16.66C27.5456 16.8072 27.5623 16.9557 27.6087 17.0961C27.6552 17.2364 27.7306 17.3655 27.8299 17.4751C27.9293 17.5846 28.0505 17.6721 28.1857 17.732C28.3209 17.7919 28.4671 17.8228 28.615 17.8228C28.7629 17.8228 28.9091 17.7919 29.0443 17.732C29.1795 17.6721 29.3007 17.5846 29.4 17.4751C29.4994 17.3655 29.5748 17.2364 29.6212 17.0961C29.6677 16.9557 29.6843 16.8072 29.67 16.66V14.55C29.6772 14.4102 29.6549 14.2705 29.6047 14.1398C29.5545 14.0092 29.4774 13.8905 29.3784 13.7916C29.2794 13.6926 29.1608 13.6155 29.0302 13.5653C28.8995 13.515 28.7598 13.4928 28.62 13.5Z" fill="#F278AB"/>
<path d="M35 8.43997H34.29V5.61998C34.29 4.12283 33.6953 2.687 32.6366 1.62836C31.578 0.569715 30.1421 -0.0250244 28.645 -0.0250244C27.1479 -0.0250244 25.712 0.569715 24.6534 1.62836C23.5947 2.687 23 4.12283 23 5.61998V8.43997H22.3C22.0206 8.43996 21.7525 8.55027 21.554 8.7469C21.3555 8.94353 21.2426 9.21058 21.24 9.48997V15.61H3.16C2.32273 15.6126 1.5205 15.9464 0.928456 16.5384C0.336411 17.1305 0.0026371 17.9327 0 18.77L0 32.84C0.0026371 33.6772 0.336411 34.4795 0.928456 35.0715C1.5205 35.6636 2.32273 35.9973 3.16 36H28.48C29.3173 35.9973 30.1195 35.6636 30.7115 35.0715C31.3036 34.4795 31.6374 33.6772 31.64 32.84V21.94H35C35.2715 21.927 35.5273 21.8094 35.7138 21.6117C35.9003 21.414 36.0029 21.1517 36 20.88V9.48997C36.0068 9.35451 35.9859 9.21908 35.9387 9.09192C35.8915 8.96476 35.8189 8.84854 35.7254 8.75032C35.6318 8.6521 35.5193 8.57394 35.3946 8.52058C35.2699 8.46723 35.1356 8.43981 35 8.43997ZM25.1 5.61998C25.1925 4.75623 25.6011 3.95717 26.2472 3.37653C26.8933 2.79589 27.7313 2.47468 28.6 2.47468C29.4687 2.47468 30.3067 2.79589 30.9528 3.37653C31.5989 3.95717 32.0075 4.75623 32.1 5.61998V8.43997H25.1V5.61998ZM3.16 17.72H21.23V19.83H2.11V18.77C2.10282 18.6302 2.12506 18.4905 2.17528 18.3598C2.22551 18.2292 2.3026 18.1105 2.40158 18.0116C2.50055 17.9126 2.61919 17.8355 2.74984 17.7853C2.88048 17.735 3.02022 17.7128 3.16 17.72ZM28.48 33.89H3.16C3.02453 33.8968 2.8891 33.8759 2.76194 33.8287C2.63479 33.7815 2.51856 33.7089 2.42034 33.6154C2.32212 33.5218 2.24396 33.4093 2.19061 33.2846C2.13726 33.1599 2.10983 33.0256 2.11 32.89V26.16H29.53V32.84C29.5372 32.9798 29.5149 33.1195 29.4647 33.2501C29.4145 33.3808 29.3374 33.4994 29.2384 33.5984C29.1395 33.6974 29.0208 33.7745 28.8902 33.8247C28.7595 33.8749 28.6198 33.8972 28.48 33.89ZM29.53 24.05H2.11V21.94H29.53V24.05ZM33.89 19.83H23.34V10.55H33.89V19.83Z" fill="#00365C"/>
<path d="M28.48 30.54H3.16C2.58 30.54 2.11 30.27 2.11 29.94V26.16H29.53V29.94C29.53 30.27 29.06 30.54 28.48 30.54Z" fill="#FFE982"/>
</g>
<defs>
<clipPath id="clip0_803_13408">
<rect width="36" height="36" fill="white"/>
</clipPath>
</defs>
</svg>
