<svg width="36" height="36" viewBox="0 0 36 36" fill="none" xmlns="http://www.w3.org/2000/svg">
<rect width="36" height="36" fill="white"/>
<path d="M25.64 28.8276C27.04 28.3876 28.49 27.9276 29.6 27.9276C30.51 27.9276 31.07 28.2376 31.43 28.5576C29 29.7976 22.41 33.0176 19.55 33.0176C17.71 33.0176 13.89 31.7376 9.04001 29.4976L10.56 23.4876L21.81 26.2076C22.51 26.3676 23 26.9776 23.03 27.6976C22.24 27.8976 24.11 29.3076 25.64 28.8276Z" fill="#FFE982"/>
<path d="M31.2 25.7376C29.56 25.7376 27.71 26.3176 25.92 26.8876L25.58 26.9976C25.32 25.4176 24.15 24.1476 22.58 23.7876L9.44 20.6176C9.55 20.1776 9.37 19.7176 8.99 19.4676C8.88 19.3976 6.15 17.6576 1.06 17.6576C0.48 17.6576 0 18.1376 0 18.7176V31.9476C0 32.5376 0.48 33.0176 1.06 33.0176H5.47C5.96 33.0176 6.38 32.6876 6.5 32.2176L6.6 31.8176C10.82 33.7476 16.34 35.9576 19.43 35.9576C23.92 35.9576 34.2 30.5676 35.37 29.9576C35.83 29.7076 36.04 29.1776 35.88 28.6776C35.84 28.5576 34.86 25.7376 31.2 25.7376ZM7.17 20.9176L4.64 30.8876H2.13V19.8076C4.58 19.9476 6.27 20.5176 7.17 20.9176ZM21.28 27.9476C18.58 27.9476 14.7 26.5576 14.66 26.5376C14.12 26.3376 13.5 26.6176 13.3 27.1776C13.1 27.7276 13.39 28.3376 13.94 28.5376C14.11 28.5976 18.19 30.0676 21.29 30.0676C22.93 30.0676 24.78 29.4876 26.57 28.9176C28.21 28.3976 29.9 27.8676 31.21 27.8676C32.27 27.8676 32.93 28.2276 33.35 28.6076C30.5 30.0576 22.79 33.8276 19.45 33.8276C17.3 33.8276 12.82 32.3276 7.15 29.7076L8.93 22.6776L22.1 25.8576C22.92 26.0476 23.49 26.7576 23.53 27.5976C22.58 27.8376 21.86 27.9476 21.28 27.9476Z" fill="#00365C"/>
<path d="M19.625 8.41128C16.925 7.41128 15.745 5.69128 16.195 3.38128C16.585 1.37128 18.385 -0.0487201 20.485 0.00127987C22.515 0.0512799 24.225 1.62128 24.525 3.73128C24.825 5.84128 23.495 7.62128 20.935 8.43128C21.215 8.49128 21.415 8.53128 21.615 8.57128C24.495 9.16128 26.605 11.7013 26.645 14.6313C26.655 14.9813 26.655 15.3313 26.645 15.6713C26.635 16.4513 26.235 16.8613 25.455 16.8613C24.035 16.8613 22.615 16.8613 21.195 16.8613C19.215 16.8613 17.235 16.8613 15.255 16.8613C14.395 16.8613 14.015 16.4713 14.005 15.6113C13.985 14.5213 14.005 13.4413 14.445 12.4213C15.385 10.2513 17.005 8.94128 19.325 8.51128C19.405 8.50128 19.485 8.49128 19.565 8.46128C19.585 8.45128 19.605 8.42128 19.625 8.41128ZM24.555 14.7313C24.465 13.1213 23.785 11.8713 22.395 11.0913C20.835 10.2213 19.285 10.3213 17.825 11.3713C16.695 12.1913 16.145 13.3213 16.115 14.7313H24.555ZM20.325 2.10128C19.195 2.10128 18.225 3.07128 18.215 4.20128C18.205 5.35128 19.185 6.33128 20.325 6.33128C21.455 6.33128 22.425 5.37128 22.435 4.23128C22.445 3.07128 21.475 2.09128 20.325 2.10128Z" fill="#00365C"/>
<path d="M23.635 14.7313C23.565 13.4713 23.035 12.4913 21.945 11.8813C20.725 11.2013 19.505 11.2813 18.365 12.1013C17.475 12.7413 17.045 13.6313 17.015 14.7313H23.635Z" fill="#FFE982"/>
<path d="M20.325 2.10127C19.195 2.10127 18.225 3.07127 18.215 4.20127C18.205 5.35127 19.185 6.33127 20.325 6.33127C21.455 6.33127 22.425 5.37127 22.435 4.23127C22.445 3.07127 21.475 2.09127 20.325 2.10127Z" fill="#F278AB"/>
</svg>
