<svg width="36" height="36" viewBox="0 0 36 36" fill="none" xmlns="http://www.w3.org/2000/svg">
<rect width="36" height="36" fill="white"/>
<path d="M25.68 28.8588C27.08 28.4188 28.53 27.9588 29.65 27.9588C30.56 27.9588 31.13 28.2688 31.48 28.5888C29.04 29.8288 22.44 33.0588 19.58 33.0588C17.74 33.0588 13.91 31.7788 9.04999 29.5388L10.58 23.5188L21.85 26.2388C22.55 26.3988 23.04 27.0088 23.07 27.7288C22.27 27.9288 24.15 29.3388 25.68 28.8588Z" fill="#FFE982"/>
<path d="M31.25 25.7688C29.61 25.7688 27.76 26.3588 25.96 26.9188L25.62 27.0288C25.36 25.4488 24.19 24.1788 22.62 23.8088L9.46 20.6288C9.57 20.1888 9.39 19.7288 9.01 19.4788C8.9 19.4088 6.17 17.6688 1.07 17.6688C0.48 17.6688 0 18.1488 0 18.7388V31.9888C0 32.5788 0.48 33.0588 1.06 33.0588H5.48C5.97 33.0588 6.39 32.7288 6.51 32.2588L6.61 31.8588C10.84 33.7788 16.37 35.9988 19.47 35.9988C23.96 35.9988 34.27 30.5988 35.43 29.9788C35.89 29.7288 36.1 29.1988 35.94 28.6988C35.9 28.5888 34.92 25.7688 31.25 25.7688ZM7.19 20.9388L4.66 30.9288H2.13V19.8288C4.59 19.9588 6.28 20.5288 7.19 20.9388ZM21.31 27.9788C18.61 27.9788 14.72 26.5788 14.68 26.5688C14.13 26.3688 13.52 26.6488 13.31 27.2088C13.11 27.7588 13.4 28.3788 13.95 28.5788C14.12 28.6388 18.21 30.1088 21.31 30.1088C22.95 30.1088 24.8 29.5188 26.6 28.9588C28.24 28.4388 29.94 27.8988 31.25 27.8988C32.31 27.8988 32.98 28.2588 33.39 28.6388C30.54 30.0888 22.81 33.8688 19.47 33.8688C17.31 33.8688 12.83 32.3688 7.15 29.7488L8.94 22.6988L22.13 25.8888C22.95 26.0788 23.53 26.7888 23.56 27.6288C22.62 27.8688 21.9 27.9788 21.31 27.9788Z" fill="#00365C"/>
<path d="M30.76 8.67875V12.0287H29.78V10.6887C29.78 9.53875 28.85 8.60875 27.71 8.60875H27.7C26.56 8.60875 25.63 9.53875 25.62 10.6787C25.62 11.0587 25.62 11.4287 25.62 11.8187V12.0287H24.64V8.70875C24.64 8.26875 24.42 7.99875 24.03 7.92875C24.42 7.55875 24.8 7.19875 25.19 6.82875L27.52 4.61875C27.64 4.49875 27.76 4.49875 27.88 4.61875L31.37 7.91875C31 7.98875 30.76 8.27875 30.76 8.67875Z" fill="#FFE982"/>
<path d="M28.91 11.4388C28.9 11.1788 28.78 10.9488 28.71 10.8388C28.42 10.3888 27.87 10.1888 27.34 10.3488C26.84 10.4988 26.49 10.9788 26.48 11.5088C26.48 11.8388 26.48 12.1688 26.48 12.5088V12.9488C26.48 12.9788 26.48 13.0088 26.49 13.0488L26.52 13.3388H28.92V12.5888C28.92 12.1988 28.92 11.8188 28.91 11.4388Z" fill="#F278AB"/>
<path d="M35.43 6.34875C33.45 4.46875 31.47 2.59875 29.48 0.718755C28.46 -0.241245 27.04 -0.241245 26.01 0.728755L20.04 6.38875C19.52 6.87875 19.37 7.60876 19.64 8.26875C19.88 8.85876 20.41 9.23875 21.04 9.29875V14.2888C21.04 15.0288 21.48 15.4688 22.21 15.4688H33.27C34.01 15.4688 34.44 15.0288 34.44 14.2988V9.29875C35.1 9.22875 35.61 8.85875 35.85 8.24875C36.14 7.55875 35.98 6.86875 35.43 6.34875ZM26.77 11.3188C26.77 10.8888 27.06 10.4988 27.46 10.3788C27.9 10.2488 28.33 10.3888 28.56 10.7588C28.66 10.9188 28.73 11.0988 28.73 11.2288C28.75 11.8588 28.75 12.4988 28.74 13.1388V13.3288H26.76V13.0088C26.76 12.4488 26.76 11.8888 26.77 11.3188ZM32.33 8.30875V13.3288H30.86V11.3288C30.85 9.60875 29.46 8.21875 27.76 8.20875H27.75C26.04 8.20875 24.65 9.59875 24.64 11.3088C24.64 11.8788 24.64 12.4388 24.64 13.0088V13.3188H23.17V8.36875C23.17 7.70875 22.84 7.29876 22.26 7.20876C22.84 6.65875 23.42 6.10876 23.99 5.56876L27.48 2.26875C27.66 2.09875 27.83 2.08875 28.02 2.26875L33.24 7.20876C32.69 7.28875 32.33 7.70876 32.33 8.30875Z" fill="#00365C"/>
</svg>
