<svg width="36" height="36" viewBox="0 0 36 36" fill="none" xmlns="http://www.w3.org/2000/svg">
<rect width="36" height="36" fill="white"/>
<path d="M24.12 13.39C25.33 14.08 26.87 14.08 28.08 13.39L30.79 16.1C29.44 17.12 27.79 17.68 26.1 17.68C24.41 17.68 22.76 17.12 21.42 16.1L24.12 13.39Z" fill="#FFE982"/>
<path d="M25.68 28.86C27.08 28.42 28.53 27.96 29.65 27.96C30.56 27.96 31.13 28.27 31.48 28.59C29.04 29.83 22.44 33.06 19.58 33.06C17.74 33.06 13.91 31.78 9.04999 29.54L10.58 23.52L21.85 26.24C22.55 26.4 23.04 27.01 23.07 27.73C22.27 27.93 24.15 29.34 25.68 28.86Z" fill="#FFE982"/>
<path d="M31.25 25.77C29.61 25.77 27.76 26.36 25.96 26.92L25.62 27.03C25.36 25.45 24.19 24.18 22.62 23.81L9.46 20.63C9.57 20.19 9.39 19.73 9.01 19.48C8.9 19.41 6.16 17.67 1.06 17.67C0.48 17.67 0 18.15 0 18.74V31.99C0 32.58 0.48 33.05 1.06 33.05H5.48C5.97 33.05 6.39 32.72 6.51 32.25L6.61 31.85C10.84 33.78 16.37 36 19.47 36C23.96 36 34.27 30.6 35.43 29.99C35.89 29.74 36.1 29.21 35.94 28.71C35.9 28.59 34.92 25.77 31.25 25.77ZM7.19 20.94L4.66 30.93H2.13V19.83C4.59 19.96 6.28 20.53 7.19 20.94ZM21.31 27.98C18.61 27.98 14.72 26.59 14.68 26.57C14.13 26.37 13.52 26.65 13.31 27.21C13.11 27.76 13.4 28.38 13.95 28.58C14.12 28.64 18.21 30.11 21.31 30.11C22.95 30.11 24.81 29.52 26.6 28.96C28.24 28.44 29.94 27.9 31.25 27.9C32.31 27.9 32.98 28.26 33.39 28.64C30.54 30.09 22.81 33.87 19.47 33.87C17.31 33.87 12.83 32.37 7.15 29.75L8.94 22.7L22.13 25.89C22.95 26.08 23.53 26.79 23.56 27.63C22.61 27.87 21.9 27.98 21.31 27.98Z" fill="#00365C"/>
<path d="M26.1 19.8C31.56 19.8 36 15.36 36 9.9C36 4.44 31.56 0 26.1 0C20.64 0 16.2 4.44 16.2 9.9C16.2 15.36 20.64 19.8 26.1 19.8ZM22.61 7.93C22.27 8.53 22.08 9.21 22.08 9.9C22.08 10.59 22.26 11.27 22.61 11.88L19.9 14.59C18.88 13.24 18.32 11.59 18.32 9.91C18.32 8.22 18.88 6.57 19.9 5.23L22.61 7.93ZM26.1 11.78C25.06 11.78 24.22 10.94 24.22 9.9C24.22 8.86 25.06 8.02 26.1 8.02C27.14 8.02 27.98 8.86 27.98 9.9C27.98 10.94 27.14 11.78 26.1 11.78ZM24.12 13.38C25.33 14.07 26.86 14.07 28.07 13.38L30.78 16.09C29.43 17.11 27.79 17.67 26.1 17.67C24.41 17.67 22.76 17.11 21.41 16.09L24.12 13.38ZM28.08 6.42C26.87 5.73 25.33 5.73 24.12 6.42L21.41 3.71C22.76 2.69 24.41 2.13 26.1 2.13C27.79 2.13 29.44 2.69 30.79 3.71L28.08 6.42ZM29.58 7.92L32.29 5.21C33.31 6.56 33.87 8.21 33.87 9.9C33.87 11.59 33.31 13.24 32.29 14.59L29.58 11.88C29.93 11.28 30.11 10.6 30.11 9.9C30.11 9.2 29.93 8.52 29.58 7.92Z" fill="#00365C"/>
<path d="M28.07 6.42C26.86 5.73 25.32 5.73 24.11 6.42L21.4 3.71C22.75 2.69 24.4 2.13 26.09 2.13C27.78 2.13 29.43 2.69 30.77 3.71L28.07 6.42Z" fill="#FFE982"/>
<path d="M26.1 11.78C25.06 11.78 24.22 10.94 24.22 9.89999C24.22 8.85999 25.06 8.01999 26.1 8.01999C27.14 8.01999 27.98 8.85999 27.98 9.89999C27.98 10.94 27.14 11.78 26.1 11.78Z" fill="#F278AB"/>
</svg>
