<svg width="37" height="36" viewBox="0 0 37 36" fill="none" xmlns="http://www.w3.org/2000/svg">
<rect x="0.0012207" width="36" height="36" fill="white"/>
<path d="M30.868 33.7436C30.868 34.3782 30.3543 34.9121 29.6996 34.9121H10.0577C9.42314 34.9121 8.88928 34.3984 8.88928 33.7436V7.54442C8.88928 6.89976 9.41307 6.37598 10.0577 6.37598H15.5877C15.5877 6.39612 15.5877 6.42634 15.5877 6.44649V7.53434C15.5877 8.09842 16.0409 8.55169 16.605 8.55169H23.1523C23.7164 8.55169 24.1696 8.09842 24.1696 7.53434V6.45656C24.1696 6.43641 24.1696 6.4062 24.1696 6.38605H29.6996C30.3442 6.38605 30.868 6.90983 30.868 7.55449V33.7436Z" fill="#FFE982"/>
<path d="M21.8731 18.0806H15.0941C14.5099 18.0806 14.0365 18.554 14.0365 19.1382C14.0365 19.7224 14.5099 20.1958 15.0941 20.1958H21.8731C22.4573 20.1958 22.9307 19.7224 22.9307 19.1382C22.9307 18.554 22.4573 18.0806 21.8731 18.0806Z" fill="#F278AB"/>
<path d="M21.8731 13.5581H15.0941C14.5099 13.5581 14.0365 14.0315 14.0365 14.6157C14.0365 15.2 14.5099 15.6734 15.0941 15.6734H21.8731C22.4573 15.6734 22.9307 15.2 22.9307 14.6157C22.9307 14.0315 22.4573 13.5581 21.8731 13.5581Z" fill="#F278AB"/>
<path d="M18.4887 22.603H15.0941C14.5099 22.603 14.0365 23.0764 14.0365 23.6607C14.0365 24.2449 14.5099 24.7183 15.0941 24.7183H18.4887C19.0729 24.7183 19.5463 24.2449 19.5463 23.6607C19.5463 23.0764 19.0729 22.603 18.4887 22.603Z" fill="#F278AB"/>
<path d="M25.2676 7.90723H11.7097C11.1356 7.90723 10.5715 8.1389 10.1686 8.55188C9.76567 8.95479 9.52393 9.51887 9.52393 10.093V29.3017C9.52393 29.8759 9.7556 30.44 10.1686 30.8429C10.5715 31.2458 11.1356 31.4875 11.7097 31.4875H25.2676C25.8418 31.4875 26.4058 31.2559 26.8088 30.8429C27.2117 30.44 27.4534 29.8759 27.4534 29.3017V10.093C27.4534 9.51887 27.2217 8.95479 26.8088 8.55188C26.4058 8.1389 25.8418 7.90723 25.2676 7.90723ZM25.3381 29.3017C25.3381 29.3219 25.3281 29.342 25.318 29.3521C25.3079 29.3622 25.2878 29.3723 25.2676 29.3723H11.7097C11.6896 29.3723 11.6694 29.3622 11.6593 29.3521C11.6493 29.342 11.6392 29.3219 11.6392 29.3017V10.093C11.6392 10.0729 11.6493 10.0527 11.6593 10.0426C11.6694 10.0326 11.6896 10.0225 11.7097 10.0225H25.2676C25.2878 10.0225 25.3079 10.0326 25.318 10.0426C25.3281 10.0527 25.3381 10.0729 25.3381 10.093V29.3017Z" fill="#F278AB"/>
<path d="M28.652 2.2563H22.3566C21.5105 0.765529 19.9895 0 18.4886 0C16.8367 0 15.3862 0.91662 14.6207 2.2563H8.31515C6.49199 2.2563 5.00122 3.74706 5.00122 5.57023V32.6861C5.00122 34.5395 6.50206 36 8.31515 36H28.652C30.4651 36 31.966 34.5294 31.966 32.6861V5.57023C31.976 3.74706 30.4853 2.2563 28.652 2.2563ZM18.4886 2.1052C19.7779 2.1052 20.8255 3.15277 20.8255 4.44208V4.51259H16.1518V4.44208C16.1518 3.15277 17.1993 2.1052 18.4886 2.1052ZM29.8608 32.6961C29.8608 33.3509 29.3269 33.9049 28.652 33.9049H8.31515C7.66043 33.9049 7.10642 33.371 7.10642 32.6961V5.57023C7.10642 4.90543 7.65035 4.3615 8.31515 4.3615H14.0465C14.0465 4.38165 14.0465 4.41186 14.0465 4.43201V5.56016C14.0465 6.14438 14.52 6.6178 15.1042 6.6178H21.8831C22.4674 6.6178 22.9408 6.14438 22.9408 5.56016V4.44208C22.9408 4.42194 22.9408 4.39172 22.9408 4.37157H28.6722C29.337 4.37157 29.8809 4.9155 29.8809 5.5803L29.8608 32.6961Z" fill="#00365C"/>
</svg>
