<svg width="36" height="36" viewBox="0 0 36 36" fill="none" xmlns="http://www.w3.org/2000/svg">
<rect width="36" height="36" fill="white"/>
<path d="M20.6777 22.6366C20.6777 20.5558 18.9851 18.8533 16.8943 18.8533C15.7096 18.8533 14.5447 19.0823 13.4396 19.5203L10.2935 20.7848V10.8984C10.2935 9.78332 11.1995 8.87732 12.3146 8.87732H33.0729C34.188 8.87732 35.094 9.78332 35.094 10.8984V22.766C35.094 23.8811 34.188 24.7871 33.0729 24.7871H20.0006C20.4387 24.1599 20.6777 23.4132 20.6777 22.6366Z" fill="#FFE982"/>
<path d="M32.0873 6H11.3189C10.1143 6 9.00914 6.53763 8.26244 7.48345C5.19597 7.51332 2.3585 9.04655 0.656014 11.6053L0.158211 12.352C0.0188261 12.561 -0.0309541 12.8099 0.0188262 13.0588C0.0686064 13.3077 0.207991 13.5168 0.417068 13.6562C0.835222 13.935 1.44254 13.8155 1.72131 13.3973L2.21911 12.6506C3.41384 10.8486 5.31545 9.68374 7.44604 9.42488C7.42613 9.58418 7.41617 9.74348 7.41617 9.90277V20.5358L6.52013 20.8943C6.28118 20.9839 6.10197 21.1631 6.00241 21.3921C5.90285 21.621 5.90285 21.8799 5.99246 22.1089C6.08206 22.3478 6.27123 22.527 6.50022 22.6266C6.72921 22.7262 6.98806 22.7262 7.21705 22.6366L13.1409 20.267C14.017 19.9186 14.9429 19.7394 15.8888 19.7394C16.9342 19.7394 17.7904 20.5956 17.7904 21.641C17.7904 22.308 17.4419 22.9253 16.8645 23.2738L13.1409 25.5139C11.7271 26.3701 10.174 26.9177 8.53125 27.1467L0.805354 28.2518C0.297596 28.3215 -0.0608223 28.7994 0.0088701 29.3171C0.0785625 29.8149 0.526585 30.1833 1.07417 30.1136L8.80007 29.0084C9.71602 28.879 10.6121 28.66 11.4882 28.3513C11.986 29.4166 13.0712 30.1136 14.256 30.1136C15.1022 30.1136 15.9087 29.7651 16.4762 29.1478C17.0536 29.7651 17.8501 30.1136 18.7063 30.1136C19.5626 30.1136 20.359 29.7651 20.9265 29.1478C21.504 29.7651 22.3005 30.1136 23.1567 30.1136C24.4709 30.1136 25.6357 29.2773 26.0539 28.0228L26.8404 25.6632H32.0972C34.2477 25.6632 36 23.9109 36 21.7604V9.90277C35.99 7.75227 34.2378 6 32.0873 6ZM24.2519 27.4453C24.1224 27.8237 23.764 28.1124 23.316 28.1821C22.868 28.2617 22.4399 28.0925 22.2009 27.7639C21.9819 27.4553 21.9221 27.077 22.0317 26.7185L22.3801 25.6831H24.8492L24.2519 27.4453ZM19.8115 27.4453C19.682 27.8237 19.3236 28.1124 18.8756 28.1821C18.4276 28.2617 17.9995 28.0925 17.7605 27.7639C17.5415 27.4553 17.4817 27.067 17.6012 26.7086L17.9497 25.6831H20.4188L19.8115 27.4453ZM19.682 21.641C19.682 19.5601 17.9895 17.8577 15.8987 17.8577C14.714 17.8577 13.5491 18.0866 12.444 18.5247L9.29787 19.7891V9.90277C9.29787 8.78769 10.2039 7.88169 11.3189 7.88169H32.0773C33.1924 7.88169 34.0984 8.78769 34.0984 9.90277V21.7704C34.0984 22.8855 33.1924 23.7915 32.0773 23.7915H19.005C19.4431 23.1642 19.682 22.4175 19.682 21.641ZM15.7992 26.1112L15.3511 27.4453C15.1919 27.9232 14.7438 28.2418 14.246 28.2418C13.808 28.2418 13.4097 27.9929 13.2106 27.6146C13.5192 27.4553 13.8179 27.296 14.1066 27.1168L15.7992 26.1112Z" fill="#00365C"/>
<path d="M21.7031 11.9338C19.5526 11.9338 17.8003 13.6861 17.8003 15.8366C17.8003 17.9871 19.5526 19.7394 21.7031 19.7394C23.8536 19.7394 25.6059 17.9871 25.6059 15.8366C25.6059 13.6861 23.8536 11.9338 21.7031 11.9338ZM23.7242 15.8366C23.7242 16.9517 22.8182 17.8577 21.7031 17.8577C20.588 17.8577 19.682 16.9517 19.682 15.8366C19.682 14.7215 20.588 13.8155 21.7031 13.8155C22.8182 13.8155 23.7242 14.7215 23.7242 15.8366Z" fill="#F278AB"/>
<path d="M14.2858 14.9008H12.8024C12.2847 14.9008 11.8665 15.3189 11.8665 15.8366C11.8665 16.3543 12.2847 16.7725 12.8024 16.7725H14.2858C14.8036 16.7725 15.2217 16.3543 15.2217 15.8366C15.2217 15.3189 14.8036 14.9008 14.2858 14.9008Z" fill="#F278AB"/>
<path d="M30.6038 14.9008H29.1204C28.6026 14.9008 28.1745 15.3189 28.1745 15.8366C28.1745 16.3543 28.5927 16.7725 29.1204 16.7725H30.6038C31.1215 16.7725 31.5496 16.3543 31.5496 15.8366C31.5496 15.3189 31.1215 14.9008 30.6038 14.9008Z" fill="#F278AB"/>
</svg>
