<svg width="36" height="36" viewBox="0 0 36 36" fill="none" xmlns="http://www.w3.org/2000/svg">
<g clip-path="url(#clip0_776_13357)">
<path d="M30.25 8.27979H13C12.1716 8.27979 11.5 8.95136 11.5 9.77979V19.2298C11.5 20.0582 12.1716 20.7298 13 20.7298H30.25C31.0784 20.7298 31.75 20.0582 31.75 19.2298V9.77979C31.75 8.95136 31.0784 8.27979 30.25 8.27979Z" fill="#F278AB"/>
<path d="M25.11 13H3.62C2.79157 13 2.12 13.6716 2.12 14.5V28.74C2.12 29.5684 2.79157 30.24 3.62 30.24H25.11C25.9384 30.24 26.61 29.5684 26.61 28.74V14.5C26.61 13.6716 25.9384 13 25.11 13Z" fill="white"/>
<path d="M22.96 14.5098H5.62C4.79157 14.5098 4.12 15.1813 4.12 16.0098V27.2398C4.12 28.0682 4.79157 28.7398 5.62 28.7398H22.96C23.7884 28.7398 24.46 28.0682 24.46 27.2398V16.0098C24.46 15.1813 23.7884 14.5098 22.96 14.5098Z" fill="#FFE982"/>
<path d="M30.37 25.1002H32.42C32.8907 25.1181 33.3601 25.0394 33.7992 24.869C34.2383 24.6985 34.6379 24.44 34.9733 24.1093C35.3087 23.7786 35.5729 23.3827 35.7494 22.946C35.926 22.5093 36.0113 22.0411 36 21.5702C36 16.7502 36 11.8902 36 7.13019C36.0043 6.66258 35.914 6.19893 35.7346 5.76709C35.5552 5.33525 35.2903 4.94412 34.956 4.61722C34.6216 4.29031 34.2246 4.03436 33.7888 3.86475C33.353 3.69513 32.8874 3.61535 32.42 3.63019H10.84C10.3684 3.6151 9.89857 3.69638 9.45938 3.86905C9.0202 4.04173 8.62085 4.30217 8.28576 4.63446C7.95066 4.96674 7.68687 5.36388 7.5105 5.8016C7.33414 6.23932 7.24891 6.70841 7.26003 7.18019C7.26003 7.89019 7.26003 8.59019 7.26003 9.30019V10.8802H3.60003C3.12179 10.8662 2.64576 10.9505 2.20134 11.1277C1.75693 11.305 1.35358 11.5714 1.01621 11.9107C0.678827 12.2499 0.414588 12.6548 0.23981 13.1002C0.065032 13.5455 -0.0165736 14.022 3.41139e-05 14.5002V28.8202C-0.0231768 29.6934 0.289592 30.5422 0.873836 31.1916C1.45808 31.8409 2.26924 32.2413 3.14003 32.3102C4.65003 32.4102 6.21003 32.3802 7.72003 32.3102H8.38003C8.51642 32.311 8.65154 32.284 8.77708 32.2307C8.90262 32.1773 9.01593 32.0989 9.11003 32.0002C9.21012 31.8844 9.28494 31.749 9.32971 31.6026C9.37449 31.4563 9.38822 31.3022 9.37003 31.1502C9.36057 31.0121 9.32254 30.8774 9.25834 30.7548C9.19414 30.6321 9.10517 30.5241 8.99707 30.4377C8.88896 30.3512 8.76408 30.2881 8.63033 30.2524C8.49657 30.2167 8.35686 30.2091 8.22003 30.2302H3.73003C2.62003 30.2302 2.12003 29.7302 2.12003 28.6102V17.8402H26C26.183 17.8223 26.3659 17.876 26.51 17.9902C26.627 18.1445 26.6807 18.3377 26.66 18.5302C26.66 20.9802 26.66 23.4202 26.66 25.8702V28.5302C26.66 29.7602 26.18 30.2402 24.95 30.2402H18C17.854 30.2262 17.7066 30.243 17.5674 30.2895C17.4283 30.336 17.3004 30.4111 17.192 30.51C17.0837 30.6089 16.9973 30.7295 16.9384 30.8639C16.8795 30.9982 16.8494 31.1435 16.85 31.2902C16.8525 31.4368 16.8845 31.5815 16.9442 31.7154C17.0039 31.8494 17.09 31.97 17.1974 32.0699C17.3048 32.1698 17.4312 32.247 17.5691 32.2969C17.707 32.3467 17.8536 32.3683 18 32.3602H18.8C20.91 32.3602 23.1 32.3602 25.24 32.3602C26.0431 32.3797 26.8271 32.1142 27.4531 31.6108C28.0791 31.1075 28.5067 30.3987 28.66 29.6102C28.7437 29.1451 28.7773 28.6724 28.76 28.2002C28.76 28.0702 28.76 27.9302 28.76 27.8002C28.76 27.2202 28.76 26.6402 28.76 26.0502V25.1002H30.39H30.37ZM26.62 15.7002H2.14003V15.5502C2.14003 15.4002 2.14003 15.2502 2.14003 15.1102C2.11505 14.7773 2.11505 14.4431 2.14003 14.1102C2.17635 13.8183 2.31285 13.5481 2.52623 13.3456C2.73961 13.1432 3.01665 13.0211 3.31003 13.0002C3.46321 12.9904 3.61686 12.9904 3.77003 13.0002H24.88C26.14 13.0002 26.61 13.4602 26.62 14.7202V15.7002ZM28.74 23.0002V14.6202C28.7724 14.1207 28.6978 13.62 28.5213 13.1516C28.3447 12.6832 28.0704 12.2578 27.7164 11.9038C27.3624 11.5499 26.9371 11.2755 26.4686 11.099C26.0002 10.9224 25.4996 10.8479 25 10.8802C21.46 10.8802 17.91 10.8802 14.37 10.8802H9.37003V7.29019C9.34437 7.08269 9.3662 6.87207 9.43387 6.67424C9.50153 6.47641 9.61326 6.29654 9.76062 6.14821C9.90798 5.99989 10.0871 5.88699 10.2845 5.81803C10.4819 5.74908 10.6924 5.72589 10.9 5.75019H32.24C33.37 5.75019 33.88 6.27019 33.88 7.41019V21.3202C33.88 22.4602 33.37 22.9602 32.24 22.9702H28.74V23.0002Z" fill="#00365C"/>
<path d="M22.68 20.5503H18.12C17.959 20.5346 17.7964 20.5549 17.6442 20.6098C17.492 20.6646 17.3539 20.7527 17.2399 20.8676C17.126 20.9825 17.0391 21.1214 16.9855 21.274C16.9319 21.4267 16.9129 21.5894 16.93 21.7503C16.93 23.2803 16.93 24.8003 16.93 26.3203C16.9117 26.4776 16.9286 26.6369 16.9793 26.7868C17.03 26.9368 17.1134 27.0736 17.2234 27.1874C17.3334 27.3013 17.4673 27.3893 17.6154 27.4451C17.7636 27.5009 17.9222 27.5232 18.08 27.5103C19.72 27.5103 21.24 27.5103 22.73 27.5103C22.8881 27.5264 23.0477 27.5068 23.1971 27.4529C23.3466 27.399 23.482 27.3122 23.5934 27.1989C23.7047 27.0856 23.7892 26.9487 23.8406 26.7984C23.8919 26.648 23.9088 26.4881 23.89 26.3303C23.89 25.8003 23.89 25.3303 23.89 24.7503V21.7503C23.9096 21.5871 23.8917 21.4217 23.8377 21.2664C23.7837 21.1112 23.6949 20.9704 23.5782 20.8547C23.4615 20.7389 23.32 20.6514 23.1643 20.5986C23.0087 20.5459 22.843 20.5294 22.68 20.5503ZM21.77 25.3703H19.06V24.7303C19.06 24.1603 19.06 23.6003 19.06 23.0503C19.0764 22.9575 19.1222 22.8725 19.1907 22.8077C19.2591 22.7429 19.3465 22.7017 19.44 22.6903C20.14 22.6903 20.76 22.6903 21.34 22.6903C21.4416 22.7133 21.5343 22.7652 21.6071 22.8398C21.6798 22.9143 21.7294 23.0082 21.75 23.1103C21.75 23.6303 21.75 24.1103 21.75 24.6803L21.77 25.3703Z" fill="#00365C"/>
<path d="M13.1201 25.4003H6.40009C6.19342 25.4003 5.98342 25.4003 5.77009 25.4003C5.53598 25.4257 5.31836 25.5329 5.15555 25.7031C4.99274 25.8732 4.89519 26.0953 4.88009 26.3303C4.85047 26.556 4.89874 26.7851 5.01692 26.9796C5.13511 27.1742 5.31613 27.3226 5.53009 27.4003C5.73357 27.4653 5.94653 27.4957 6.16008 27.4903H13.0001C13.1332 27.5022 13.267 27.5022 13.4001 27.4903C13.6018 27.4627 13.7904 27.3743 13.9405 27.2367C14.0906 27.0991 14.1951 26.9189 14.2401 26.7203C14.2864 26.5728 14.2978 26.4165 14.2735 26.2638C14.2492 26.1112 14.1899 25.9662 14.1001 25.8403C13.9849 25.6927 13.8354 25.5755 13.6646 25.4988C13.4938 25.4222 13.3069 25.3883 13.1201 25.4003Z" fill="#FFE982"/>
<path d="M13.1501 30.2404C13.0108 30.2402 12.8729 30.2675 12.7443 30.3207C12.6156 30.3739 12.4986 30.4519 12.4001 30.5504C12.3001 30.6456 12.221 30.7605 12.1676 30.8879C12.1143 31.0153 12.0879 31.1523 12.0901 31.2904C12.1002 31.57 12.2164 31.8353 12.4152 32.0322C12.614 32.2291 12.8804 32.3429 13.1601 32.3504C13.3073 32.3647 13.4558 32.3481 13.5962 32.3016C13.7366 32.2551 13.8657 32.1798 13.9752 32.0804C14.0847 31.981 14.1722 31.8599 14.2321 31.7247C14.292 31.5895 14.3229 31.4432 14.3229 31.2954C14.3229 31.1475 14.292 31.0012 14.2321 30.866C14.1722 30.7308 14.0847 30.6097 13.9752 30.5103C13.8657 30.4109 13.7366 30.3356 13.5962 30.2891C13.4558 30.2426 13.3073 30.226 13.1601 30.2404H13.1501Z" fill="#FFE982"/>
<path d="M21.7701 25.3802H19.05V24.7502C19.05 24.1802 19.05 23.6202 19.05 23.0602C19.0717 22.9698 19.1192 22.8877 19.1867 22.8238C19.2541 22.7599 19.3387 22.717 19.43 22.7002C20.14 22.7002 20.76 22.7002 21.34 22.7002C21.4403 22.7225 21.5321 22.7729 21.6047 22.8455C21.6774 22.9181 21.7278 23.0099 21.75 23.1102C21.75 23.6302 21.75 24.1102 21.75 24.6902L21.7701 25.3802Z" fill="#F278AB"/>
</g>
<defs>
<clipPath id="clip0_776_13357">
<rect width="36" height="36" fill="white"/>
</clipPath>
</defs>
</svg>
