<svg width="36" height="36" viewBox="0 0 36 36" fill="none" xmlns="http://www.w3.org/2000/svg">
<path d="M1.21997 6.06001C1.22258 5.89716 1.25724 5.73643 1.32197 5.58698C1.38671 5.43753 1.48025 5.3023 1.59725 5.189C1.71426 5.07571 1.85244 4.98658 2.0039 4.9267C2.15535 4.86682 2.31713 4.83736 2.47997 4.84001H26.36C26.5228 4.83736 26.6846 4.86682 26.836 4.9267C26.9875 4.98658 27.1257 5.07571 27.2427 5.189C27.3597 5.3023 27.4532 5.43753 27.518 5.58698C27.5827 5.73643 27.6174 5.89716 27.62 6.06001V6.87001H1.21997V6.06001Z" fill="#F278AB"/>
<path d="M2.49999 22.22C2.22653 22.2256 1.9617 22.1241 1.76187 21.9374C1.56203 21.7506 1.44296 21.4933 1.42999 21.22V13.79H23.85V18H23.71C22.13 18 20.55 19.95 19.83 22.14L18.61 22.24L2.49999 22.22Z" fill="#FFE982"/>
<path d="M28.72 32.1701C30.6122 32.2023 32.4402 31.484 33.8044 30.1723C35.1686 28.8606 35.958 27.0621 36 25.1701C35.9677 23.4564 35.3192 21.8118 34.1732 20.5373C33.0273 19.2628 31.4606 18.4437 29.76 18.2301H29.61V6.74008C29.5866 5.96013 29.2602 5.21999 28.7001 4.6767C28.14 4.13341 27.3903 3.82973 26.61 3.83008H3C2.2197 3.82973 1.46997 4.13341 0.909876 4.6767C0.349784 5.21999 0.0234089 5.96013 0 6.74008V21.9401C0.025954 22.7183 0.353446 23.4559 0.913267 23.997C1.47309 24.5382 2.22138 24.8405 3 24.8401H21.45V25.1601C21.4894 27.0521 22.2763 28.8516 23.6386 30.1652C25.0009 31.4787 26.8278 32.1996 28.72 32.1701ZM34.23 25.1701C34.2679 26.2672 33.9771 27.3505 33.3952 28.2813C32.8132 29.212 31.9665 29.9478 30.9636 30.3941C29.9607 30.8404 28.8473 30.977 27.7663 30.7863C26.6852 30.5957 25.6858 30.0865 24.8961 29.324C24.1064 28.5615 23.5624 27.5805 23.3339 26.5068C23.1055 25.4331 23.2029 24.3157 23.6138 23.2977C24.0247 22.2798 24.7302 21.4078 25.64 20.7935C26.5498 20.1793 27.6223 19.8507 28.72 19.8501C30.1541 19.826 31.5393 20.3713 32.5721 21.3666C33.6049 22.3619 34.2011 23.726 34.23 25.1601V25.1701ZM1.77 6.74008C1.77525 6.41734 1.90715 6.1096 2.13725 5.88324C2.36736 5.65688 2.67722 5.53004 3 5.53008H26.59C26.7515 5.52743 26.912 5.55663 27.0622 5.61601C27.2125 5.67539 27.3496 5.76378 27.4656 5.87615C27.5817 5.98851 27.6745 6.12264 27.7388 6.27087C27.803 6.41911 27.8374 6.57855 27.84 6.74008V7.53008H1.77V6.74008ZM1.77 9.23008H27.84V11.6401H1.77V9.23008ZM3 23.1401C2.67547 23.1455 2.36197 23.0223 2.12782 22.7976C1.89368 22.5728 1.75787 22.2646 1.75 21.9401V13.3401H27.84V18.2001H27.68C26.3507 18.378 25.0966 18.9208 24.0569 19.768C23.0173 20.6153 22.2326 21.734 21.79 23.0001V23.1201L3 23.1401Z" fill="#00365C"/>
<path d="M31.66 24.5899C31.7427 24.5135 31.8085 24.4206 31.8533 24.3173C31.898 24.214 31.9208 24.1025 31.92 23.9899C31.9196 23.8775 31.8963 23.7664 31.8516 23.6633C31.8069 23.5601 31.7417 23.4671 31.66 23.3899C31.4883 23.2318 31.2634 23.144 31.03 23.144C30.7966 23.144 30.5717 23.2318 30.4 23.3899L28.47 25.2499L27.82 24.6199C27.6494 24.4596 27.4241 24.3704 27.19 24.3704C26.9559 24.3704 26.7306 24.4596 26.56 24.6199C26.4777 24.6967 26.412 24.7895 26.367 24.8928C26.3221 24.996 26.299 25.1074 26.299 25.2199C26.299 25.3325 26.3221 25.4439 26.367 25.5471C26.412 25.6503 26.4777 25.7432 26.56 25.8199L27.88 27.0799C28.049 27.2396 28.2726 27.3285 28.505 27.3285C28.7375 27.3285 28.9611 27.2396 29.13 27.0799L31.66 24.5899Z" fill="#F278AB"/>
<path d="M7.80999 15.75H5.14999C5.03836 15.75 4.92783 15.772 4.82471 15.8147C4.72158 15.8574 4.62788 15.92 4.54895 15.999C4.47002 16.0779 4.40741 16.1716 4.36469 16.2747C4.32197 16.3778 4.29999 16.4884 4.29999 16.6C4.29999 16.7116 4.32197 16.8222 4.36469 16.9253C4.40741 17.0284 4.47002 17.1221 4.54895 17.201C4.62788 17.28 4.72158 17.3426 4.82471 17.3853C4.92783 17.428 5.03836 17.45 5.14999 17.45H7.80999C7.92161 17.45 8.03214 17.428 8.13527 17.3853C8.2384 17.3426 8.3321 17.28 8.41103 17.201C8.48996 17.1221 8.55257 17.0284 8.59529 16.9253C8.638 16.8222 8.65999 16.7116 8.65999 16.6C8.65999 16.4884 8.638 16.3778 8.59529 16.2747C8.55257 16.1716 8.48996 16.0779 8.41103 15.999C8.3321 15.92 8.2384 15.8574 8.13527 15.8147C8.03214 15.772 7.92161 15.75 7.80999 15.75Z" fill="#FFE982"/>
<path d="M11.18 19H5.18002C5.06839 19 4.95786 19.022 4.85474 19.0647C4.75161 19.1074 4.65791 19.17 4.57898 19.249C4.50005 19.3279 4.43744 19.4216 4.39472 19.5247C4.352 19.6278 4.33002 19.7384 4.33002 19.85C4.33002 19.9616 4.352 20.0722 4.39472 20.1753C4.43744 20.2784 4.50005 20.3721 4.57898 20.451C4.65791 20.53 4.75161 20.5926 4.85474 20.6353C4.95786 20.678 5.06839 20.7 5.18002 20.7H11.18C11.2916 20.7 11.4022 20.678 11.5053 20.6353C11.6084 20.5926 11.7021 20.53 11.7811 20.451C11.86 20.3721 11.9226 20.2784 11.9653 20.1753C12.008 20.0722 12.03 19.9616 12.03 19.85C12.03 19.7384 12.008 19.6278 11.9653 19.5247C11.9226 19.4216 11.86 19.3279 11.7811 19.249C11.7021 19.17 11.6084 19.1074 11.5053 19.0647C11.4022 19.022 11.2916 19 11.18 19Z" fill="#00365C"/>
</svg>
