<svg width="36" height="36" viewBox="0 0 36 36" fill="none" xmlns="http://www.w3.org/2000/svg">
<path d="M15.8 13.9002C18.6166 13.9002 20.9 11.6168 20.9 8.80019C20.9 5.98354 18.6166 3.7002 15.8 3.7002C12.9833 3.7002 10.7 5.98354 10.7 8.80019C10.7 11.6168 12.9833 13.9002 15.8 13.9002Z" fill="#FFE982"/>
<path d="M10.1 26.1002L11.2 25.4002C11.9 25.0002 12.8 24.7002 13.7 24.7002C14.7 24.7002 15.7 25.0002 16.6 25.7002L17.4 26.3002C17.5 26.4002 17.7 26.5002 17.9 26.5002H22.5C23 26.5002 23.4 26.9002 23.4 27.4002C23.4 27.9002 23 28.3002 22.5 28.3002H16.2C15.8 28.3002 15.4 28.7002 15.4 29.1002C15.4 29.5002 15.8 29.9002 16.2 29.9002H22.9C23.5 29.9002 24.1 29.7002 24.6 29.4002L30 25.8002C30.4 25.5002 30.7 25.7002 30.9 25.8002C31 25.9002 31.4 26.1002 31.4 26.6002C31.4 26.9002 31.3 27.1002 31 27.3002L25.2 31.3002C24.8 31.6002 24.2 31.8002 23.7 31.8002H10.1V26.1002Z" fill="#FFE982"/>
<path d="M7.7 34.4002H24.4C25.5 34.4002 26.5 34.1002 27.4 33.5002L34.6 28.5002C35.4 27.9002 35.9 27.0002 35.9 26.0002C35.9 24.9002 35.3 23.8002 34.3 23.3002C33.3 22.8002 32.1 22.8002 31.2 23.5002L26 26.9002V26.8002C25.8 25.2002 24.5 24.0002 22.9 24.0002H17.6L16.9 23.5002C15.5 22.5002 13.9 21.9002 12.2 21.9002C10.8 21.9002 9.39999 22.3002 8.1 23.0002L7.7 23.2002V22.2002C7.7 21.6002 7.2 21.2002 6.7 21.2002H1C0.4 21.2002 0 21.7002 0 22.2002V34.8002C0 35.4002 0.5 35.8002 1 35.8002H6.8C7.4 35.8002 7.8 35.3002 7.8 34.8002V34.4002H7.7ZM7.7 25.6002L9.1 24.8002C10 24.3002 11.1 24.0002 12.1 24.0002C13.4 24.0002 14.6 24.4002 15.6 25.2002L16.6 25.9002C16.8 26.0002 17 26.1002 17.2 26.1002H22.9C23.5 26.1002 24 26.6002 24 27.2002C24 27.8002 23.5 28.3002 22.9 28.3002H15.2C14.6 28.3002 14.2 28.8002 14.2 29.3002C14.2 29.8002 14.7 30.3002 15.2 30.3002H23.5C24.3 30.3002 25 30.1002 25.6 29.7002L32.2 25.3002C32.7 25.0002 33.1 25.2002 33.3 25.2002C33.5 25.3002 33.9 25.6002 33.9 26.1002C33.9 26.4002 33.7 26.8002 33.4 27.0002L26.2 32.0002C25.7 32.4002 25 32.6002 24.4 32.6002H7.7V25.6002ZM5.7 33.8002H2V23.2002H5.8V33.8002H5.7Z" fill="#00365C"/>
<path d="M35.7 14.1C35.5 13.7 35.2 13.5 34.8 13.5H33.2C32.3 9.8 30.2 6.5 27.2 4.1C24.1 1.4 20 0 15.9 0C11.1 0 7.20001 3.9 7.20001 8.7C7.20001 13.5 11.1 17.4 15.9 17.4C18 17.4 20 16.7 21.6 15.3C23.2 14 24.2 12.1 24.5 10.1V10L24.6 10.1C25.5 11.1 26.2 12.2 26.7 13.5V13.6H25.7C25.3 13.6 25 13.8 24.8 14.2C24.6 14.6 24.7 15 24.9 15.3L29.5 20.8C29.7 21 30 21.2 30.3 21.2C30.6 21.2 30.9 21.1 31.1 20.8L35.7 15.3C35.9 14.9 35.9 14.5 35.7 14.1ZM15.9 15.4C12.2 15.4 9.20001 12.4 9.20001 8.7C9.20001 5 12.2 2 15.9 2C19.6 2 22.6 5 22.6 8.7C22.6 12.4 19.6 15.4 15.9 15.4ZM30.3 18.5L27.9 15.6H28.2C28.5 15.6 28.8 15.5 29 15.2C29.2 15 29.3 14.6 29.2 14.3C28.5 11.6 26.8 9.1 24.6 7.3C24.4 6.1 23.9 4.9 23.2 3.9V3.8C24.2 4.3 25.2 4.9 26 5.7C28.8 8 30.7 11.3 31.5 14.8C31.6 15.3 32 15.6 32.5 15.6H32.7L30.3 18.5Z" fill="#00365C"/>
<path d="M15.9 14.3001C16.5 14.3001 16.9 13.8001 16.9 13.3001V13.1001C17.9 12.7001 18.6 11.7001 18.6 10.5001C18.6 9.0001 17.4 7.7001 15.8 7.7001C15.4 7.7001 15 7.4001 15 6.9001C15 6.4001 15.3 6.1001 15.8 6.1001C16.2 6.1001 16.5 6.4001 16.5 6.7001C16.6 7.0001 16.7 7.2001 16.9 7.3001C17.1 7.4001 17.4 7.5001 17.7 7.4001C18 7.3001 18.2 7.2001 18.3 7.0001C18.4 6.8001 18.5 6.5001 18.4 6.2001C18.2 5.3001 17.6 4.5001 16.7 4.2001V4.1001C16.7 3.5001 16.2 3.1001 15.7 3.1001C15.2 3.1001 14.7 3.6001 14.7 4.1001V4.3001C13.7 4.7001 13 5.7001 13 6.9001C13 8.4001 14.2 9.7001 15.8 9.7001C16.2 9.7001 16.6 10.0001 16.6 10.5001C16.6 11.0001 16.3 11.3001 15.8 11.3001C15.4 11.3001 15.1 11.0001 15.1 10.7001C15 10.4001 14.9 10.2001 14.7 10.1001C14.5 10.0001 14.3 9.9001 14.1 9.9001C14 9.9001 14 9.9001 13.9 9.9001C13.6 10.0001 13.4 10.1001 13.3 10.3001C13.2 10.5001 13.1 10.8001 13.2 11.1001C13.4 12.0001 14 12.8001 14.9 13.1001V13.3001C14.9 13.8001 15.3 14.3001 15.9 14.3001Z" fill="#F278AB"/>
</svg>
