<svg width="31" height="42" viewBox="0 0 31 42" fill="none" xmlns="http://www.w3.org/2000/svg">
<path d="M18 12C18 13.6569 16.433 15 14.5 15C12.567 15 11 13.6569 11 12C11 10.3431 12.567 9 14.5 9C16.433 9 18 10.3431 18 12Z" fill="#F278AB"/>
<path d="M19 29C19 30.6569 17.433 32 15.5 32C13.567 32 12 30.6569 12 29C12 27.3431 13.567 26 15.5 26C17.433 26 19 27.3431 19 29Z" fill="#F278AB"/>
<path fill-rule="evenodd" clip-rule="evenodd" d="M6.88364 40.4226L6.86821 40.4154C4.55242 39.3384 2.5986 37.8937 1.04863 36.0698L0 34.8359L6.3244 26.1474L8.15364 27.9215C9.11715 28.856 10.1485 29.6101 11.2472 30.1959C12.2503 30.7118 13.3393 30.9742 14.5498 30.9742C16.0341 30.9742 16.9697 30.6752 17.5565 30.2835C18.0112 29.9501 18.2567 29.5298 18.2567 28.7722C18.2567 28.2302 18.1552 27.804 17.9932 27.4581L17.9717 27.4123L17.9525 27.3655C17.8896 27.212 17.7535 27.0096 17.368 26.7855L17.3314 26.7642L17.2958 26.7416C16.8981 26.4893 16.2134 26.2178 15.1164 26.0174L15.0841 26.0115L15.052 26.0047C14.0085 25.7824 12.5634 25.6525 10.6669 25.6525H8.49223V15.4871H10.6669C12.2152 15.4871 13.3937 15.3771 14.248 15.1932L14.2558 15.1916L14.2636 15.1899C15.1972 14.9959 15.7807 14.7519 16.1218 14.5333C16.5617 14.2362 16.727 13.9978 16.7913 13.8595L16.803 13.8343L16.8154 13.8094C16.9688 13.5011 17.0576 13.1457 17.0576 12.7115C17.0576 11.8738 16.8202 11.5147 16.6039 11.3192L16.5825 11.2998L16.5616 11.2799C16.3337 11.0624 15.8589 10.7964 14.7782 10.7964C13.8373 10.7964 13.0296 10.9997 12.3106 11.3836C11.4504 11.8654 10.4931 12.5507 9.43918 13.4682L7.71584 14.9685L0.785374 6.50157L2.30421 5.18394C4.12129 3.60757 6.05246 2.35609 8.10048 1.45478C10.2767 0.475087 12.647 0 15.1779 0C17.2145 0 19.1206 0.248951 20.8764 0.77421C22.6671 1.26079 24.2534 2.02915 25.5803 3.11532C26.9282 4.15008 27.9832 5.42661 28.7297 6.92619C29.5036 8.48108 29.858 10.2167 29.858 12.0806C29.858 14.39 29.2054 16.4807 27.8105 18.2335C27.2773 18.9075 26.6581 19.518 25.9616 20.0692C26.8595 20.6567 27.6735 21.3531 28.3974 22.1597C30.1908 24.073 31 26.5185 31 29.2885C31 31.27 30.5715 33.1201 29.6683 34.7915L29.6623 34.8026L29.6561 34.8137C28.7882 36.3737 27.6196 37.7073 26.1658 38.8025L26.1483 38.8157L26.1304 38.8286C24.6925 39.8668 23.039 40.6558 21.1979 41.215L21.1749 41.2219L21.1518 41.2284C19.3042 41.7464 17.3669 42 15.3492 42C12.1586 42 9.31531 41.5082 6.89919 40.4295L6.88364 40.4226ZM26.7697 23.5525C25.9795 22.6681 25.0554 21.9383 23.9975 21.3632C23.3068 20.9877 22.559 20.6781 21.7542 20.4345C21.7131 20.4221 21.6719 20.4098 21.6305 20.3977V20.1683C21.6583 20.1562 21.6861 20.1441 21.7138 20.1319C22.5123 19.7808 23.2324 19.3904 23.8743 18.9607C24.7602 18.3675 25.497 17.6993 26.0845 16.9561C27.1504 15.6178 27.6833 13.9926 27.6833 12.0806C27.6833 10.4745 27.3788 9.05963 26.7697 7.83596C26.1606 6.61229 25.3041 5.57982 24.2001 4.73854C23.1342 3.85903 21.8208 3.20895 20.26 2.78831C18.7373 2.32944 17.0433 2.1 15.1779 2.1C12.9319 2.1 10.8762 2.52064 9.0109 3.36191C7.18363 4.16495 5.4325 5.29302 3.7575 6.74613L7.98307 11.9085C8.55632 11.4094 9.11518 10.9634 9.65966 10.5703C10.1999 10.1803 10.726 9.84243 11.2379 9.55675C12.3038 8.98316 13.4839 8.69636 14.7782 8.69636C16.2248 8.69636 17.3288 9.05964 18.0901 9.78619C18.8515 10.4745 19.2322 11.4496 19.2322 12.7115C19.2322 13.4381 19.0799 14.1073 18.7754 14.7191C18.5089 15.2927 18.033 15.809 17.3478 16.2678C16.7007 16.6885 15.8251 17.0135 14.7211 17.2429C13.6552 17.4724 12.3038 17.5871 10.6669 17.5871V23.5525C12.6464 23.5525 14.2643 23.6863 15.5206 23.954C16.7768 24.1835 17.7666 24.5276 18.4899 24.9865C19.2132 25.4071 19.708 25.9425 19.9745 26.5926C20.2791 27.2426 20.4313 27.9692 20.4313 28.7722C20.4313 30.1489 19.8984 31.2196 18.8325 31.9844C17.7666 32.7109 16.339 33.0742 14.5498 33.0742C12.989 33.0742 11.5424 32.73 10.21 32.0417C9.5315 31.6809 8.87912 31.2675 8.25288 30.8015C7.68459 30.3787 7.13783 29.9126 6.61261 29.4032L2.72966 34.7376C4.06205 36.3055 5.75608 37.5674 7.81176 38.5234C9.86744 39.4411 12.3799 39.9 15.3492 39.9C17.1765 39.9 18.9086 39.6706 20.5455 39.2117C22.1825 38.7146 23.61 38.0263 24.8282 37.1467C26.0464 36.229 27.0171 35.12 27.7404 33.8199C28.4637 32.4815 28.8254 30.971 28.8254 29.2885C28.8254 26.9176 28.1401 25.0056 26.7697 23.5525Z" fill="#00365C"/>
<path d="M14.9762 39C12.1215 39 10.1577 38.8666 8.1814 37.9412C6.20507 36.9771 5.28095 36.3457 4 34.7647L7.13605 31.0588C8.19741 32.1385 8.50507 32.4824 9.74943 33.1765C11.0304 33.8706 12.953 34.2353 14.4535 34.2353C16.1736 34.2353 18.1328 33.3797 19.1576 32.6471C20.1823 31.8758 20.7256 30.3294 20.7256 28.9412C20.7256 28.1314 20.4957 26.9497 20.2029 26.2941C19.9467 25.6386 18.8076 24.6006 18.1122 24.1765C17.4169 23.7137 16.7066 23.349 15.4989 23.1176C14.2911 22.8477 13.2206 22.5882 11.3175 22.5882V18.3529C12.8912 18.3529 13.4287 18.5843 14.4535 18.3529C15.5149 18.1216 16.9674 17.7183 17.5896 17.2941C18.2483 16.8314 18.9014 15.7549 19.1576 15.1765C19.4504 14.5595 19.6803 13.2621 19.6803 12.5294C19.6803 11.2569 19.3669 10.047 18.6349 9.35294C17.9029 8.62028 16.3669 7.76471 14.9762 7.76471C13.7318 7.76471 11.8195 8.24511 10.7948 8.82353C9.80661 9.40195 9.27936 9.40918 8.1814 10.4118L5.56803 6.70588C7.17837 5.24056 7.99269 4.86944 9.74943 4.05966C11.5428 3.21132 12.8169 3 14.9762 3C16.7695 3 18.2163 3.06668 19.6803 3.52941C21.1808 3.95359 21.7915 4.23074 22.8163 5.11765C23.8777 5.96599 24.3214 6.53075 24.907 7.76471C25.4926 8.99866 25.9524 10.3804 25.9524 12C25.9524 13.9281 25.9318 14.8857 24.907 16.2353C23.9188 17.5464 22.5921 18.5634 20.7256 19.4118V21C22.7385 21.617 24.1487 22.6726 25.4297 24.1765C26.7472 25.6418 27 27.0839 27 29.4746C27 31.1713 26.6477 32.3562 25.9524 33.7059C25.257 35.017 25.0328 35.4275 23.8617 36.3529C22.6905 37.2398 21.7767 37.9693 20.2029 38.4706C18.6292 38.9333 16.7329 39 14.9762 39Z" fill="#FFE982"/>
</svg>
