<svg width="31" height="42" viewBox="0 0 31 42" fill="none" xmlns="http://www.w3.org/2000/svg">
<path fill-rule="evenodd" clip-rule="evenodd" d="M7.26316 30.4737L7.26316 12.5789L10.4211 12.5789L10.4211 30.4737L7.26316 30.4737Z" fill="#F278AB"/>
<path d="M9.36841 38.8947V34.6842H15.481V8.89474H10.21V4.46125C11.7455 4.06341 13.0448 3.586 14.1079 3.02901C15.1709 2.47203 16.2044 1.79569 17.2084 1H21.9922V31.7932H27.2631V38.8947H9.36841Z" fill="#FFE982"/>
<path fill-rule="evenodd" clip-rule="evenodd" d="M2 41V30.0825H9.91037V13.6084H3.08911V4.62973L4.80323 4.30562C6.7093 3.94521 8.26211 3.52342 9.48676 3.05514C10.7561 2.56977 11.9927 1.97947 13.1971 1.28287L13.6862 1H22.5472V30.0825H29.3684V41H2ZM20.4419 32.1877V3.10526H14.2512C12.9519 3.85675 11.6144 4.49551 10.2387 5.02155C8.86295 5.54759 7.18152 5.99848 5.19437 6.37423V11.5031H12.0156V32.1877H4.10526V38.8947H27.2632V32.1877H20.4419Z" fill="#00365C"/>
</svg>
