<svg width="37" height="36" viewBox="0 0 37 36" fill="none" xmlns="http://www.w3.org/2000/svg">
<g clip-path="url(#clip0_806_13673)">
<path d="M14.8113 25.4C15.5247 26.8155 16.4225 28.1303 17.4813 29.31C17.6135 29.4557 17.7976 29.5436 17.994 29.5548C18.1904 29.5661 18.3834 29.4997 18.5313 29.37V29.31C19.6034 28.1416 20.5117 26.833 21.2313 25.42C22.3613 25.5713 23.4033 26.111 24.1788 26.9467C24.9543 27.7824 25.4148 28.8619 25.4813 30L25.6313 33.22H10.4113L10.5813 30C10.6425 28.8613 11.0982 27.7795 11.87 26.9401C12.6419 26.1008 13.6818 25.5562 14.8113 25.4Z" fill="#FFE982"/>
<path d="M11.5013 10.19C11.5077 8.93175 11.8532 7.69849 12.5013 6.62C12.5916 6.45304 12.617 6.25862 12.5727 6.07406C12.5284 5.8895 12.4175 5.7278 12.2613 5.62C11.6557 5.21487 11.169 4.65569 10.8513 4L16.9413 3.33H17.0013C17.9024 3.12354 18.8355 3.09762 19.7466 3.25371C20.6578 3.40981 21.529 3.74484 22.31 4.23946C23.091 4.73409 23.7662 5.3785 24.2968 6.13551C24.8274 6.89252 25.2028 7.74713 25.4013 8.65C25.5132 9.15572 25.5702 9.67204 25.5713 10.19V10.62L24.6313 8.42C24.5624 8.28983 24.4584 8.18152 24.3312 8.10731C24.204 8.03309 24.0585 7.99592 23.9113 8C23.8483 7.99024 23.7843 7.99024 23.7213 8L20.0013 8.91L13.2713 8C13.101 7.98045 12.9289 8.01542 12.7798 8.09987C12.6306 8.18433 12.5121 8.31392 12.4413 8.47L11.5013 10.67V10.19Z" fill="#FFE982"/>
<path d="M23.8913 22.78C25.4338 21.4921 26.5149 19.7369 26.9713 17.78H27.1613C27.957 17.78 28.72 17.4639 29.2826 16.9013C29.8451 16.3387 30.1613 15.5756 30.1613 14.78C30.161 14.3838 30.0821 13.9915 29.9294 13.6259C29.7766 13.2604 29.553 12.9286 29.2713 12.65C29.015 12.3933 28.7132 12.1865 28.3813 12.04V10.34C28.3603 7.59722 27.2586 4.97337 25.3154 3.03764C23.3722 1.10191 20.7441 0.0104238 18.0013 -2.46048e-05C17.2712 -0.00202652 16.5433 0.0784844 15.8313 0.239975L7.27125 1.23998C7.12637 1.2513 6.98631 1.29715 6.86279 1.3737C6.73926 1.45025 6.63587 1.55527 6.56125 1.67998C6.48898 1.80442 6.44442 1.943 6.43061 2.08624C6.41681 2.22948 6.43408 2.37402 6.48125 2.50998L6.71125 3.11998C7.13338 4.20299 7.82115 5.16242 8.71125 5.90998C8.03812 7.3244 7.69613 8.87361 7.71125 10.44V12.14C7.08295 12.4201 6.57001 12.9076 6.25837 13.5209C5.94673 14.1342 5.85532 14.8359 5.99946 15.5086C6.14359 16.1812 6.51452 16.7839 7.0501 17.2156C7.58567 17.6473 8.25334 17.8819 8.94125 17.88H9.00125C9.46614 19.772 10.516 21.4692 12.0013 22.73C10.4895 23.2511 9.16687 24.2102 8.20172 25.4852C7.23658 26.7602 6.6725 28.2935 6.58125 29.89L6.31125 34.99C6.30526 35.1166 6.32523 35.2432 6.36995 35.3618C6.41466 35.4805 6.48316 35.5888 6.57125 35.68C6.6575 35.7745 6.76252 35.85 6.87961 35.9017C6.9967 35.9534 7.12328 35.98 7.25125 35.98L28.5613 36C28.6867 35.9988 28.8104 35.9725 28.9256 35.9227C29.0407 35.8729 29.1446 35.8006 29.2313 35.71C29.4087 35.5205 29.5056 35.2695 29.5013 35.01L29.2613 29.92C29.1297 28.3449 28.5557 26.839 27.6057 25.5758C26.6556 24.3126 25.3681 23.3434 23.8913 22.78ZM27.2113 15.71V13.71C27.5018 13.7034 27.7841 13.807 28.0013 14C28.1056 14.1014 28.1885 14.2227 28.2452 14.3566C28.3018 14.4906 28.3311 14.6345 28.3313 14.78C28.3437 14.9349 28.324 15.0908 28.2734 15.2377C28.2228 15.3847 28.1424 15.5197 28.0373 15.6342C27.9321 15.7487 27.8046 15.8403 27.6624 15.9032C27.5203 15.9662 27.3666 15.9991 27.2113 16V15.71ZM7.72125 14.83C7.72324 14.5411 7.83482 14.2638 8.03345 14.054C8.23207 13.8442 8.50292 13.7177 8.79125 13.7V16C8.49503 15.9844 8.2168 15.853 8.01662 15.6341C7.81643 15.4152 7.71034 15.1264 7.72125 14.83ZM10.3913 4.82998C9.66836 4.3575 9.08762 3.69725 8.71125 2.91998L16.0713 2.10998H16.1613C18.357 1.62044 20.6572 2.02129 22.5579 3.22468C24.4586 4.42807 25.8047 6.33586 26.3013 8.52997C26.4408 9.14014 26.5112 9.76406 26.5113 10.39V10.92L25.3713 8.24998C25.2925 8.08431 25.1697 7.9435 25.0162 7.84297C24.8628 7.74243 24.6846 7.68605 24.5013 7.67998C24.4249 7.67025 24.3477 7.67025 24.2713 7.67998L19.7213 8.83998L11.6313 7.68998C11.4273 7.66956 11.222 7.71233 11.0431 7.8125C10.8642 7.91266 10.7205 8.06539 10.6313 8.24998L9.49125 10.92V10.39C9.50111 8.87038 9.91158 7.38027 10.6813 6.06998C10.8089 5.86248 10.85 5.6132 10.7958 5.37572C10.7416 5.13823 10.5963 4.93151 10.3913 4.79998V4.82998ZM24.0913 12.53C23.95 12.5509 23.8062 12.5149 23.6913 12.43C22.9384 11.9991 22.0755 11.7989 21.2098 11.854C20.344 11.9091 19.5135 12.2172 18.8213 12.74C18.7313 12.82 18.6913 12.83 18.4813 12.81C18.235 12.7898 17.9876 12.7898 17.7413 12.81C17.6048 12.8203 17.4678 12.8203 17.3313 12.81H17.1313C16.394 12.175 15.4436 11.8427 14.4713 11.88C13.7219 11.8661 12.9815 12.0451 12.3213 12.4C12.1771 12.4961 12.0036 12.5386 11.8313 12.52H10.8313L12.0713 9.63998L19.6113 10.72C19.7334 10.745 19.8592 10.745 19.9813 10.72L23.9313 9.71998L25.1313 12.53C25.1313 12.53 25.1113 12.66 24.0913 12.5V12.53ZM10.5513 15.06L11.4413 15C11.5007 15.5466 11.7386 16.0583 12.1183 16.456C12.4979 16.8538 12.9981 17.1152 13.5413 17.2C14.0464 17.3129 14.5641 17.3599 15.0813 17.34C15.7894 17.3328 16.4677 17.0538 16.9759 16.5605C17.484 16.0673 17.7831 15.3976 17.8113 14.69C17.8183 14.6309 17.8352 14.5734 17.8613 14.52C17.8613 14.52 17.8613 14.52 18.0013 14.52L18.0613 14.57C18.083 14.972 18.1871 15.3653 18.367 15.7255C18.547 16.0856 18.799 16.405 19.1075 16.6638C19.4159 16.9226 19.7743 17.1152 20.1602 17.2298C20.5462 17.3444 20.9516 17.3785 21.3513 17.33C21.7599 17.3474 22.1679 17.2832 22.5515 17.1412C22.9351 16.9992 23.2865 16.7823 23.5853 16.503C23.8841 16.2237 24.1243 15.8878 24.2919 15.5147C24.4595 15.1416 24.551 14.7388 24.5613 14.33L25.5613 14.2C25.9412 19.62 22.0013 23 18.0013 23C15.9721 22.9016 14.0605 22.0184 12.6704 20.5368C11.2802 19.0552 10.5204 17.0914 10.5513 15.06ZM19.7913 24.72C19.2565 25.5959 18.6583 26.4315 18.0013 27.22C17.3508 26.4276 16.7592 25.5887 16.2313 24.71C17.4061 24.9445 18.6153 24.9479 19.7913 24.72ZM8.32125 34.21L8.54125 30.12C8.6336 28.6854 9.21842 27.3267 10.1969 26.2736C11.1754 25.2205 12.4874 24.5374 13.9113 24.34C14.813 26.1505 15.9531 27.8321 17.3013 29.34C17.4743 29.5144 17.7057 29.619 17.951 29.6337C18.1964 29.6485 18.4385 29.5724 18.6313 29.42L18.7013 29.35C20.0579 27.8606 21.2081 26.1957 22.1213 24.4C23.5442 24.6034 24.8528 25.2934 25.8245 26.3526C26.7962 27.4118 27.371 28.7748 27.4513 30.21L27.6513 34.31L8.32125 34.21Z" fill="#00365C"/>
<path d="M13.5213 17.19C14.0252 17.3112 14.5435 17.3617 15.0613 17.34C15.7687 17.3304 16.4456 17.0506 16.9532 16.5578C17.4609 16.0651 17.7607 15.3968 17.7913 14.69C17.8018 14.6284 17.8186 14.5681 17.8413 14.51C17.8871 14.4972 17.9355 14.4972 17.9813 14.51L18.0513 14.56C18.0717 14.9616 18.1745 15.3547 18.3534 15.7148C18.5323 16.0749 18.7834 16.3944 19.091 16.6533C19.3987 16.9122 19.7564 17.105 20.1418 17.2197C20.5272 17.3344 20.9321 17.3685 21.3313 17.32C21.7399 17.3374 22.1479 17.2732 22.5315 17.1312C22.915 16.9892 23.2665 16.7723 23.5653 16.493C23.864 16.2137 24.1043 15.8778 24.2719 15.5047C24.4395 15.1316 24.531 14.7288 24.5413 14.32C24.5413 14.25 24.5413 14.22 24.5413 14.24L24.0413 12.49C23.9032 12.5092 23.7631 12.4733 23.6513 12.39C22.8964 11.9595 22.0321 11.7595 21.1649 11.8146C20.2977 11.8697 19.4656 12.1775 18.7713 12.7C18.6913 12.77 18.6413 12.79 18.4413 12.77C18.1917 12.7497 17.9409 12.7497 17.6913 12.77C17.5548 12.7806 17.4178 12.7806 17.2813 12.77H17.0913C16.3494 12.1361 15.3964 11.8041 14.4213 11.84C13.6714 11.8214 12.9298 12.0008 12.2713 12.36C12.1271 12.4561 11.9536 12.4986 11.7813 12.48L11.4313 15C11.4857 15.5458 11.7209 16.0577 12.0995 16.4545C12.4782 16.8513 12.9786 17.1102 13.5213 17.19Z" fill="#F278AB"/>
<path d="M22.7213 14.1C22.7213 14.81 22.5613 15.17 22.1513 15.36C21.8657 15.5309 21.5391 15.6212 21.2063 15.6212C20.8735 15.6212 20.5469 15.5309 20.2613 15.36C20.1254 15.2153 20.022 15.0431 19.9582 14.8551C19.8944 14.6671 19.8716 14.4675 19.8913 14.27C19.8913 14.27 19.8913 14.22 20.0213 14.14C20.4234 13.8536 20.8984 13.6872 21.3913 13.66L21.7113 13.74C22.0221 13.8032 22.3292 13.8833 22.6313 13.98C22.6683 14.0142 22.6988 14.0549 22.7213 14.1Z" fill="white"/>
<path d="M13.1013 14.1C13.1013 14.81 13.2513 15.17 13.6713 15.36C13.955 15.5311 14.28 15.6215 14.6113 15.6215C14.9426 15.6215 15.2676 15.5311 15.5513 15.36C15.6901 15.2169 15.7961 15.0452 15.8617 14.8569C15.9273 14.6687 15.9511 14.4684 15.9313 14.27C15.8946 14.2205 15.8508 14.1767 15.8013 14.14C15.3985 13.8551 14.9239 13.6888 14.4313 13.66L14.1113 13.74C13.8002 13.802 13.493 13.8821 13.1913 13.98C13.1493 14.0093 13.1177 14.0514 13.1013 14.1Z" fill="white"/>
</g>
<defs>
<clipPath id="clip0_806_13673">
<rect width="36" height="36" fill="white" transform="translate(0.00125122)"/>
</clipPath>
</defs>
</svg>
