<svg width="36" height="36" viewBox="0 0 36 36" fill="none" xmlns="http://www.w3.org/2000/svg">
<g clip-path="url(#clip0_794_13366)">
<path d="M34 15V9.10002C34.0286 8.84223 33.956 8.5834 33.7974 8.37817C33.6388 8.17293 33.4067 8.03734 33.15 8.00002L21.94 4.81002C21.7205 4.75148 21.4895 4.75148 21.27 4.81002L14.73 6.65002L9.99999 8.00002C9.75818 8.04835 9.54275 8.18432 9.39509 8.38182C9.24743 8.57932 9.17795 8.82441 9.19999 9.07002V19.85C9.17097 23.0337 10.0597 26.1583 11.76 28.85C13.8856 32.2885 17.2036 34.8233 21.08 35.97C21.2352 36.0191 21.3973 36.0427 21.56 36.04C21.726 36.0427 21.8914 36.0191 22.05 35.97C23.6463 35.5232 25.157 34.8135 26.52 33.87C28.8581 32.3376 30.7702 30.2382 32.0781 27.7675C33.3861 25.2968 34.0472 22.5352 34 19.74C34 18.65 34 17.55 34 16.46V15Z" fill="#FFE982"/>
<path d="M30.52 11.66V4.90998C30.52 4.11998 30.3 3.81998 29.52 3.61998C25.2467 2.39331 20.9567 1.18665 16.65 -2.02283e-05C16.3979 -0.0689223 16.132 -0.0689223 15.88 -2.02246e-05L8.34999 2.08998L2.93999 3.62998C2.65832 3.68121 2.40588 3.83566 2.23204 4.06313C2.0582 4.2906 1.97546 4.57474 1.99999 4.85998V17.3C1.99442 20.9558 3.03542 24.5369 4.99999 27.62C7.45487 31.5827 11.2809 34.5047 15.75 35.83C15.9289 35.8804 16.1142 35.904 16.3 35.9C16.4923 35.902 16.6839 35.8785 16.87 35.83C18.7004 35.3082 20.4332 34.4907 22 33.41C24.6728 31.6374 26.8568 29.2209 28.3509 26.383C29.8451 23.545 30.6013 20.3768 30.55 17.17C30.55 15.91 30.55 14.65 30.55 13.39L30.52 11.66ZM25.69 16C25.6855 16.0365 25.6855 16.0735 25.69 16.11C25.6684 16.4227 25.625 16.7334 25.56 17.04C25.4307 17.5704 25.1237 18.0406 24.6901 18.3722C24.2565 18.7039 23.7224 18.8772 23.1766 18.8632C22.6309 18.8491 22.1063 18.6487 21.6903 18.2952C21.2743 17.9416 20.9919 17.4563 20.89 16.92C20.779 16.2858 20.7189 15.6438 20.71 15C20.7071 14.6813 20.7675 14.3651 20.8877 14.0699C21.0078 13.7746 21.1854 13.5062 21.41 13.28C21.8883 12.8218 22.5277 12.5704 23.19 12.58C23.8766 12.5808 24.5348 12.8541 25.02 13.34C25.2429 13.5722 25.417 13.8467 25.532 14.1472C25.6471 14.4478 25.7008 14.7684 25.69 15.09C25.69 15.22 25.69 15.35 25.69 15.47V15.95V16ZM18.1 23.4V23.5C18.1 23.82 18.03 24.14 17.97 24.45C17.8889 24.8309 17.678 25.1718 17.3734 25.4144C17.0688 25.657 16.6894 25.7862 16.3 25.78H16.24C15.8422 25.7703 15.4599 25.6238 15.1575 25.3652C14.8551 25.1065 14.6512 24.7515 14.58 24.36C14.4877 23.8111 14.4343 23.2564 14.42 22.7C14.407 22.4536 14.4437 22.2071 14.5278 21.9752C14.612 21.7433 14.742 21.5307 14.91 21.35C15.0888 21.181 15.2992 21.049 15.5292 20.9615C15.7591 20.874 16.0041 20.8327 16.25 20.84H16.3C16.5567 20.8357 16.8117 20.8841 17.049 20.9821C17.2863 21.0802 17.5011 21.2258 17.68 21.41C17.8485 21.5977 17.9771 21.8177 18.0579 22.0567C18.1387 22.2957 18.17 22.5486 18.15 22.8L18.1 23.4ZM7.75999 10.61C8.23113 10.2692 8.79849 10.087 9.37999 10.09C9.77516 10.0857 10.1658 10.1748 10.52 10.35C10.9054 10.5075 11.2365 10.7739 11.4727 11.1167C11.709 11.4595 11.8401 11.8638 11.85 12.28C11.8746 12.9486 11.8378 13.6181 11.74 14.28C11.6446 14.845 11.3501 15.3572 10.91 15.724C10.4698 16.0908 9.91291 16.288 9.33999 16.28H9.27999C8.71087 16.2577 8.16844 16.0328 7.75042 15.646C7.33241 15.2591 7.06628 14.7357 6.99999 14.17C6.99999 13.9 6.99999 13.64 6.92999 13.36V12.94C6.8295 12.5129 6.85436 12.066 7.00158 11.6527C7.1488 11.2394 7.41214 10.8774 7.75999 10.61ZM4.83999 21.78C5.03049 20.9365 5.46642 20.1683 6.09282 19.5721C6.71923 18.976 7.5081 18.5786 8.35999 18.43C8.71798 18.3511 9.08341 18.3109 9.44999 18.31C10.1382 18.3224 10.8147 18.4898 11.4293 18.7997C12.044 19.1096 12.5808 19.5541 13 20.1C13.16 20.29 13.15 20.3 13 20.44C12.5003 21.0745 12.2608 21.8754 12.33 22.68V23.09C12.3411 23.6525 12.4115 24.2123 12.54 24.76C12.6918 25.2428 12.8858 25.7113 13.12 26.16L13.25 26.43C12.448 26.8309 11.733 27.3861 11.1461 28.064C10.5592 28.7418 10.112 29.5289 9.82999 30.38L9.52999 30.08C9.02999 29.58 8.52999 29.08 8.10999 28.61C6.58412 26.8676 5.44264 24.8232 4.75999 22.61C4.71034 22.3312 4.73801 22.0442 4.83999 21.78ZM20.14 22.23C20.1285 22.1492 20.1403 22.0668 20.174 21.9924C20.2076 21.918 20.2617 21.8548 20.33 21.81C20.8794 21.3971 21.5105 21.106 22.1813 20.956C22.852 20.8059 23.547 20.8005 24.22 20.94C24.8712 21.0795 25.4841 21.3594 26.016 21.7601C26.548 22.1608 26.9862 22.6726 27.3 23.26C27.347 23.3561 27.3644 23.464 27.35 23.57C26.3596 26.1956 24.7346 28.5352 22.62 30.38C22.3398 29.5174 21.8904 28.7193 21.298 28.0324C20.7056 27.3456 19.9821 26.7838 19.17 26.38C19.9371 25.1394 20.2777 23.6821 20.14 22.23ZM26.73 19C27.2643 18.104 27.5879 17.0982 27.6763 16.0588C27.7646 15.0193 27.6154 13.9733 27.24 13C26.7421 12.094 25.9571 11.3793 25.0084 10.9683C24.0598 10.5574 23.0015 10.4735 22 10.73C21.0272 10.9688 20.1666 11.536 19.5635 12.3358C18.9605 13.1356 18.6519 14.119 18.69 15.12C18.6994 15.7662 18.7528 16.4111 18.85 17.05C18.987 17.9931 19.4421 18.861 20.14 19.51L19.21 20.08C18.6801 19.4862 17.9792 19.0713 17.2038 18.8922C16.4284 18.7131 15.6166 18.7787 14.88 19.08C14.79 19.08 14.76 19.08 14.76 19.08L14.68 19C14.0988 18.1647 13.3277 17.4792 12.43 17C12.6475 16.8032 12.833 16.5738 12.98 16.32C13.5376 15.428 13.8562 14.4075 13.9052 13.3567C13.9543 12.3058 13.7321 11.2601 13.26 10.32C12.7866 9.45333 12.0384 8.76877 11.1332 8.3741C10.2279 7.97942 9.21716 7.89706 8.25999 8.13998C7.27386 8.35636 6.39434 8.91053 5.7735 9.70666C5.15266 10.5028 4.82954 11.4909 4.85999 12.5C4.87132 13.3636 4.96508 14.2242 5.13999 15.07C5.3106 15.8114 5.70095 16.484 6.25999 17L6.11999 17.09C5.72945 17.3281 5.35528 17.592 4.99999 17.88C4.69656 18.1532 4.41254 18.4473 4.14999 18.76V18.37C4.14999 17.47 4.08999 16.58 4.07999 15.69V10.69C3.99999 8.99998 3.99999 7.26998 3.99999 5.54998C3.99999 5.46998 3.99999 5.43998 3.99999 5.43998C4.03842 5.41263 4.08314 5.39543 4.12999 5.38998L10.08 3.68998L16.08 1.97998C16.2285 1.95008 16.3815 1.95008 16.53 1.97998L21.92 3.51998L28.31 5.32998C28.55 5.38998 28.55 5.40998 28.55 5.62998V9.93998C28.55 12.27 28.55 14.67 28.55 17.03C28.5208 18.0346 28.4307 19.0364 28.28 20.03C28.28 20.34 28.2 20.64 28.17 20.95L26.37 19.53C26.45 19.36 26.6 19.2 26.73 19ZM11.73 31.51C11.948 30.4609 12.5201 29.5187 13.3503 28.8414C14.1806 28.1641 15.2185 27.7928 16.29 27.79C17.3636 27.7948 18.4031 28.1677 19.2348 28.8466C20.0666 29.5254 20.6402 30.4691 20.86 31.52C20.86 31.7 20.86 31.73 20.73 31.83C19.4146 32.6936 17.9838 33.3669 16.48 33.83C16.3564 33.8698 16.2235 33.8698 16.1 33.83C14.5982 33.3617 13.1681 32.6887 11.85 31.83C11.68 31.76 11.66 31.73 11.7 31.54L11.73 31.51Z" fill="#00365C"/>
<path d="M7.76 10.61C8.23114 10.2692 8.7985 10.0871 9.38 10.09C9.77517 10.0857 10.1658 10.1748 10.52 10.35C10.9054 10.5075 11.2365 10.7739 11.4727 11.1167C11.709 11.4596 11.8401 11.8638 11.85 12.28C11.8746 12.9486 11.8378 13.6181 11.74 14.28C11.6446 14.845 11.3501 15.3572 10.91 15.724C10.4698 16.0908 9.91292 16.288 9.34 16.28H9.28C8.71088 16.2577 8.16845 16.0328 7.75043 15.646C7.33241 15.2591 7.06629 14.7357 7 14.17C7 13.9 7 13.64 6.93 13.36V12.94C6.82951 12.513 6.85437 12.066 7.00159 11.6527C7.14881 11.2394 7.41215 10.8774 7.76 10.61Z" fill="#F278AB"/>
<path d="M25.69 16C25.6855 16.0365 25.6855 16.0735 25.69 16.11C25.6684 16.4227 25.625 16.7334 25.56 17.04C25.4307 17.5704 25.1237 18.0406 24.6901 18.3722C24.2565 18.7039 23.7224 18.8772 23.1766 18.8632C22.6309 18.8491 22.1064 18.6487 21.6903 18.2952C21.2743 17.9416 20.9919 17.4564 20.89 16.92C20.7791 16.2858 20.7189 15.6438 20.71 15C20.7071 14.6813 20.7675 14.3651 20.8877 14.0699C21.0078 13.7746 21.1854 13.5062 21.41 13.28C21.8883 12.8218 22.5277 12.5704 23.19 12.58C23.8766 12.5808 24.5349 12.8541 25.02 13.34C25.2429 13.5722 25.417 13.8467 25.532 14.1472C25.6471 14.4478 25.7008 14.7684 25.69 15.09C25.69 15.22 25.69 15.35 25.69 15.47V15.95V16Z" fill="#F278AB"/>
<path d="M18.1 23.38V23.48C18.1 23.8 18.03 24.12 17.96 24.43C17.8828 24.811 17.6743 25.1528 17.371 25.3958C17.0676 25.6389 16.6886 25.7678 16.3 25.76H16.24C15.8422 25.7503 15.4599 25.6038 15.1575 25.3452C14.8551 25.0865 14.6512 24.7315 14.58 24.34C14.4898 23.7906 14.433 23.2363 14.41 22.68C14.3989 22.433 14.4374 22.1863 14.5233 21.9544C14.6092 21.7225 14.7406 21.5102 14.91 21.33C15.0888 21.161 15.2992 21.029 15.5292 20.9415C15.7591 20.854 16.0041 20.8127 16.25 20.82H16.3C16.5567 20.8157 16.8116 20.8641 17.049 20.9621C17.2863 21.0602 17.5011 21.2058 17.68 21.39C17.8472 21.5782 17.9742 21.7986 18.0533 22.0376C18.1324 22.2766 18.1619 22.5292 18.14 22.78V23.38H18.1Z" fill="#F278AB"/>
</g>
<defs>
<clipPath id="clip0_794_13366">
<rect width="36" height="36" fill="white"/>
</clipPath>
</defs>
</svg>
