<svg width="24" height="24" viewBox="0 0 24 24" fill="none" xmlns="http://www.w3.org/2000/svg">
<path d="M2.12506 23.8251C2.28954 23.9401 2.49088 23.99 2.69006 23.9651H21.4501C21.5235 23.9869 21.6016 23.9869 21.6751 23.9651C21.8151 23.8651 21.9651 23.7151 21.9601 23.6151C21.9551 23.5151 21.7501 23.3051 21.6651 23.2351C21.5801 23.1651 21.5451 23.2351 21.4651 23.2351H19.2751L19.3151 23.1901L19.4201 23.0701L19.5551 22.9301L20.0201 22.4801C20.3401 22.1751 20.6701 21.8601 20.9751 21.5351C21.2965 21.2275 21.5205 20.8323 21.6191 20.3985C21.7178 19.9647 21.6868 19.5114 21.5301 19.0951C21.4601 18.8901 21.3851 18.6701 21.3251 18.4401C20.9401 17.0001 20.5001 15.2951 20.0501 13.6301C19.8327 12.792 19.2937 12.0734 18.5501 11.6301C17.6891 11.0643 16.7013 10.7208 15.6751 10.6301C14.1751 10.5101 12.5551 10.4501 10.7701 10.4401H10.5901C9.35448 10.4141 8.12167 10.5674 6.93006 10.8951C5.05006 11.5001 4.04506 12.4451 3.68006 14.0551C3.44006 15.1201 3.14506 16.1901 2.86006 17.2251C2.67006 17.9001 2.50006 18.5951 2.30506 19.2851C2.20074 19.6697 2.20236 20.0753 2.30974 20.4591C2.41713 20.8429 2.62628 21.1905 2.91506 21.4651C3.10006 21.6501 3.29506 21.8301 3.49006 22.0051L3.78006 22.2701L4.35006 22.8051L4.67506 23.1151L4.63506 23.1451C4.63506 23.1451 4.60006 23.1751 4.58506 23.1751H2.69506C2.23506 23.1751 2.04506 23.2851 2.04006 23.5551C2.03295 23.6036 2.0369 23.6531 2.05162 23.6998C2.06634 23.7466 2.09145 23.7894 2.12506 23.8251ZM18.4201 16.1301C18.4201 16.2151 18.4201 16.2951 18.4201 16.3751C18.3801 16.8751 18.3351 17.3751 18.2951 17.9151C18.1601 19.5251 18.0251 21.1851 17.8951 22.8201C17.8951 23.1101 17.7751 23.2051 17.4851 23.2051C14.3351 23.2051 10.8751 23.2051 6.60006 23.2051C6.36506 23.2051 6.21006 23.2051 6.18506 22.8651C6.05506 21.2151 5.91506 19.5351 5.78006 17.9101C5.73006 17.3301 5.68006 16.7501 5.63506 16.1701C5.63245 16.1335 5.63245 16.0967 5.63506 16.0601V15.9651H18.4301L18.4201 16.1301ZM13.1651 12.8701C13.3701 12.3701 13.5601 11.8701 13.7551 11.4301C13.78 11.3852 13.8151 11.3468 13.8577 11.3181C13.9003 11.2895 13.9491 11.2713 14.0001 11.2651C15.2934 11.2444 16.575 11.5143 17.7501 12.0551C18.149 12.2334 18.5012 12.5019 18.7788 12.8394C19.0564 13.1769 19.252 13.5742 19.3501 14.0001C19.6301 15.1301 19.9401 16.2751 20.2451 17.3801C20.3701 17.8451 20.5001 18.3101 20.6251 18.7701V18.8001C20.6337 18.8393 20.6454 18.8777 20.6601 18.9151C20.8815 19.3219 20.9427 19.7968 20.8317 20.2465C20.7206 20.6962 20.4454 21.0881 20.0601 21.3451C19.749 21.6112 19.4519 21.8932 19.1701 22.1901L18.7751 22.5801L18.7101 22.5501C18.7101 22.3651 18.7401 22.1801 18.7501 22.0001L18.8401 20.8951L19.0001 18.6501C19.0867 17.6867 19.1684 16.7201 19.2451 15.7501C19.2761 15.6739 19.2848 15.5905 19.2704 15.5095C19.2559 15.4286 19.2188 15.3534 19.1633 15.2927C19.1078 15.2319 19.0362 15.1882 18.9569 15.1665C18.8776 15.1448 18.7937 15.146 18.7151 15.1701H17.8101C16.5101 15.1701 15.1651 15.1701 13.8451 15.1701C13.5851 15.1701 13.4401 15.1101 13.4051 14.8001C13.3701 14.4901 13.3051 14.1001 13.2501 13.7551C13.2201 13.5651 13.1851 13.3701 13.1551 13.1751C13.1345 13.074 13.1379 12.9696 13.1651 12.8701ZM13.0001 11.2201V11.2501C12.9501 11.3851 12.8951 11.5201 12.8401 11.6451C12.7151 11.9451 12.5951 12.2251 12.5001 12.5201C12.4218 12.7567 12.3929 13.0068 12.4151 13.2551C12.4601 13.6951 12.5351 14.1201 12.6101 14.5751L12.7001 15.1251V15.1551H11.3451V15.1251C11.3451 15.0051 11.3801 14.8801 11.3951 14.7601C11.4244 14.5042 11.4695 14.2504 11.5301 14.0001C11.6362 13.6629 11.6723 13.3076 11.6362 12.9559C11.6001 12.6042 11.4925 12.2637 11.3201 11.9551C11.2431 11.8088 11.1779 11.6567 11.1251 11.5001C11.1001 11.4251 11.0701 11.3451 11.0401 11.2651V11.2351L13.0001 11.2201ZM4.00006 21.4101C3.09506 20.7201 2.87506 19.9101 3.27006 18.7601C3.75091 17.2714 4.14984 15.7574 4.46506 14.2251C4.58257 13.6556 4.85256 13.1287 5.24621 12.7007C5.63985 12.2727 6.14236 11.9597 6.70006 11.7951C7.76343 11.4365 8.87785 11.2524 10.0001 11.2501C10.0554 11.2586 10.108 11.2803 10.1532 11.3134C10.1985 11.3465 10.2351 11.3899 10.2601 11.4401C10.4351 11.8301 10.6101 12.2601 10.8251 12.8201C10.8604 12.9194 10.8707 13.0259 10.8551 13.1301C10.8201 13.3801 10.7801 13.6301 10.7451 13.8701C10.6901 14.2101 10.6351 14.5651 10.5901 14.9151C10.5551 15.1751 10.3951 15.1751 10.2251 15.1701H5.38006C5.10506 15.1701 4.96006 15.2051 4.88006 15.2901C4.80006 15.3751 4.78006 15.5201 4.80506 15.7901L5.15006 20.0401L5.34006 22.2951C5.34006 22.3451 5.34006 22.3901 5.34006 22.4351C5.34006 22.4801 5.34006 22.4851 5.34006 22.5101L5.25006 22.5751L4.86006 22.2001C4.58883 21.9204 4.30169 21.6566 4.00006 21.4101Z" fill="#333333"/>
<path d="M16.4451 5.74996C16.7128 4.83165 16.6866 3.85262 16.3701 2.94996C16.0282 2.06185 15.4175 1.30265 14.6233 0.778284C13.8292 0.253921 12.8911 -0.00943711 11.9401 0.02496L11.6601 0.04996C11.4601 0.04996 11.2501 0.08996 11.0451 0.11996C9.97276 0.266042 8.99099 0.799613 8.2851 1.61996C7.58809 2.45958 7.23126 3.53005 7.2851 4.61996C7.31612 5.45462 7.53068 6.27219 7.91352 7.01453C8.29635 7.75687 8.83805 8.40572 9.5001 8.91496C10.1813 9.48694 11.0411 9.80257 11.9306 9.80714C12.82 9.8117 13.6831 9.50492 14.3701 8.93996C15.3937 8.13372 16.123 7.01253 16.4451 5.74996ZM8.1551 3.57496C8.30992 2.88488 8.6722 2.2587 9.19328 1.78052C9.71436 1.30234 10.3693 0.995065 11.0701 0.89996C11.7888 0.713223 12.5456 0.733365 13.2533 0.958062C13.961 1.18276 14.5908 1.60287 15.0701 2.16996C15.2651 2.41962 15.4327 2.6895 15.5701 2.97496C15.6451 3.11996 15.7251 3.26496 15.8151 3.41496V3.44496H15.7801C15.375 3.5563 14.948 3.56094 14.5406 3.45843C14.1332 3.35592 13.7593 3.14975 13.4551 2.85996C13.2451 2.65996 13.1251 2.57996 13.0101 2.58496C12.8951 2.58996 12.7851 2.66996 12.5951 2.86996C12.2454 3.284 11.8098 3.61697 11.3185 3.84578C10.8272 4.07458 10.292 4.19373 9.7501 4.19496C9.2732 4.19754 8.79839 4.13187 8.3401 3.99996C8.0651 3.89996 8.1151 3.72496 8.1551 3.57496ZM13.9451 8.29496C13.3859 8.76989 12.6787 9.0351 11.9451 9.04496C11.2149 9.0309 10.5106 8.77207 9.9451 8.30996C9.40787 7.87253 8.96413 7.33148 8.64029 6.71903C8.31646 6.10658 8.11915 5.43524 8.0601 4.74496V4.70996H8.0951C10.0451 5.26996 11.6451 4.88996 12.9901 3.54496C13.366 3.86328 13.8093 4.09212 14.2865 4.21424C14.7638 4.33636 15.2625 4.34857 15.7451 4.24996H15.7751V4.45496C15.7826 4.5665 15.7826 4.67842 15.7751 4.78996C15.7198 5.46685 15.5294 6.12579 15.2151 6.72781C14.9008 7.32984 14.4689 7.86272 13.9451 8.29496Z" fill="#333333"/>
<path d="M12.695 20.7098H11.3C11.2484 20.7046 11.1962 20.7107 11.1472 20.7278C11.0981 20.7449 11.0534 20.7725 11.0163 20.8087C10.9791 20.845 10.9503 20.8889 10.9319 20.9375C10.9136 20.9861 10.9061 21.0381 10.91 21.0898C10.906 21.1414 10.9134 21.1933 10.9318 21.2416C10.9502 21.29 10.979 21.3337 11.0163 21.3696C11.0536 21.4054 11.0984 21.4326 11.1475 21.449C11.1965 21.4655 11.2486 21.4709 11.3 21.4648C11.77 21.4648 12.24 21.4648 12.695 21.4648C12.7488 21.4705 12.8032 21.4647 12.8547 21.4479C12.9061 21.4311 12.9534 21.4036 12.9935 21.3673C13.0336 21.3309 13.0656 21.2866 13.0874 21.237C13.1092 21.1875 13.1203 21.1339 13.12 21.0798C13.12 20.8598 12.955 20.7148 12.695 20.7098Z" fill="#333333"/>
<path d="M12 20.05C12.1364 20.0489 12.2672 19.9952 12.365 19.9C12.4147 19.854 12.4544 19.7984 12.4819 19.7365C12.5095 19.6746 12.5241 19.6078 12.525 19.54C12.525 19.4074 12.4723 19.2803 12.3786 19.1865C12.2848 19.0927 12.1576 19.04 12.025 19.04C11.8867 19.0394 11.7538 19.0933 11.655 19.19C11.6062 19.2365 11.5674 19.2924 11.5408 19.3542C11.5141 19.4161 11.5003 19.4827 11.5 19.55C11.5 19.6827 11.5527 19.8098 11.6464 19.9036C11.7402 19.9974 11.8674 20.05 12 20.05Z" fill="#333333"/>
</svg>
