<svg width="25" height="25" viewBox="0 0 25 25" fill="none" xmlns="http://www.w3.org/2000/svg">
<path fill-rule="evenodd" clip-rule="evenodd" d="M8.87028 1.5C6.19089 1.5 4.03394 3.64434 4.03394 6.27098C4.03394 8.81104 6.05103 10.9001 8.60705 11.035C8.79669 11.0283 8.98618 11.0275 9.17525 11.0327C11.7115 10.8773 13.7066 8.79719 13.7066 6.27098C13.7066 3.64434 11.5497 1.5 8.87028 1.5ZM2.53394 6.27098C2.53394 8.56357 3.77471 10.563 5.62289 11.6566C4.29681 12.1791 3.10652 13.0124 2.16142 14.0979C0.763274 15.7036 -0.00465859 17.754 2.12641e-05 19.8748C0.000935242 20.289 0.337462 20.624 0.751674 20.6231C1.16589 20.6222 1.50093 20.2857 1.50002 19.8714C1.49614 18.116 2.13163 16.4163 3.29269 15.0829C4.45395 13.7491 6.06388 12.8706 7.82953 12.61C8.08645 12.5721 8.34412 12.5476 8.60152 12.5364C8.69065 12.5401 8.78025 12.542 8.87028 12.542C8.97863 12.542 9.08637 12.5393 9.19341 12.5339C10.5023 12.5799 11.784 12.9669 12.9036 13.6661C14.4107 14.6073 15.5225 16.0508 16.0388 17.7314C16.1604 18.1273 16.58 18.3497 16.976 18.228C17.3719 18.1064 17.5943 17.6868 17.4727 17.2909C16.8494 15.2621 15.5088 13.5246 13.6982 12.3938C13.2097 12.0887 12.6957 11.8333 12.164 11.6289C13.9865 10.5295 15.2066 8.54438 15.2066 6.27098C15.2066 2.79932 12.3614 0 8.87028 0C5.37916 0 2.53394 2.79932 2.53394 6.27098ZM23.7815 17.2835C24.0748 16.991 24.0753 16.5161 23.7828 16.2229C23.4903 15.9296 23.0154 15.929 22.7222 16.2215L17.0091 21.9204L13.6496 18.7033C13.3504 18.4168 12.8757 18.4271 12.5892 18.7262C12.3027 19.0254 12.313 19.5001 12.6121 19.7866L16.501 23.5108L17.0305 24.0178L17.5494 23.5001L23.7815 17.2835Z" fill="#333333"/>
</svg>
