<svg width="36" height="36" viewBox="0 0 36 36" fill="none" xmlns="http://www.w3.org/2000/svg">
<g clip-path="url(#clip0_803_13415)">
<path d="M9.18004 15.77C8.50656 15.7736 7.83904 15.6438 7.216 15.3881C6.59296 15.1323 6.02675 14.7557 5.55004 14.28C5.05655 13.7905 4.66536 13.2078 4.39926 12.5657C4.13315 11.9236 3.99744 11.235 4.00004 10.54C4.03142 9.18534 4.59237 7.89692 5.56258 6.95101C6.53279 6.0051 7.83503 5.47701 9.19004 5.47999C9.86233 5.48239 10.5275 5.61795 11.1471 5.87884C11.7667 6.13973 12.3285 6.52078 12.8 6.99999C13.2889 7.49392 13.6756 8.07933 13.9381 8.72277C14.2007 9.36621 14.3338 10.0551 14.33 10.75C14.3064 12.0965 13.7521 13.3793 12.7877 14.3194C11.8233 15.2594 10.5268 15.7807 9.18004 15.77Z" fill="#F278AB"/>
<path d="M17.5299 22.7598H16.0499C14.9499 22.7598 14.6499 23.0598 14.6499 24.1398V30.8098H9.83987V21.3498C9.83913 21.272 9.85377 21.1949 9.88294 21.1228C9.91212 21.0507 9.95526 20.9851 10.0099 20.9298C10.1274 20.831 10.2764 20.7778 10.4299 20.7798H10.6999C12.4913 20.7966 14.2322 20.1858 15.6204 19.0533C17.0086 17.9208 17.9566 16.3381 18.2999 14.5798C18.3564 14.3791 18.4405 14.1873 18.5499 14.0098L24.1899 18.6098C25.1099 19.3598 26.0299 20.1098 26.9399 20.8798C27.0426 20.9711 27.1186 21.0886 27.1599 21.2198C27.1599 23.9398 27.1599 26.6598 27.1599 29.3798V30.7898H22.3599V28.7898C22.3599 27.2498 22.3599 25.6998 22.3599 24.1498C22.3764 23.9547 22.353 23.7584 22.2911 23.5727C22.2292 23.387 22.1301 23.2159 21.9999 23.0698C21.7227 22.8329 21.3636 22.7144 20.9999 22.7398C19.8399 22.7698 18.6899 22.7598 17.5299 22.7598Z" fill="#FFE982"/>
<path d="M35 16.16C33.54 14.95 32.07 13.74 30.58 12.56C30.4779 12.4947 30.3965 12.4017 30.3451 12.292C30.2938 12.1822 30.2747 12.0601 30.29 11.94C30.29 10.79 30.29 9.64995 30.29 8.49995C30.29 7.34995 30.29 6.49995 30.29 5.49995C30.3088 5.28242 30.2821 5.06334 30.2115 4.85672C30.1409 4.65009 30.028 4.46047 29.88 4.29995C29.554 4.01753 29.1305 3.87395 28.7 3.89995C27.4666 3.89995 26.2366 3.89995 25.01 3.89995C24.7948 3.88177 24.5782 3.90789 24.3735 3.97669C24.1689 4.04548 23.9805 4.1555 23.82 4.29995C23.6782 4.46923 23.5723 4.66554 23.5087 4.87697C23.4451 5.08841 23.4251 5.31056 23.45 5.52995C23.45 5.93995 23.45 6.34995 23.45 6.78995L23.14 6.52995C22.14 5.68995 21.14 4.89995 20.14 4.11995C19.6845 3.70956 19.0931 3.48245 18.48 3.48245C17.8668 3.48245 17.2755 3.70956 16.82 4.11995L16.09 4.70995C14.5269 2.94667 12.3551 1.83934 10.01 1.60995C8.23427 1.45184 6.45092 1.8136 4.87721 2.65117C3.3035 3.48873 2.00737 4.76593 1.14674 6.32714C0.286105 7.88836 -0.101864 9.66619 0.0301008 11.444C0.162065 13.2218 0.808264 14.9229 1.88996 16.34C1.42708 16.7359 1.1336 17.2942 1.06996 17.9C1.11544 18.593 1.42718 19.2416 1.93996 19.71L2.31996 20.09C2.52996 20.31 2.74996 20.53 2.94996 20.77C3.23692 21.1965 3.63967 21.5322 4.11087 21.7377C4.58208 21.9432 5.10215 22.0099 5.60996 21.93V24.85C5.60996 27.51 5.60996 30.17 5.60996 32.85C5.57645 33.2888 5.71648 33.7233 5.99996 34.06C6.33672 34.3451 6.76923 34.4917 7.20996 34.47C9.67996 34.47 12.21 34.47 14.63 34.47C15.0699 34.4858 15.5003 34.34 15.84 34.06C15.987 33.8931 16.0984 33.6979 16.1672 33.4863C16.236 33.2748 16.2607 33.0514 16.24 32.83C16.24 30.93 16.24 29.03 16.24 27.13V24.76H20.79V27.15C20.79 29.05 20.79 30.94 20.79 32.84C20.7715 33.0613 20.7974 33.284 20.8661 33.4952C20.9347 33.7064 21.0449 33.9018 21.19 34.07C21.3548 34.214 21.5467 34.3236 21.7545 34.3923C21.9623 34.461 22.1818 34.4874 22.4 34.47C24.8533 34.47 27.3 34.47 29.74 34.47H29.79C30.0088 34.4855 30.2285 34.4572 30.4363 34.3868C30.644 34.3164 30.8357 34.2053 31 34.06C31.15 33.8883 31.2644 33.6884 31.3365 33.4721C31.4086 33.2558 31.437 33.0273 31.42 32.8C31.42 30.22 31.42 27.63 31.42 25.04V21.88C32.57 22.16 33.09 21.88 34.19 20.73L34.55 20.36L35.23 19.64C35.4759 19.4075 35.6712 19.1267 35.8037 18.8153C35.9362 18.5038 36.003 18.1684 36 17.83C35.9574 17.4977 35.8466 17.1778 35.6745 16.8904C35.5024 16.6031 35.2728 16.3544 35 16.16ZM25.85 6.38995V6.28995H27.85V10.34L25.85 8.64995V6.38995ZM31.71 19.39L22.5 11.85C21.57 11.1 20.64 10.35 19.73 9.56995C19.3885 9.234 18.9379 9.03174 18.46 8.99995C18.3803 8.99032 18.2997 8.99032 18.22 8.99995L17.5 6.65995L17.7 6.48995C17.9546 6.2537 18.2289 6.03959 18.52 5.84995C18.8136 6.01587 19.0857 6.2174 19.33 6.44995L19.74 6.77995L33.25 17.84L33.43 18L33.25 18.19C32.81 18.65 32.38 19.09 31.92 19.55L31.71 19.39ZM17.32 22.31H15.53C14.2 22.31 13.84 22.68 13.84 23.99V32.06H7.99996V20.6C7.9969 20.5073 8.01309 20.415 8.04752 20.329C8.08194 20.2429 8.13385 20.1649 8.19996 20.1C8.33856 19.9723 8.52165 19.9041 8.70996 19.91H9.02996C11.2002 19.9295 13.3089 19.1894 14.9909 17.8179C16.673 16.4463 17.8223 14.5297 18.24 12.4C18.3066 12.16 18.4077 11.931 18.54 11.72L25.36 17.29C26.48 18.2 27.6 19.11 28.69 20.04C28.8113 20.1492 28.904 20.2866 28.96 20.44C28.96 23.73 28.96 27.03 28.96 30.32V32H23.17V29.59C23.17 27.71 23.17 25.84 23.17 23.97C23.1933 23.7391 23.168 23.5059 23.0956 23.2854C23.0233 23.065 22.9055 22.8621 22.75 22.69C22.5815 22.5453 22.3861 22.4355 22.175 22.3668C21.9639 22.2982 21.7412 22.2721 21.52 22.29C20.13 22.32 18.72 22.31 17.32 22.31ZM4.21996 18.64L3.87996 18.28L3.76996 18.16L5.62996 19.16C5.47996 19.29 5.33996 19.4 5.22996 19.48H5.03996C4.75072 19.2159 4.47693 18.9355 4.21996 18.64ZM9.21996 17.41C8.34079 17.4165 7.46907 17.2484 6.65539 16.9154C5.84171 16.5823 5.10226 16.091 4.47996 15.47C3.54322 14.5326 2.90455 13.3392 2.64425 12.0398C2.38395 10.7404 2.51365 9.39304 3.01704 8.16717C3.52042 6.9413 4.37502 5.89163 5.47338 5.15016C6.57173 4.40868 7.86479 4.00851 9.18996 3.99995C10.0687 4.00244 10.9381 4.18066 11.747 4.52413C12.5559 4.8676 13.2879 5.36939 13.9 5.99995C14.5413 6.64139 15.0485 7.40416 15.3919 8.24374C15.7353 9.08332 15.908 9.9829 15.9 10.89C15.8632 12.6424 15.1371 14.3096 13.8791 15.5302C12.6211 16.7507 10.9327 17.4261 9.17996 17.41H9.21996Z" fill="#00365C"/>
<path d="M11.72 11.64C11.6497 11.1116 11.3899 10.6266 10.9889 10.2753C10.588 9.92397 10.0731 9.73021 9.53996 9.73001H8.31996C8.19785 9.72355 8.08306 9.66974 7.99996 9.58001C7.96585 9.53105 7.94205 9.47566 7.93002 9.41721C7.91798 9.35876 7.91797 9.29847 7.92996 9.24001C7.95298 9.15026 8.00644 9.07128 8.08122 9.01657C8.156 8.96185 8.24745 8.93479 8.33997 8.94001H10.8C11.0387 8.94001 11.2676 8.84519 11.4364 8.67641C11.6051 8.50763 11.7 8.27871 11.7 8.04001C11.7 7.80132 11.6051 7.5724 11.4364 7.40362C11.2676 7.23484 11.0387 7.14001 10.8 7.14001H9.79997V6.79001C9.79465 6.53044 9.69513 6.28165 9.51997 6.09001C9.38778 5.97048 9.2234 5.89239 9.04722 5.86544C8.87105 5.8385 8.69085 5.86387 8.52897 5.93842C8.36709 6.01297 8.23066 6.13341 8.13662 6.2848C8.04258 6.43619 7.99506 6.61186 7.99996 6.79001V7.15001H7.84996C7.38009 7.24696 6.95479 7.49485 6.63886 7.85592C6.32292 8.21698 6.13368 8.67143 6.09996 9.15001C6.05733 9.68765 6.21736 10.2218 6.5486 10.6474C6.87984 11.073 7.35832 11.3593 7.88996 11.45C8.24283 11.4756 8.5971 11.4756 8.94996 11.45H9.42997C9.84997 11.45 9.90996 11.7 9.90996 11.85C9.90996 12 9.78996 12.23 9.44996 12.23H7.11996C7.04025 12.2204 6.95967 12.2204 6.87997 12.23C6.66077 12.2525 6.45799 12.3564 6.31172 12.5212C6.16544 12.686 6.08631 12.8997 6.08997 13.12C6.09215 13.3486 6.18121 13.5677 6.33907 13.733C6.49693 13.8983 6.71176 13.9973 6.93996 14.01H7.99996V14.37C7.99596 14.4912 8.01621 14.6119 8.05952 14.7252C8.10283 14.8384 8.16833 14.9418 8.25217 15.0294C8.33601 15.117 8.4365 15.1869 8.54774 15.2351C8.65899 15.2833 8.77874 15.3087 8.89996 15.31C9.02079 15.3074 9.13992 15.281 9.25055 15.2324C9.36117 15.1837 9.46113 15.1138 9.54471 15.0265C9.62829 14.9392 9.69385 14.8363 9.73765 14.7236C9.78144 14.611 9.80262 14.4908 9.79997 14.37V14.1H9.94996H10.11C10.6357 13.9627 11.0916 13.635 11.3891 13.1803C11.6867 12.7257 11.8046 12.1767 11.72 11.64Z" fill="#FFE982"/>
</g>
<defs>
<clipPath id="clip0_803_13415">
<rect width="36" height="36" fill="white"/>
</clipPath>
</defs>
</svg>
