<svg width="24" height="24" viewBox="0 0 24 24" fill="none" xmlns="http://www.w3.org/2000/svg">
<path d="M17.6694 0H6.33063C2.83972 0 0 2.83972 0 6.33063V7.73371C0 8.8951 0.946573 9.84168 2.10797 9.84168H4.92084C6.08224 9.84168 7.02881 8.8951 7.02881 7.73371V6.33063C7.02881 5.94126 7.34434 5.62573 7.73371 5.62573H16.2663C16.6557 5.62573 16.9712 5.94126 16.9712 6.33063V7.73371C16.9712 8.8951 17.9178 9.84168 19.0792 9.84168H21.892C23.0534 9.84168 24 8.8951 24 7.73371V6.33063C24 2.83972 21.1603 0 17.6694 0ZM5.62573 7.73371C5.62573 8.12308 5.31021 8.4386 4.92084 8.4386H2.10797C1.7186 8.4386 1.40308 8.12308 1.40308 7.73371V7.02881H5.61902V7.73371H5.62573ZM16.2663 4.21594H7.73371C6.81399 4.21594 6.03524 4.80671 5.74657 5.61902H1.45678C1.79916 3.2358 3.85343 1.40308 6.33063 1.40308H17.6761C20.1533 1.40308 22.2076 3.24252 22.5499 5.61902H18.2601C17.9648 4.80671 17.1793 4.21594 16.2663 4.21594ZM22.5969 7.73371C22.5969 8.12308 22.2814 8.4386 21.892 8.4386H19.0792C18.6898 8.4386 18.3743 8.12308 18.3743 7.73371V7.02881H22.5902V7.73371H22.5969Z" fill="#333333"/>
<path d="M22.3284 19.6968C18.4951 10.3855 18.7301 10.9359 18.6898 10.8688C18.3138 10.2378 17.6157 9.84168 16.8839 9.84168H15.5681V9.13678C15.5681 7.97538 14.6215 7.02881 13.4601 7.02881H10.5533C9.39189 7.02881 8.44531 7.97538 8.44531 9.13678V9.84168H7.12951C6.2165 9.84168 5.47804 10.4593 5.26993 10.9628L1.67832 19.6968C1.49706 20.1264 1.40979 20.5829 1.40979 21.0462V21.892C1.40979 23.0534 2.35636 24 3.51776 24H20.489C21.6503 24 22.5969 23.0534 22.5969 21.892V21.0462C22.5969 20.5829 22.5029 20.1264 22.3284 19.6968ZM9.84168 9.14349C9.84168 8.75412 10.1572 8.4386 10.5466 8.4386H13.4534C13.8428 8.4386 14.1583 8.75412 14.1583 9.14349V9.84839H9.84839V9.14349H9.84168ZM21.1871 21.892C21.1871 22.2814 20.8716 22.5969 20.4822 22.5969H3.51776C3.12839 22.5969 2.81287 22.2814 2.81287 21.892V21.0462C2.81287 20.7642 2.86657 20.4957 2.97399 20.2338L6.54545 11.5536C6.67301 11.3656 6.89455 11.2515 7.1228 11.2515H16.8772C17.1055 11.2515 17.327 11.3656 17.4545 11.5536L21.026 20.2338C21.1334 20.4889 21.1871 20.7642 21.1871 21.0462V21.892Z" fill="#333333"/>
<path d="M12.0436 12.6545C9.71413 12.6545 7.8277 14.5477 7.8277 16.8705C7.8277 19.1933 9.72084 21.0864 12.0436 21.0864C14.3664 21.0864 16.2596 19.1933 16.2596 16.8705C16.2596 14.5477 14.3732 12.6545 12.0436 12.6545ZM12.0436 19.6901C10.4929 19.6901 9.23077 18.428 9.23077 16.8772C9.23077 15.3264 10.4929 14.0643 12.0436 14.0643C13.5944 14.0643 14.8565 15.3264 14.8565 16.8772C14.8565 18.428 13.5944 19.6901 12.0436 19.6901Z" fill="#333333"/>
<path d="M12.0436 15.4674C11.2649 15.4674 10.6406 16.0985 10.6406 16.8705C10.6406 17.6492 11.2716 18.2736 12.0436 18.2736C12.8157 18.2736 13.4467 17.6425 13.4467 16.8705C13.4534 16.0985 12.8224 15.4674 12.0436 15.4674Z" fill="#333333"/>
</svg>
