<svg width="36" height="36" viewBox="0 0 36 36" fill="none" xmlns="http://www.w3.org/2000/svg">
<g clip-path="url(#clip0_1147_24298)">
<path fill-rule="evenodd" clip-rule="evenodd" d="M19.14 26.2597C21.1769 26.2617 23.1685 25.6591 24.8627 24.5283C26.5568 23.3975 27.8772 21.7893 28.6567 19.9075C29.4362 18.0257 29.6396 15.9548 29.2413 13.9573C28.8429 11.9598 27.8607 10.1254 26.419 8.68648C24.9773 7.24759 23.141 6.26895 21.1427 5.87449C19.1444 5.48003 17.074 5.68751 15.1937 6.47064C13.3134 7.25378 11.7078 8.57733 10.5803 10.2737C9.45279 11.97 8.85409 13.9628 8.86003 15.9997C8.86796 18.7218 9.95422 21.3299 11.8809 23.2529C13.8077 25.1759 16.4179 26.2571 19.14 26.2597Z" fill="#FFE982"/>
<path fill-rule="evenodd" clip-rule="evenodd" d="M25.43 10.2598C25.7678 10.2578 26.0974 10.1559 26.3773 9.96678C26.6572 9.77769 26.8748 9.50994 27.0027 9.19731C27.1306 8.88468 27.163 8.54117 27.0959 8.21013C27.0288 7.87908 26.8652 7.57532 26.6256 7.33718C26.3861 7.09903 26.0814 6.93716 25.75 6.87198C25.4185 6.80681 25.0752 6.84125 24.7633 6.97096C24.4515 7.10068 24.185 7.31985 23.9975 7.60084C23.8101 7.88183 23.71 8.21204 23.71 8.54982C23.71 8.77522 23.7546 8.9984 23.8411 9.20653C23.9277 9.41465 24.0546 9.6036 24.2144 9.76252C24.3743 9.92144 24.5639 10.0472 24.7726 10.1325C24.9812 10.2179 25.2046 10.2611 25.43 10.2598Z" fill="#F278AB"/>
<path d="M1.66 35.9997C1.50858 36.001 1.35869 35.9694 1.2206 35.9073C1.08251 35.8451 0.959502 35.7539 0.86 35.6397C0.76496 35.5359 0.691553 35.4142 0.644062 35.2817C0.59657 35.1492 0.575947 35.0085 0.583394 34.868C0.590841 34.7274 0.62621 34.5897 0.687436 34.463C0.748663 34.3362 0.834521 34.2229 0.94 34.1297L7.78 27.9997C7.97194 27.8198 8.22703 27.7228 8.49 27.7297H21.76L33 17.9097C33.19 17.6697 34 16.5597 33.36 15.9097C32.974 15.5674 32.4759 15.3784 31.96 15.3784C31.4441 15.3784 30.946 15.5674 30.56 15.9097C29.68 16.6997 25.11 20.1297 24.92 20.2797C24.8077 20.3644 24.6799 20.4262 24.5437 20.4615C24.4076 20.4968 24.2658 20.5049 24.1265 20.4854C23.8452 20.446 23.5911 20.2965 23.42 20.0697C23.2489 19.843 23.175 19.5575 23.2143 19.2762C23.2537 18.9949 23.4032 18.7408 23.63 18.5697C24.93 17.5697 28.46 14.9197 29.13 14.3197C29.9005 13.6078 30.911 13.2124 31.96 13.2124C33.009 13.2124 34.0195 13.6078 34.79 14.3197C36.66 15.9997 35.46 18.3197 34.56 19.3197L34.46 19.4197L22.87 29.5597C22.6719 29.7283 22.4201 29.8206 22.16 29.8197H8.9L2.37 35.6797C2.18193 35.8718 1.92846 35.986 1.66 35.9997Z" fill="#00365C"/>
<path d="M1.28993 26.9997C1.04441 26.9983 0.805911 26.9176 0.609926 26.7697C0.389905 26.5897 0.249714 26.3302 0.219761 26.0476C0.189808 25.7649 0.272509 25.4818 0.449926 25.2597L7.62993 16.3297C7.73266 16.2062 7.86097 16.1065 8.006 16.0374C8.15102 15.9684 8.30931 15.9316 8.46993 15.9297H20.1199C21.394 15.8743 22.6438 16.2909 23.6299 17.0997C23.9843 17.4483 24.2631 17.8662 24.4489 18.3273C24.6347 18.7884 24.7235 19.2828 24.7099 19.7797C24.7381 20.2759 24.6639 20.7725 24.4919 21.2388C24.3199 21.705 24.0537 22.1308 23.7099 22.4897C23.2419 22.8649 22.7034 23.1423 22.1263 23.3055C21.5491 23.4687 20.945 23.5143 20.3499 23.4397H13.8699C13.5861 23.4397 13.3139 23.327 13.1133 23.1263C12.9126 22.9256 12.7999 22.6535 12.7999 22.3697C12.7999 22.0859 12.9126 21.8138 13.1133 21.6131C13.3139 21.4124 13.5861 21.2997 13.8699 21.2997H20.4199C21.0424 21.3983 21.6797 21.2744 22.2199 20.9497C22.4847 20.6203 22.6103 20.2004 22.5699 19.7797C22.5855 19.5746 22.557 19.3685 22.4863 19.1753C22.4156 18.9821 22.3043 18.8063 22.1599 18.6597C21.5825 18.2357 20.875 18.027 20.1599 18.0697H8.99993L2.11993 26.5597C2.0282 26.6954 1.90454 26.8065 1.75981 26.8832C1.61509 26.96 1.45373 26.9999 1.28993 26.9997Z" fill="#00365C"/>
<path d="M19.2299 15.6598C19.1188 15.6611 19.0084 15.6404 18.9054 15.5988C18.8023 15.5572 18.7085 15.4955 18.6295 15.4174C18.5504 15.3392 18.4876 15.2462 18.4448 15.1436C18.402 15.041 18.3799 14.931 18.3799 14.8198V0.889776C18.4026 0.681514 18.5014 0.488967 18.6573 0.349084C18.8133 0.209201 19.0154 0.131836 19.2249 0.131836C19.4344 0.131836 19.6365 0.209201 19.7925 0.349084C19.9484 0.488967 20.0472 0.681514 20.0699 0.889776V14.8198C20.0699 15.0426 19.9814 15.2563 19.8239 15.4138C19.6663 15.5713 19.4527 15.6598 19.2299 15.6598Z" fill="#00365C"/>
<path d="M19.9999 12.4497H15.9999C15.7917 12.427 15.5991 12.3282 15.4592 12.1722C15.3193 12.0163 15.242 11.8142 15.242 11.6047C15.242 11.3952 15.3193 11.1931 15.4592 11.0371C15.5991 10.8812 15.7917 10.7824 15.9999 10.7597H19.9999C20.5099 10.7597 20.9399 10.1697 20.9399 9.45967C20.9399 8.74967 20.5099 8.15967 19.9999 8.15967H17.4799C17.1102 8.13552 16.7489 8.03874 16.4166 7.87487C16.0843 7.71101 15.7875 7.48326 15.5433 7.20466C15.299 6.92605 15.1121 6.60205 14.9931 6.25116C14.8741 5.90027 14.8255 5.52937 14.8499 5.15967C14.8032 4.41366 15.0536 3.67947 15.5464 3.11741C16.0391 2.55534 16.7342 2.21104 17.4799 2.15967H21.3699C21.5782 2.18236 21.7707 2.28116 21.9106 2.43711C22.0505 2.59306 22.1279 2.79518 22.1279 3.00467C22.1279 3.21417 22.0505 3.41628 21.9106 3.57223C21.7707 3.72818 21.5782 3.82698 21.3699 3.84967H17.4799C16.9699 3.84967 16.5399 4.43967 16.5399 5.14967C16.5399 5.85967 16.9699 6.44967 17.4799 6.44967H19.9999C20.7438 6.50355 21.4364 6.84894 21.927 7.41072C22.4177 7.97251 22.6667 8.70527 22.6199 9.44967C22.6667 10.1941 22.4177 10.9268 21.927 11.4886C21.4364 12.0504 20.7438 12.3958 19.9999 12.4497Z" fill="#00365C"/>
</g>
<defs>
<clipPath id="clip0_1147_24298">
<rect width="36" height="36" fill="white"/>
</clipPath>
</defs>
</svg>
